<svg width="951" height="1189" viewBox="0 0 951 1189" fill="none" xmlns="http://www.w3.org/2000/svg">
<g clip-path="url(#clip0_217_51)">
<path d="M470.839 2.70461C490.409 0.395269 509.72 12.5349 516.198 31.1553C522.624 48.6626 516.551 69.1971 501.59 80.3173C486.744 91.8224 465.035 91.9992 449.981 80.775C435.031 70.0605 428.594 49.9421 434.345 32.466C439.381 16.415 454.123 4.36901 470.839 2.70461Z" fill="#0075FF"/>
<path d="M324.96 5.46126C335.602 5.31563 346.108 6.12702 356.366 9.08131C367.921 12.1188 379.186 18.1106 386.245 28.0346C393.077 37.4696 399.078 48.673 400.583 60.3654C402.13 70.6534 399.493 81.0351 393.959 89.7419C387.782 99.9259 379.352 106.594 371.025 114.822C369.115 116.809 367.267 118.713 367.101 121.646C365.492 139.611 377.514 157.306 394.032 163.849C409.045 170.059 425.542 168.114 440.627 163.256C440.959 186.058 441.831 208.86 441.997 231.673C435.695 234.565 429.352 237.197 422.521 238.591C411.308 240.765 400.023 241.618 388.81 238.934C369.717 234.502 352.327 222.602 340.367 207.165C335.446 200.507 330.182 191.623 330.618 183.083C330.743 178.496 333.131 175.198 336.816 172.712C337.626 170.496 339.017 167.24 337.688 165.024C336.609 163.079 334.107 163.516 332.248 163.568C327.732 164.067 323.288 164.307 318.731 164.213C297.551 164.629 276.226 154.664 263.197 137.874C249.773 121.293 243.855 99.1665 246.201 78.0288C246.586 75.605 246.129 73.6701 245.36 71.392C243.066 70.9447 241.353 69.7068 239.079 71.0383C236.868 72.453 235.425 75.2825 233.909 77.3942C224.877 91.3335 213.062 102.048 200.011 112.107C184.511 123.81 167.972 134.171 151.787 144.885C132.04 157.451 111.681 169.227 90.5634 179.317C79.5065 184.363 67.3179 189.969 55.1916 191.447C43.4598 193.038 30.2849 194.484 18.6466 191.811C11.8463 190.302 5.48212 187.109 2.06641 180.743C17.4838 172.036 34.8634 165.929 50.6235 157.878C57.0811 154.757 63.3 151.22 69.5812 147.767C91.3524 135.221 112.615 121.802 133.338 107.582C160.508 88.8265 186.888 68.8434 214.11 50.1398C231.874 37.9585 249.586 26.4118 268.824 16.6439C273.973 14.0121 279.414 12.2333 284.968 10.7041C298.029 7.28169 311.463 5.41965 324.96 5.46126Z" fill="#0075FF"/>
<path d="M627.079 5.47168C640.772 5.51329 654.477 7.52096 667.672 11.1722C673.621 12.8158 679.383 15.0107 684.803 17.9858C703.449 27.6809 720.85 39.134 738.157 50.9928C776.321 77.363 812.004 105.377 851.581 129.802C872.947 143.169 894.085 155.777 917.268 165.784C927.931 170.465 938.78 175.032 948.944 180.732C945.58 186.942 939.486 190.146 932.842 191.717C921.805 194.328 909.399 193.236 898.238 191.769C892.04 191.083 885.946 189.751 880.09 187.567C864.247 181.793 849.068 173.929 834.316 165.805C810.862 152.989 788.811 138.228 766.655 123.331C749.712 111.785 732.083 98.428 719.998 81.6592C717.507 78.3304 715.513 74.3463 712.554 71.4336C710.073 69.6028 708.225 70.8095 705.619 71.4128C704.934 73.6597 704.415 75.6466 704.809 78.0288C706.429 92.9355 704.051 108.227 697.729 121.833C690.129 138.415 676.819 152.094 659.824 158.949C647.033 164.359 633.463 165.056 619.801 163.651C617.797 163.599 614.464 162.85 613.312 165.024C611.983 167.271 613.374 170.475 614.184 172.712C619.188 176.103 620.891 180.16 620.299 186.214C619.012 196.554 611.858 206.468 604.892 213.885C590.772 228.708 570.932 239.631 550.241 240.577C535.83 240.921 521.908 238.143 509.003 231.631C509.159 208.829 510.052 186.048 510.353 163.246C524.991 167.937 540.834 169.934 555.556 164.421C566.738 160.302 575.936 151.605 580.65 140.641C583.495 134.233 584.948 126.515 583.494 119.607C581.48 115.301 576.829 112.138 573.6 108.706C563.935 99.8427 554.798 89.8564 551.362 76.8117C548.06 64.5472 551.082 52.0643 556.74 41.0064C561.952 31.2906 567.475 22.4173 577.099 16.5399C591.468 7.55217 610.436 5.04518 627.079 5.47168Z" fill="#0075FF"/>
<path d="M494.188 19.6398C500.915 22.1988 505.691 28.4611 507.331 35.3787C510.145 47.1855 505.473 60.8543 496.098 68.5313C490.782 72.8068 482.612 75.7507 475.967 73.2333C475.967 71.2152 475.583 69.8733 477.535 68.6146C483.463 64.2351 488.758 59.7829 491.81 52.8549C494.977 45.5523 493.492 37.1576 489.796 30.3544C488.903 28.3987 487.045 26.0477 487.325 23.8528C487.595 20.5969 491.167 18.4436 494.188 19.6398Z" fill="white"/>
<path d="M447.718 101.237C466.229 101.008 484.834 101.185 503.355 101.153C502.359 153.124 500.635 206.613 499.628 259.021C498.185 310.232 497.137 362.369 495.756 413.851C488.997 415.599 482.321 417.908 475.5 419.364C468.679 417.908 462.004 415.588 455.245 413.83C454.445 382.384 453.636 350.802 452.93 319.355C453.002 310.68 452.172 302.046 452.307 293.359C451.331 260.425 450.749 227.502 449.867 194.557C450.043 186.204 449.067 177.913 449.244 169.56C448.746 146.903 447.925 123.904 447.718 101.237Z" fill="#0075FF"/>
<path d="M230.94 105.044C232.32 110.141 233.369 115.228 235.342 120.148C237.314 125.485 239.868 130.54 242.266 135.69C239.297 143.169 233.234 145.978 227.565 151.116C199.565 173.513 169.104 194.567 136.545 209.703C120.91 216.09 104.216 216.777 87.7081 213.958C85.2476 213.365 82.5586 212.075 81.0117 210.005C79.7139 208.288 80.9078 207.217 81.4996 205.532C116.29 191.384 147.571 171.328 176.932 148.037C192.775 135.742 208.047 122.312 223.132 109.09C225.375 107 228.084 106.022 230.94 105.044Z" fill="#0075FF"/>
<path d="M720.071 105.044C722.926 106.032 725.625 106.989 727.868 109.101C748.03 126.847 768.846 144.865 790.658 160.593C814.973 178.652 841.5 194.068 869.531 205.552C870.102 207.217 871.286 208.33 869.988 210.015C866.552 214.353 860.53 214.478 855.495 214.967C841.707 216.548 827.338 214.967 814.454 209.703C778.802 193.09 745.631 169.518 715.368 144.511C712.263 142.097 710.291 139.258 708.733 135.669C713.125 126.723 717.216 117.777 719.292 107.957C719.552 106.979 719.811 106.011 720.071 105.044Z" fill="#0075FF"/>
<path d="M249.326 149.036C253.936 154.268 258.12 159.209 264.277 162.725C266.602 164.099 269.488 165.17 271.409 167.095C273.174 169.758 270.049 171.609 268.419 173.242C251.413 187.525 234.335 202.921 215.886 215.237C200.956 225.036 185.3 232.547 167.173 233.431C159.77 233.816 152.617 232.516 145.464 230.758C145.962 229.104 145.443 227.554 147.239 226.711C152.223 223.642 157.341 220.802 162.376 217.817C192.36 200.403 219.332 178.277 242.973 152.937C244.966 150.721 246.388 149.795 249.326 149.036Z" fill="#0075FF"/>
<path d="M701.674 149.15C705.91 149.67 707.737 152.843 710.54 155.61C719.448 164.993 729.031 173.991 738.811 182.438C756.034 197.282 774.816 210.046 794.552 221.281C797.978 223.413 801.757 225.151 804.934 227.637C805.163 228.667 805.36 229.707 805.526 230.758C799.681 232.12 794.043 233.369 788.001 233.452C773.487 233.774 759.544 229.187 746.888 222.321C730.941 213.635 716.167 201.599 702.286 189.928C695.278 184.134 688.385 178.194 681.491 172.265C679.965 170.767 678.179 169.445 679.56 167.115C682.28 164.536 686.256 163.391 689.278 161.113C694.157 157.805 697.687 153.395 701.674 149.15Z" fill="#0075FF"/>
<path d="M663.032 174.678C665.025 174.147 666.832 173.294 668.711 174.657C670.694 176.478 672.158 178.891 673.881 180.951C679.207 187.379 684.834 193.506 690.586 199.55C701.871 211.648 714.433 222.061 726.913 232.848C728.698 234.658 731.834 236.729 732.394 239.277C731.294 241.514 729.062 241.878 726.913 242.596C718.638 244.895 709.357 242.96 701.591 239.683C689.039 233.951 677.38 225.962 666.759 217.162C657.643 209.391 649.068 200.684 642.081 190.916C639.859 187.379 638.27 183.052 637.845 178.881C646.233 178.34 655.006 177.341 663.032 174.678Z" fill="#0075FF"/>
<path d="M287.595 174.574C295.983 177.372 304.424 178.277 313.207 178.901C312.501 184.082 310.508 189.293 307.144 193.34C293.751 210.754 276.278 225.14 257.154 235.824C247.821 241.108 236.66 245.144 225.831 243.012C223.444 242.377 219.737 241.795 218.605 239.277C218.813 237.519 220.755 236.063 221.917 234.825C230.254 227.221 239.131 220.209 247.364 212.47C259.687 200.903 271.284 188.409 281.76 175.146C283.514 173.294 285.456 173.939 287.595 174.574Z" fill="#0075FF"/>
<path d="M388.29 285.381C400.957 284.673 415.211 285.017 426.6 291.31C429.642 293.162 434.065 295.783 434.221 299.788C434.138 303.107 431.937 306.508 429.86 308.963C423.787 315.933 415.637 321.176 407.196 324.785C399.243 328.281 390.481 328.447 382.082 326.668C374.679 324.973 367.173 321.051 362.636 314.799C361.723 313.821 360.684 312.011 359.2 312.094C357.071 311.865 355.514 313.447 355.037 315.402C352.96 329.82 354.372 345.122 360.674 358.385C366.54 370.858 376.476 380.844 387.74 388.542C402.389 398.268 418.18 404.593 434.781 410.106C455.836 417.086 477.649 422.017 498.6 429.257C510.114 433.522 521.347 438.765 532.093 444.715C552.141 455.711 571.856 470.638 584.834 489.727C594.884 504.28 601.071 522.12 600.978 539.898C601.549 560.11 594.718 580.623 584.107 597.662C576.144 610.52 565.596 620.454 553.947 629.91C545.444 636.547 536.754 642.882 527.701 648.738C511.63 638.502 494.551 629.587 477.898 620.288C489.578 613.703 501.569 606.796 511.9 598.224C522.842 588.997 532.446 576.525 536.36 562.585C540.16 550.113 538.924 536.423 533.224 524.72C527.016 511.832 516.343 501.897 504.445 494.283C489.661 484.702 471.534 479.189 455.141 472.115C439.568 465.791 424.223 458.966 409.2 451.425C388.612 440.825 368.824 429.049 351.932 413.008C341.664 403.147 332.725 391.673 327.285 378.42C322.634 366.863 320.205 353.382 322.759 341.065C325.884 324.421 335.798 309.109 349.347 299.05C360.56 290.561 374.285 285.974 388.29 285.381Z" fill="#0075FF"/>
<path d="M548.185 285.298C562.44 284.673 576.165 285.578 589.277 291.664C607.882 300.152 622.251 317.181 627.359 337.029C629.415 344.883 629.903 352.976 628.501 360.996C625.656 380.979 614.34 398.154 600.127 411.989C586.111 425.627 569.281 436.716 552.109 445.922C549.888 447.108 547.645 448.689 545.205 449.344C542.433 448.096 539.921 446.213 537.263 444.725C526.227 438.359 514.661 432.888 502.836 428.186C495.465 425.221 487.824 423.213 480.286 420.779C506.439 413.237 534.595 405.987 558.11 391.808C570.59 384.422 582.041 374.082 588.945 361.173C596.441 347.192 598.279 330.704 595.932 315.142C595.257 312.75 592.465 310.96 590.253 312.698C588.135 314.789 586.671 317.306 584.304 319.21C576.528 325.701 566.458 328.187 556.48 327.708C546.763 327.438 537.004 322.06 529.3 316.463C524.493 312.76 518.793 307.777 517.07 301.754C515.98 298.446 518.17 295.762 520.621 293.828C528.148 287.961 538.852 285.776 548.185 285.298Z" fill="#0075FF"/>
<path d="M405.919 452.694C411.307 454.972 416.467 457.885 421.783 460.35C438.394 468.006 455.275 475.09 472.344 481.675C453.479 488.707 433.992 499.879 422.385 516.835C413.55 529.485 410.196 545.4 414.079 560.442C417.298 573.414 424.731 584.462 434.169 593.73C443.98 603.321 456.667 610.822 468.481 617.666C485.259 627.653 502.815 636.401 519.52 646.596C537.014 656.936 555.058 669.585 567.849 685.563C577.39 697.432 584.169 711.975 585.602 727.246C587.793 747.967 581.927 769.552 572.905 788.1C562.481 809.404 546.69 826.412 528.293 841.08C513.633 827.224 494.987 816.176 477.815 805.587C486.671 800.021 495.745 794.383 503.853 787.767C511.931 780.485 518.077 770.946 521.7 760.69C524.379 752.482 525.614 744.004 523.683 735.464C521.441 723.678 514.682 713.941 505.95 705.983C484.408 685.854 456.625 670.344 431.926 654.293C414.92 643.496 397.779 631.793 383.255 617.749C367.194 602.364 356.324 581.861 351.807 560.13C349.804 550.456 349.648 540.345 350.551 530.525C352.835 511.208 361.65 493.627 374.409 479.116C383.556 468.953 394.208 459.747 405.919 452.694Z" fill="#0075FF"/>
<path d="M475.521 482.934C481.698 485.399 487.855 487.896 493.794 490.892C493.16 526.01 492.184 561.951 491.26 597.101C491.219 601.501 491.458 605.849 490.741 610.228C485.571 612.985 480.587 616.064 475.49 618.956C470.423 615.971 465.347 612.985 460.207 610.124C459.927 607.513 459.678 604.923 459.74 602.302C459.875 591.525 459.003 580.821 459.117 570.044C459.138 566.216 458.702 562.429 458.619 558.612C458.391 536.049 457.456 513.486 457.207 490.923C463.166 487.906 469.323 485.389 475.521 482.934Z" fill="#0075FF"/>
<path d="M423.319 651.693C439.889 662.542 456.801 672.862 473.413 683.659C461.588 691.877 450.375 700.22 440.367 710.664C433.681 717.935 428.77 726.653 427.129 736.483C425.323 745.315 427.067 754.968 430.286 763.28C434.958 774.91 443.024 785.915 453.697 792.656C479.144 811.027 508.961 824.571 531.085 847.228C543.575 859.69 552.971 874.929 555.93 892.541C560.02 915.364 552.306 939.768 535.529 955.798C525.988 965.368 515.709 974.148 504.507 981.71C495.277 973.014 486.089 964.297 477.223 955.226C482.435 949.452 487.834 943.929 492.609 937.77C497.79 931.248 502.337 924.528 504.05 916.217C506.501 906.397 502.607 896.015 495.817 888.827C487.844 879.933 478.022 875.647 467.796 869.946C455.036 862.946 442.516 855.404 430.628 846.978C409.501 831.707 390.813 813.17 378.925 789.681C369.519 771.019 363.352 749.049 365.325 728.026C366.768 711.819 373.807 696.881 384.106 684.45C395.028 671.364 408.847 660.576 423.319 651.693Z" fill="#0075FF"/>
<path d="M475.51 685.261C480.068 688.236 484.491 691.451 488.82 694.748C488.166 728.879 487.242 763.124 486.391 797.265C482.778 799.595 479.175 801.914 475.51 804.172C471.856 801.904 468.222 799.605 464.609 797.265C463.758 763.124 462.834 728.9 462.18 694.759C466.519 691.461 470.942 688.247 475.51 685.261Z" fill="#0075FF"/>
<path d="M422.811 844.377C438.613 856.267 455.598 866.233 472.946 875.657C462.647 880.89 451.58 889.67 447.791 901.008C444.375 910.62 447.001 920.232 451.995 928.71C457.612 937.947 465.741 946.405 472.988 954.352C485.187 967.116 498.081 979.12 511.017 991.135C517.631 997.46 524.307 1003.48 529.134 1011.33C535.696 1021.76 538.976 1034.17 538.177 1046.49C537.139 1062.75 529.768 1077.55 518.96 1089.51C521.14 1074.85 525.635 1060.35 522.002 1045.45C518.389 1031.45 508.048 1021.05 496.95 1012.5C482.965 1001.78 467.953 995.213 453.054 985.882C438.031 976.696 424.566 965.337 412.419 952.604C396.991 935.867 390.699 911.588 395.704 889.399C399.503 871.559 409.771 856.756 422.811 844.377Z" fill="#0075FF"/>
<path d="M475.489 877.01C478.625 878.331 481.449 880.422 484.407 882.097C483.753 903.12 483.182 924.164 482.975 945.198C480.566 948.027 478.054 950.753 475.5 953.447C473.288 950.971 470.848 948.662 468.793 946.051C467.765 944.875 468.118 942.92 467.983 941.411C467.734 921.636 467.215 901.861 466.592 882.097C469.54 880.411 472.375 878.372 475.489 877.01Z" fill="#0075FF"/>
<path d="M446.669 984.904C455.255 990.303 463.986 995.39 472.977 1000.08C459.512 1008 444.987 1017.69 435.913 1030.69C429.3 1040.01 426.704 1051.29 427.867 1062.62C428.459 1071.73 430.774 1080.45 432.061 1089.47C423.403 1079.94 416.966 1068.64 414.215 1055.99C410.892 1041.87 413.187 1026.69 420.278 1014.07C426.507 1002.61 437.284 993.912 446.669 984.904Z" fill="#0075FF"/>
<path d="M475.5 1001.67C477.493 1002.64 479.393 1003.73 481.335 1004.81C480.494 1034.71 480.037 1064.45 479.144 1094.34C478.76 1102.91 479.072 1111.48 478.407 1120.05C478.22 1142.21 477.172 1164.37 477.037 1186.52C476.019 1186.52 474.991 1186.52 473.964 1186.52C473.891 1168.62 473.081 1150.72 472.801 1132.83C471.7 1089.91 470.693 1047.71 469.676 1004.82C471.607 1003.75 473.528 1002.64 475.5 1001.67Z" fill="#0075FF"/>
</g>
<defs>
<clipPath id="clip0_217_51">
<rect width="951" height="1189" fill="white"/>
</clipPath>
</defs>
</svg>
