<svg width="448" height="444" viewBox="0 0 448 444" fill="none" xmlns="http://www.w3.org/2000/svg">
<path d="M129.425 63.3474C126.651 66.4955 125.781 70.4141 123.701 73.8814C119.958 75.8517 116.084 76.9635 112.826 79.8364C107.52 84.2724 104.812 90.4365 103.579 97.118C100.189 98.3068 96.4796 99.3745 93.3646 101.18L93.9039 104.482C104.856 100.376 115.908 97.4482 127.708 97.6903C133.244 97.9765 138.924 100.761 144.241 102.39C141.368 104.493 138.605 107.3 135.314 108.72C132.022 108.456 128.764 107.179 125.539 106.419C115.225 103.898 104.449 103.029 94.2672 106.628C96.3916 107.256 98.516 107.916 100.729 108.18C111.725 106.683 122.798 106.837 132.782 112.231C127.785 111.89 122.974 110.635 118.054 109.82L115.357 110.327C117.295 111.295 119.221 112.253 121.224 113.079C125.638 113.959 129.964 115.17 134.257 116.502C135.237 113.838 136.436 112.286 138.66 110.514C143.261 107.212 148.412 106.386 153.905 105.693C154.411 104.834 154.929 103.965 155.446 103.106C153.245 103.062 151.054 102.996 148.864 102.93C152.705 101.389 157.13 100.134 160.443 97.6683C163.151 95.7861 165.342 93.4965 168.677 92.7701C174.357 91.4602 180.51 91.9115 186.102 93.4745C191 94.8725 194.863 97.4812 199.134 100.112C200.4 99.2864 201.666 98.4719 202.965 97.7014C207.313 97.129 211.617 96.4575 215.932 95.687C221.622 104.779 224.286 115.819 226.179 126.265C227.016 126.298 227.853 126.343 228.7 126.376C228.502 122.358 228.326 118.329 228.238 114.3C233.136 116.975 237.594 119.991 240.676 124.768C247.413 134.972 252.696 147.939 254.975 159.937C256.846 169.579 256.009 179.53 250.715 187.973C246.07 195.535 238.97 200.378 230.957 203.823C228.81 204.638 226.587 205.32 224.396 205.992C226.278 198.815 228.843 191.847 230.814 184.704C232.828 173.773 236.328 163.206 236.317 151.902C236.262 147.554 237.11 143.426 238.078 139.232C239.157 135.688 236.746 131.945 233.345 130.889C230.362 129.854 226.807 131.098 225.277 133.883C223.637 136.799 224.33 139.871 224.704 143.008C226.378 152.111 224.726 161.027 222.855 169.954C220.18 182.271 216.625 194.467 211.815 206.135C210.945 207.72 210.472 210.164 208.358 210.428C204.66 211.22 200.796 211.297 197.054 211.87C186.003 213.741 174.192 213.014 162.909 213.125C154.026 213.301 145.473 211.738 136.8 210.009C127.608 208.094 118.88 204.66 111.516 198.727C109.777 198.749 108.037 198.738 106.309 198.705C110.305 201.853 113.772 205.166 118.428 207.423C121.103 209.019 123.932 209.195 125.121 212.431C127.102 217.572 129.59 222.25 130.845 227.654C123.128 232.872 115.665 238.948 108.797 245.244C109.182 246.422 109.567 247.6 109.953 248.777C115.632 243.868 121.345 239.003 127.388 234.534C128.236 233.884 129.072 233.213 129.909 232.542C126.706 238.144 124.614 243.945 122.237 249.933C120.167 255.382 118.439 260.588 119.287 266.532C123.349 271.618 128.929 275.03 132.364 280.776C125.957 284.761 118.571 289.659 114.653 296.274C112.616 299.554 112.98 302.669 113.64 306.313C110.987 307.909 108.302 309.34 105.297 310.143C106.683 310.353 108.059 310.584 109.446 310.804C110.272 318.685 110.206 326.566 110.514 334.481C108.929 334.536 107.333 334.591 105.737 334.602C108.357 335.383 111.097 335.89 113.783 336.319C114.752 335.449 115.721 334.591 116.7 333.743C117.548 333.006 118.406 332.279 119.276 331.564C118.45 320.292 116.403 309.384 117.052 298.024C120.52 294.26 123.954 290.682 128.148 287.71C130.724 285.916 133.354 284.21 135.765 282.185C136.304 282.746 136.844 283.308 137.383 283.869C136.734 312.51 137.317 341.228 136.227 369.847C136.205 394.427 136.139 419.017 135.996 443.597H136.866C136.701 432.226 136.723 420.823 136.789 409.463C136.723 406.084 138.44 403.728 140.08 400.987C140.19 395.506 140.179 390.035 140.311 384.553C145.033 383.629 148.732 383.695 153.432 384.663C153.597 390.343 153.652 396.001 153.575 401.681C154.742 401.692 155.897 401.769 157.064 401.846C157.009 396.122 156.987 390.409 156.976 384.685C165.749 384.641 174.544 384.278 183.317 384.542C183.493 388.802 183.251 393.128 183.295 397.377C183.801 398.962 184.406 400.514 185.067 402.033L187.72 401.692C186.366 395.252 186.41 390.255 187.753 383.838C197.285 383.012 206.861 382.616 216.361 381.493C219.729 386.083 218.188 393.557 218.353 398.995C219.322 399.182 220.301 399.38 221.27 399.6C222.03 404.201 223.075 408.736 224.253 413.249C223.351 404.234 221.479 395.462 221.644 386.347C220.048 370.409 220.874 354.085 220.786 338.036C220.643 331.355 221.611 324.772 221.556 318.113C221.622 309.307 221.776 300.501 221.898 291.695C223.262 270.682 224.87 249.823 227.676 228.942C228.568 220.951 231.012 213.499 233.51 205.904C235.866 207.346 237.374 209.36 238.695 211.749C239.256 210.373 239.807 209.008 240.368 207.632C239.63 206.586 238.86 205.574 238.1 204.55C242.14 201.743 246.136 199.244 249.57 195.645C254.688 190.493 257.749 183.317 258.552 176.151C260.588 163.239 256.967 149.447 251.728 137.669C248.491 130.547 244.518 123.183 239.256 117.338C235.778 113.585 231.331 111.725 226.543 110.228C223.406 102.005 219.938 94.146 214.17 87.3874C208.083 79.8694 200.092 74.1896 190.571 72.0542C183.823 71.4598 176.602 71.2507 170.064 73.21C168.138 69.2583 166.453 65.4608 163.426 62.1806C154.411 53.1105 137.702 53.4077 129.425 63.3474Z" fill="#060606"/>
<path d="M153.597 60.0453C145.936 57.2274 137.174 59.7591 131.968 65.9783C125.55 73.4743 125.617 84.8999 132.408 92.1538C138.957 99.6608 150.669 100.74 158.65 94.8946C166.795 89.2588 169.217 77.591 164.296 69.0823C161.864 65.0536 158.044 61.6524 153.597 60.0453Z" fill="#C4D0CB"/>
<path d="M184.923 75.0371C180.509 74.9271 175.402 74.894 171.307 76.7102C169.601 79.6382 169.964 83.9531 169.612 87.2663C176.943 87.4865 184.208 86.6609 191.527 86.5949C196.547 86.7049 201.192 85.5932 205.914 83.9971C199.86 79.9024 192.441 75.1472 184.923 75.0371Z" fill="#618847"/>
<path d="M147.741 75.2351C146.695 75.6424 145.727 76.1597 144.835 76.7872C144.439 77.6127 144.021 78.4162 143.602 79.2308C144.186 80.3095 144.758 81.3992 145.32 82.5C148.314 81.2011 150.284 81.069 150.339 77.2164C149.48 76.556 148.611 75.8955 147.741 75.2351Z" fill="#0E100F"/>
<path d="M123.559 78.2512C118.716 78.9887 115.843 82.1148 112.342 85.1859C116.316 86.2426 120.268 86.6278 124.362 86.7269C124.175 83.909 124.021 81.0251 123.559 78.2512Z" fill="#667F58"/>
<path d="M209.581 87.4316C202.481 89.0497 195.293 89.2258 188.094 90.1174C189.58 90.943 191.044 91.7575 192.563 92.517C192.497 91.7575 192.431 91.009 192.376 90.2495C196.548 90.1945 200.72 90.0074 204.892 89.7212C205.585 91.0971 206.245 92.473 206.906 93.8599C209.195 93.5297 211.463 93.0454 213.73 92.5941C212.355 90.888 211.144 88.9617 209.581 87.4316Z" fill="#B9AD9A"/>
<path d="M124.152 90.0072C119.518 89.633 114.895 89.5229 110.316 88.6423C109.512 90.3705 108.742 92.0986 107.982 93.8488C115.225 94.2891 122.38 94.5533 129.634 94.091C128.115 92.693 126.365 90.0843 124.152 90.0072Z" fill="#EBE2C0"/>
<path d="M204.892 89.7212C200.72 90.0074 196.548 90.1945 192.377 90.2495C192.432 91.009 192.498 91.7576 192.564 92.5171C197.242 94.9717 201.865 94.4323 206.906 93.86C206.246 92.473 205.585 91.0971 204.892 89.7212Z" fill="#EADEBB"/>
<path d="M168.677 92.77C165.342 93.4965 163.152 95.786 160.444 97.6683C157.131 100.134 152.706 101.389 148.864 102.93C151.055 102.996 153.245 103.062 155.446 103.106C162.271 103.194 169.613 103.579 176.184 105.583C180.807 107.014 184.297 109.743 188.414 112.11C191.617 113.948 194.963 114.719 198.496 115.643C198.584 116.612 198.683 117.592 198.771 118.56C200.907 119.276 203.064 119.903 205.013 121.048C205.453 123.216 205.596 125.165 203.78 126.75C200.742 127.663 197.429 127.597 194.38 128.467C192.002 129.336 189.845 130.944 187.665 132.209C188.931 132.705 190.175 133.233 191.408 133.772C191.771 134.598 192.123 135.413 192.464 136.238C187.379 138.968 182.172 141.312 176.493 142.501C167.533 144.648 159.288 143.646 150.218 143.811C156.382 148.071 163.284 150.361 170.35 152.595C170.207 153.729 170.075 154.863 169.921 155.985C162.04 153.619 154.467 150.779 147.334 146.618C146.839 145.363 146.332 144.108 145.837 142.854C140.719 141.522 136.745 139.804 133.047 135.919C125.771 137.218 118.594 138.385 111.175 138.076C104.625 138.219 98.3623 136.91 91.934 135.941L90.5691 136.667C92.8036 139.551 94.7189 142.336 97.9771 144.185C103.47 147.312 110.371 149.172 116.679 149.117C122.094 149.106 126.717 147.323 131.704 145.484C131.781 146.552 131.858 147.62 131.946 148.687C127.939 150.504 123.965 152.386 119.992 154.29C114.697 152.21 108.632 150.834 102.941 151.373C96.2709 155.325 92.2752 163.162 91.3616 170.768C102.193 175.854 113.497 178.286 125.484 178.066C138.462 177.758 151.473 176.085 164.065 172.959C170.35 171.418 177.263 169.91 182.536 166.013C185.265 164.142 187.962 161.478 191.077 160.322C196.625 159.133 202.855 159.629 205.706 165.265C208.139 171.616 204.242 179.739 198.937 183.537C193.95 187.004 188.061 189.338 182.216 190.901C159.178 196.415 135.171 198.771 111.516 198.727C118.88 204.66 127.609 208.094 136.8 210.009C145.474 211.738 154.027 213.301 162.909 213.125C174.192 213.014 186.003 213.741 197.054 211.87C200.797 211.297 204.66 211.22 208.359 210.428C210.472 210.164 210.946 207.72 211.815 206.135C216.625 194.467 220.181 182.271 222.856 169.954C224.727 161.027 226.378 152.111 224.705 143.008C223.692 135.996 222.294 129.436 219.818 122.776C217.528 114.003 215.084 105.88 209.658 98.4498C207.72 97.5252 205.09 97.8224 202.965 97.7013C201.666 98.4718 200.401 99.2864 199.135 100.112C194.864 97.4812 191 94.8724 186.102 93.4745C180.51 91.9114 174.357 91.4601 168.677 92.77Z" fill="#5A8B40"/>
<path d="M215.932 95.687C211.617 96.4575 207.313 97.129 202.965 97.7014C205.09 97.8224 207.721 97.5252 209.658 98.4499C215.085 105.88 217.528 114.003 219.818 122.776C222.294 129.436 223.692 135.996 224.705 143.008C224.331 139.871 223.637 136.8 225.277 133.883C226.807 131.098 230.363 129.854 233.346 130.889C236.747 131.945 239.158 135.688 238.079 139.232C237.11 143.426 236.263 147.554 236.318 151.902C236.329 163.206 232.828 173.773 230.814 184.704L230.605 186.828C232.201 185.32 233.775 183.79 235.349 182.271C234.865 189.723 232.003 196.47 230.957 203.823C238.971 200.378 246.07 195.535 250.715 187.973C256.01 179.53 256.846 169.579 254.975 159.937C252.697 147.939 247.413 134.972 240.677 124.768C237.595 119.991 233.137 116.975 228.238 114.3C228.326 118.329 228.503 122.358 228.701 126.376C227.853 126.343 227.017 126.298 226.18 126.265C224.287 115.819 221.623 104.779 215.932 95.687Z" fill="#4A7134"/>
<path d="M362.638 97.393C359.842 97.2499 356.804 97.0298 354.075 97.7343C350.849 99.3523 348.087 102.974 348.252 106.716C347.954 114.432 348.978 122.193 348.494 129.887C348.186 134.906 346.314 139.375 343.871 143.701C338.279 141.544 333.876 140.762 328.031 142.644C327.173 143.745 326.303 144.846 325.433 145.936C325.037 147.631 324.619 149.315 324.19 150.988C325.202 153.277 325.863 155.897 327.943 157.482C330.442 159.331 334.063 160.08 336.386 162.182C338.895 164.615 339.952 167.675 340.723 170.988C341.306 173.344 341.834 175.699 342.363 178.066C357.091 188.545 376.21 192.695 393.987 189.723L393.69 186.553C392.182 186.685 390.674 186.817 389.155 186.938C389.738 185.43 390.333 183.911 390.949 182.414C391.456 181.368 391.984 180.334 392.534 179.31C395.429 175.567 399.414 172.804 402.144 168.985C404.995 164.901 404.576 159.849 406.932 155.666C408.66 152.969 412.37 151.483 415.022 149.799C420.306 146.662 425.71 141.544 427.285 135.412C427.593 131.912 424.896 127.663 421.792 126.056C417.356 124.889 413.789 126.607 409.926 128.5C406.756 130.03 403.244 132.044 399.722 132.462C398.17 132.473 397.62 131.648 398.082 130.151C399.876 123.998 406.194 116.964 405.699 110.029C405.688 106.111 402.309 103.986 399.7 101.653C393.745 101.345 390.135 103.59 386.271 107.795C381.109 112.836 380.085 119.485 375.759 125.011C375.11 125.099 374.449 125.187 373.8 125.264C371.95 121.059 370.696 116.81 369.826 112.297C368.78 106.507 367.338 101.312 362.638 97.393Z" fill="black"/>
<path d="M127.708 97.6903C115.908 97.4481 104.857 100.376 93.9045 104.482C94.0256 105.197 94.1467 105.913 94.2678 106.628C104.45 103.029 115.226 103.898 125.54 106.419C128.765 107.179 132.023 108.455 135.314 108.72C138.605 107.3 141.368 104.493 144.241 102.39C138.925 100.761 133.245 97.9764 127.708 97.6903Z" fill="#62884B"/>
<path d="M351.718 105.858C350.991 110.756 351.795 116.128 352.147 121.059C352.653 127.014 351.883 133.09 350.21 138.803C349.186 142.006 347.777 145.286 344.64 146.904C340.545 146.805 336.396 144.516 332.345 144.846C327.414 145.738 326.764 153.586 331.2 155.292C335.735 157.736 339.962 159.012 342.075 164.219C344.343 168.094 342.681 174.962 346.908 177.021C358.553 184.395 372.28 187.885 386.039 187.466C386.875 184.175 387.514 180.906 389.374 178.011C391.906 174.015 396.078 171.33 398.675 167.543C401.295 163.25 401.614 157.515 404.19 153.135C405.5 150.9 408.065 149.557 410.222 148.247C414.735 145.694 419.336 142.645 422.33 138.297C423.596 136.601 423.277 133.861 423.464 131.824C422.495 130.9 421.538 129.964 420.591 129.028C413.337 129.37 408.494 133.949 401.801 135.721C398.18 136.612 394.548 134.895 394.537 130.845C394.724 124.064 401.989 118.164 402.286 111.152C402.594 107.861 399.6 104.68 396.243 105.286C392.797 105.99 389.781 108.775 387.668 111.472C384.498 115.478 383.265 120.09 380.667 124.306C378.983 127.234 375.725 128.302 372.896 129.843C368.68 125.077 367.646 119.419 366.523 113.376C365.741 109.743 365.114 104.867 362.329 102.181C359.06 98.6701 352.202 101.114 351.718 105.858Z" fill="#5A8B40"/>
<path d="M93.3646 101.18C89.8312 103.326 87.916 106.419 84.977 109.259C82.5003 111.659 80.8052 114.807 78.6698 117.603C78.2075 120.597 77.514 123.679 77.547 126.717C79.9797 131.505 81.8179 136.569 87.1234 138.66C87.8279 139.519 88.5324 140.377 89.2258 141.247C89.6771 139.717 90.1064 138.198 90.5687 136.668L91.9336 135.941C93.4306 135.072 94.9276 134.191 96.4026 133.299C90.7008 131.979 85.3402 130.867 80.8712 126.783C80.9153 125.88 80.9703 124.978 81.0253 124.075C85.4503 120.52 90.6017 118.572 95.9953 116.975C97.4263 116.546 98.8572 116.128 100.288 115.721C98.7802 119.012 96.986 121.731 97.2612 125.506C97.1181 129.139 99.2976 131.098 101.246 133.806L98.494 133.773C105.66 136.415 112.495 135.71 119.98 135.6C125.253 135.468 130.415 134.587 135.644 134.026C139.871 133.927 143.305 136.238 147.62 137.284C160.245 140.267 173.608 139.827 185.177 133.509C185.232 132.254 185.276 130.999 185.331 129.744C182.139 131.615 178.738 132.936 175.292 134.235C176.162 131.472 177.461 128.5 177.582 125.572C177.505 122.776 175.865 119.859 174.687 117.372C180.477 119.331 185.287 122.677 189.811 126.706C188.997 127.322 188.171 127.939 187.345 128.555C188.953 128.335 190.571 128.148 192.189 127.961C191.925 126.552 191.671 125.143 191.418 123.723C190.78 123.261 190.152 122.787 189.525 122.303C190.053 122.083 190.593 121.852 191.121 121.632C193.025 120.784 194.908 119.892 196.801 119.023C188.6 119.584 183.636 115.038 176.844 111.582C170.471 108.28 163.382 107.355 156.283 107.916C150.273 108.236 144.703 110.437 138.66 110.514C136.436 112.286 135.237 113.838 134.257 116.502C133.806 117.713 133.354 118.935 132.925 120.157C128.258 117.735 123.547 115.445 118.737 113.31C119.562 113.222 120.399 113.145 121.224 113.079C119.221 112.253 117.295 111.296 115.357 110.327L118.054 109.821C112.297 108.775 106.507 108.929 100.729 108.181C98.516 107.916 96.3916 107.256 94.2672 106.629C94.1461 105.913 94.025 105.198 93.9039 104.482L93.3646 101.18Z" fill="#151615"/>
<path d="M155.446 103.106C154.929 103.965 154.412 104.834 153.905 105.693C161.335 105.406 169.316 106.067 176.327 108.709C180.521 110.316 183.669 113.013 187.687 114.95C190.692 116.392 193.796 117.592 196.801 119.023C194.908 119.892 193.025 120.784 191.121 121.631C194.809 121.995 198.419 122.798 201.963 123.899C198.221 124.735 194.985 125.902 191.418 123.723C191.671 125.143 191.925 126.552 192.189 127.961C190.571 128.148 188.953 128.335 187.346 128.555C186.674 128.951 186.003 129.348 185.331 129.744C185.276 130.999 185.232 132.253 185.177 133.508C186.014 133.079 186.839 132.65 187.665 132.209C189.844 130.944 192.002 129.337 194.379 128.467C197.428 127.597 200.742 127.663 203.78 126.75C205.596 125.165 205.453 123.216 205.012 121.048C203.064 119.903 200.907 119.276 198.771 118.56C198.683 117.592 198.584 116.612 198.496 115.643C194.963 114.719 191.616 113.948 188.413 112.11C184.297 109.743 180.807 107.014 176.184 105.583C169.613 103.579 162.271 103.194 155.446 103.106Z" fill="black"/>
<path d="M153.905 105.693C148.412 106.386 143.261 107.212 138.66 110.514C144.703 110.437 150.273 108.235 156.283 107.916C163.382 107.355 170.471 108.279 176.844 111.582C183.636 115.038 188.6 119.584 196.801 119.022C193.796 117.592 190.692 116.392 187.687 114.95C183.669 113.012 180.521 110.316 176.327 108.709C169.315 106.067 161.335 105.406 153.905 105.693Z" fill="#4B5843"/>
<path d="M100.729 108.18C106.508 108.929 112.298 108.775 118.054 109.82C122.975 110.635 127.785 111.89 132.782 112.231C122.799 106.837 111.725 106.683 100.729 108.18Z" fill="#40463B"/>
<path d="M159.97 110.129C153.222 110.063 147.102 111.296 141.202 114.642C147.73 114.047 153.894 112.594 159.97 110.129Z" fill="#3F493D"/>
<path d="M162.91 114.135C154.49 113.519 145.816 116.072 138.199 119.474C144.539 118.296 151.418 115.214 157.803 116.227C159.487 115.489 161.204 114.829 162.91 114.135Z" fill="#80817F"/>
<path d="M121.224 113.079C120.399 113.145 119.562 113.222 118.736 113.31C123.547 115.445 128.258 117.735 132.925 120.157C133.354 118.935 133.806 117.713 134.257 116.502C129.964 115.17 125.638 113.959 121.224 113.079Z" fill="#6B7D5C"/>
<path d="M157.802 116.226C151.417 115.214 144.538 118.296 138.198 119.474C137.405 119.837 136.624 120.222 135.831 120.607C135.875 122.776 135.908 124.944 135.952 127.124C137.845 129.149 139.408 131.163 142.138 132.121C147.939 134.378 154.125 135.809 160.355 136.073C157.813 134.168 155.281 132.881 154.026 129.766C152.65 125.88 153.212 121.323 155.105 117.668L157.802 116.226Z" fill="#FBFCF9"/>
<path d="M100.288 115.72C98.8575 116.128 97.4265 116.546 95.9956 116.975C90.602 118.571 85.4505 120.52 81.0255 124.075C80.9705 124.978 80.9155 125.88 80.8715 126.783C85.3404 130.867 90.701 131.978 96.4028 133.299C97.1073 133.464 97.8008 133.618 98.4943 133.773L101.246 133.806C99.2978 131.098 97.1183 129.138 97.2614 125.506C96.9862 121.73 98.7804 119.012 100.288 115.72Z" fill="#FAFBF9"/>
<path d="M174.686 117.372C175.864 119.859 177.504 122.776 177.581 125.572C177.46 128.5 176.161 131.472 175.292 134.235C178.737 132.936 182.138 131.615 185.331 129.744C186.002 129.348 186.673 128.951 187.345 128.555C188.17 127.939 188.996 127.322 189.811 126.706C185.287 122.677 180.476 119.331 174.686 117.372Z" fill="#FBFBF9"/>
<path d="M120.233 117.757C121.642 122.919 122.259 127.058 120.409 132.221C119.661 132.771 118.901 133.321 118.153 133.883C124.053 134.169 128.753 133.574 134.301 131.527C133.398 129.182 132.716 126.288 131.087 124.317C129.303 122.457 126.816 121.125 124.581 119.881C123.139 119.155 121.686 118.45 120.233 117.757Z" fill="#FBFAFA"/>
<path d="M106.023 119.309C104.647 119.826 103.271 120.344 101.895 120.85C101.543 122.402 100.046 125.143 101.367 126.431C103.645 129.612 109.424 128.126 109.655 124.196C109.985 121.808 107.465 120.751 106.023 119.309Z" fill="#F7FAFB"/>
<path d="M116.633 119.364C115.048 120.311 113.518 121.345 111.977 122.369C114.377 123.69 115.698 124.141 118.438 123.91C117.855 122.38 117.261 120.872 116.633 119.364Z" fill="#B0B3B0"/>
<path d="M191.122 121.631C190.593 121.851 190.054 122.083 189.526 122.303C190.153 122.787 190.78 123.26 191.419 123.723C194.985 125.902 198.221 124.735 201.964 123.899C198.419 122.798 194.809 121.995 191.122 121.631Z" fill="#64745E"/>
<path d="M172.849 120.63C171.066 120.883 169.569 121.719 167.984 122.534C169.987 124.537 170.714 125.495 173.796 125.297C173.543 123.723 173.312 122.16 172.849 120.63Z" fill="#A1A39E"/>
<path d="M164.736 121.455C162.491 121.378 160.256 121.345 158.011 121.334C157.438 123.227 156.954 125.154 156.459 127.08C159.387 128.423 161.225 128.786 164.461 128.258C164.604 125.99 164.681 123.723 164.736 121.455Z" fill="#FAFCF9"/>
<path d="M170.284 130.966C168.357 129.722 166.838 132.617 169.271 133.101C170.57 132.771 170.911 132.067 170.284 130.966Z" fill="#7D7D7D"/>
<path d="M113.034 131.153L112.253 130.701L111.449 131.142V132.044L112.231 132.507L113.034 132.066V131.153Z" fill="#85867E"/>
<path d="M187.665 132.209C186.839 132.65 186.014 133.079 185.177 133.508C173.608 139.827 160.245 140.267 147.62 137.284C143.305 136.238 139.871 133.927 135.644 134.026C140.08 137.757 144.307 139.551 150.031 140.443C159.035 141.775 168.688 141.698 177.461 139.067C182.326 137.636 186.641 135.512 191.407 133.773C190.174 133.233 188.931 132.705 187.665 132.209Z" fill="#4D5E44"/>
<path d="M230.879 133.431C228.502 135.457 226.355 137.46 227.896 140.839C228.766 143.569 231.771 142.468 233.939 142.788C234.666 139.981 235.15 137.823 233.939 135.038C232.927 134.488 231.914 133.949 230.879 133.431Z" fill="#C7CFCD"/>
<path d="M191.407 133.773C186.641 135.512 182.326 137.636 177.461 139.067C168.688 141.698 159.034 141.775 150.03 140.443C144.307 139.551 140.08 137.757 135.644 134.026C130.415 134.587 125.253 135.468 119.98 135.6C112.495 135.71 105.66 136.414 98.494 133.773C97.8005 133.619 97.107 133.464 96.4026 133.299C94.9276 134.191 93.4306 135.072 91.9336 135.941C98.3619 136.91 104.625 138.22 111.174 138.077C118.593 138.385 125.77 137.218 133.046 135.919C136.745 139.805 140.718 141.522 145.837 142.854C146.332 144.109 146.838 145.363 147.334 146.618C154.466 150.779 162.039 153.619 169.921 155.986C170.075 154.863 170.207 153.729 170.35 152.595C163.283 150.361 156.382 148.071 150.218 143.811C159.288 143.646 167.532 144.648 176.492 142.501C182.172 141.313 187.378 138.968 192.464 136.238C192.123 135.413 191.77 134.598 191.407 133.773Z" fill="#040404"/>
<path d="M90.5696 136.667C90.1073 138.198 89.678 139.717 89.2267 141.247C91.7254 144.725 94.7304 146.816 98.583 148.61C98.5499 149.139 98.5169 149.656 98.4839 150.185C92.4959 155.556 89.4909 161.489 88.148 169.381L87.1794 170.416C88.5773 170.46 89.9752 170.57 91.3621 170.768C92.2757 163.162 96.2714 155.325 102.942 151.373C108.633 150.834 114.698 152.21 119.992 154.29C123.966 152.386 127.94 150.504 131.946 148.688C131.858 147.62 131.781 146.552 131.704 145.484C126.718 147.323 122.095 149.106 116.679 149.117C110.372 149.172 103.47 147.312 97.9776 144.186C94.7194 142.336 92.8041 139.551 90.5696 136.667Z" fill="black"/>
<path d="M229.547 146.475C228.072 150.691 228.81 155.699 228.149 160.179C225.65 176.558 221.027 192.64 214.83 208.006C208.622 222.437 202.249 236.901 190.944 248.161C186.244 252.443 179.408 256.747 172.793 255.899C166.233 255.129 160.256 251.86 155.478 247.402C146.034 238.684 139.441 227.401 133.926 215.921C132.891 213.565 130.976 212.354 128.885 211.044C130.844 220.412 136.282 229.217 141.598 237.066C148.17 246.015 157.24 255.767 168.137 259.102C175.578 261.887 184.054 258.222 190.163 253.918C199.233 247.181 206.553 237.946 211.319 227.709C217.714 214.28 222.447 200.004 226.652 185.76C229.679 174.247 232.662 162.117 232.563 150.152L232.497 149.26C231.759 147.939 230.78 147.014 229.547 146.475Z" fill="#9A9F9B"/>
<path d="M371.015 156.162C371.719 159.519 372.842 162.821 373.315 166.211C373.524 169.139 372.622 172.133 372.765 175.061C373.689 175.502 374.68 175.81 375.726 175.997C376.937 169.756 377.685 163.977 374.603 158.11C374.108 156.822 372.126 156.712 371.015 156.162Z" fill="#243A17"/>
<path d="M191.078 160.322C187.963 161.478 185.266 164.142 182.536 166.013C177.263 169.91 170.351 171.418 164.066 172.959C151.473 176.085 138.462 177.758 125.485 178.066C113.498 178.286 102.193 175.854 91.362 170.768C89.9751 170.57 88.5771 170.46 87.1792 170.416C84.6805 172.684 83.6568 174.929 84.5154 178.342C85.9574 181.556 89.1385 183.779 91.8023 185.926C91.8903 189.239 91.0538 192.079 93.6845 194.665C97.1849 197.648 101.819 198.628 106.31 198.705C108.038 198.738 109.777 198.749 111.516 198.727C135.171 198.771 159.178 196.416 182.217 190.901C188.062 189.338 193.951 187.004 198.937 183.537C204.243 179.739 208.139 171.616 205.706 165.265C202.856 159.629 196.625 159.134 191.078 160.322Z" fill="black"/>
<path d="M189.415 165.177C185.981 167.785 182.877 170.537 178.793 172.144C168.435 176.448 156.58 178.429 145.529 180.07C136.404 181.5 126.971 181.467 117.746 181.17C109.095 180.84 101.477 178.011 93.343 175.501C90.6352 174.577 89.2703 174.676 86.5515 175.568C88.5989 178.54 90.7013 181.159 94.0145 182.777C105.154 185.1 116.315 185.903 127.686 185.672C145.056 186.168 162.656 183.57 179.101 177.956C184.858 176.096 189.514 172.397 194.919 169.954C195.767 170.581 196.537 171.308 197.33 171.99C186.531 180.477 173.521 184.098 160.246 186.685C150.614 188.237 140.741 189.14 130.988 189.657C118.726 190.13 107.08 187.511 94.8951 187.323C95.2473 188.864 95.4014 190.714 96.26 192.057C98.4615 194.654 102.49 194.918 105.649 195.128C115.567 195.337 125.485 195.304 135.38 194.489C147.191 194.225 159.002 191.957 170.648 190.064C179.586 188.017 190.439 185.958 197.572 179.915C200.797 177.351 202.943 173.663 202.943 169.469C202.844 167.433 202.184 165.044 200.07 164.252C196.801 162.92 192.222 162.7 189.415 165.177Z" fill="#C8605F"/>
<path d="M194.918 169.954C189.514 172.397 184.858 176.096 179.101 177.956C162.656 183.57 145.055 186.167 127.686 185.672C116.315 185.903 105.153 185.1 94.014 182.777C94.3222 184.285 94.6084 185.804 94.8945 187.323C107.08 187.51 118.726 190.13 130.988 189.657C140.74 189.139 150.614 188.237 160.245 186.685C173.52 184.098 186.531 180.477 197.329 171.99C196.537 171.308 195.766 170.581 194.918 169.954Z" fill="#090909"/>
<path d="M340.723 170.989C340.657 171.935 340.591 172.871 340.525 173.817C338.819 174.819 337.146 175.876 335.484 176.944C334.559 180.686 333.733 184.34 331.95 187.775C330.574 190.483 328.681 193.08 327.767 195.942C327.195 198.496 327.459 201.292 327.47 203.901C323.926 208.513 321.824 213.433 320.315 219.025C315.01 221.204 310.552 224.077 306.986 228.645C300.667 228.392 294.712 226.389 288.394 226.212C280.579 225.893 272.764 225.805 264.948 225.981C259.192 220.863 253.127 216.999 245.124 217.021C243.616 213.829 242.262 210.637 240.369 207.632C239.808 209.008 239.257 210.373 238.696 211.749C242.13 218.133 242.934 226.301 244.266 233.367C246.005 243.967 247.535 254.777 247.392 265.542C240.743 269.846 234.524 274.755 229.175 280.611C230.407 286.225 234.788 287.413 238.685 290.859C242.835 294.194 245.531 298.311 248.514 302.626C246.478 318.74 243.055 334.712 240.512 350.761C236.527 371.51 232.169 391.521 231.761 412.776C231.442 423.057 231.728 433.316 231.97 443.597H235.273C235.074 429.386 234.304 414.791 236.175 400.701C237.166 384.542 240.688 369 243.627 353.127C246.335 338.19 248.801 323.209 251.398 308.25C251.74 305.322 252.345 302.273 250.661 299.643C246.709 292.829 240.061 287.16 233.765 282.548C233.842 281.921 233.919 281.282 233.996 280.644C239.136 275.988 244.023 271.376 250.386 268.36C250.595 267.402 250.804 266.433 251.002 265.454C253.226 274.92 256.792 285.256 263.209 292.73C267.491 297.804 273.028 301.558 279.258 303.847C279.368 317.706 278.631 331.806 279.808 345.62C280.04 352.005 279.808 358.301 280.854 364.641C282.604 391.092 285.995 417.465 290.453 443.597H293.821C292.313 431.423 290.089 419.304 288.526 407.118C286.094 385.698 283.639 363.893 283.276 342.351C282.065 329.792 281.933 316.979 283.529 304.442C294.041 304.794 304.465 304.728 314.856 302.868C332.765 299.488 351.081 292.334 364.95 280.226C373.283 273.302 379.854 264.804 385.358 255.525C391.742 244.672 396.916 233.136 400.471 221.05C403.3 211.364 405.898 201.083 405.766 190.934C403.344 189.283 400.955 187.951 398.215 186.883C396.718 183.889 395.199 181.424 392.535 179.31C391.984 180.334 391.456 181.368 390.95 182.414C392.26 183.702 393.217 184.748 393.691 186.553L393.988 189.723C394.164 191.627 394.351 193.543 394.527 195.447C380.933 198.243 366.205 195.04 353.316 190.483C347.041 188.259 341.747 184.12 339.964 177.461L342.363 178.066C341.835 175.7 341.307 173.344 340.723 170.989Z" fill="black"/>
<path d="M342.362 178.066L339.963 177.461C341.746 184.12 347.041 188.259 353.315 190.482C366.204 195.039 380.932 198.243 394.526 195.447C394.35 193.542 394.163 191.627 393.987 189.723C376.21 192.695 357.09 188.545 342.362 178.066Z" fill="#7DBCA6"/>
<path d="M215.437 178.649C214.402 178.561 213.367 178.517 212.343 178.506C210.263 183.669 208.469 186.432 203.78 189.547C203.934 190.592 204.088 191.649 204.242 192.695C206.642 191.385 209.371 190.174 211.111 188.006C213.279 185.353 214.622 181.952 215.437 178.649Z" fill="#1D3812"/>
<path d="M337.838 183.174C336.495 187.257 334.305 190.813 332.192 194.522C330.056 198.122 330.463 202.866 333.413 205.882C337.585 210.263 343.683 213.026 349.308 215.007C362.649 219.289 376.716 221.92 390.773 220.962C392.875 220.786 394.9 220.423 396.739 219.311C397.961 217.362 398.467 214.875 399.017 212.662C400.184 207.104 401.45 201.655 401.626 195.953C397.355 197.901 393.37 199.74 388.56 199.894C375.494 200.389 361.768 197.934 349.66 192.948C344.641 190.934 340.986 187.477 337.838 183.174Z" fill="#FDFDFD"/>
<path d="M235.349 182.271C233.775 183.79 232.201 185.32 230.604 186.828L230.814 184.703C228.843 191.847 226.279 198.815 224.396 205.992C226.587 205.32 228.81 204.638 230.957 203.823C232.002 196.47 234.864 189.723 235.349 182.271Z" fill="#547545"/>
<path d="M390.949 182.414C390.332 183.911 389.738 185.43 389.154 186.938C390.673 186.817 392.181 186.685 393.689 186.553C393.216 184.748 392.258 183.702 390.949 182.414Z" fill="#627870"/>
<path d="M399.501 190.802C397.663 189.734 396.397 192.145 397.718 193.488C399.534 194.555 400.844 192.134 399.501 190.802Z" fill="#979996"/>
<path d="M233.511 205.904C231.012 213.499 228.568 220.951 227.677 228.942C224.87 249.823 223.263 270.682 221.898 291.695C221.777 300.501 221.623 309.307 221.557 318.113C221.612 324.772 220.643 331.355 220.786 338.036C220.874 354.085 220.049 370.409 221.645 386.348C221.48 395.462 223.351 404.235 224.253 413.25C226.092 423.387 227.952 433.492 229.977 443.597H231.97C231.727 433.316 231.441 423.057 231.76 412.776C232.168 391.521 236.527 371.51 240.511 350.761C243.054 334.712 246.477 318.74 248.514 302.626C245.531 298.311 242.834 294.194 238.684 290.859C234.787 287.413 230.407 286.225 229.174 280.611C234.523 274.755 240.742 269.846 247.391 265.542C247.534 254.777 246.004 243.967 244.265 233.367C242.933 226.3 242.129 218.133 238.695 211.749C237.374 209.36 235.866 207.346 233.511 205.904Z" fill="#FDFEFD"/>
<path d="M329.671 207.291C325.081 212.915 323.716 219.476 322.78 226.498C321.768 226.509 320.755 226.509 319.731 226.52L319.665 223.361C315.626 225.409 311.96 227.456 309.748 231.584C307.733 234.699 307.59 237.979 307.513 241.567L304.365 241.898C304.343 238.673 304.442 235.458 304.53 232.244C292.389 229.713 279.83 228.777 267.446 229.371C262.196 229.151 259.015 235.282 257.143 239.355C250.462 257.55 255.162 279.785 269.009 293.467C273.555 298.057 279.709 300.897 286.192 301.095C295.823 301.326 305.301 301.514 314.767 299.334C335.483 295.404 355.252 286.367 369.65 270.605C381.703 257.407 390.377 241.006 395.539 223.956C385.643 226.025 375.682 224.561 365.643 222.954C352.808 220.114 339.049 217.285 329.671 207.291Z" fill="white"/>
<path d="M228.744 209.107C227.5 209.305 226.267 209.525 225.035 209.767C221.149 211.264 221.204 214.446 220.081 217.935C224.881 215.711 226.51 213.84 228.744 209.107Z" fill="#5A6F55"/>
<path d="M208.282 214.093C204.143 214.423 200.049 215.15 195.921 215.535C185.079 216.823 173.829 216.691 162.921 216.46C154.148 216.328 145.628 214.941 136.932 214.038C138.066 215.931 139.013 218.903 141.148 219.872C150.262 224.462 160.664 224.231 170.615 224.957C181.721 225.167 192.927 224.011 203.945 222.635C205.673 219.916 207.27 217.164 208.282 214.093Z" fill="#608948"/>
<path d="M225.992 219.124C223.196 219.894 219.839 221.094 217.913 223.361C215.711 226.476 214.368 230.197 212.409 233.488C209.041 239.652 204.605 244.859 200.246 250.307C206.08 246.565 212.123 242.833 217.351 238.254C219.685 236.075 222.338 233.576 223.626 230.604C224.858 226.917 225.552 222.987 225.992 219.124Z" fill="#75B39B"/>
<path d="M245.563 220.257C247.654 231.133 249.713 241.931 249.9 253.048C250.197 251.595 250.494 250.142 250.791 248.689C252.377 241.028 254.974 233.895 260.258 227.973C260.302 227.511 260.346 227.06 260.379 226.598C255.844 223.185 251.309 220.819 245.563 220.257Z" fill="#F8F8F6"/>
<path d="M142.865 224.957C147.29 233.147 153.069 241.446 160.697 246.928C160.972 240.291 161.996 234.666 164.682 228.579C157.373 227.555 150.108 226.388 142.865 224.957Z" fill="#73C1A5"/>
<path d="M202.491 226.212C197.78 226.641 193.113 227.368 188.468 228.227C190.504 231.727 192.353 235.26 194.082 238.915C196.547 235.921 198.848 232.817 200.73 229.404C201.324 228.348 201.908 227.28 202.491 226.212Z" fill="#7BBEA6"/>
<path d="M178.695 232.718C176.779 238.915 176.856 245.938 176.68 252.366C182.723 250.693 187.148 247.116 191.287 242.548C189.68 238.464 188.095 233.202 184.848 230.109C182.47 228.667 179.465 230.098 178.695 232.718Z" fill="#74C1A5"/>
<path d="M168.215 230.142C164.858 236.372 164.12 242.746 164.208 249.724C167.213 251.089 169.91 251.783 173.179 252.157C173.234 246.95 173.862 241.832 174.269 236.658C174.456 233.18 171.517 230.604 168.215 230.142Z" fill="#7DBAA3"/>
<path d="M134.202 232.222C131.45 235.756 129.887 240.511 128.17 244.617C125.77 251.166 122.435 258.376 122.402 265.399C128.247 269.658 132.738 275.052 137.218 280.655C137.427 267.446 137.416 254.248 137.438 241.039C137.592 237.616 136.106 234.93 134.202 232.222Z" fill="#FBFDFA"/>
<path d="M129.91 232.542C129.073 233.213 128.237 233.884 127.389 234.534C121.346 239.003 115.633 243.868 109.953 248.777C107.884 253.202 108.027 258.662 107.267 263.439C105.903 272.498 106.497 281.502 105.826 290.594C105.198 297.089 105.165 303.638 105.297 310.143C108.302 309.34 110.988 307.909 113.641 306.313C112.98 302.669 112.617 299.554 114.653 296.274C118.572 289.659 125.958 284.76 132.364 280.776C128.93 275.03 123.349 271.618 119.288 266.532C118.44 260.588 120.168 255.382 122.237 249.933C124.615 243.945 126.706 238.144 129.91 232.542Z" fill="#FDFDFC"/>
<path d="M222.789 237.913C217.329 243.043 211.793 247.379 205.607 251.606C200.653 258.189 193.95 261.227 187.378 265.872C188.721 274.05 190.604 281.337 188.435 289.659C186.08 299.962 179.09 306.896 177.593 317.188C176.723 323.088 176.327 329.45 177.659 335.306C178.396 338.708 180.884 340.183 183.46 342.131L183.823 342.395C187.136 342.824 190.097 343.276 192.552 345.741C198.661 350.783 197.736 362.021 191.22 366.259C188.589 367.723 185.309 368.328 182.392 368.934C179.343 369.506 176.14 369.517 173.058 369.649C173.135 373.337 173.234 377.013 173.333 380.701C181.148 380.58 189.007 380.58 196.812 380.018C203.658 379.347 210.472 378.378 217.329 377.861C217.55 357.222 217.12 336.528 217.715 315.889C218.661 307.094 218.166 298.277 218.925 289.472C219.751 282.086 219.333 274.667 220.125 267.27C221.138 257.495 221.688 247.677 222.789 237.913Z" fill="#6EC6A6"/>
<path d="M166.905 239.344C166.883 240.5 166.861 241.656 166.839 242.811C168.314 242.855 169.789 242.888 171.264 242.921C171.088 241.843 170.9 240.775 170.702 239.707C169.447 239.553 168.182 239.454 166.905 239.344Z" fill="#0D402D"/>
<path d="M141.345 242.591C141.334 251.265 140.487 259.906 140.575 268.579C140.432 305.861 140.168 343.154 140.146 380.436C146.772 381.009 153.343 381.361 160.003 381.119C155.919 380.491 151.835 379.963 147.697 379.721C147.355 343.76 148.445 307.832 148.291 271.882C148.5 266.158 147.818 260.159 148.797 254.512C149.304 253.797 149.854 253.092 150.427 252.421C147.234 249.317 144.35 245.871 141.345 242.591Z" fill="#63AC91"/>
<path d="M108.797 245.244C106.65 247.512 104.614 249.9 102.566 252.256C97.7121 257.859 95.4226 265.982 93.4192 272.994C91.3719 282.042 88.9613 291.332 88.3779 300.6C88.1357 300.831 87.8935 301.062 87.6514 301.294C86.9469 306.962 86.0993 312.576 84.8885 318.168C82.1807 333.413 77.8878 348.934 77.3265 364.355C76.3908 377.993 71.2724 392.314 70.9422 406.161C70.8652 412.303 70.9312 418.654 72.131 424.697C72.6704 428.33 77.8548 430.003 77.4366 433.646C77.6457 437.686 74.9929 440.691 72.5933 443.597H77.5136C80.0233 439.865 80.5957 435.76 81.091 431.39C87.5743 432.832 94.0026 434.131 100.662 434.296C100.761 437.4 100.86 440.493 100.948 443.597H105.637C103.568 442.969 104.405 439.821 104.129 438.093C104.074 426.139 104.052 414.196 103.964 402.242C105.891 402.936 107.828 403.607 109.787 404.213C109.677 403.145 109.567 402.077 109.457 401.009C103.029 397.157 99.6384 391.257 97.7231 384.19C96.9746 378.598 95.5327 373.348 95.3125 367.646C95.1584 363.232 95.0373 358.84 94.498 354.448C93.8926 346.05 94.2008 337.563 94.2228 329.142C98.0093 331.168 101.609 333.325 105.736 334.602C107.333 334.591 108.929 334.536 110.514 334.481C110.205 326.567 110.272 318.685 109.446 310.804C108.059 310.584 106.683 310.353 105.296 310.144C105.164 303.638 105.197 297.089 105.825 290.594C106.496 281.502 105.902 272.498 107.267 263.439C108.026 258.662 107.883 253.202 109.952 248.777C109.567 247.6 109.182 246.422 108.797 245.244Z" fill="black"/>
<path d="M205.606 251.606C200.136 254.655 193.972 255.877 188.578 259.003C185.969 260.445 183.273 261.689 180.532 262.856C183.052 273.016 185.1 282.68 181.919 293.049C180.047 299.246 176.261 304.398 173.839 310.287C172.606 315.218 173.52 320.744 173.069 325.829C172.628 330.727 172.386 335.372 173.553 340.205C176.921 340.667 180.19 341.173 183.46 342.131C180.884 340.183 178.396 338.708 177.659 335.306C176.327 329.451 176.723 323.088 177.593 317.188C179.09 306.896 186.079 299.962 188.435 289.659C190.603 281.337 188.721 274.05 187.378 265.872C193.95 261.227 200.653 258.189 205.606 251.606Z" fill="#66AB90"/>
<path d="M150.428 252.421C149.855 253.092 149.305 253.797 148.799 254.512C147.819 260.159 148.502 266.158 148.292 271.882C148.447 307.832 147.357 343.76 147.698 379.721C151.837 379.963 155.921 380.492 160.004 381.119C163.35 381.218 166.708 381.251 170.054 381.273C169.867 377.189 170.219 372.467 168.788 368.593C166.245 364.806 162.712 362.803 162.25 357.794C161.545 352.324 164.925 348.339 162.987 343.419C161.259 338.399 160.213 333.545 157.407 328.988C159.927 322.835 158.012 316.506 160.478 310.375C163.516 302.747 168.348 296.726 170.021 288.382C172.057 279.675 170.472 271.321 167.698 262.999C161.424 260.291 155.491 257.088 150.428 252.421Z" fill="#6FC5A6"/>
<path d="M104.009 255.503C100.894 261.612 98.1752 267.853 96.6452 274.557C92.6495 291.068 90.9214 308.107 87.2779 324.706C85.7369 333.105 83.5354 341.448 82.4127 349.891C81.6642 356.562 80.9157 363.21 80.2772 369.891C79.1765 380.569 75.5441 391.026 75.1588 401.736C80.8606 403.31 86.6615 404.212 92.4514 405.379C95.2032 405.511 97.9551 405.555 100.696 405.577C101.521 397.443 96.5791 392.666 94.6529 385.258C93.42 381.405 92.9577 377.454 92.4074 373.458C90.6022 355.978 90.7122 338.487 90.9104 320.931C92.0441 319.731 93.1779 318.52 94.3226 317.331C94.2346 314.084 94.1465 310.837 94.0695 307.579C95.3133 306.533 96.5571 305.498 97.812 304.475C99.1108 304.497 100.41 304.508 101.709 304.53C101.775 296.593 101.632 288.701 102.743 280.809C103.085 272.333 104.383 264.012 104.009 255.503Z" fill="#FDFDFC"/>
<path d="M176.415 263.593C174.896 263.494 173.377 263.417 171.858 263.351C173.564 272.157 175.92 279.895 173.586 288.932C171.572 298.696 164.868 306.005 162.634 315.471C160.73 327.227 163.889 338.256 169.271 348.625C170.438 348.438 171.605 348.262 172.761 348.086C171.77 342.505 168.567 338.223 168.05 332.543C167.576 327.348 167.532 322.031 168.204 316.847C169.756 306.896 177.483 298.927 179.277 289.372C181.104 280.93 179.871 271.486 176.415 263.593Z" fill="#E9DEBF"/>
<path d="M251.002 265.454C250.804 266.433 250.594 267.402 250.385 268.36C249.912 270.286 249.659 272.025 248.03 273.335C244.54 276.329 240.985 279.114 238.013 282.669C243.142 288.206 249.604 292.345 254.579 297.98C258.013 302.042 257.463 306.643 256.748 311.53C254.392 325.257 251.552 338.895 249.285 352.632C246.423 368.218 243.418 383.97 241.701 399.732C240.754 414.306 240.545 429.012 241.205 443.597H290.452C285.994 417.465 282.604 391.092 280.854 364.641C279.808 358.301 280.039 352.005 279.808 345.62C278.63 331.806 279.368 317.706 279.258 303.847C273.027 301.558 267.491 297.804 263.209 292.73C256.792 285.256 253.225 274.92 251.002 265.454Z" fill="white"/>
<path d="M250.384 268.359C244.022 271.375 239.134 275.987 233.994 280.644C233.917 281.282 233.84 281.92 233.763 282.548C240.059 287.16 246.707 292.829 250.659 299.642C252.343 302.273 251.738 305.322 251.396 308.25C248.799 323.209 246.333 338.19 243.625 353.127C240.686 369 237.164 384.542 236.173 400.701C234.302 414.79 235.073 429.386 235.271 443.597H241.204C240.543 429.012 240.752 414.306 241.699 399.732C243.416 383.97 246.421 368.218 249.283 352.632C251.551 338.895 254.39 325.256 256.746 311.53C257.462 306.643 258.012 302.042 254.578 297.98C249.602 292.344 243.141 288.206 238.011 282.669C240.983 279.114 244.539 276.329 248.028 273.335C249.657 272.025 249.91 270.286 250.384 268.359Z" fill="#E8E8E8"/>
<path d="M160.499 272.014C162.326 272.774 164.164 273.478 166.014 274.194C165.97 272.322 165.904 270.462 165.772 268.591C163.185 269.086 162.227 270.066 160.499 272.014Z" fill="#2D7058"/>
<path d="M135.766 282.185C133.355 284.21 130.724 285.916 128.149 287.711C123.955 290.683 120.521 294.26 117.053 298.024C116.404 309.384 118.451 320.292 119.277 331.564C122.975 369.033 128.237 406.414 134.115 443.597H135.997C136.14 419.017 136.206 394.427 136.228 369.847C137.318 341.228 136.734 312.51 137.384 283.869C136.844 283.308 136.305 282.746 135.766 282.185Z" fill="#FBFDFB"/>
<path d="M161.599 295.614C159.431 296.373 160.201 298.432 159.717 300.281C160.895 300.083 162.073 299.874 163.239 299.642C163.471 298.839 163.68 298.035 163.878 297.221C163.129 296.67 162.37 296.131 161.599 295.614Z" fill="#01452A"/>
<path d="M97.5813 308.294C97.3942 313.688 97.053 319.191 97.5483 324.574C97.5923 327.161 99.8929 328.074 101.533 329.693C103.635 323.055 102.502 316.297 100.377 309.824C100.091 308.801 98.3959 308.756 97.5813 308.294Z" fill="#78312D"/>
<path d="M112.033 310.397C111.196 312.554 110.437 314.635 110.679 317.001C111.108 321.8 111.361 326.677 112.077 331.443C112.616 332.378 113.508 333.116 114.73 333.677C116.59 330.859 116.425 327.876 116.073 324.706C115.511 320.226 115.159 315.735 114.763 311.233C113.86 310.925 112.947 310.65 112.033 310.397Z" fill="#294179"/>
<path d="M107.817 313.897C104.394 313.105 105.594 317.067 105.087 319.203C105.264 323.408 104.68 329.418 108.632 332.059C109.303 326.137 109.38 319.687 107.817 313.897Z" fill="#634534"/>
<path d="M95.6318 321.701C93.6945 320.336 92.4947 323.473 94.7182 323.958C95.94 323.616 96.2482 322.857 95.6318 321.701Z" fill="black"/>
<path d="M94.2241 329.142C94.2021 337.563 93.8939 346.05 94.4993 354.448C95.0386 358.84 95.1597 363.232 95.3138 367.646C95.534 373.348 96.9759 378.598 97.7244 384.19C99.6397 391.257 103.03 397.157 109.458 401.009C109.568 402.077 109.678 403.145 109.788 404.213C107.829 403.607 105.892 402.936 103.966 402.242C104.054 414.196 104.076 426.139 104.131 438.093C104.406 439.821 103.569 442.969 105.639 443.597H130.647C124.979 408.065 119.97 372.456 116.019 336.704L113.784 336.319C111.098 335.89 108.358 335.384 105.738 334.602C101.61 333.325 98.0106 331.168 94.2241 329.142Z" fill="#FEFEFE"/>
<path d="M119.276 331.564C118.407 332.279 117.548 333.006 116.701 333.743C115.721 334.591 114.752 335.449 113.784 336.319L116.018 336.704C119.97 372.456 124.978 408.065 130.647 443.597H134.114C128.236 406.414 122.975 369.033 119.276 331.564Z" fill="black"/>
<path d="M183.822 342.395C187.983 345.807 191.252 349.858 191.054 355.538C190.9 361.526 187.477 366.05 182.391 368.934C185.308 368.328 188.588 367.723 191.219 366.259C197.735 362.021 198.66 350.783 192.551 345.741C190.096 343.276 187.135 342.824 183.822 342.395Z" fill="#69A991"/>
<path d="M176.591 343.628C176.613 344.354 176.624 345.07 176.646 345.785C179.97 347.624 183.25 348.559 184.648 352.467C186.586 356.496 183.977 361.152 180.421 363.21C176.426 364.905 170.834 363.716 168.853 359.545C167.961 357.101 167.939 354.283 167.653 351.707C166.97 351.674 166.277 351.63 165.583 351.597C165.683 355.714 164.934 359.236 167.994 362.539C171.197 366.578 176.173 366.964 180.862 365.698C186.244 363.012 189.712 356.264 186.597 350.574C184.549 346.248 180.807 345.026 176.591 343.628Z" fill="#989796"/>
<path d="M175.226 350.398C173.003 350.299 171.979 352.566 171.242 354.305C170.504 358.576 175.425 362.33 179.233 359.743C182.249 358.51 181.115 354.459 181.115 351.917C179.211 350.882 177.472 350.034 175.226 350.398Z" fill="#E7E9E8"/>
<path d="M162.568 359.93C160.278 360.866 158.792 360.271 158.682 363.155C158.815 365.401 161.038 364.652 162.623 365.291C162.612 363.507 162.59 361.724 162.568 359.93Z" fill="#26654D"/>
<path d="M216.362 381.493C206.862 382.616 197.286 383.012 187.754 383.838C186.411 390.255 186.367 395.252 187.721 401.692C192.641 401.075 197.594 401.45 202.526 400.778C207.765 400.228 213.093 398.995 218.354 398.995C218.189 393.557 219.73 386.083 216.362 381.493Z" fill="#82421F"/>
<path d="M183.317 384.542C174.544 384.278 165.749 384.641 156.976 384.685C156.987 390.409 157.009 396.122 157.064 401.846C165.771 402.286 174.61 402.374 183.284 401.417C183.295 400.074 183.295 398.72 183.295 397.377C183.251 393.128 183.493 388.802 183.317 384.542Z" fill="#979C99"/>
<path d="M140.311 384.553C140.179 390.035 140.19 395.506 140.08 400.987C142.424 401.472 144.747 401.967 147.135 402.231C145.837 396.408 145.815 391.312 146.717 385.434C148.963 385.192 151.197 384.939 153.432 384.664C148.731 383.695 145.033 383.629 140.311 384.553Z" fill="#603116"/>
<path d="M153.431 384.664C151.197 384.939 148.962 385.192 146.717 385.434C145.814 391.312 145.836 396.408 147.135 402.231C149.281 402.088 151.428 401.802 153.574 401.681C153.651 396.001 153.596 390.343 153.431 384.664Z" fill="#7D4423"/>
<path d="M176.987 387.261C171.374 386.744 165.617 386.887 160.047 387.833C159.254 391.961 159.177 395.01 160.091 399.138C165.639 399.985 171.638 400.481 177.185 399.523C181.093 398.731 180.157 394.845 180.268 391.84C180.224 389.539 179.508 387.624 176.987 387.261Z" fill="#392D1C"/>
<path d="M163.273 390.993C163.251 392.721 163.218 394.449 163.174 396.188C167.94 396.728 172.233 396.606 176.955 395.858C176.823 394.383 176.691 392.897 176.515 391.433C172.123 390.464 167.731 390.552 163.273 390.993Z" fill="#6D452B"/>
<path d="M183.294 397.377C183.294 398.72 183.294 400.074 183.283 401.417C174.61 402.374 165.771 402.286 157.064 401.846C155.897 401.769 154.741 401.692 153.574 401.681C151.428 401.802 149.282 402.088 147.135 402.231C144.747 401.967 142.424 401.472 140.079 400.987C138.439 403.728 136.722 406.084 136.788 409.463C136.722 420.823 136.7 432.226 136.865 443.597H140.101C139.364 436.915 139.375 430.476 139.947 423.784C140.443 417.73 139.54 411.477 140.531 405.5C141.554 404.576 142.842 404.675 144.141 404.521C151.109 404.179 158.132 404.785 165.11 404.774C179.145 404.664 193.014 404.631 206.96 402.804C210.934 402.429 215.524 401.45 219.432 402.484C220.191 404.179 219.861 406.271 219.938 408.109C221.237 420.041 225.089 431.423 225.342 443.597H229.977C227.951 433.492 226.091 423.387 224.253 413.25C223.075 408.737 222.029 404.202 221.27 399.6C220.301 399.38 219.321 399.182 218.353 398.995C213.091 398.995 207.764 400.228 202.524 400.778C197.593 401.45 192.64 401.075 187.719 401.692L185.067 402.033C184.406 400.514 183.801 398.962 183.294 397.377Z" fill="#202D5E"/>
<path d="M206.961 402.804C193.015 404.631 179.145 404.664 165.111 404.774C158.132 404.785 151.11 404.18 144.142 404.521C142.843 404.675 141.555 404.576 140.532 405.5C139.541 411.477 140.444 417.73 139.948 423.784C139.376 430.476 139.365 436.915 140.102 443.597H141.533C141.764 431.5 142.722 419.491 142.425 407.361C144.428 407.096 146.443 406.81 148.457 406.667C153.729 406.909 158.683 407.999 163.999 407.372C170.24 406.612 176.46 406.744 182.723 406.865C194.457 407.074 205.992 404.378 217.616 404.268C218.409 405.544 219.19 406.821 219.939 408.109C219.862 406.271 220.192 404.18 219.432 402.484C215.525 401.45 210.935 402.429 206.961 402.804Z" fill="#1B3E9B"/>
<path d="M182.722 406.865C176.459 406.744 170.24 406.612 163.999 407.372C158.682 407.999 153.729 406.909 148.456 406.667C147.279 410.157 146.706 413.47 146.794 417.179C146.893 425.985 146.948 434.791 146.915 443.597H225.343C225.09 431.423 221.237 420.041 219.938 408.109C219.19 406.821 218.408 405.544 217.616 404.268C205.992 404.378 194.456 407.074 182.722 406.865Z" fill="#0440FA"/>
<path d="M142.425 407.36C142.722 419.491 141.765 431.5 141.533 443.597H146.916C146.949 434.791 146.894 425.985 146.795 417.179C146.707 413.47 147.279 410.156 148.457 406.667C146.443 406.81 144.428 407.096 142.425 407.36Z" fill="#0432C5"/>
<path d="M74.3992 405.346C74.124 411.907 74.6854 418.291 75.4999 424.785C82.6217 429.342 92.4292 430.256 100.674 430.146C100.685 423.123 100.608 416.089 100.575 409.067C94.7078 409.034 89.05 408.56 83.3151 407.272C80.3431 406.612 77.3822 405.941 74.3992 405.346Z" fill="#FEFEFE"/>
<path d="M81.092 431.39C80.5966 435.76 80.0242 439.865 77.5146 443.597H83.7998C85.1427 441.373 86.7167 441.406 88.0706 443.597H100.949C100.861 440.493 100.762 437.4 100.663 434.296C94.0036 434.13 87.5753 432.832 81.092 431.39Z" fill="#5E8848"/>
<path d="M83.7994 443.597H88.0703C86.7164 441.406 85.1423 441.373 83.7994 443.597Z" fill="#3A5030"/>
</svg>
