<svg width="95" height="119" viewBox="0 0 95 119" fill="none" xmlns="http://www.w3.org/2000/svg">
<path d="M7.77574 73.8102L7.5569 1.08325L34.8295 1.00151C40.4166 0.984765 45.107 1.94135 48.9007 3.87128C52.7181 5.80113 55.6027 8.51504 57.5545 12.013C59.5299 15.4872 60.5246 19.5444 60.5386 24.1845C60.5526 28.8483 59.5705 32.8996 57.5922 36.3383C55.6375 39.7532 52.7454 42.4016 48.9158 44.2834C45.0861 46.1414 40.3777 47.0788 34.7906 47.0956L15.366 47.1538L15.3331 36.2164L32.9822 36.1635C36.2492 36.1537 38.923 35.6958 41.0036 34.79C43.0842 33.8604 44.619 32.5182 45.608 30.7634C46.6207 28.9848 47.1231 26.8052 47.1153 24.2247C47.1076 21.6443 46.592 19.4441 45.5685 17.6242C44.5449 15.7807 42.9901 14.3886 40.9039 13.4478C38.8177 12.4835 36.1292 12.0062 32.8385 12.0161L20.7647 12.0522L20.9504 73.7707L7.77574 73.8102ZM45.2474 40.7432L63.3508 73.6436L48.6491 73.6877L30.8654 40.7863L45.2474 40.7432Z" fill="#0075FF"/>
<path d="M43.6425 38.527L57.9731 62.547L58.4845 62.5488L73.0457 38.6289L86.5648 38.6757L66.2842 71.3329L86.6569 104.131L72.914 104.083L58.423 80.2227L57.9117 80.2209L43.2551 103.981L29.5762 103.933L50.3681 71.2778L30.0594 38.48L43.6425 38.527Z" fill="#0075FF"/>
</svg>
