<svg width="494" height="497" viewBox="0 0 494 497" fill="none" xmlns="http://www.w3.org/2000/svg">
<path d="M351.286 78.2492C354.344 81.7161 355.303 86.0315 357.597 89.8499C361.724 92.0197 365.996 93.244 369.589 96.4078C375.44 101.293 378.425 108.081 379.785 115.439C383.523 116.748 387.614 117.924 391.048 119.912L390.454 123.549C378.377 119.027 366.191 115.803 353.179 116.069C347.074 116.385 340.811 119.451 334.949 121.246C338.116 123.561 341.163 126.652 344.792 128.216C348.421 127.925 352.014 126.519 355.57 125.682C366.943 122.906 378.826 121.949 390.053 125.912C387.711 126.603 385.368 127.331 382.928 127.622C370.803 125.973 358.593 126.143 347.584 132.083C353.094 131.707 358.398 130.325 363.824 129.428L366.798 129.985C364.661 131.052 362.537 132.107 360.328 133.016C355.461 133.986 350.691 135.319 345.957 136.786C344.877 133.852 343.554 132.143 341.102 130.191C336.029 126.555 330.348 125.646 324.292 124.882C323.733 123.937 323.163 122.979 322.592 122.033C325.02 121.985 327.435 121.912 329.851 121.84C325.615 120.142 320.735 118.761 317.082 116.045C314.096 113.972 311.681 111.451 308.003 110.651C301.74 109.209 294.955 109.706 288.789 111.427C283.388 112.966 279.128 115.839 274.418 118.736C273.023 117.827 271.627 116.93 270.194 116.082C265.4 115.451 260.654 114.712 255.896 113.863C249.621 123.876 246.684 136.034 244.596 147.538C243.674 147.574 242.751 147.623 241.817 147.659C242.035 143.235 242.229 138.798 242.327 134.361C236.925 137.307 232.01 140.628 228.611 145.889C221.183 157.126 215.357 171.406 212.844 184.619C210.781 195.238 211.703 206.196 217.542 215.493C222.664 223.821 230.492 229.155 239.329 232.949C241.695 233.846 244.147 234.597 246.563 235.337C244.487 227.433 241.659 219.76 239.486 211.893C237.265 199.856 233.405 188.219 233.418 175.77C233.478 170.982 232.544 166.436 231.476 161.817C230.286 157.914 232.944 153.793 236.695 152.629C239.984 151.49 243.904 152.859 245.592 155.926C247.4 159.139 246.635 162.521 246.223 165.975C244.378 176 246.198 185.819 248.262 195.65C251.211 209.214 255.132 222.645 260.436 235.494C261.395 237.24 261.917 239.931 264.247 240.222C268.325 241.095 272.586 241.179 276.712 241.81C288.898 243.871 301.922 243.071 314.363 243.192C324.158 243.386 333.589 241.664 343.154 239.761C353.288 237.652 362.914 233.87 371.034 227.336C372.951 227.361 374.869 227.348 376.775 227.312C372.369 230.779 368.545 234.428 363.411 236.913C360.462 238.67 357.342 238.864 356.031 242.428C353.847 248.089 351.104 253.241 349.72 259.193C358.228 264.938 366.458 271.63 374.032 278.563C373.607 279.86 373.182 281.157 372.757 282.455C366.494 277.048 360.195 271.69 353.531 266.769C352.597 266.054 351.674 265.314 350.752 264.575C354.284 270.745 356.59 277.133 359.212 283.727C361.493 289.728 363.399 295.461 362.464 302.007C357.986 307.607 351.832 311.365 348.045 317.693C355.109 322.081 363.253 327.475 367.574 334.76C369.82 338.373 369.419 341.803 368.691 345.816C371.616 347.573 374.578 349.149 377.891 350.034C376.362 350.264 374.845 350.519 373.315 350.761C372.405 359.441 372.478 368.12 372.138 376.836C373.886 376.896 375.646 376.957 377.406 376.969C374.517 377.83 371.495 378.387 368.533 378.86C367.465 377.902 366.397 376.957 365.317 376.023C364.382 375.211 363.435 374.411 362.477 373.623C363.387 361.21 365.644 349.198 364.928 336.688C361.105 332.542 357.318 328.603 352.694 325.33C349.853 323.354 346.953 321.475 344.294 319.244C343.7 319.863 343.105 320.481 342.51 321.099C343.226 352.64 342.583 384.266 343.785 415.783C343.809 442.851 343.882 469.932 344.04 497H343.081C343.263 484.478 343.238 471.92 343.166 459.41C343.238 455.688 341.345 453.094 339.537 450.076C339.415 444.039 339.427 438.015 339.282 431.978C334.075 430.96 329.996 431.033 324.814 432.099C324.632 438.354 324.571 444.585 324.656 450.84C323.369 450.852 322.095 450.937 320.808 451.022C320.869 444.718 320.893 438.427 320.905 432.124C311.232 432.075 301.534 431.675 291.86 431.966C291.666 436.657 291.933 441.421 291.884 446.1C291.326 447.846 290.658 449.555 289.93 451.228L287.005 450.852C288.498 443.76 288.449 438.257 286.969 431.19C276.457 430.281 265.898 429.845 255.423 428.608C251.709 433.663 253.408 441.894 253.226 447.882C252.158 448.088 251.078 448.306 250.01 448.549C249.172 453.616 248.019 458.61 246.72 463.58C247.716 453.652 249.779 443.991 249.597 433.954C251.357 416.401 250.447 398.425 250.544 380.751C250.701 373.393 249.633 366.144 249.694 358.81C249.621 349.113 249.451 339.415 249.318 329.718C247.813 306.577 246.041 283.606 242.946 260.611C241.962 251.81 239.268 243.604 236.513 235.24C233.915 236.828 232.252 239.046 230.796 241.676C230.177 240.161 229.57 238.658 228.951 237.143C229.764 235.991 230.614 234.876 231.451 233.749C226.997 230.658 222.591 227.906 218.804 223.942C213.16 218.269 209.786 210.366 208.9 202.474C206.654 188.255 210.647 173.067 216.425 160.096C219.993 152.253 224.375 144.144 230.177 137.707C234.012 133.574 238.916 131.525 244.196 129.876C247.655 120.821 251.478 112.166 257.838 104.723C264.55 96.4442 273.362 90.1893 283.861 87.8376C291.302 87.183 299.264 86.9527 306.474 89.1104C308.598 84.7587 310.455 80.5766 313.793 76.9643C323.733 66.9758 342.158 67.3031 351.286 78.2492Z" fill="#060606"/>
<path d="M324.632 74.6126C333.08 71.5094 342.741 74.2974 348.482 81.1463C355.559 89.4013 355.486 101.984 347.997 109.972C340.775 118.239 327.861 119.427 319.061 112.991C310.079 106.784 307.409 93.9349 312.834 84.5647C315.517 80.1281 319.728 76.3824 324.632 74.6126Z" fill="#C4D0CB"/>
<path d="M290.089 91.1225C294.956 91.0013 300.588 90.965 305.103 92.9651C306.984 96.1895 306.584 100.941 306.972 104.59C298.889 104.832 290.878 103.923 282.806 103.851C277.271 103.972 272.149 102.747 266.942 100.99C273.618 96.4804 281.799 91.2438 290.089 91.1225Z" fill="#618847"/>
<path d="M331.089 91.3406C332.242 91.7891 333.31 92.3588 334.293 93.0498C334.73 93.9589 335.192 94.8438 335.653 95.7408C335.01 96.9288 334.378 98.1288 333.759 99.341C330.458 97.9106 328.285 97.7652 328.225 93.5225C329.171 92.7952 330.13 92.0679 331.089 91.3406Z" fill="#0E100F"/>
<path d="M357.755 94.6621C363.096 95.4743 366.264 98.9169 370.123 102.299C365.742 103.463 361.384 103.887 356.869 103.996C357.075 100.893 357.245 97.7168 357.755 94.6621Z" fill="#667F58"/>
<path d="M262.9 104.772C270.729 106.554 278.655 106.748 286.593 107.73C284.954 108.639 283.34 109.536 281.665 110.372C281.738 109.536 281.81 108.711 281.871 107.875C277.271 107.814 272.671 107.608 268.071 107.293C267.306 108.808 266.578 110.324 265.85 111.851C263.325 111.487 260.825 110.954 258.324 110.457C259.841 108.578 261.177 106.457 262.9 104.772Z" fill="#B9AD9A"/>
<path d="M357.1 107.608C362.21 107.196 367.308 107.075 372.357 106.105C373.243 108.008 374.093 109.912 374.93 111.839C366.944 112.324 359.054 112.615 351.056 112.106C352.731 110.566 354.661 107.693 357.1 107.608Z" fill="#EBE2C0"/>
<path d="M268.07 107.293C272.67 107.609 277.27 107.815 281.87 107.875C281.81 108.712 281.737 109.536 281.664 110.372C276.505 113.076 271.408 112.482 265.849 111.851C266.577 110.324 267.305 108.809 268.07 107.293Z" fill="#EADEBB"/>
<path d="M308.003 110.651C311.681 111.451 314.096 113.972 317.082 116.045C320.735 118.76 325.615 120.142 329.851 121.839C327.435 121.912 325.02 121.985 322.592 122.033C315.067 122.13 306.971 122.555 299.725 124.761C294.627 126.337 290.78 129.343 286.24 131.949C282.708 133.973 279.019 134.822 275.122 135.84C275.025 136.907 274.916 137.986 274.819 139.052C272.464 139.84 270.085 140.531 267.937 141.792C267.451 144.18 267.294 146.326 269.296 148.071C272.646 149.077 276.3 149.005 279.662 149.962C282.284 150.92 284.662 152.69 287.066 154.084C285.67 154.629 284.298 155.211 282.939 155.805C282.538 156.714 282.15 157.611 281.774 158.52C287.381 161.526 293.122 164.108 299.385 165.418C309.265 167.781 318.356 166.678 328.358 166.86C321.561 171.551 313.951 174.073 306.158 176.533C306.316 177.782 306.462 179.03 306.632 180.267C315.322 177.661 323.673 174.533 331.538 169.951C332.084 168.569 332.642 167.187 333.189 165.805C338.833 164.339 343.214 162.448 347.292 158.169C355.315 159.599 363.229 160.884 371.41 160.545C378.632 160.702 385.538 159.26 392.626 158.193L394.131 158.993C391.668 162.169 389.556 165.236 385.963 167.272C379.906 170.715 372.296 172.763 365.341 172.703C359.369 172.691 354.272 170.727 348.773 168.703C348.688 169.878 348.603 171.054 348.506 172.23C352.924 174.23 357.306 176.303 361.688 178.4C367.526 176.109 374.214 174.594 380.489 175.188C387.844 179.54 392.25 188.17 393.258 196.547C381.314 202.147 368.849 204.826 355.631 204.583C341.321 204.244 326.974 202.401 313.089 198.959C306.158 197.262 298.536 195.601 292.722 191.31C289.712 189.249 286.738 186.316 283.303 185.043C277.186 183.734 270.316 184.279 267.172 190.486C264.49 197.48 268.787 206.426 274.637 210.608C280.135 214.426 286.629 216.996 293.074 218.717C318.478 224.791 344.95 227.385 371.034 227.336C362.914 233.87 353.288 237.652 343.154 239.761C333.589 241.664 324.158 243.386 314.363 243.192C301.922 243.07 288.899 243.87 276.712 241.81C272.586 241.179 268.325 241.095 264.247 240.222C261.917 239.931 261.395 237.24 260.436 235.494C255.132 222.645 251.211 209.214 248.262 195.65C246.198 185.819 244.378 176 246.223 165.975C247.339 158.254 248.881 151.029 251.612 143.695C254.136 134.034 256.831 125.088 262.815 116.906C264.951 115.888 267.852 116.215 270.194 116.081C271.627 116.93 273.023 117.827 274.418 118.736C279.128 115.839 283.388 112.966 288.789 111.427C294.955 109.705 301.74 109.208 308.003 110.651Z" fill="#5A8B40"/>
<path d="M255.897 113.863C260.655 114.712 265.4 115.451 270.195 116.081C267.852 116.215 264.951 115.888 262.815 116.906C256.831 125.088 254.137 134.034 251.612 143.695C248.881 151.029 247.34 158.254 246.223 165.975C246.636 162.52 247.4 159.138 245.592 155.926C243.905 152.859 239.984 151.49 236.695 152.629C232.944 153.793 230.286 157.914 231.476 161.817C232.544 166.436 233.478 170.982 233.418 175.77C233.406 188.219 237.265 199.856 239.487 211.893L239.717 214.232C237.957 212.572 236.222 210.887 234.486 209.214C235.02 217.42 238.176 224.851 239.329 232.949C230.493 229.154 222.664 223.821 217.542 215.493C211.704 206.196 210.781 195.237 212.845 184.619C215.357 171.406 221.183 157.126 228.611 145.889C232.01 140.628 236.926 137.307 242.327 134.361C242.23 138.798 242.035 143.235 241.817 147.659C242.752 147.623 243.674 147.574 244.596 147.538C246.684 136.034 249.621 123.876 255.897 113.863Z" fill="#4A7134"/>
<path d="M94.127 115.742C97.21 115.585 100.56 115.342 103.57 116.118C107.126 117.9 110.173 121.888 109.991 126.009C110.319 134.507 109.19 143.053 109.724 151.526C110.064 157.054 112.127 161.975 114.822 166.739C120.988 164.363 125.843 163.502 132.288 165.575C133.234 166.787 134.193 168 135.152 169.2C135.589 171.066 136.05 172.921 136.524 174.764C135.407 177.285 134.679 180.17 132.385 181.916C129.629 183.952 125.636 184.776 123.075 187.092C120.308 189.77 119.143 193.14 118.293 196.789C117.65 199.383 117.067 201.977 116.484 204.583C100.244 216.123 79.1614 220.693 59.5592 217.421L59.8869 213.929C61.5497 214.075 63.2126 214.22 64.8876 214.354C64.2443 212.693 63.5889 211.02 62.9091 209.372C62.3508 208.22 61.7682 207.081 61.1613 205.953C57.9691 201.832 53.5753 198.789 50.5652 194.583C47.4216 190.086 47.8828 184.522 45.2854 179.915C43.3798 176.946 39.2894 175.309 36.3642 173.454C30.5382 170 24.5786 164.363 22.8429 157.611C22.5031 153.756 25.4768 149.077 28.8996 147.308C33.7911 146.023 37.7236 147.914 41.9839 149.999C45.4796 151.684 49.3515 153.902 53.2355 154.362C54.9469 154.375 55.5538 153.465 55.044 151.817C53.0656 145.041 46.0986 137.295 46.6448 129.658C46.6569 125.343 50.3831 123.003 53.2598 120.433C59.8262 120.094 63.8073 122.567 68.0676 127.197C73.7602 132.749 74.8889 140.071 79.659 146.156C80.3751 146.253 81.1034 146.35 81.8195 146.435C83.8586 141.804 85.2423 137.125 86.2012 132.155C87.3543 125.779 88.9443 120.058 94.127 115.742Z" fill="black"/>
<path d="M353.179 116.069C366.19 115.803 378.377 119.027 390.453 123.549C390.32 124.336 390.186 125.124 390.053 125.912C378.826 121.948 366.943 122.906 355.57 125.682C352.014 126.518 348.421 127.925 344.792 128.215C341.163 126.652 338.116 123.561 334.948 121.245C340.811 119.451 347.074 116.384 353.179 116.069Z" fill="#62884B"/>
<path d="M106.168 125.064C106.97 130.458 106.084 136.374 105.695 141.804C105.137 148.362 105.986 155.053 107.831 161.345C108.96 164.872 110.514 168.484 113.973 170.266C118.488 170.157 123.064 167.636 127.531 168C132.968 168.981 133.684 177.624 128.793 179.503C123.792 182.194 119.131 183.6 116.801 189.334C114.301 193.601 116.133 201.165 111.473 203.432C98.631 211.554 83.4955 215.396 68.3235 214.936C67.401 211.311 66.697 207.711 64.6458 204.523C61.8541 200.123 57.254 197.165 54.3895 192.995C51.5008 188.267 51.1488 181.952 48.3086 177.127C46.8642 174.667 44.0362 173.188 41.6572 171.745C36.6808 168.933 31.6073 165.575 28.3058 160.787C26.91 158.92 27.262 155.902 27.0557 153.659C28.1238 152.641 29.1797 151.611 30.2236 150.58C38.2222 150.956 43.5628 155.999 50.9424 157.951C54.9357 158.932 58.9411 157.041 58.9533 152.581C58.7469 145.113 50.7361 138.616 50.4084 130.894C50.0685 127.27 53.37 123.767 57.0719 124.434C60.871 125.209 64.1967 128.276 66.5271 131.246C70.0227 135.658 71.3822 140.737 74.2466 145.38C76.1037 148.605 79.6964 149.78 82.8158 151.477C87.4645 146.229 88.6054 139.998 89.8434 133.343C90.7052 129.343 91.397 123.973 94.4679 121.015C98.0727 117.148 105.634 119.839 106.168 125.064Z" fill="#5A8B40"/>
<path d="M391.049 119.912C394.945 122.276 397.057 125.682 400.298 128.81C403.029 131.452 404.898 134.919 407.253 137.998C407.763 141.295 408.527 144.689 408.491 148.035C405.808 153.308 403.781 158.884 397.931 161.187C397.154 162.133 396.378 163.078 395.613 164.036C395.115 162.351 394.642 160.678 394.132 158.993L392.627 158.193C390.976 157.236 389.326 156.266 387.699 155.284C393.986 153.829 399.897 152.605 404.825 148.108C404.777 147.114 404.716 146.12 404.655 145.126C399.776 141.21 394.096 139.065 388.148 137.307C386.57 136.834 384.992 136.374 383.415 135.925C385.077 139.55 387.056 142.544 386.752 146.702C386.91 150.702 384.507 152.86 382.359 155.841L385.393 155.805C377.491 158.714 369.954 157.939 361.7 157.817C355.887 157.672 350.194 156.702 344.429 156.084C339.768 155.975 335.981 158.52 331.223 159.672C317.301 162.957 302.566 162.472 289.809 155.514C289.749 154.132 289.7 152.75 289.64 151.369C293.159 153.429 296.91 154.884 300.709 156.314C299.75 153.272 298.318 149.999 298.184 146.774C298.269 143.695 300.078 140.483 301.377 137.744C294.992 139.901 289.688 143.586 284.7 148.023C285.598 148.702 286.508 149.381 287.418 150.059C285.646 149.817 283.862 149.611 282.078 149.405C282.369 147.853 282.648 146.302 282.927 144.738C283.631 144.229 284.323 143.707 285.015 143.174C284.433 142.932 283.838 142.677 283.255 142.435C281.155 141.501 279.08 140.519 276.992 139.562C286.035 140.18 291.509 135.174 298.998 131.367C306.025 127.731 313.842 126.713 321.671 127.331C328.298 127.682 334.439 130.107 341.103 130.192C343.555 132.143 344.878 133.852 345.958 136.786C346.456 138.119 346.953 139.465 347.427 140.81C352.573 138.144 357.768 135.622 363.072 133.271C362.162 133.174 361.239 133.089 360.329 133.016C362.538 132.107 364.662 131.052 366.798 129.986L363.825 129.428C370.172 128.276 376.557 128.446 382.929 127.622C385.369 127.331 387.711 126.603 390.054 125.913C390.187 125.125 390.321 124.337 390.454 123.549L391.049 119.912Z" fill="#151615"/>
<path d="M322.593 122.033C323.164 122.979 323.734 123.936 324.292 124.882C316.099 124.567 307.3 125.294 299.568 128.203C294.944 129.973 291.472 132.943 287.042 135.076C283.729 136.664 280.306 137.986 276.992 139.561C279.08 140.519 281.155 141.501 283.255 142.434C279.189 142.834 275.208 143.719 271.3 144.931C275.426 145.853 278.995 147.138 282.927 144.738C282.648 146.301 282.369 147.853 282.078 149.404C283.862 149.611 285.646 149.817 287.418 150.059C288.159 150.495 288.899 150.932 289.64 151.368C289.7 152.75 289.749 154.132 289.809 155.514C288.887 155.041 287.977 154.568 287.066 154.084C284.663 152.69 282.284 150.92 279.662 149.962C276.3 149.004 272.647 149.077 269.297 148.071C267.294 146.326 267.452 144.18 267.938 141.792C270.086 140.531 272.465 139.84 274.82 139.052C274.917 137.986 275.026 136.907 275.123 135.84C279.019 134.822 282.709 133.973 286.241 131.949C290.78 129.343 294.628 126.337 299.726 124.761C306.972 122.554 315.068 122.13 322.593 122.033Z" fill="black"/>
<path d="M324.292 124.882C330.349 125.646 336.029 126.555 341.103 130.191C334.439 130.106 328.298 127.682 321.671 127.331C313.842 126.712 306.025 127.731 298.998 131.367C291.509 135.173 286.035 140.18 276.992 139.562C280.306 137.986 283.729 136.664 287.042 135.076C291.472 132.943 294.944 129.973 299.568 128.203C307.3 125.294 316.099 124.567 324.292 124.882Z" fill="#4B5843"/>
<path d="M382.929 127.621C376.556 128.446 370.172 128.276 363.824 129.428C358.399 130.325 353.094 131.707 347.584 132.082C358.593 126.143 370.803 125.973 382.929 127.621Z" fill="#40463B"/>
<path d="M317.604 129.767C325.045 129.694 331.793 131.052 338.299 134.737C331.101 134.083 324.304 132.482 317.604 129.767Z" fill="#3F493D"/>
<path d="M314.363 134.179C323.649 133.5 333.213 136.313 341.612 140.058C334.621 138.761 327.035 135.367 319.995 136.482C318.138 135.67 316.245 134.943 314.363 134.179Z" fill="#80817F"/>
<path d="M360.329 133.016C361.239 133.089 362.162 133.174 363.072 133.271C357.768 135.622 352.573 138.144 347.427 140.81C346.953 139.465 346.456 138.119 345.958 136.786C350.692 135.319 355.462 133.986 360.329 133.016Z" fill="#6B7D5C"/>
<path d="M319.995 136.482C327.034 135.367 334.62 138.761 341.612 140.058C342.486 140.458 343.347 140.883 344.221 141.307C344.173 143.695 344.136 146.083 344.088 148.483C342 150.714 340.277 152.932 337.266 153.986C330.87 156.471 324.049 158.047 317.179 158.338C319.982 156.241 322.774 154.823 324.158 151.392C325.675 147.113 325.056 142.095 322.968 138.07L319.995 136.482Z" fill="#FBFCF9"/>
<path d="M383.414 135.925C384.992 136.374 386.57 136.834 388.148 137.307C394.095 139.065 399.776 141.21 404.655 145.126C404.716 146.12 404.777 147.114 404.825 148.108C399.897 152.605 393.986 153.829 387.699 155.284C386.922 155.466 386.157 155.635 385.393 155.805L382.358 155.841C384.507 152.859 386.91 150.702 386.752 146.701C387.056 142.544 385.077 139.549 383.414 135.925Z" fill="#FAFBF9"/>
<path d="M301.377 137.743C300.079 140.483 298.27 143.695 298.185 146.774C298.319 149.999 299.751 153.272 300.71 156.314C296.911 154.884 293.16 153.429 289.64 151.368C288.9 150.932 288.159 150.496 287.419 150.059C286.509 149.38 285.598 148.702 284.7 148.023C289.689 143.586 294.993 139.901 301.377 137.743Z" fill="#FBFBF9"/>
<path d="M361.421 138.168C359.867 143.853 359.188 148.411 361.227 154.096C362.052 154.702 362.89 155.308 363.715 155.926C357.209 156.241 352.027 155.587 345.909 153.332C346.904 150.75 347.657 147.562 349.453 145.392C351.42 143.344 354.163 141.877 356.627 140.507C358.217 139.707 359.819 138.931 361.421 138.168Z" fill="#FBFAFA"/>
<path d="M377.091 139.877C378.608 140.446 380.125 141.016 381.642 141.574C382.031 143.283 383.681 146.301 382.225 147.72C379.712 151.223 373.34 149.586 373.085 145.259C372.721 142.628 375.501 141.465 377.091 139.877Z" fill="#F7FAFB"/>
<path d="M365.391 139.937C367.139 140.98 368.826 142.119 370.525 143.247C367.879 144.701 366.423 145.198 363.4 144.944C364.044 143.259 364.699 141.598 365.391 139.937Z" fill="#B0B3B0"/>
<path d="M283.254 142.435C283.837 142.677 284.432 142.932 285.014 143.174C284.322 143.707 283.631 144.229 282.927 144.738C278.994 147.138 275.426 145.853 271.299 144.932C275.207 143.719 279.188 142.835 283.254 142.435Z" fill="#64745E"/>
<path d="M303.403 141.331C305.369 141.61 307.02 142.532 308.768 143.429C306.559 145.635 305.758 146.689 302.359 146.471C302.639 144.738 302.893 143.016 303.403 141.331Z" fill="#A1A39E"/>
<path d="M312.35 142.241C314.826 142.156 317.29 142.119 319.766 142.107C320.397 144.192 320.931 146.314 321.477 148.435C318.248 149.914 316.222 150.314 312.653 149.732C312.495 147.235 312.41 144.738 312.35 142.241Z" fill="#FAFCF9"/>
<path d="M306.232 152.714C308.356 151.344 310.031 154.532 307.349 155.066C305.916 154.702 305.54 153.926 306.232 152.714Z" fill="#7D7D7D"/>
<path d="M369.359 152.92L370.221 152.423L371.107 152.908V153.902L370.245 154.411L369.359 153.926V152.92Z" fill="#85867E"/>
<path d="M287.066 154.084C287.977 154.568 288.887 155.041 289.809 155.514C302.566 162.472 317.301 162.957 331.223 159.672C335.981 158.52 339.768 155.975 344.428 156.084C339.537 160.193 334.876 162.169 328.565 163.151C318.636 164.617 307.991 164.533 298.318 161.636C292.953 160.06 288.195 157.72 282.939 155.805C284.299 155.211 285.67 154.629 287.066 154.084Z" fill="#4D5E44"/>
<path d="M239.414 155.429C242.036 157.66 244.403 159.866 242.703 163.587C241.744 166.594 238.431 165.381 236.04 165.733C235.239 162.642 234.705 160.266 236.04 157.199C237.156 156.593 238.273 155.999 239.414 155.429Z" fill="#C7CFCD"/>
<path d="M282.939 155.805C288.194 157.72 292.952 160.06 298.317 161.636C307.991 164.533 318.635 164.618 328.564 163.151C334.875 162.169 339.536 160.193 344.428 156.084C350.193 156.702 355.886 157.672 361.699 157.817C369.953 157.938 377.49 158.714 385.392 155.805C386.157 155.635 386.921 155.466 387.698 155.284C389.325 156.266 390.975 157.235 392.626 158.193C385.538 159.26 378.631 160.702 371.41 160.545C363.229 160.884 355.315 159.599 347.292 158.169C343.214 162.448 338.832 164.339 333.188 165.806C332.642 167.187 332.084 168.569 331.538 169.951C323.672 174.533 315.322 177.661 306.631 180.267C306.461 179.031 306.316 177.782 306.158 176.533C313.95 174.073 321.56 171.551 328.358 166.86C318.356 166.678 309.265 167.781 299.385 165.418C293.122 164.109 287.381 161.527 281.773 158.52C282.15 157.611 282.538 156.714 282.939 155.805Z" fill="#040404"/>
<path d="M394.131 158.993C394.641 160.678 395.114 162.351 395.612 164.036C392.857 167.866 389.543 170.169 385.295 172.145C385.331 172.727 385.368 173.297 385.404 173.879C392.007 179.794 395.321 186.328 396.801 195.019L397.869 196.159C396.328 196.207 394.786 196.329 393.257 196.547C392.25 188.17 387.844 179.54 380.488 175.188C374.213 174.594 367.525 176.109 361.687 178.4C357.306 176.303 352.924 174.23 348.506 172.23C348.603 171.054 348.688 169.879 348.773 168.703C354.271 170.727 359.369 172.691 365.341 172.703C372.296 172.764 379.906 170.715 385.962 167.272C389.555 165.236 391.667 162.169 394.131 158.993Z" fill="black"/>
<path d="M240.883 169.794C242.509 174.436 241.696 179.952 242.425 184.886C245.18 202.923 250.278 220.633 257.111 237.555C263.957 253.447 270.984 269.375 283.45 281.776C288.632 286.491 296.17 291.231 303.464 290.297C310.698 289.449 317.289 285.849 322.557 280.939C332.971 271.339 340.241 258.914 346.322 246.271C347.463 243.677 349.575 242.343 351.881 240.901C349.721 251.216 343.725 260.914 337.862 269.557C330.616 279.412 320.615 290.152 308.599 293.825C300.394 296.892 291.048 292.855 284.311 288.115C274.31 280.697 266.238 270.527 260.983 259.253C253.931 244.465 248.712 228.742 244.075 213.057C240.737 200.377 237.448 187.019 237.557 173.842L237.63 172.861C238.443 171.406 239.524 170.388 240.883 169.794Z" fill="#9A9F9B"/>
<path d="M84.8905 180.461C84.1137 184.158 82.8757 187.795 82.3538 191.528C82.1232 194.753 83.1184 198.05 82.9607 201.274C81.9411 201.759 80.8487 202.099 79.6957 202.305C78.3605 195.432 77.5352 189.068 80.9337 182.607C81.4799 181.189 83.6646 181.067 84.8905 180.461Z" fill="#243A17"/>
<path d="M283.303 185.043C286.738 186.316 289.712 189.249 292.722 191.31C298.536 195.601 306.158 197.262 313.089 198.959C326.974 202.402 341.321 204.244 355.631 204.584C368.849 204.826 381.314 202.147 393.258 196.547C394.787 196.329 396.328 196.207 397.87 196.159C400.625 198.656 401.754 201.129 400.807 204.887C399.217 208.426 395.709 210.875 392.772 213.239C392.675 216.887 393.597 220.015 390.697 222.863C386.837 226.149 381.727 227.227 376.775 227.312C374.869 227.349 372.951 227.361 371.034 227.336C344.95 227.385 318.478 224.791 293.074 218.718C286.629 216.996 280.135 214.427 274.637 210.608C268.787 206.426 264.49 197.48 267.172 190.486C270.316 184.279 277.186 183.734 283.303 185.043Z" fill="black"/>
<path d="M285.137 190.389C288.924 193.262 292.347 196.292 296.85 198.062C308.271 202.802 321.343 204.983 333.529 206.79C343.591 208.365 353.993 208.329 364.165 208.002C373.705 207.638 382.104 204.523 391.074 201.759C394.06 200.741 395.565 200.85 398.563 201.832C396.305 205.105 393.987 207.99 390.333 209.772C378.05 212.329 365.743 213.214 353.204 212.96C334.051 213.505 314.643 210.644 296.51 204.462C290.162 202.414 285.028 198.341 279.068 195.65C278.133 196.341 277.284 197.141 276.41 197.892C288.317 207.238 302.664 211.226 317.301 214.075C327.922 215.784 338.809 216.778 349.563 217.348C363.084 217.869 375.926 214.984 389.362 214.778C388.974 216.475 388.804 218.512 387.857 219.99C385.43 222.851 380.987 223.142 377.504 223.372C366.568 223.603 355.632 223.566 344.72 222.669C331.697 222.378 318.673 219.881 305.831 217.796C295.976 215.542 284.008 213.275 276.143 206.62C272.587 203.796 270.22 199.735 270.22 195.116C270.329 192.874 271.057 190.243 273.388 189.37C276.993 187.904 282.042 187.661 285.137 190.389Z" fill="#C8605F"/>
<path d="M279.067 195.65C285.027 198.341 290.161 202.414 296.509 204.462C314.643 210.644 334.051 213.505 353.204 212.96C365.742 213.214 378.049 212.329 390.333 209.772C389.993 211.432 389.677 213.105 389.362 214.778C375.925 214.984 363.084 217.869 349.562 217.348C338.809 216.778 327.921 215.784 317.301 214.075C302.663 211.226 288.316 207.238 276.409 197.892C277.283 197.141 278.133 196.341 279.067 195.65Z" fill="#090909"/>
<path d="M118.293 196.789C118.366 197.832 118.438 198.862 118.511 199.905C120.393 201.008 122.237 202.171 124.07 203.347C125.09 207.469 126 211.493 127.966 215.275C129.484 218.257 131.571 221.118 132.579 224.27C133.21 227.082 132.919 230.161 132.906 233.034C136.815 238.113 139.133 243.531 140.796 249.689C146.646 252.089 151.562 255.253 155.494 260.284C162.461 260.005 169.028 257.799 175.995 257.605C184.613 257.253 193.23 257.156 201.848 257.35C208.196 251.714 214.884 247.459 223.708 247.483C225.371 243.968 226.864 240.452 228.951 237.143C229.57 238.658 230.177 240.161 230.796 241.677C227.009 248.707 226.123 257.702 224.654 265.484C222.737 277.157 221.05 289.061 221.207 300.916C228.539 305.656 235.396 311.062 241.295 317.511C239.936 323.693 235.105 325.003 230.808 328.797C226.232 332.47 223.259 337.003 219.969 341.755C222.215 359.501 225.99 377.09 228.793 394.764C233.187 417.614 237.994 439.651 238.443 463.059C238.795 474.381 238.479 485.678 238.212 497H234.571C234.789 481.351 235.639 465.277 233.576 449.761C232.483 431.966 228.599 414.85 225.358 397.37C222.373 380.921 219.654 364.423 216.789 347.949C216.413 344.725 215.745 341.367 217.603 338.47C221.96 330.967 229.291 324.724 236.234 319.645C236.149 318.954 236.064 318.251 235.979 317.548C230.311 312.42 224.922 307.341 217.906 304.02C217.675 302.965 217.445 301.898 217.226 300.819C214.774 311.244 210.842 322.627 203.766 330.857C199.044 336.446 192.939 340.579 186.069 343.101C185.948 358.362 186.761 373.89 185.462 389.103C185.207 396.134 185.462 403.067 184.309 410.05C182.379 439.179 178.641 468.223 173.725 497H170.011C171.674 483.593 174.126 470.247 175.849 456.828C178.532 433.239 181.238 409.225 181.639 385.503C182.974 371.672 183.12 357.562 181.36 343.755C169.768 344.143 158.274 344.07 146.816 342.022C127.068 338.3 106.871 330.421 91.5779 317.087C82.3898 309.462 75.1436 300.104 69.0748 289.885C62.035 277.933 56.3304 265.23 52.4099 251.92C49.2906 241.252 46.4261 229.931 46.5717 218.754C49.242 216.936 51.8759 215.469 54.8981 214.293C56.5488 210.996 58.2238 208.281 61.1611 205.953C61.768 207.081 62.3506 208.22 62.9089 209.372C61.4646 210.79 60.4086 211.942 59.8867 213.93L59.559 217.421C59.3648 219.518 59.1584 221.627 58.9642 223.724C73.9541 226.803 90.1942 223.276 104.407 218.257C111.326 215.809 117.164 211.251 119.13 203.917L116.484 204.584C117.067 201.977 117.649 199.383 118.293 196.789Z" fill="black"/>
<path d="M116.485 204.584L119.131 203.917C117.165 211.251 111.326 215.808 104.408 218.257C90.1949 223.275 73.9548 226.803 58.9648 223.724C59.159 221.627 59.3654 219.518 59.5596 217.421C79.1618 220.693 100.245 216.124 116.485 204.584Z" fill="#7DBCA6"/>
<path d="M256.443 205.226C257.584 205.129 258.725 205.08 259.854 205.068C262.148 210.753 264.126 213.796 269.297 217.226C269.127 218.378 268.957 219.542 268.787 220.693C266.141 219.251 263.131 217.917 261.213 215.529C258.822 212.608 257.342 208.862 256.443 205.226Z" fill="#1D3812"/>
<path d="M121.473 210.208C122.954 214.705 125.369 218.621 127.7 222.706C130.054 226.669 129.605 231.894 126.352 235.215C121.752 240.04 115.028 243.082 108.826 245.264C94.115 249.98 78.6031 252.877 63.1034 251.822C60.7851 251.628 58.5518 251.228 56.5248 250.004C55.1776 247.859 54.6192 245.119 54.0123 242.682C52.7258 236.561 51.3299 230.561 51.1357 224.281C55.8451 226.427 60.2389 228.451 65.5431 228.621C79.9504 229.167 95.086 226.463 108.437 220.972C113.972 218.754 118.002 214.948 121.473 210.208Z" fill="#FDFDFD"/>
<path d="M234.486 209.214C236.222 210.887 237.958 212.572 239.718 214.232L239.487 211.893C241.66 219.76 244.488 227.433 246.563 235.337C244.148 234.597 241.696 233.846 239.329 232.949C238.176 224.851 235.02 217.42 234.486 209.214Z" fill="#547545"/>
<path d="M62.91 209.372C63.5897 211.02 64.2451 212.693 64.8884 214.354C63.2134 214.22 61.5505 214.075 59.8877 213.929C60.4096 211.941 61.4656 210.79 62.91 209.372Z" fill="#627870"/>
<path d="M53.4782 218.609C55.5052 217.433 56.901 220.087 55.4445 221.566C53.4418 222.742 51.9974 220.075 53.4782 218.609Z" fill="#979996"/>
<path d="M236.513 235.24C239.269 243.604 241.963 251.81 242.946 260.611C246.041 283.606 247.813 306.577 249.318 329.718C249.452 339.415 249.622 349.113 249.695 358.81C249.634 366.144 250.702 373.393 250.544 380.751C250.447 398.425 251.358 416.401 249.598 433.954C249.78 443.991 247.716 453.652 246.721 463.58C244.694 474.744 242.643 485.872 240.409 497H238.213C238.48 485.678 238.795 474.38 238.443 463.059C237.994 439.651 233.188 417.614 228.794 394.764C225.99 377.09 222.215 359.501 219.97 341.755C223.259 337.003 226.233 332.47 230.809 328.797C235.105 325.002 239.936 323.693 241.295 317.511C235.397 311.062 228.539 305.656 221.208 300.916C221.05 289.061 222.737 277.157 224.655 265.484C226.123 257.702 227.01 248.707 230.796 241.677C232.253 239.046 233.916 236.828 236.513 235.24Z" fill="#FDFEFD"/>
<path d="M130.479 236.767C135.54 242.961 137.045 250.186 138.077 257.92C139.194 257.932 140.31 257.932 141.439 257.944L141.512 254.465C145.967 256.719 150.008 258.974 152.448 263.52C154.669 266.95 154.827 270.563 154.912 274.514L158.383 274.878C158.408 271.326 158.298 267.787 158.201 264.247C171.589 261.459 185.438 260.429 199.093 261.083C204.882 260.841 208.39 267.593 210.454 272.078C217.821 292.115 212.638 316.602 197.369 331.669C192.356 336.724 185.572 339.851 178.422 340.07C167.802 340.324 157.352 340.53 146.913 338.13C124.07 333.803 102.271 323.851 86.3953 306.492C73.1046 291.958 63.5402 273.896 57.8477 255.119C68.7594 257.398 79.7439 255.786 90.8134 254.016C104.966 250.889 120.138 247.774 130.479 236.767Z" fill="white"/>
<path d="M241.77 238.767C243.141 238.986 244.5 239.228 245.86 239.495C250.144 241.143 250.084 244.646 251.322 248.489C246.03 246.04 244.233 243.98 241.77 238.767Z" fill="#5A6F55"/>
<path d="M264.332 244.258C268.896 244.622 273.411 245.422 277.963 245.846C289.918 247.265 302.323 247.119 314.351 246.865C324.025 246.719 333.419 245.192 343.008 244.198C341.758 246.283 340.714 249.556 338.359 250.622C328.309 255.677 316.839 255.423 305.867 256.223C293.62 256.453 281.264 255.18 269.114 253.665C267.209 250.671 265.449 247.64 264.332 244.258Z" fill="#608948"/>
<path d="M244.804 249.798C247.887 250.647 251.589 251.968 253.713 254.465C256.14 257.896 257.621 261.993 259.781 265.617C263.496 272.405 268.387 278.139 273.194 284.139C266.761 280.018 260.097 275.909 254.332 270.866C251.759 268.466 248.833 265.714 247.413 262.441C246.054 258.38 245.289 254.053 244.804 249.798Z" fill="#75B39B"/>
<path d="M223.223 251.047C220.917 263.023 218.647 274.915 218.441 287.158C218.113 285.558 217.785 283.958 217.458 282.358C215.71 273.921 212.845 266.066 207.019 259.544C206.971 259.035 206.922 258.538 206.886 258.029C211.886 254.271 216.887 251.665 223.223 251.047Z" fill="#F8F8F6"/>
<path d="M336.466 256.223C331.587 265.241 325.214 274.381 316.803 280.418C316.5 273.108 315.371 266.914 312.409 260.211C320.469 259.083 328.479 257.798 336.466 256.223Z" fill="#73C1A5"/>
<path d="M270.717 257.604C275.912 258.077 281.058 258.877 286.18 259.823C283.935 263.677 281.896 267.569 279.99 271.593C277.271 268.296 274.734 264.877 272.659 261.12C272.003 259.956 271.36 258.78 270.717 257.604Z" fill="#7BBEA6"/>
<path d="M296.958 264.769C299.07 271.593 298.985 279.327 299.179 286.406C292.515 284.564 287.636 280.624 283.072 275.594C284.844 271.096 286.592 265.302 290.173 261.896C292.794 260.308 296.108 261.884 296.958 264.769Z" fill="#74C1A5"/>
<path d="M308.513 261.932C312.215 268.793 313.028 275.812 312.931 283.497C309.618 285 306.644 285.764 303.039 286.176C302.978 280.442 302.287 274.806 301.837 269.108C301.631 265.278 304.872 262.441 308.513 261.932Z" fill="#7DBAA3"/>
<path d="M346.019 264.223C349.053 268.114 350.777 273.351 352.67 277.872C355.316 285.085 358.994 293.025 359.031 300.759C352.585 305.45 347.633 311.389 342.693 317.56C342.463 303.013 342.475 288.479 342.451 273.933C342.281 270.163 343.919 267.205 346.019 264.223Z" fill="#FBFDFA"/>
<path d="M350.752 264.575C351.674 265.314 352.597 266.053 353.531 266.769C360.195 271.69 366.494 277.048 372.757 282.454C375.039 287.327 374.881 293.34 375.719 298.601C377.224 308.577 376.568 318.493 377.309 328.505C378 335.657 378.037 342.87 377.891 350.034C374.578 349.149 371.616 347.573 368.691 345.816C369.419 341.803 369.82 338.373 367.574 334.76C363.253 327.475 355.109 322.081 348.045 317.693C351.832 311.365 357.986 307.607 362.464 302.007C363.399 295.461 361.493 289.728 359.212 283.727C356.59 277.133 354.284 270.745 350.752 264.575Z" fill="#FDFDFC"/>
<path d="M248.335 270.49C254.355 276.139 260.46 280.915 267.282 285.57C272.744 292.818 280.135 296.164 287.382 301.28C285.901 310.286 283.825 318.311 286.216 327.475C288.814 338.821 296.521 346.458 298.172 357.792C299.131 364.289 299.568 371.296 298.099 377.744C297.286 381.49 294.543 383.114 291.703 385.26L291.302 385.551C287.649 386.024 284.384 386.521 281.677 389.236C274.941 394.788 275.96 407.164 283.146 411.831C286.046 413.443 289.663 414.11 292.88 414.777C296.242 415.407 299.774 415.419 303.173 415.565C303.088 419.626 302.978 423.674 302.869 427.735C294.251 427.602 285.585 427.602 276.98 426.983C269.43 426.244 261.917 425.177 254.355 424.608C254.112 401.879 254.586 379.09 253.93 356.361C252.887 346.676 253.433 336.966 252.595 327.269C251.685 319.135 252.146 310.965 251.272 302.819C250.156 292.055 249.549 281.242 248.335 270.49Z" fill="#6EC6A6"/>
<path d="M309.958 272.066C309.982 273.339 310.006 274.611 310.031 275.884C308.404 275.933 306.778 275.969 305.151 276.005C305.346 274.817 305.552 273.642 305.77 272.466C307.154 272.296 308.55 272.187 309.958 272.066Z" fill="#0D402D"/>
<path d="M338.142 275.642C338.154 285.194 339.088 294.71 338.991 304.262C339.149 345.318 339.44 386.387 339.465 427.444C332.158 428.075 324.912 428.462 317.568 428.196C322.071 427.505 326.574 426.923 331.138 426.656C331.514 387.054 330.313 347.488 330.483 307.898C330.252 301.595 331.005 294.988 329.924 288.77C329.366 287.982 328.759 287.206 328.128 286.467C331.648 283.048 334.828 279.254 338.142 275.642Z" fill="#63AC91"/>
<path d="M374.032 278.563C376.399 281.06 378.644 283.691 380.902 286.285C386.255 292.455 388.779 301.401 390.988 309.123C393.246 319.087 395.904 329.318 396.547 339.524C396.814 339.779 397.081 340.033 397.348 340.288C398.125 346.531 399.06 352.713 400.395 358.871C403.381 375.66 408.114 392.751 408.734 409.734C409.765 424.753 415.409 440.524 415.773 455.773C415.858 462.537 415.785 469.531 414.462 476.186C413.868 480.187 408.151 482.029 408.612 486.042C408.382 490.49 411.307 493.8 413.953 497H408.527C405.76 492.89 405.129 488.369 404.582 483.557C397.433 485.145 390.345 486.575 383.002 486.757C382.893 490.175 382.783 493.581 382.686 497H377.516C379.797 496.309 378.875 492.842 379.178 490.939C379.239 477.774 379.263 464.622 379.361 451.458C377.236 452.221 375.1 452.961 372.94 453.628C373.061 452.452 373.182 451.276 373.304 450.1C380.392 445.857 384.131 439.36 386.243 431.578C387.068 425.42 388.658 419.638 388.901 413.359C389.071 408.498 389.204 403.661 389.799 398.825C390.466 389.576 390.127 380.23 390.102 370.956C385.927 373.187 381.958 375.563 377.406 376.969C375.646 376.957 373.886 376.896 372.139 376.835C372.479 368.12 372.406 359.44 373.316 350.761C374.845 350.519 376.363 350.264 377.892 350.034C378.038 342.87 378.001 335.657 377.309 328.505C376.569 318.493 377.224 308.577 375.719 298.601C374.882 293.34 375.04 287.327 372.758 282.454C373.182 281.157 373.607 279.86 374.032 278.563Z" fill="black"/>
<path d="M267.282 285.57C273.315 288.928 280.112 290.273 286.059 293.716C288.936 295.304 291.909 296.674 294.932 297.959C292.152 309.147 289.895 319.79 293.402 331.209C295.466 338.034 299.641 343.707 302.311 350.192C303.671 355.622 302.663 361.708 303.161 367.308C303.646 372.702 303.913 377.818 302.627 383.139C298.913 383.648 295.308 384.206 291.703 385.26C294.543 383.115 297.286 381.49 298.1 377.745C299.568 371.296 299.131 364.29 298.172 357.792C296.522 346.458 288.814 338.821 286.217 327.475C283.826 318.311 285.901 310.286 287.382 301.28C280.136 296.164 272.744 292.819 267.282 285.57Z" fill="#66AB90"/>
<path d="M328.127 286.467C328.758 287.206 329.365 287.982 329.923 288.77C331.004 294.989 330.251 301.595 330.482 307.898C330.312 347.488 331.513 387.054 331.137 426.656C326.573 426.923 322.07 427.505 317.567 428.196C313.877 428.305 310.175 428.341 306.486 428.366C306.692 423.868 306.304 418.668 307.881 414.401C310.685 410.231 314.581 408.025 315.091 402.51C315.868 396.485 312.142 392.097 314.278 386.678C316.184 381.151 317.337 375.805 320.432 370.787C317.652 364.011 319.764 357.04 317.045 350.289C313.695 341.888 308.367 335.257 306.522 326.069C304.277 316.481 306.024 307.28 309.083 298.116C316.001 295.134 322.544 291.607 328.127 286.467Z" fill="#6FC5A6"/>
<path d="M379.311 289.861C382.746 296.589 385.744 303.462 387.431 310.844C391.837 329.027 393.743 347.791 397.76 366.071C399.46 375.32 401.887 384.509 403.125 393.806C403.951 401.152 404.776 408.474 405.48 415.832C406.694 427.59 410.699 439.106 411.124 450.9C404.837 452.634 398.44 453.628 392.056 454.912C389.021 455.058 385.987 455.106 382.965 455.131C382.054 446.173 387.504 440.912 389.628 432.754C390.988 428.511 391.497 424.159 392.104 419.759C394.095 400.509 393.973 381.248 393.755 361.913C392.505 360.592 391.255 359.259 389.992 357.95C390.089 354.374 390.187 350.798 390.271 347.21C388.9 346.058 387.528 344.918 386.145 343.791C384.712 343.815 383.28 343.828 381.848 343.852C381.775 335.112 381.933 326.42 380.707 317.729C380.331 308.395 378.899 299.231 379.311 289.861Z" fill="#FDFDFC"/>
<path d="M299.471 298.77C301.146 298.661 302.821 298.576 304.496 298.504C302.615 308.201 300.017 316.723 302.59 326.675C304.812 337.427 312.203 345.476 314.667 355.901C316.767 368.847 313.284 380.993 307.348 392.412C306.062 392.206 304.775 392.012 303.501 391.818C304.593 385.672 308.125 380.957 308.696 374.702C309.217 368.98 309.266 363.125 308.526 357.416C306.814 346.458 298.294 337.682 296.315 327.16C294.3 317.862 295.66 307.462 299.471 298.77Z" fill="#E9DEBF"/>
<path d="M217.226 300.819C217.444 301.898 217.675 302.965 217.905 304.019C218.427 306.141 218.707 308.056 220.503 309.498C224.351 312.796 228.271 315.862 231.548 319.778C225.892 325.875 218.767 330.433 213.281 336.639C209.494 341.112 210.101 346.179 210.89 351.561C213.487 366.677 216.619 381.696 219.119 396.824C222.275 413.989 225.589 431.336 227.482 448.694C228.526 464.743 228.756 480.938 228.028 497H173.725C178.64 468.222 182.379 439.178 184.309 410.049C185.462 403.067 185.207 396.134 185.462 389.103C186.76 373.89 185.947 358.362 186.069 343.1C192.938 340.579 199.044 336.445 203.765 330.857C210.841 322.626 214.774 311.244 217.226 300.819Z" fill="white"/>
<path d="M217.906 304.019C224.922 307.341 230.311 312.42 235.979 317.547C236.064 318.25 236.149 318.953 236.234 319.644C229.292 324.723 221.96 330.966 217.603 338.47C215.746 341.367 216.414 344.724 216.79 347.949C219.654 364.423 222.373 380.92 225.359 397.37C228.6 414.85 232.484 431.966 233.576 449.761C235.64 465.277 234.79 481.35 234.571 497H228.029C228.757 480.938 228.527 464.743 227.483 448.694C225.59 431.335 222.276 413.989 219.12 396.824C216.62 381.696 213.488 366.677 210.891 351.561C210.102 346.179 209.495 341.112 213.282 336.639C218.768 330.433 225.893 325.875 231.549 319.778C228.272 315.862 224.352 312.795 220.504 309.498C218.708 308.056 218.428 306.14 217.906 304.019Z" fill="#E8E8E8"/>
<path d="M317.021 308.044C315.007 308.88 312.98 309.656 310.94 310.444C310.989 308.383 311.062 306.335 311.207 304.274C314.06 304.819 315.116 305.898 317.021 308.044Z" fill="#2D7058"/>
<path d="M344.295 319.244C346.953 321.475 349.854 323.354 352.694 325.33C357.319 328.603 361.106 332.542 364.929 336.688C365.645 349.198 363.387 361.21 362.477 373.623C358.399 414.886 352.597 456.052 346.116 497H344.04C343.882 469.932 343.809 442.851 343.785 415.783C342.584 384.266 343.227 352.64 342.511 321.099C343.105 320.481 343.7 319.863 344.295 319.244Z" fill="#FBFDFB"/>
<path d="M315.808 334.033C318.199 334.87 317.35 337.136 317.884 339.173C316.585 338.955 315.286 338.724 314 338.47C313.745 337.585 313.514 336.7 313.296 335.803C314.121 335.197 314.959 334.603 315.808 334.033Z" fill="#01452A"/>
<path d="M386.399 347.997C386.606 353.937 386.982 359.998 386.436 365.926C386.387 368.774 383.85 369.78 382.042 371.562C379.724 364.253 380.974 356.81 383.316 349.682C383.632 348.555 385.501 348.506 386.399 347.997Z" fill="#78312D"/>
<path d="M370.464 350.313C371.387 352.689 372.224 354.98 371.957 357.586C371.484 362.871 371.205 368.241 370.416 373.49C369.821 374.52 368.838 375.333 367.491 375.951C365.439 372.848 365.621 369.562 366.01 366.071C366.629 361.138 367.017 356.192 367.454 351.234C368.449 350.895 369.457 350.592 370.464 350.313Z" fill="#294179"/>
<path d="M375.113 354.168C378.888 353.295 377.565 357.659 378.123 360.01C377.929 364.641 378.572 371.259 374.215 374.169C373.474 367.647 373.389 360.544 375.113 354.168Z" fill="#634534"/>
<path d="M388.548 362.762C390.685 361.259 392.008 364.714 389.556 365.247C388.208 364.871 387.869 364.035 388.548 362.762Z" fill="black"/>
<path d="M390.102 370.956C390.126 380.23 390.466 389.576 389.798 398.825C389.204 403.661 389.07 408.498 388.9 413.359C388.657 419.638 387.067 425.42 386.242 431.578C384.13 439.36 380.392 445.858 373.303 450.1C373.182 451.276 373.061 452.452 372.939 453.628C375.1 452.961 377.236 452.222 379.36 451.458C379.263 464.622 379.239 477.774 379.178 490.939C378.874 492.842 379.797 496.309 377.515 497H349.938C356.189 457.87 361.712 418.656 366.069 379.284L368.533 378.86C371.495 378.387 374.517 377.829 377.406 376.969C381.957 375.563 385.926 373.187 390.102 370.956Z" fill="#FEFEFE"/>
<path d="M362.477 373.623C363.436 374.411 364.382 375.211 365.317 376.023C366.397 376.957 367.465 377.902 368.533 378.86L366.069 379.284C361.712 418.656 356.189 457.87 349.939 497H346.115C352.597 456.052 358.398 414.886 362.477 373.623Z" fill="black"/>
<path d="M291.303 385.551C286.715 389.309 283.111 393.77 283.329 400.025C283.499 406.619 287.274 411.601 292.881 414.777C289.665 414.11 286.048 413.443 283.147 411.831C275.961 407.164 274.942 394.788 281.678 389.236C284.385 386.521 287.65 386.024 291.303 385.551Z" fill="#69A991"/>
<path d="M299.277 386.909C299.253 387.709 299.241 388.497 299.216 389.285C295.551 391.309 291.934 392.339 290.392 396.643C288.256 401.079 291.133 406.207 295.053 408.474C299.459 410.34 305.625 409.031 307.81 404.437C308.793 401.746 308.817 398.643 309.133 395.806C309.885 395.77 310.65 395.721 311.415 395.685C311.305 400.219 312.131 404.098 308.757 407.734C305.225 412.183 299.738 412.607 294.568 411.213C288.632 408.255 284.809 400.825 288.244 394.558C290.502 389.794 294.628 388.448 299.277 386.909Z" fill="#989796"/>
<path d="M300.781 394.364C303.233 394.255 304.362 396.752 305.175 398.667C305.989 403.37 300.563 407.504 296.363 404.655C293.038 403.298 294.288 398.837 294.288 396.037C296.388 394.897 298.305 393.964 300.781 394.364Z" fill="#E7E9E8"/>
<path d="M314.739 404.861C317.264 405.892 318.903 405.237 319.024 408.413C318.878 410.886 316.427 410.062 314.679 410.765C314.691 408.801 314.715 406.837 314.739 404.861Z" fill="#26654D"/>
<path d="M255.423 428.608C265.898 429.844 276.457 430.281 286.969 431.19C288.449 438.257 288.498 443.76 287.005 450.852C281.58 450.173 276.118 450.585 270.68 449.846C264.903 449.239 259.028 447.882 253.226 447.882C253.408 441.894 251.709 433.663 255.423 428.608Z" fill="#82421F"/>
<path d="M291.86 431.966C301.533 431.675 311.231 432.075 320.905 432.123C320.893 438.427 320.869 444.718 320.808 451.022C311.207 451.506 301.461 451.603 291.896 450.549C291.884 449.07 291.884 447.579 291.884 446.1C291.933 441.421 291.666 436.657 291.86 431.966Z" fill="#979C99"/>
<path d="M339.282 431.978C339.428 438.015 339.416 444.039 339.537 450.076C336.952 450.609 334.391 451.155 331.757 451.446C333.189 445.033 333.214 439.421 332.218 432.948C329.742 432.681 327.278 432.402 324.814 432.099C329.997 431.032 334.075 430.96 339.282 431.978Z" fill="#603116"/>
<path d="M324.815 432.099C327.279 432.402 329.743 432.681 332.219 432.948C333.214 439.421 333.19 445.033 331.757 451.446C329.391 451.288 327.024 450.973 324.657 450.84C324.572 444.585 324.633 438.354 324.815 432.099Z" fill="#7D4423"/>
<path d="M298.839 434.96C305.029 434.39 311.377 434.548 317.519 435.59C318.393 440.136 318.478 443.494 317.47 448.039C311.353 448.973 304.738 449.518 298.621 448.464C294.312 447.591 295.344 443.312 295.222 440.002C295.271 437.469 296.06 435.36 298.839 434.96Z" fill="#392D1C"/>
<path d="M313.963 439.069C313.987 440.972 314.024 442.875 314.072 444.791C308.817 445.385 304.083 445.251 298.876 444.427C299.022 442.803 299.167 441.166 299.361 439.554C304.204 438.487 309.047 438.584 313.963 439.069Z" fill="#6D452B"/>
<path d="M291.885 446.1C291.885 447.579 291.885 449.07 291.897 450.549C301.461 451.603 311.208 451.506 320.809 451.021C322.095 450.937 323.37 450.852 324.656 450.84C327.023 450.973 329.39 451.288 331.757 451.446C334.391 451.155 336.952 450.609 339.537 450.076C341.345 453.094 343.239 455.688 343.166 459.41C343.239 471.92 343.263 484.478 343.081 497H339.513C340.326 489.642 340.314 482.55 339.683 475.18C339.136 468.513 340.132 461.628 339.039 455.046C337.91 454.028 336.49 454.137 335.058 453.967C327.375 453.591 319.631 454.258 311.936 454.246C296.461 454.125 281.167 454.088 265.789 452.076C261.407 451.664 256.346 450.585 252.037 451.725C251.199 453.591 251.564 455.894 251.479 457.919C250.046 471.059 245.798 483.593 245.519 497H240.409C242.642 485.872 244.694 474.744 246.721 463.58C248.019 458.61 249.173 453.616 250.01 448.549C251.078 448.306 252.158 448.088 253.226 447.882C259.028 447.882 264.903 449.24 270.68 449.846C276.118 450.585 281.58 450.173 287.005 450.852L289.931 451.228C290.659 449.555 291.326 447.846 291.885 446.1Z" fill="#202D5E"/>
<path d="M265.788 452.076C281.167 454.088 296.46 454.125 311.935 454.246C319.631 454.258 327.374 453.591 335.057 453.967C336.49 454.137 337.91 454.028 339.039 455.046C340.131 461.628 339.136 468.513 339.682 475.18C340.313 482.55 340.325 489.642 339.512 497H337.934C337.679 483.678 336.623 470.453 336.951 457.094C334.742 456.804 332.521 456.488 330.3 456.331C324.486 456.598 319.024 457.798 313.161 457.107C306.279 456.27 299.422 456.416 292.515 456.549C279.577 456.779 266.856 453.809 254.039 453.688C253.165 455.094 252.303 456.501 251.478 457.919C251.563 455.894 251.199 453.591 252.036 451.724C256.345 450.585 261.407 451.664 265.788 452.076Z" fill="#1B3E9B"/>
<path d="M292.516 456.549C299.423 456.416 306.28 456.27 313.162 457.107C319.025 457.798 324.487 456.598 330.301 456.331C331.599 460.173 332.231 463.822 332.133 467.907C332.024 477.605 331.963 487.302 332 497H245.52C245.799 483.593 250.047 471.059 251.479 457.919C252.304 456.501 253.166 455.094 254.04 453.688C266.857 453.809 279.578 456.779 292.516 456.549Z" fill="#0440FA"/>
<path d="M336.951 457.094C336.623 470.453 337.679 483.678 337.934 497H331.999C331.963 487.302 332.023 477.605 332.133 467.907C332.23 463.822 331.599 460.173 330.3 456.331C332.521 456.488 334.742 456.804 336.951 457.094Z" fill="#0432C5"/>
<path d="M411.962 454.876C412.265 462.101 411.646 469.131 410.748 476.283C402.895 481.302 392.081 482.308 382.989 482.187C382.977 474.453 383.062 466.707 383.099 458.973C389.568 458.937 395.807 458.416 402.13 456.997C405.408 456.27 408.673 455.531 411.962 454.876Z" fill="#FEFEFE"/>
<path d="M404.583 483.557C405.129 488.369 405.76 492.89 408.527 497H401.597C400.116 494.551 398.38 494.587 396.887 497H382.687C382.784 493.581 382.893 490.175 383.002 486.757C390.345 486.575 397.434 485.144 404.583 483.557Z" fill="#5E8848"/>
<path d="M401.596 497H396.887C398.38 494.587 400.115 494.551 401.596 497Z" fill="#3A5030"/>
<path d="M364.508 83.3075C364.508 83.3075 292.474 11.6986 242.69 24.3263C219.62 30.1783 211.339 52.9355 174.166 114.09C166.042 127.456 207.13 107.298 217.431 99.2485C217.431 99.2485 210.149 129.348 216.388 132.07C228.042 137.154 373.799 94.8796 364.508 83.3075Z" fill="black"/>
<path d="M358.762 82.3627C358.762 82.3627 289.466 15.1791 244.549 26.7225C221.498 32.6462 219.585 49.697 177.736 112.475C169.006 125.571 211.933 101.152 222.235 93.1028C222.235 93.1028 214.13 126.87 220.369 129.592C232.023 134.677 368.053 93.9344 358.762 82.3627Z" fill="#FF0000"/>
<path d="M213.87 98.8046C223.093 91.0219 225.737 84.9938 234.261 67.4694C234.261 67.4694 221.89 96.1056 220.208 102.767C218.526 109.429 220.558 96.6827 218.67 97.0911C216.782 97.4994 212.93 99.5982 213.87 98.8046Z" fill="black"/>
<path d="M234.258 67.4692C234.258 67.4692 201.17 107.658 185.709 111.172C185.709 111.172 187.434 112.43 187.81 112.984C188.095 113.405 208.585 107.239 220.302 93.1637C225.149 87.3402 231.21 73.7397 234.258 67.4692Z" fill="#DA0202"/>
<path d="M241.593 68.3065C241.593 68.3065 231.788 75.6004 222.374 96.6503C218.967 104.268 226.382 77.5783 241.593 68.3065Z" fill="black"/>
<path d="M212.066 138.869C211.726 136.244 211.208 134.35 217.779 127.206C225.118 121.636 230.988 118.943 235.787 117.371C237.341 116.861 227.355 117.992 228.613 117.329C248.884 106.637 270.21 103.398 270.21 103.398L261.649 101.045C273.719 95.2806 300.748 90.0366 313 88.9534L303.593 87.3021C320.636 82.8672 341.687 80.6485 352.825 82.6855C353.939 82.8897 351.83 80.3961 351.83 80.3961L359.673 80.5674C368.47 81.3186 372.672 83.5542 374.614 90.8656L377.281 102.577C378.313 106.157 373.593 110.241 366.18 110.362C366.18 110.362 348.375 110.996 297.177 125.357C248.811 138.924 233.579 152.929 233.579 152.929C226.122 157.774 220.614 155.188 216.275 149.022L212.066 138.869Z" fill="black"/>
<path d="M227.904 152.899C229.119 152.636 230.445 152.052 231.848 151.162C232.981 150.176 236.196 146.808 248.625 140.807C249.5 140.384 245.484 141.05 245.484 141.05C252.971 138.459 268.553 131.961 278.895 128.486C281.359 127.658 272.235 128.762 274.933 127.927C278.054 126.961 293.038 124.055 296.485 123.088C310.289 119.216 332.482 115.316 340.112 109.703C341.111 108.967 336.537 112.939 337.747 112.677C348.461 110.359 355.728 109.058 360.256 108.582C364.587 108.128 366.212 106.072 366.052 106.477C365.347 108.267 366.106 107.979 366.239 107.975L366.3 107.973C367.356 107.956 368.374 107.843 369.326 107.637C371.541 107.158 373.37 106.16 374.219 104.969C374.636 104.385 374.769 103.821 374.617 103.293L374.588 103.181L371.929 91.5045C370.366 85.6356 365.904 82.8178 355.673 82.5242L357.993 84.9734C346.59 83.3976 339.74 81.0106 314.09 86.5468C314.576 86.9209 320.838 89.6597 320.838 89.6597C320.838 89.6597 298.504 91.94 268.279 101.147C268.513 101.489 273.884 103.412 273.884 103.412C273.884 103.412 261.952 106.559 260.334 106.909C252.269 108.654 242.706 112.543 236.493 115.685C239.163 115.41 240.603 116.29 240.685 116.405C240.685 116.405 237.5 117.726 235.855 118.466C230.082 121.064 212.775 130.013 214.756 138.183L218.771 147.872C223.106 153.912 226.69 153.161 227.891 152.901L227.904 152.899Z" fill="white"/>
<path d="M221.113 150.592C224.362 153.645 226.913 153.112 227.89 152.901L227.906 152.898C229.12 152.635 230.443 152.048 231.848 151.157C232.98 150.175 236.196 146.806 248.624 140.803C249.499 140.381 245.48 141.047 245.48 141.047C252.972 138.456 268.551 131.956 278.896 128.481C281.359 127.652 272.234 128.757 274.933 127.922C278.056 126.955 293.036 124.049 296.482 123.085C310.287 119.21 332.48 115.311 340.112 109.697C341.11 108.962 336.539 112.935 337.748 112.673C348.462 110.355 355.726 109.055 360.255 108.58C364.589 108.123 366.211 106.069 366.055 106.472C365.348 108.259 366.105 107.974 366.239 107.97L366.302 107.971C367.359 107.95 368.374 107.838 369.323 107.632C371.541 107.152 373.369 106.156 374.217 104.963C374.638 104.381 374.77 103.815 374.616 103.29L374.586 103.175L371.932 91.4991C370.849 87.4493 368.393 84.856 363.616 83.5362C365.191 84.3018 369.084 85.9671 369.556 90.3118L371.438 99.7901C371.539 101.284 370.867 102.333 370.377 102.87C368.894 104.495 366.535 104.679 364.318 105.158C363.369 105.364 362.349 105.478 361.297 105.497L361.234 105.496C361.1 105.501 360.343 105.786 361.044 103.999C361.205 103.595 359.579 105.65 355.249 106.106C350.721 106.582 343.457 107.882 332.743 110.2C331.529 110.462 336.105 106.488 335.106 107.223C327.475 112.838 305.282 116.737 291.477 120.611C288.032 121.575 271.884 126.11 268.761 127.077C266.067 127.912 274.465 127.73 272.001 128.559C261.657 132.034 247.006 136.898 239.519 139.488C239.519 139.488 243.899 139.278 243.025 139.7C230.591 145.703 227.975 147.701 226.838 148.684C225.439 149.574 224.114 150.161 222.895 150.425L222.885 150.428C222.512 150.508 221.903 150.64 221.113 150.592Z" fill="#E6E6E6"/>
<path d="M188.515 135.014C190.595 132.946 203.02 123.479 195.011 111.38C192.664 107.836 186.973 103.949 183.41 102.41C182.988 102.227 186.87 107.436 184.425 106.434C176.482 103.177 164.774 101.31 157.97 104.504C157.392 104.775 163.784 106.307 163.222 106.625C162.439 107.067 152.206 112.463 149.66 121.339C149.66 121.339 151.812 119.226 153.577 120.745C154.627 121.65 151.551 125.831 155.497 134.112C157.408 138.125 163.507 143.818 168.493 143.44C168.493 143.44 167.336 139.86 168.42 140.007C181.008 141.715 192.008 138.098 192.712 136.572C192.786 136.412 187.363 136.161 188.515 135.014Z" fill="black"/>
<path d="M187.155 136.751C186.641 136.865 185.28 136.539 185.926 135.518C186.743 134.228 200.888 125.325 192.506 112.619C191.341 110.851 187.594 107.24 187.934 108.048C188.3 108.921 188.588 111.722 186.378 110.176C181.19 106.547 170.514 103.677 164.43 105.14C164.445 105.277 166.722 105.806 166.284 106.873C165.975 107.627 156.73 110.7 151.633 119.147C153.53 117.684 155.453 118.758 155.523 119.336C155.91 122.519 154.079 125.948 156.971 132.128C158.513 135.422 162.248 139.765 164.929 140.511C165.252 139.885 164.239 137.88 165.84 135.965C166.167 135.574 166.006 136.7 168.459 137.636C177.537 141.103 186.848 137.104 187.155 136.751Z" fill="white"/>
<path d="M155.718 128.727C155.981 129.84 156.399 131.063 157.045 132.415C158.617 135.693 162.39 140.016 165.077 140.742C165.394 140.114 164.983 137.625 165.551 136.341C165.63 136.163 166.121 136.926 168.586 137.843C177.698 141.253 186.979 137.198 187.283 136.844C186.771 136.958 185.404 136.641 186.045 135.619C186.808 134.39 199.474 126.264 193.599 114.667C195.613 124.326 185.441 130.921 184.761 132.019C184.12 133.041 185.484 133.359 186 133.244C185.695 133.599 176.41 137.654 167.298 134.244C164.838 133.326 165 132.204 164.667 132.591C163.727 133.684 163.617 136.538 163.794 137.143C161.106 136.416 157.329 132.094 155.761 128.815C155.748 128.784 155.73 128.753 155.718 128.727Z" fill="#E6E6E6"/>
</svg>
