<svg width="500" height="auto" viewBox="0 0 543 538" fill="none" xmlns="http://www.w3.org/2000/svg">
<path d="M385.893 76.7333C389.253 80.5466 390.306 85.2933 392.826 89.4933C397.36 91.88 402.053 93.2266 406 96.7066C412.426 102.08 415.706 109.547 417.2 117.64C421.306 119.08 425.8 120.373 429.573 122.56L428.92 126.56C415.653 121.587 402.266 118.04 387.973 118.333C381.266 118.68 374.386 122.053 367.946 124.027C371.426 126.573 374.773 129.973 378.76 131.693C382.746 131.373 386.693 129.827 390.6 128.907C403.093 125.853 416.146 124.8 428.48 129.16C425.906 129.92 423.333 130.72 420.653 131.04C407.333 129.227 393.92 129.413 381.826 135.947C387.88 135.533 393.706 134.013 399.666 133.027L402.933 133.64C400.586 134.813 398.253 135.973 395.826 136.973C390.48 138.04 385.24 139.507 380.04 141.12C378.853 137.893 377.4 136.013 374.706 133.867C369.133 129.867 362.893 128.867 356.24 128.027C355.626 126.987 355 125.933 354.373 124.893C357.04 124.84 359.693 124.76 362.346 124.68C357.693 122.813 352.333 121.293 348.32 118.307C345.04 116.027 342.386 113.253 338.346 112.373C331.466 110.787 324.013 111.333 317.24 113.227C311.306 114.92 306.626 118.08 301.453 121.267C299.92 120.267 298.386 119.28 296.813 118.347C291.546 117.653 286.333 116.84 281.106 115.907C274.213 126.92 270.986 140.293 268.693 152.947C267.68 152.987 266.666 153.04 265.64 153.08C265.88 148.213 266.093 143.333 266.2 138.453C260.266 141.693 254.866 145.347 251.133 151.133C242.973 163.493 236.573 179.2 233.813 193.733C231.546 205.413 232.56 217.467 238.973 227.693C244.6 236.853 253.2 242.72 262.906 246.893C265.506 247.88 268.2 248.707 270.853 249.52C268.573 240.827 265.466 232.387 263.08 223.733C260.64 210.493 256.4 197.693 256.413 184C256.48 178.733 255.453 173.733 254.28 168.653C252.973 164.36 255.893 159.827 260.013 158.547C263.626 157.293 267.933 158.8 269.786 162.173C271.773 165.707 270.933 169.427 270.48 173.227C268.453 184.253 270.453 195.053 272.72 205.867C275.96 220.787 280.266 235.56 286.093 249.693C287.146 251.613 287.72 254.573 290.28 254.893C294.76 255.853 299.44 255.947 303.973 256.64C317.36 258.907 331.666 258.027 345.333 258.16C356.093 258.373 366.453 256.48 376.96 254.387C388.093 252.067 398.666 247.907 407.586 240.72C409.693 240.747 411.8 240.733 413.893 240.693C409.053 244.507 404.853 248.52 399.213 251.253C395.973 253.187 392.546 253.4 391.106 257.32C388.706 263.547 385.693 269.213 384.173 275.76C393.52 282.08 402.56 289.44 410.88 297.067C410.413 298.493 409.946 299.92 409.48 301.347C402.6 295.4 395.68 289.507 388.36 284.093C387.333 283.307 386.32 282.493 385.306 281.68C389.186 288.467 391.72 295.493 394.6 302.747C397.106 309.347 399.2 315.653 398.173 322.853C393.253 329.013 386.493 333.147 382.333 340.107C390.093 344.933 399.04 350.867 403.786 358.88C406.253 362.853 405.813 366.627 405.013 371.04C408.226 372.973 411.48 374.707 415.12 375.68C413.44 375.933 411.773 376.213 410.093 376.48C409.093 386.027 409.173 395.573 408.8 405.16C410.72 405.227 412.653 405.293 414.586 405.307C411.413 406.253 408.093 406.867 404.84 407.387C403.666 406.333 402.493 405.293 401.306 404.267C400.28 403.373 399.24 402.493 398.186 401.627C399.186 387.973 401.666 374.76 400.88 361C396.68 356.44 392.52 352.107 387.44 348.507C384.32 346.333 381.133 344.267 378.213 341.813C377.56 342.493 376.906 343.173 376.253 343.853C377.04 378.547 376.333 413.333 377.653 448C377.68 477.773 377.76 507.56 377.933 537.333H376.88C377.08 523.56 377.053 509.747 376.973 495.987C377.053 491.893 374.973 489.04 372.986 485.72C372.853 479.08 372.866 472.453 372.706 465.813C366.986 464.693 362.506 464.773 356.813 465.947C356.613 472.827 356.546 479.68 356.64 486.56C355.226 486.573 353.826 486.667 352.413 486.76C352.48 479.827 352.506 472.907 352.52 465.973C341.893 465.92 331.24 465.48 320.613 465.8C320.4 470.96 320.693 476.2 320.64 481.347C320.026 483.267 319.293 485.147 318.493 486.987L315.28 486.573C316.92 478.773 316.866 472.72 315.24 464.947C303.693 463.947 292.093 463.467 280.586 462.107C276.506 467.667 278.373 476.72 278.173 483.307C277 483.533 275.813 483.773 274.64 484.04C273.72 489.613 272.453 495.107 271.026 500.573C272.12 489.653 274.386 479.027 274.186 467.987C276.12 448.68 275.12 428.907 275.226 409.467C275.4 401.373 274.226 393.4 274.293 385.333C274.213 374.667 274.026 364 273.88 353.333C272.226 327.88 270.28 302.613 266.88 277.32C265.8 267.64 262.84 258.613 259.813 249.413C256.96 251.16 255.133 253.6 253.533 256.493C252.853 254.827 252.186 253.173 251.506 251.507C252.4 250.24 253.333 249.013 254.253 247.773C249.36 244.373 244.52 241.347 240.36 236.987C234.16 230.747 230.453 222.053 229.48 213.373C227.013 197.733 231.4 181.027 237.746 166.76C241.666 158.133 246.48 149.213 252.853 142.133C257.066 137.587 262.453 135.333 268.253 133.52C272.053 123.56 276.253 114.04 283.24 105.853C290.613 96.7466 300.293 89.8666 311.826 87.28C320 86.56 328.746 86.3067 336.666 88.68C339 83.8933 341.04 79.2933 344.706 75.32C355.626 64.3333 375.866 64.6933 385.893 76.7333Z" fill="#060606"/>
<path d="M356.613 72.7333C365.893 69.32 376.506 72.3866 382.813 79.92C390.586 89 390.506 102.84 382.28 111.627C374.346 120.72 360.16 122.027 350.493 114.947C340.626 108.12 337.693 93.9866 343.653 83.68C346.6 78.8 351.226 74.68 356.613 72.7333Z" fill="#C4D0CB"/>
<path d="M318.667 90.8933C324.014 90.76 330.2 90.72 335.16 92.92C337.227 96.4667 336.787 101.693 337.214 105.707C328.334 105.973 319.534 104.973 310.667 104.893C304.587 105.027 298.96 103.68 293.24 101.747C300.574 96.7867 309.56 91.0267 318.667 90.8933Z" fill="#618847"/>
<path d="M363.706 91.1333C364.973 91.6266 366.146 92.2533 367.226 93.0133C367.706 94.0133 368.213 94.9866 368.72 95.9733C368.013 97.28 367.32 98.6 366.64 99.9333C363.013 98.36 360.626 98.2 360.56 93.5333C361.6 92.7333 362.653 91.9333 363.706 91.1333Z" fill="#0E100F"/>
<path d="M393 94.7866C398.866 95.68 402.346 99.4666 406.586 103.187C401.773 104.467 396.986 104.933 392.026 105.053C392.253 101.64 392.44 98.1466 393 94.7866Z" fill="#667F58"/>
<path d="M288.8 105.907C297.4 107.867 306.107 108.08 314.827 109.16C313.027 110.16 311.253 111.147 309.413 112.067C309.493 111.147 309.573 110.24 309.64 109.32C304.587 109.253 299.533 109.027 294.48 108.68C293.64 110.347 292.84 112.013 292.04 113.693C289.267 113.293 286.52 112.707 283.773 112.16C285.44 110.093 286.907 107.76 288.8 105.907Z" fill="#B9AD9A"/>
<path d="M392.28 109.027C397.893 108.573 403.493 108.44 409.04 107.373C410.013 109.467 410.946 111.56 411.866 113.68C403.093 114.213 394.426 114.533 385.64 113.973C387.48 112.28 389.6 109.12 392.28 109.027Z" fill="#EBE2C0"/>
<path d="M294.48 108.68C299.533 109.027 304.587 109.253 309.64 109.32C309.573 110.24 309.493 111.147 309.413 112.067C303.747 115.04 298.147 114.387 292.04 113.693C292.84 112.013 293.64 110.347 294.48 108.68Z" fill="#EADEBB"/>
<path d="M338.346 112.373C342.386 113.253 345.04 116.027 348.32 118.307C352.333 121.293 357.693 122.813 362.346 124.68C359.693 124.76 357.04 124.84 354.373 124.893C346.106 125 337.213 125.467 329.253 127.893C323.653 129.627 319.426 132.933 314.44 135.8C310.56 138.027 306.506 138.96 302.226 140.08C302.12 141.253 302 142.44 301.893 143.613C299.306 144.48 296.693 145.24 294.333 146.627C293.8 149.253 293.626 151.613 295.826 153.533C299.506 154.64 303.52 154.56 307.213 155.613C310.093 156.667 312.706 158.613 315.346 160.147C313.813 160.747 312.306 161.387 310.813 162.04C310.373 163.04 309.946 164.027 309.533 165.027C315.693 168.333 322 171.173 328.88 172.613C339.733 175.213 349.72 174 360.706 174.2C353.24 179.36 344.88 182.133 336.32 184.84C336.493 186.213 336.653 187.587 336.84 188.947C346.386 186.08 355.56 182.64 364.2 177.6C364.8 176.08 365.413 174.56 366.013 173.04C372.213 171.427 377.026 169.347 381.506 164.64C390.32 166.213 399.013 167.627 408 167.253C415.933 167.427 423.52 165.84 431.306 164.667L432.96 165.547C430.253 169.04 427.933 172.413 423.986 174.653C417.333 178.44 408.973 180.693 401.333 180.627C394.773 180.613 389.173 178.453 383.133 176.227C383.04 177.52 382.946 178.813 382.84 180.107C387.693 182.307 392.506 184.587 397.32 186.893C403.733 184.373 411.08 182.707 417.973 183.36C426.053 188.147 430.893 197.64 432 206.853C418.88 213.013 405.186 215.96 390.666 215.693C374.946 215.32 359.186 213.293 343.933 209.507C336.32 207.64 327.946 205.813 321.56 201.093C318.253 198.827 314.986 195.6 311.213 194.2C304.493 192.76 296.946 193.36 293.493 200.187C290.546 207.88 295.266 217.72 301.693 222.32C307.733 226.52 314.866 229.347 321.946 231.24C349.853 237.92 378.933 240.773 407.586 240.72C398.666 247.907 388.093 252.067 376.96 254.387C366.453 256.48 356.093 258.373 345.333 258.16C331.666 258.027 317.36 258.907 303.973 256.64C299.44 255.947 294.76 255.853 290.28 254.893C287.72 254.573 287.146 251.613 286.093 249.693C280.266 235.56 275.96 220.787 272.72 205.867C270.453 195.053 268.453 184.253 270.48 173.227C271.706 164.733 273.4 156.787 276.4 148.72C279.173 138.093 282.133 128.253 288.706 119.253C291.053 118.133 294.24 118.493 296.813 118.347C298.386 119.28 299.92 120.267 301.453 121.267C306.626 118.08 311.306 114.92 317.24 113.227C324.013 111.333 331.466 110.787 338.346 112.373Z" fill="#5A8B40"/>
<path d="M281.107 115.907C286.333 116.84 291.547 117.653 296.813 118.347C294.24 118.493 291.053 118.133 288.707 119.253C282.133 128.253 279.173 138.093 276.4 148.72C273.4 156.787 271.707 164.733 270.48 173.227C270.933 169.427 271.773 165.707 269.787 162.173C267.933 158.8 263.627 157.293 260.013 158.547C255.893 159.827 252.973 164.36 254.28 168.653C255.453 173.733 256.48 178.733 256.413 184C256.4 197.693 260.64 210.493 263.08 223.733L263.333 226.307C261.4 224.48 259.493 222.627 257.587 220.787C258.173 229.813 261.64 237.987 262.907 246.893C253.2 242.72 244.6 236.853 238.973 227.693C232.56 217.467 231.547 205.413 233.813 193.733C236.573 179.2 242.973 163.493 251.133 151.133C254.867 145.347 260.267 141.693 266.2 138.453C266.093 143.333 265.88 148.213 265.64 153.08C266.667 153.04 267.68 152.987 268.693 152.947C270.987 140.293 274.213 126.92 281.107 115.907Z" fill="#4A7134"/>
<path d="M103.4 117.973C106.787 117.8 110.467 117.533 113.774 118.387C117.68 120.347 121.027 124.733 120.827 129.267C121.187 138.613 119.947 148.013 120.534 157.333C120.907 163.413 123.174 168.827 126.134 174.067C132.907 171.453 138.24 170.507 145.32 172.787C146.36 174.12 147.414 175.453 148.467 176.773C148.947 178.827 149.454 180.867 149.974 182.893C148.747 185.667 147.947 188.84 145.427 190.76C142.4 193 138.014 193.907 135.2 196.453C132.16 199.4 130.88 203.107 129.947 207.12C129.24 209.973 128.6 212.827 127.96 215.693C110.12 228.387 86.9603 233.413 65.4269 229.813L65.7869 225.973C67.6136 226.133 69.4403 226.293 71.2803 226.44C70.5736 224.613 69.8536 222.773 69.107 220.96C68.4936 219.693 67.8536 218.44 67.1869 217.2C63.6803 212.667 58.8536 209.32 55.5469 204.693C52.0936 199.747 52.6003 193.627 49.7469 188.56C47.6536 185.293 43.1603 183.493 39.9469 181.453C33.5469 177.653 27.0003 171.453 25.0936 164.027C24.7203 159.787 27.9869 154.64 31.7469 152.693C37.1203 151.28 41.4403 153.36 46.1203 155.653C49.9603 157.507 54.2136 159.947 58.4803 160.453C60.3603 160.467 61.0269 159.467 60.4669 157.653C58.2936 150.2 50.6403 141.68 51.2403 133.28C51.2536 128.533 55.3469 125.96 58.5069 123.133C65.7203 122.76 70.0936 125.48 74.7736 130.573C81.027 136.68 82.2669 144.733 87.5069 151.427C88.2936 151.533 89.0936 151.64 89.8803 151.733C92.1203 146.64 93.6403 141.493 94.6936 136.027C95.9603 129.013 97.707 122.72 103.4 117.973Z" fill="black"/>
<path d="M387.973 118.333C402.266 118.04 415.653 121.587 428.92 126.56C428.773 127.427 428.626 128.293 428.48 129.16C416.146 124.8 403.093 125.853 390.6 128.907C386.693 129.827 382.746 131.373 378.76 131.693C374.773 129.973 371.426 126.573 367.946 124.027C374.386 122.053 381.266 118.68 387.973 118.333Z" fill="#62884B"/>
<path d="M116.627 128.227C117.507 134.16 116.534 140.667 116.107 146.64C115.494 153.853 116.427 161.213 118.454 168.133C119.694 172.013 121.401 175.987 125.201 177.947C130.161 177.827 135.187 175.053 140.094 175.453C146.067 176.533 146.854 186.04 141.481 188.107C135.987 191.067 130.867 192.613 128.307 198.92C125.561 203.613 127.574 211.933 122.454 214.427C108.347 223.36 91.7207 227.587 75.054 227.08C74.0407 223.093 73.2674 219.133 71.014 215.627C67.9474 210.787 62.894 207.533 59.7474 202.947C56.574 197.747 56.1874 190.8 53.0674 185.493C51.4807 182.787 48.374 181.16 45.7607 179.573C40.294 176.48 34.7207 172.787 31.094 167.52C29.5607 165.467 29.9474 162.147 29.7207 159.68C30.894 158.56 32.054 157.427 33.2007 156.293C41.9874 156.707 47.854 162.253 55.9607 164.4C60.3474 165.48 64.7474 163.4 64.7607 158.493C64.534 150.28 55.734 143.133 55.374 134.64C55.0007 130.653 58.6274 126.8 62.694 127.533C66.8674 128.387 70.5207 131.76 73.0807 135.027C76.9207 139.88 78.414 145.467 81.5607 150.573C83.6007 154.12 87.5474 155.413 90.974 157.28C96.0807 151.507 97.334 144.653 98.694 137.333C99.6407 132.933 100.401 127.027 103.774 123.773C107.734 119.52 116.041 122.48 116.627 128.227Z" fill="#5A8B40"/>
<path d="M429.574 122.56C433.854 125.16 436.174 128.907 439.734 132.347C442.734 135.253 444.787 139.067 447.374 142.453C447.934 146.08 448.774 149.813 448.734 153.493C445.787 159.293 443.56 165.427 437.134 167.96C436.28 169 435.427 170.04 434.587 171.093C434.04 169.24 433.52 167.4 432.96 165.547L431.307 164.667C429.494 163.613 427.68 162.547 425.894 161.467C432.8 159.867 439.294 158.52 444.707 153.573C444.654 152.48 444.587 151.387 444.52 150.293C439.16 145.987 432.92 143.627 426.387 141.693C424.654 141.173 422.92 140.667 421.187 140.173C423.014 144.16 425.187 147.453 424.854 152.027C425.027 156.427 422.387 158.8 420.027 162.08L423.36 162.04C414.68 165.24 406.4 164.387 397.334 164.253C390.947 164.093 384.694 163.027 378.36 162.347C373.24 162.227 369.08 165.027 363.854 166.293C348.56 169.907 332.374 169.373 318.36 161.72C318.294 160.2 318.24 158.68 318.174 157.16C322.04 159.427 326.16 161.027 330.334 162.6C329.28 159.253 327.707 155.653 327.56 152.107C327.654 148.72 329.64 145.187 331.067 142.173C324.054 144.547 318.227 148.6 312.747 153.48C313.734 154.227 314.734 154.973 315.734 155.72C313.787 155.453 311.827 155.227 309.867 155C310.187 153.293 310.494 151.587 310.8 149.867C311.574 149.307 312.334 148.733 313.094 148.147C312.454 147.88 311.8 147.6 311.16 147.333C308.854 146.307 306.574 145.227 304.28 144.173C314.214 144.853 320.227 139.347 328.454 135.16C336.174 131.16 344.76 130.04 353.36 130.72C360.64 131.107 367.387 133.773 374.707 133.867C377.4 136.013 378.854 137.893 380.04 141.12C380.587 142.587 381.134 144.067 381.654 145.547C387.307 142.613 393.014 139.84 398.84 137.253C397.84 137.147 396.827 137.053 395.827 136.973C398.254 135.973 400.587 134.813 402.934 133.64L399.667 133.027C406.64 131.76 413.654 131.947 420.654 131.04C423.334 130.72 425.907 129.92 428.48 129.16C428.627 128.293 428.774 127.427 428.92 126.56L429.574 122.56Z" fill="#151615"/>
<path d="M354.373 124.893C355 125.933 355.627 126.987 356.24 128.027C347.24 127.68 337.573 128.48 329.08 131.68C324 133.627 320.187 136.893 315.32 139.24C311.68 140.987 307.92 142.44 304.28 144.173C306.573 145.227 308.853 146.307 311.16 147.333C306.693 147.773 302.32 148.747 298.027 150.08C302.56 151.093 306.48 152.507 310.8 149.867C310.493 151.587 310.187 153.293 309.867 155C311.827 155.227 313.787 155.453 315.733 155.72C316.547 156.2 317.36 156.68 318.173 157.16C318.24 158.68 318.293 160.2 318.36 161.72C317.347 161.2 316.347 160.68 315.347 160.147C312.707 158.613 310.093 156.667 307.213 155.613C303.52 154.56 299.507 154.64 295.827 153.533C293.627 151.613 293.8 149.253 294.333 146.627C296.693 145.24 299.307 144.48 301.893 143.613C302 142.44 302.12 141.253 302.227 140.08C306.507 138.96 310.56 138.027 314.44 135.8C319.427 132.933 323.653 129.627 329.253 127.893C337.213 125.467 346.107 125 354.373 124.893Z" fill="black"/>
<path d="M356.24 128.027C362.894 128.867 369.134 129.867 374.707 133.867C367.387 133.773 360.64 131.107 353.36 130.72C344.76 130.04 336.174 131.16 328.454 135.16C320.227 139.347 314.214 144.853 304.28 144.173C307.92 142.44 311.68 140.987 315.32 139.24C320.187 136.893 324 133.627 329.08 131.68C337.574 128.48 347.24 127.68 356.24 128.027Z" fill="#4B5843"/>
<path d="M420.653 131.04C413.653 131.947 406.64 131.76 399.666 133.027C393.706 134.013 387.88 135.533 381.826 135.947C393.92 129.413 407.333 129.227 420.653 131.04Z" fill="#40463B"/>
<path d="M348.894 133.4C357.067 133.32 364.48 134.813 371.627 138.867C363.72 138.147 356.254 136.387 348.894 133.4Z" fill="#3F493D"/>
<path d="M345.333 138.253C355.533 137.507 366.04 140.6 375.266 144.72C367.586 143.293 359.253 139.56 351.52 140.787C349.48 139.893 347.4 139.093 345.333 138.253Z" fill="#80817F"/>
<path d="M395.827 136.973C396.827 137.053 397.84 137.147 398.84 137.253C393.013 139.84 387.307 142.613 381.653 145.547C381.133 144.067 380.587 142.587 380.04 141.12C385.24 139.507 390.48 138.04 395.827 136.973Z" fill="#6B7D5C"/>
<path d="M351.52 140.787C359.253 139.56 367.587 143.293 375.267 144.72C376.227 145.16 377.173 145.627 378.133 146.093C378.08 148.72 378.04 151.347 377.987 153.987C375.693 156.44 373.8 158.88 370.493 160.04C363.467 162.773 355.973 164.507 348.427 164.827C351.507 162.52 354.573 160.96 356.093 157.187C357.76 152.48 357.08 146.96 354.787 142.533L351.52 140.787Z" fill="#FBFCF9"/>
<path d="M421.186 140.173C422.92 140.667 424.653 141.173 426.386 141.693C432.92 143.627 439.16 145.987 444.52 150.293C444.586 151.387 444.653 152.48 444.706 153.573C439.293 158.52 432.8 159.867 425.893 161.467C425.04 161.667 424.2 161.853 423.36 162.04L420.026 162.08C422.386 158.8 425.026 156.427 424.853 152.027C425.186 147.453 423.013 144.16 421.186 140.173Z" fill="#FAFBF9"/>
<path d="M331.067 142.173C329.64 145.187 327.654 148.72 327.56 152.107C327.707 155.653 329.28 159.253 330.334 162.6C326.16 161.027 322.04 159.427 318.174 157.16C317.36 156.68 316.547 156.2 315.734 155.72C314.734 154.973 313.734 154.227 312.747 153.48C318.227 148.6 324.054 144.547 331.067 142.173Z" fill="#FBFBF9"/>
<path d="M397.026 142.64C395.32 148.893 394.573 153.907 396.813 160.16C397.72 160.827 398.64 161.493 399.546 162.173C392.4 162.52 386.706 161.8 379.986 159.32C381.08 156.48 381.906 152.973 383.88 150.587C386.04 148.333 389.053 146.72 391.76 145.213C393.506 144.333 395.266 143.48 397.026 142.64Z" fill="#FBFAFA"/>
<path d="M414.24 144.52C415.907 145.147 417.574 145.773 419.24 146.387C419.667 148.267 421.48 151.587 419.88 153.147C417.12 157 410.12 155.2 409.84 150.44C409.44 147.547 412.494 146.267 414.24 144.52Z" fill="#F7FAFB"/>
<path d="M401.387 144.587C403.307 145.733 405.16 146.987 407.027 148.227C404.12 149.827 402.52 150.373 399.2 150.093C399.907 148.24 400.627 146.413 401.387 144.587Z" fill="#B0B3B0"/>
<path d="M311.16 147.333C311.8 147.6 312.453 147.88 313.093 148.147C312.333 148.733 311.573 149.307 310.8 149.867C306.48 152.507 302.56 151.093 298.026 150.08C302.32 148.747 306.693 147.773 311.16 147.333Z" fill="#64745E"/>
<path d="M333.293 146.12C335.453 146.427 337.266 147.44 339.186 148.427C336.76 150.853 335.88 152.013 332.146 151.773C332.453 149.867 332.733 147.973 333.293 146.12Z" fill="#A1A39E"/>
<path d="M343.12 147.12C345.84 147.027 348.547 146.987 351.267 146.973C351.96 149.267 352.547 151.6 353.147 153.933C349.6 155.56 347.373 156 343.453 155.36C343.28 152.613 343.187 149.867 343.12 147.12Z" fill="#FAFCF9"/>
<path d="M336.4 158.64C338.733 157.133 340.573 160.64 337.627 161.227C336.053 160.827 335.64 159.973 336.4 158.64Z" fill="#7D7D7D"/>
<path d="M405.747 158.867L406.694 158.32L407.667 158.853V159.947L406.72 160.507L405.747 159.973V158.867Z" fill="#85867E"/>
<path d="M315.347 160.147C316.347 160.68 317.347 161.2 318.36 161.72C332.373 169.373 348.56 169.907 363.853 166.293C369.08 165.027 373.24 162.227 378.36 162.347C372.987 166.867 367.867 169.04 360.933 170.12C350.027 171.733 338.333 171.64 327.707 168.453C321.813 166.72 316.587 164.147 310.813 162.04C312.307 161.387 313.813 160.747 315.347 160.147Z" fill="#4D5E44"/>
<path d="M263 161.627C265.88 164.08 268.48 166.507 266.614 170.6C265.56 173.907 261.92 172.573 259.294 172.96C258.414 169.56 257.827 166.947 259.294 163.573C260.52 162.907 261.747 162.253 263 161.627Z" fill="#C7CFCD"/>
<path d="M310.813 162.04C316.587 164.147 321.813 166.72 327.707 168.453C338.333 171.64 350.027 171.733 360.933 170.12C367.867 169.04 372.987 166.867 378.36 162.347C384.693 163.027 390.947 164.093 397.333 164.253C406.4 164.387 414.68 165.24 423.36 162.04C424.2 161.853 425.04 161.667 425.893 161.467C427.68 162.547 429.493 163.613 431.307 164.667C423.52 165.84 415.933 167.427 408 167.253C399.013 167.627 390.32 166.213 381.507 164.64C377.027 169.347 372.213 171.427 366.013 173.04C365.413 174.56 364.8 176.08 364.2 177.6C355.56 182.64 346.387 186.08 336.84 188.947C336.653 187.587 336.493 186.213 336.32 184.84C344.88 182.133 353.24 179.36 360.707 174.2C349.72 174 339.733 175.213 328.88 172.613C322 171.173 315.693 168.333 309.533 165.027C309.947 164.027 310.373 163.04 310.813 162.04Z" fill="#040404"/>
<path d="M432.96 165.547C433.52 167.4 434.04 169.24 434.587 171.093C431.56 175.307 427.92 177.84 423.253 180.013C423.293 180.653 423.333 181.28 423.373 181.92C430.627 188.427 434.267 195.613 435.893 205.173L437.066 206.427C435.373 206.48 433.68 206.613 432 206.853C430.893 197.64 426.053 188.147 417.973 183.36C411.08 182.707 403.733 184.373 397.32 186.893C392.506 184.587 387.693 182.307 382.84 180.107C382.947 178.813 383.04 177.52 383.133 176.227C389.173 178.453 394.773 180.613 401.333 180.627C408.973 180.693 417.333 178.44 423.986 174.653C427.933 172.413 430.253 169.04 432.96 165.547Z" fill="black"/>
<path d="M264.613 177.427C266.4 182.533 265.507 188.6 266.307 194.027C269.333 213.867 274.933 233.347 282.44 251.96C289.96 269.44 297.68 286.96 311.373 300.6C317.067 305.787 325.347 311 333.36 309.973C341.307 309.04 348.547 305.08 354.333 299.68C365.773 289.12 373.76 275.453 380.44 261.547C381.693 258.693 384.013 257.227 386.547 255.64C384.173 266.987 377.587 277.653 371.147 287.16C363.187 298 352.2 309.813 339 313.853C329.987 317.227 319.72 312.787 312.32 307.573C301.333 299.413 292.467 288.227 286.693 275.827C278.947 259.56 273.213 242.267 268.12 225.013C264.453 211.067 260.84 196.373 260.96 181.88L261.04 180.8C261.933 179.2 263.12 178.08 264.613 177.427Z" fill="#9A9F9B"/>
<path d="M93.2529 189.16C92.3995 193.227 91.0395 197.227 90.4662 201.333C90.2129 204.88 91.3062 208.507 91.1329 212.053C90.0129 212.587 88.8129 212.96 87.5462 213.187C86.0795 205.627 85.1729 198.627 88.9062 191.52C89.5062 189.96 91.9062 189.827 93.2529 189.16Z" fill="#243A17"/>
<path d="M311.213 194.2C314.986 195.6 318.253 198.827 321.56 201.093C327.946 205.813 336.32 207.64 343.933 209.507C359.186 213.293 374.946 215.32 390.666 215.693C405.186 215.96 418.88 213.013 432 206.853C433.68 206.613 435.373 206.48 437.066 206.427C440.093 209.173 441.333 211.893 440.293 216.027C438.546 219.92 434.693 222.613 431.466 225.213C431.36 229.227 432.373 232.667 429.186 235.8C424.946 239.413 419.333 240.6 413.893 240.693C411.8 240.733 409.693 240.747 407.586 240.72C378.933 240.773 349.853 237.92 321.946 231.24C314.866 229.347 307.733 226.52 301.693 222.32C295.266 217.72 290.546 207.88 293.493 200.187C296.946 193.36 304.493 192.76 311.213 194.2Z" fill="black"/>
<path d="M313.227 200.08C317.387 203.24 321.147 206.573 326.093 208.52C338.64 213.733 353 216.133 366.387 218.12C377.44 219.853 388.867 219.813 400.04 219.453C410.52 219.053 419.747 215.627 429.6 212.587C432.88 211.467 434.533 211.587 437.827 212.667C435.347 216.267 432.8 219.44 428.787 221.4C415.293 224.213 401.773 225.187 388 224.907C366.96 225.507 345.64 222.36 325.72 215.56C318.746 213.307 313.107 208.827 306.56 205.867C305.533 206.627 304.6 207.507 303.64 208.333C316.72 218.613 332.48 223 348.56 226.133C360.227 228.013 372.187 229.107 384 229.733C398.853 230.307 412.96 227.133 427.72 226.907C427.293 228.773 427.106 231.013 426.066 232.64C423.4 235.787 418.52 236.107 414.693 236.36C402.68 236.613 390.667 236.573 378.68 235.587C364.373 235.267 350.067 232.52 335.96 230.227C325.133 227.747 311.986 225.253 303.346 217.933C299.44 214.827 296.84 210.36 296.84 205.28C296.96 202.813 297.76 199.92 300.32 198.96C304.28 197.347 309.827 197.08 313.227 200.08Z" fill="#C8605F"/>
<path d="M306.56 205.867C313.106 208.827 318.746 213.307 325.72 215.56C345.64 222.36 366.96 225.507 388 224.907C401.773 225.187 415.293 224.213 428.786 221.4C428.413 223.227 428.066 225.067 427.72 226.907C412.96 227.133 398.853 230.307 384 229.733C372.186 229.107 360.226 228.013 348.56 226.133C332.48 223 316.72 218.613 303.64 208.333C304.6 207.507 305.533 206.627 306.56 205.867Z" fill="#090909"/>
<path d="M129.947 207.12C130.027 208.267 130.107 209.4 130.187 210.547C132.253 211.76 134.28 213.04 136.293 214.333C137.413 218.867 138.413 223.293 140.573 227.453C142.24 230.733 144.533 233.88 145.64 237.347C146.333 240.44 146.013 243.827 146 246.987C150.293 252.573 152.84 258.533 154.667 265.307C161.093 267.947 166.493 271.427 170.813 276.96C178.467 276.653 185.68 274.227 193.333 274.013C202.8 273.627 212.267 273.52 221.733 273.733C228.707 267.533 236.053 262.853 245.747 262.88C247.573 259.013 249.213 255.147 251.507 251.507C252.187 253.173 252.853 254.827 253.533 256.493C249.373 264.227 248.4 274.12 246.787 282.68C244.68 295.52 242.827 308.613 243 321.653C251.053 326.867 258.587 332.813 265.067 339.907C263.573 346.707 258.267 348.147 253.547 352.32C248.52 356.36 245.253 361.347 241.64 366.573C244.107 386.093 248.253 405.44 251.333 424.88C256.16 450.013 261.44 474.253 261.933 500C262.32 512.453 261.973 524.88 261.68 537.333H257.68C257.92 520.12 258.853 502.44 256.587 485.373C255.387 465.8 251.12 446.973 247.56 427.747C244.28 409.653 241.293 391.507 238.147 373.387C237.733 369.84 237 366.147 239.04 362.96C243.827 354.707 251.88 347.84 259.507 342.253C259.413 341.493 259.32 340.72 259.227 339.947C253 334.307 247.08 328.72 239.373 325.067C239.12 323.907 238.867 322.733 238.627 321.547C235.933 333.013 231.613 345.533 223.84 354.587C218.653 360.733 211.947 365.28 204.4 368.053C204.267 384.84 205.16 401.92 203.733 418.653C203.453 426.387 203.733 434.013 202.467 441.693C200.347 473.733 196.24 505.68 190.84 537.333H186.76C188.587 522.587 191.28 507.907 193.173 493.147C196.12 467.2 199.093 440.787 199.533 414.693C201 399.48 201.16 383.96 199.227 368.773C186.493 369.2 173.867 369.12 161.28 366.867C139.587 362.773 117.4 354.107 100.6 339.44C90.5068 331.053 82.5468 320.76 75.8801 309.52C68.1468 296.373 61.8801 282.4 57.5735 267.76C54.1468 256.027 51.0001 243.573 51.1601 231.28C54.0935 229.28 56.9868 227.667 60.3068 226.373C62.1201 222.747 63.9601 219.76 67.1868 217.2C67.8535 218.44 68.4935 219.693 69.1068 220.96C67.5202 222.52 66.3601 223.787 65.7868 225.973L65.4268 229.813C65.2135 232.12 64.9868 234.44 64.7735 236.747C81.2402 240.133 99.0801 236.253 114.693 230.733C122.293 228.04 128.707 223.027 130.867 214.96L127.96 215.693C128.6 212.827 129.24 209.973 129.947 207.12Z" fill="black"/>
<path d="M127.96 215.693L130.867 214.96C128.707 223.027 122.293 228.04 114.693 230.733C99.0801 236.253 81.2401 240.133 64.7734 236.747C64.9868 234.44 65.2134 232.12 65.4268 229.813C86.9601 233.413 110.12 228.387 127.96 215.693Z" fill="#7DBCA6"/>
<path d="M281.707 216.4C282.96 216.293 284.214 216.24 285.454 216.227C287.974 222.48 290.147 225.827 295.827 229.6C295.64 230.867 295.454 232.147 295.267 233.413C292.36 231.827 289.054 230.36 286.947 227.733C284.32 224.52 282.694 220.4 281.707 216.4Z" fill="#1D3812"/>
<path d="M133.44 221.88C135.067 226.827 137.72 231.133 140.28 235.627C142.867 239.987 142.374 245.733 138.8 249.387C133.747 254.693 126.361 258.04 119.547 260.44C103.387 265.627 86.3472 268.813 69.3205 267.653C66.7738 267.44 64.3205 267 62.0938 265.653C60.6138 263.293 60.0005 260.28 59.3338 257.6C57.9205 250.867 56.3872 244.267 56.1738 237.36C61.3472 239.72 66.1738 241.947 72.0005 242.133C87.8272 242.733 104.454 239.76 119.12 233.72C125.2 231.28 129.627 227.093 133.44 221.88Z" fill="#FDFDFD"/>
<path d="M257.587 220.787C259.494 222.627 261.4 224.48 263.334 226.307L263.08 223.733C265.467 232.387 268.574 240.827 270.854 249.52C268.2 248.707 265.507 247.88 262.907 246.893C261.64 237.987 258.174 229.813 257.587 220.787Z" fill="#547545"/>
<path d="M69.1071 220.96C69.8538 222.773 70.5738 224.613 71.2804 226.44C69.4404 226.293 67.6138 226.133 65.7871 225.973C66.3604 223.787 67.5204 222.52 69.1071 220.96Z" fill="#627870"/>
<path d="M58.7461 231.12C60.9728 229.827 62.5061 232.747 60.9061 234.373C58.7061 235.667 57.1194 232.733 58.7461 231.12Z" fill="#979996"/>
<path d="M259.813 249.413C262.84 258.613 265.8 267.64 266.88 277.32C270.28 302.613 272.226 327.88 273.88 353.333C274.026 364 274.213 374.667 274.293 385.333C274.226 393.4 275.4 401.373 275.226 409.467C275.12 428.907 276.12 448.68 274.186 467.987C274.386 479.027 272.12 489.653 271.026 500.573C268.8 512.853 266.546 525.093 264.093 537.333H261.68C261.973 524.88 262.32 512.453 261.933 500C261.44 474.253 256.16 450.013 251.333 424.88C248.253 405.44 244.106 386.093 241.64 366.573C245.253 361.347 248.52 356.36 253.546 352.32C258.266 348.147 263.573 346.707 265.066 339.907C258.586 332.813 251.053 326.867 243 321.653C242.826 308.613 244.68 295.52 246.786 282.68C248.4 274.12 249.373 264.227 253.533 256.493C255.133 253.6 256.96 251.16 259.813 249.413Z" fill="#FDFEFD"/>
<path d="M143.334 251.093C148.894 257.907 150.547 265.853 151.68 274.36C152.907 274.373 154.134 274.373 155.374 274.387L155.454 270.56C160.347 273.04 164.787 275.52 167.467 280.52C169.907 284.293 170.08 288.267 170.174 292.613L173.987 293.013C174.014 289.107 173.894 285.213 173.787 281.32C188.494 278.253 203.707 277.12 218.707 277.84C225.067 277.573 228.92 285 231.187 289.933C239.28 311.973 233.587 338.907 216.814 355.48C211.307 361.04 203.854 364.48 196 364.72C184.334 365 172.854 365.227 161.387 362.587C136.294 357.827 112.347 346.88 94.9069 327.787C80.3069 311.8 69.8002 291.933 63.5469 271.28C75.5335 273.787 87.6002 272.013 99.7602 270.067C115.307 266.627 131.974 263.2 143.334 251.093Z" fill="white"/>
<path d="M265.587 253.293C267.094 253.533 268.587 253.8 270.08 254.093C274.787 255.907 274.72 259.76 276.08 263.987C270.267 261.293 268.294 259.027 265.587 253.293Z" fill="#5A6F55"/>
<path d="M290.373 259.333C295.386 259.733 300.346 260.613 305.346 261.08C318.48 262.64 332.106 262.48 345.32 262.2C355.946 262.04 366.266 260.36 376.8 259.267C375.426 261.56 374.28 265.16 371.693 266.333C360.653 271.893 348.053 271.613 336 272.493C322.546 272.747 308.973 271.347 295.626 269.68C293.533 266.387 291.6 263.053 290.373 259.333Z" fill="#608948"/>
<path d="M268.92 265.427C272.307 266.36 276.373 267.813 278.707 270.56C281.373 274.333 283 278.84 285.373 282.827C289.453 290.293 294.827 296.6 300.107 303.2C293.04 298.667 285.72 294.147 279.387 288.6C276.56 285.96 273.347 282.933 271.787 279.333C270.293 274.867 269.453 270.107 268.92 265.427Z" fill="#75B39B"/>
<path d="M245.213 266.8C242.68 279.973 240.187 293.053 239.96 306.52C239.6 304.76 239.24 303 238.88 301.24C236.96 291.96 233.813 283.32 227.413 276.147C227.36 275.587 227.307 275.04 227.267 274.48C232.76 270.347 238.253 267.48 245.213 266.8Z" fill="#F8F8F6"/>
<path d="M369.613 272.493C364.253 282.413 357.253 292.467 348.013 299.107C347.68 291.067 346.44 284.253 343.187 276.88C352.04 275.64 360.84 274.227 369.613 272.493Z" fill="#73C1A5"/>
<path d="M297.387 274.013C303.093 274.533 308.747 275.413 314.373 276.453C311.907 280.693 309.667 284.973 307.573 289.4C304.587 285.773 301.8 282.013 299.52 277.88C298.8 276.6 298.093 275.307 297.387 274.013Z" fill="#7BBEA6"/>
<path d="M326.213 281.893C328.533 289.4 328.44 297.907 328.653 305.693C321.333 303.667 315.973 299.333 310.96 293.8C312.907 288.853 314.827 282.48 318.76 278.733C321.64 276.987 325.28 278.72 326.213 281.893Z" fill="#74C1A5"/>
<path d="M338.907 278.773C342.974 286.32 343.867 294.04 343.76 302.493C340.12 304.147 336.854 304.987 332.894 305.44C332.827 299.133 332.067 292.933 331.574 286.667C331.347 282.453 334.907 279.333 338.907 278.773Z" fill="#7DBAA3"/>
<path d="M380.107 281.293C383.44 285.573 385.334 291.333 387.414 296.307C390.32 304.24 394.36 312.973 394.4 321.48C387.32 326.64 381.88 333.173 376.454 339.96C376.2 323.96 376.214 307.973 376.187 291.973C376 287.827 377.8 284.573 380.107 281.293Z" fill="#FBFDFA"/>
<path d="M385.306 281.68C386.32 282.493 387.333 283.307 388.36 284.093C395.68 289.507 402.6 295.4 409.48 301.347C411.986 306.707 411.813 313.32 412.733 319.107C414.386 330.08 413.666 340.987 414.48 352C415.24 359.867 415.28 367.8 415.12 375.68C411.48 374.707 408.226 372.973 405.013 371.04C405.813 366.627 406.253 362.853 403.786 358.88C399.04 350.867 390.093 344.933 382.333 340.107C386.493 333.147 393.253 329.013 398.173 322.853C399.2 315.653 397.106 309.347 394.6 302.747C391.72 295.493 389.186 288.467 385.306 281.68Z" fill="#FDFDFC"/>
<path d="M272.8 288.187C279.413 294.4 286.12 299.653 293.613 304.773C299.613 312.747 307.733 316.427 315.693 322.053C314.066 331.96 311.786 340.787 314.413 350.867C317.266 363.347 325.733 371.747 327.546 384.213C328.6 391.36 329.08 399.067 327.466 406.16C326.573 410.28 323.56 412.067 320.44 414.427L320 414.747C315.986 415.267 312.4 415.813 309.426 418.8C302.026 424.907 303.146 438.52 311.04 443.653C314.226 445.427 318.2 446.16 321.733 446.893C325.426 447.587 329.306 447.6 333.04 447.76C332.946 452.227 332.826 456.68 332.706 461.147C323.24 461 313.72 461 304.266 460.32C295.973 459.507 287.72 458.333 279.413 457.707C279.146 432.707 279.666 407.64 278.946 382.64C277.8 371.987 278.4 361.307 277.48 350.64C276.48 341.693 276.986 332.707 276.026 323.747C274.8 311.907 274.133 300.013 272.8 288.187Z" fill="#6EC6A6"/>
<path d="M340.493 289.92C340.52 291.32 340.546 292.72 340.573 294.12C338.786 294.173 337 294.213 335.213 294.253C335.426 292.947 335.653 291.653 335.893 290.36C337.413 290.173 338.946 290.053 340.493 289.92Z" fill="#0D402D"/>
<path d="M371.453 293.853C371.467 304.36 372.494 314.827 372.387 325.333C372.56 370.493 372.88 415.667 372.907 460.827C364.88 461.52 356.92 461.947 348.854 461.653C353.8 460.893 358.747 460.253 363.76 459.96C364.174 416.4 362.853 372.88 363.04 329.333C362.787 322.4 363.614 315.133 362.427 308.293C361.814 307.427 361.147 306.573 360.453 305.76C364.32 302 367.813 297.827 371.453 293.853Z" fill="#63AC91"/>
<path d="M410.88 297.067C413.48 299.813 415.946 302.707 418.426 305.56C424.306 312.347 427.08 322.187 429.506 330.68C431.986 341.64 434.906 352.893 435.613 364.12C435.906 364.4 436.2 364.68 436.493 364.96C437.346 371.827 438.373 378.627 439.84 385.4C443.12 403.867 448.32 422.667 449 441.347C450.133 457.867 456.333 475.213 456.733 491.987C456.826 499.427 456.746 507.12 455.293 514.44C454.64 518.84 448.36 520.867 448.866 525.28C448.613 530.173 451.826 533.813 454.733 537.333H448.773C445.733 532.813 445.04 527.84 444.44 522.547C436.586 524.293 428.8 525.867 420.733 526.067C420.613 529.827 420.493 533.573 420.386 537.333H414.706C417.213 536.573 416.2 532.76 416.533 530.667C416.6 516.187 416.626 501.72 416.733 487.24C414.4 488.08 412.053 488.893 409.68 489.627C409.813 488.333 409.946 487.04 410.08 485.747C417.866 481.08 421.973 473.933 424.293 465.373C425.2 458.6 426.946 452.24 427.213 445.333C427.4 439.987 427.546 434.667 428.2 429.347C428.933 419.173 428.56 408.893 428.533 398.693C423.946 401.147 419.586 403.76 414.586 405.307C412.653 405.293 410.72 405.227 408.8 405.16C409.173 395.573 409.093 386.027 410.093 376.48C411.773 376.213 413.44 375.933 415.12 375.68C415.28 367.8 415.24 359.867 414.48 352C413.666 340.987 414.386 330.08 412.733 319.107C411.813 313.32 411.986 306.707 409.48 301.347C409.946 299.92 410.413 298.493 410.88 297.067Z" fill="black"/>
<path d="M293.613 304.773C300.24 308.467 307.707 309.947 314.24 313.733C317.4 315.48 320.667 316.987 323.987 318.4C320.933 330.707 318.453 342.413 322.307 354.973C324.573 362.48 329.16 368.72 332.093 375.853C333.587 381.827 332.48 388.52 333.027 394.68C333.56 400.613 333.853 406.24 332.44 412.093C328.36 412.653 324.4 413.267 320.44 414.427C323.56 412.067 326.573 410.28 327.467 406.16C329.08 399.067 328.6 391.36 327.547 384.213C325.733 371.747 317.267 363.347 314.413 350.867C311.787 340.787 314.067 331.96 315.693 322.053C307.733 316.427 299.613 312.747 293.613 304.773Z" fill="#66AB90"/>
<path d="M360.453 305.76C361.147 306.573 361.813 307.427 362.427 308.293C363.613 315.133 362.787 322.4 363.04 329.333C362.853 372.88 364.173 416.4 363.76 459.96C358.747 460.253 353.8 460.893 348.853 461.653C344.8 461.773 340.733 461.813 336.68 461.84C336.907 456.893 336.48 451.173 338.213 446.48C341.293 441.893 345.573 439.467 346.133 433.4C346.987 426.773 342.893 421.947 345.24 415.987C347.333 409.907 348.6 404.027 352 398.507C348.947 391.053 351.267 383.387 348.28 375.96C344.6 366.72 338.747 359.427 336.72 349.32C334.253 338.773 336.173 328.653 339.533 318.573C347.133 315.293 354.32 311.413 360.453 305.76Z" fill="#6FC5A6"/>
<path d="M416.68 309.493C420.453 316.893 423.747 324.453 425.6 332.573C430.44 352.573 432.533 373.213 436.947 393.32C438.813 403.493 441.48 413.6 442.84 423.827C443.747 431.907 444.653 439.96 445.427 448.053C446.76 460.987 451.16 473.653 451.627 486.627C444.72 488.533 437.693 489.627 430.68 491.04C427.347 491.2 424.013 491.253 420.693 491.28C419.693 481.427 425.68 475.64 428.013 466.667C429.507 462 430.067 457.213 430.733 452.373C432.92 431.2 432.787 410.013 432.547 388.747C431.173 387.293 429.8 385.827 428.413 384.387C428.52 380.453 428.627 376.52 428.72 372.573C427.213 371.307 425.707 370.053 424.187 368.813C422.613 368.84 421.04 368.853 419.467 368.88C419.387 359.267 419.56 349.707 418.213 340.147C417.8 329.88 416.227 319.8 416.68 309.493Z" fill="#FDFDFC"/>
<path d="M328.973 319.293C330.813 319.173 332.653 319.08 334.493 319C332.426 329.667 329.573 339.04 332.4 349.987C334.84 361.813 342.96 370.667 345.666 382.133C347.973 396.373 344.146 409.733 337.626 422.293C336.213 422.067 334.8 421.853 333.4 421.64C334.6 414.88 338.48 409.693 339.106 402.813C339.68 396.52 339.733 390.08 338.92 383.8C337.04 371.747 327.68 362.093 325.506 350.52C323.293 340.293 324.786 328.853 328.973 319.293Z" fill="#E9DEBF"/>
<path d="M238.627 321.547C238.867 322.733 239.12 323.907 239.373 325.067C239.947 327.4 240.253 329.507 242.227 331.093C246.453 334.72 250.76 338.093 254.36 342.4C248.147 349.107 240.32 354.12 234.293 360.947C230.133 365.867 230.8 371.44 231.667 377.36C234.52 393.987 237.96 410.507 240.707 427.147C244.173 446.027 247.813 465.107 249.893 484.2C251.04 501.853 251.293 519.667 250.493 537.333H190.84C196.24 505.68 200.347 473.733 202.467 441.693C203.733 434.013 203.453 426.387 203.733 418.653C205.16 401.92 204.267 384.84 204.4 368.053C211.947 365.28 218.653 360.733 223.84 354.587C231.613 345.533 235.933 333.013 238.627 321.547Z" fill="white"/>
<path d="M239.374 325.067C247.08 328.72 253 334.307 259.227 339.947C259.32 340.72 259.414 341.493 259.507 342.253C251.88 347.84 243.827 354.707 239.04 362.96C237 366.147 237.734 369.84 238.147 373.387C241.294 391.507 244.28 409.653 247.56 427.747C251.12 446.973 255.387 465.8 256.587 485.373C258.854 502.44 257.92 520.12 257.68 537.333H250.494C251.294 519.667 251.04 501.853 249.894 484.2C247.814 465.107 244.174 446.027 240.707 427.147C237.96 410.507 234.52 393.987 231.667 377.36C230.8 371.44 230.134 365.867 234.294 360.947C240.32 354.12 248.147 349.107 254.36 342.4C250.76 338.093 246.454 334.72 242.227 331.093C240.254 329.507 239.947 327.4 239.374 325.067Z" fill="#E8E8E8"/>
<path d="M348.253 329.493C346.04 330.413 343.813 331.267 341.573 332.133C341.627 329.867 341.707 327.613 341.867 325.347C345 325.947 346.16 327.133 348.253 329.493Z" fill="#2D7058"/>
<path d="M378.213 341.813C381.133 344.267 384.32 346.333 387.44 348.507C392.52 352.107 396.68 356.44 400.88 361C401.666 374.76 399.186 387.973 398.186 401.627C393.706 447.013 387.333 492.293 380.213 537.333H377.933C377.76 507.56 377.68 477.773 377.653 448C376.333 413.333 377.04 378.547 376.253 343.853C376.906 343.173 377.56 342.493 378.213 341.813Z" fill="#FBFDFB"/>
<path d="M346.92 358.08C349.547 359 348.613 361.493 349.2 363.733C347.773 363.493 346.347 363.24 344.934 362.96C344.654 361.987 344.4 361.013 344.16 360.027C345.067 359.36 345.987 358.707 346.92 358.08Z" fill="#01452A"/>
<path d="M424.467 373.44C424.693 379.973 425.107 386.64 424.507 393.16C424.453 396.293 421.667 397.4 419.68 399.36C417.133 391.32 418.507 383.133 421.08 375.293C421.427 374.053 423.48 374 424.467 373.44Z" fill="#78312D"/>
<path d="M406.96 375.987C407.974 378.6 408.894 381.12 408.6 383.987C408.08 389.8 407.774 395.707 406.907 401.48C406.254 402.613 405.174 403.507 403.694 404.187C401.44 400.773 401.64 397.16 402.067 393.32C402.747 387.893 403.174 382.453 403.654 377C404.747 376.627 405.854 376.293 406.96 375.987Z" fill="#294179"/>
<path d="M412.067 380.227C416.214 379.267 414.76 384.067 415.374 386.653C415.16 391.747 415.867 399.027 411.08 402.227C410.267 395.053 410.174 387.24 412.067 380.227Z" fill="#634534"/>
<path d="M426.827 389.68C429.174 388.027 430.627 391.827 427.934 392.413C426.454 392 426.08 391.08 426.827 389.68Z" fill="black"/>
<path d="M428.533 398.693C428.56 408.893 428.933 419.173 428.2 429.347C427.546 434.667 427.4 439.987 427.213 445.333C426.946 452.24 425.2 458.6 424.293 465.373C421.973 473.933 417.866 481.08 410.08 485.747C409.946 487.04 409.813 488.333 409.68 489.627C412.053 488.893 414.4 488.08 416.733 487.24C416.626 501.72 416.6 516.187 416.533 530.667C416.2 532.76 417.213 536.573 414.706 537.333H384.413C391.28 494.293 397.346 451.16 402.133 407.853L404.84 407.387C408.093 406.867 411.413 406.253 414.586 405.307C419.586 403.76 423.946 401.147 428.533 398.693Z" fill="#FEFEFE"/>
<path d="M398.186 401.627C399.24 402.493 400.28 403.373 401.306 404.267C402.493 405.293 403.666 406.333 404.84 407.387L402.133 407.853C397.346 451.16 391.28 494.293 384.413 537.333H380.213C387.333 492.293 393.706 447.013 398.186 401.627Z" fill="black"/>
<path d="M320 414.747C314.96 418.88 311 423.787 311.24 430.667C311.427 437.92 315.574 443.4 321.734 446.893C318.2 446.16 314.227 445.427 311.04 443.653C303.147 438.52 302.027 424.907 309.427 418.8C312.4 415.813 315.987 415.267 320 414.747Z" fill="#69A991"/>
<path d="M328.76 416.24C328.734 417.12 328.72 417.987 328.694 418.853C324.667 421.08 320.694 422.213 319 426.947C316.654 431.827 319.814 437.467 324.12 439.96C328.96 442.013 335.734 440.573 338.134 435.52C339.214 432.56 339.24 429.147 339.587 426.027C340.414 425.987 341.254 425.933 342.094 425.893C341.974 430.88 342.88 435.147 339.174 439.147C335.294 444.04 329.267 444.507 323.587 442.973C317.067 439.72 312.867 431.547 316.64 424.653C319.12 419.413 323.654 417.933 328.76 416.24Z" fill="#989796"/>
<path d="M330.414 424.44C333.107 424.32 334.347 427.067 335.24 429.173C336.134 434.347 330.174 438.893 325.56 435.76C321.907 434.267 323.28 429.36 323.28 426.28C325.587 425.027 327.694 424 330.414 424.44Z" fill="#E7E9E8"/>
<path d="M345.746 435.987C348.52 437.12 350.32 436.4 350.453 439.893C350.293 442.613 347.6 441.707 345.68 442.48C345.693 440.32 345.72 438.16 345.746 435.987Z" fill="#26654D"/>
<path d="M280.586 462.107C292.093 463.467 303.693 463.947 315.24 464.947C316.866 472.72 316.92 478.773 315.28 486.573C309.32 485.827 303.32 486.28 297.346 485.467C291 484.8 284.546 483.307 278.173 483.307C278.373 476.72 276.506 467.667 280.586 462.107Z" fill="#82421F"/>
<path d="M320.613 465.8C331.24 465.48 341.893 465.92 352.52 465.973C352.506 472.907 352.48 479.827 352.413 486.76C341.866 487.293 331.16 487.4 320.653 486.24C320.64 484.613 320.64 482.973 320.64 481.347C320.693 476.2 320.4 470.96 320.613 465.8Z" fill="#979C99"/>
<path d="M372.707 465.813C372.867 472.453 372.853 479.08 372.987 485.72C370.147 486.307 367.333 486.907 364.44 487.227C366.013 480.173 366.04 474 364.947 466.88C362.227 466.587 359.52 466.28 356.813 465.947C362.507 464.773 366.987 464.693 372.707 465.813Z" fill="#603116"/>
<path d="M356.813 465.947C359.52 466.28 362.227 466.587 364.947 466.88C366.04 474 366.013 480.173 364.44 487.227C361.84 487.053 359.24 486.707 356.64 486.56C356.547 479.68 356.613 472.827 356.813 465.947Z" fill="#7D4423"/>
<path d="M328.28 469.093C335.08 468.467 342.054 468.64 348.8 469.787C349.76 474.787 349.854 478.48 348.747 483.48C342.027 484.507 334.76 485.107 328.04 483.947C323.307 482.987 324.44 478.28 324.307 474.64C324.36 471.853 325.227 469.533 328.28 469.093Z" fill="#392D1C"/>
<path d="M344.894 473.613C344.92 475.707 344.96 477.8 345.014 479.907C339.24 480.56 334.04 480.413 328.32 479.507C328.48 477.72 328.64 475.92 328.854 474.147C334.174 472.973 339.494 473.08 344.894 473.613Z" fill="#6D452B"/>
<path d="M320.64 481.347C320.64 482.973 320.64 484.613 320.654 486.24C331.16 487.4 341.867 487.293 352.414 486.76C353.827 486.667 355.227 486.573 356.64 486.56C359.24 486.707 361.84 487.053 364.44 487.227C367.334 486.907 370.147 486.307 372.987 485.72C374.974 489.04 377.054 491.893 376.974 495.987C377.054 509.747 377.08 523.56 376.88 537.333H372.96C373.854 529.24 373.84 521.44 373.147 513.333C372.547 506 373.64 498.427 372.44 491.187C371.2 490.067 369.64 490.187 368.067 490C359.627 489.587 351.12 490.32 342.667 490.307C325.667 490.173 308.867 490.133 291.974 487.92C287.16 487.467 281.6 486.28 276.867 487.533C275.947 489.587 276.347 492.12 276.254 494.347C274.68 508.8 270.014 522.587 269.707 537.333H264.094C266.547 525.093 268.8 512.853 271.027 500.573C272.454 495.107 273.72 489.613 274.64 484.04C275.814 483.773 277 483.533 278.174 483.307C284.547 483.307 291 484.8 297.347 485.467C303.32 486.28 309.32 485.827 315.28 486.573L318.494 486.987C319.294 485.147 320.027 483.267 320.64 481.347Z" fill="#202D5E"/>
<path d="M291.973 487.92C308.867 490.133 325.667 490.173 342.667 490.307C351.12 490.32 359.627 489.587 368.067 490C369.64 490.187 371.2 490.067 372.44 491.187C373.64 498.427 372.547 506 373.147 513.333C373.84 521.44 373.853 529.24 372.96 537.333H371.227C370.947 522.68 369.787 508.133 370.147 493.44C367.72 493.12 365.28 492.773 362.84 492.6C356.453 492.893 350.453 494.213 344.013 493.453C336.453 492.533 328.92 492.693 321.333 492.84C307.12 493.093 293.147 489.827 279.067 489.693C278.107 491.24 277.16 492.787 276.253 494.347C276.347 492.12 275.947 489.587 276.867 487.533C281.6 486.28 287.16 487.467 291.973 487.92Z" fill="#1B3E9B"/>
<path d="M321.334 492.84C328.92 492.693 336.454 492.533 344.014 493.453C350.454 494.213 356.454 492.893 362.84 492.6C364.267 496.827 364.96 500.84 364.854 505.333C364.734 516 364.667 526.667 364.707 537.333H269.707C270.014 522.587 274.68 508.8 276.254 494.347C277.16 492.787 278.107 491.24 279.067 489.693C293.147 489.827 307.12 493.093 321.334 492.84Z" fill="#0440FA"/>
<path d="M370.146 493.44C369.786 508.133 370.947 522.68 371.227 537.333H364.707C364.667 526.667 364.733 516 364.853 505.333C364.96 500.84 364.267 496.827 362.84 492.6C365.28 492.773 367.72 493.12 370.146 493.44Z" fill="#0432C5"/>
<path d="M452.547 491C452.88 498.947 452.2 506.68 451.213 514.547C442.587 520.067 430.707 521.173 420.72 521.04C420.707 512.533 420.8 504.013 420.84 495.507C427.947 495.467 434.8 494.893 441.747 493.333C445.347 492.533 448.933 491.72 452.547 491Z" fill="#FEFEFE"/>
<path d="M444.44 522.547C445.04 527.84 445.733 532.813 448.773 537.333H441.16C439.533 534.64 437.627 534.68 435.987 537.333H420.387C420.493 533.573 420.613 529.827 420.733 526.067C428.8 525.867 436.587 524.293 444.44 522.547Z" fill="#5E8848"/>
<path d="M441.16 537.333H435.986C437.626 534.68 439.533 534.64 441.16 537.333Z" fill="#3A5030"/>
</svg>
