<svg width="404" height="390" viewBox="0 0 404 390" fill="none" xmlns="http://www.w3.org/2000/svg">
<g clip-path="url(#clip0_20_66)">
<path d="M0 0H176.293C170.373 2.66667 164.48 6.02667 159.173 9.8C156.213 12.6133 153.36 15.5467 150.507 18.48C145.987 24.9333 142.267 31.6 139.147 38.88C138.56 41.1467 138.933 43.24 139.373 45.4933C134.933 47.9467 129.827 50.48 126 53.8L123.72 54.44C119.24 54.0667 114.28 57.2 110.093 58.6C104.267 60.4533 99.1467 63.4533 93.36 65.3333C89.48 66.3467 87.2667 68.72 83.9733 70.6667C82.7467 72.16 82.5467 74.3467 81.4267 75.9867C81.8533 76.8 82.2667 77.6133 82.6533 78.4533C80.48 84.52 79.4667 90.8667 79.8133 97.3467C81.52 99.9867 80.6667 102.467 80.7467 105.413C81.6533 107.053 82.0267 108.747 81.88 110.493C84.6 120.013 86.2667 129.107 89.3467 138.547C92.0933 142.307 94.7067 146.987 98 150.72C98.2933 153.493 94.48 156.24 92.6667 158.04C90.9867 159.253 90.68 161.213 89.1733 162.613C86.48 160.32 84.52 155.44 81.8667 152.747C80.0133 150.12 78.24 147.387 76.6267 144.6C73.6 142.173 72.3067 138.533 69.84 135.493C67.96 132.053 65.44 129.32 64.1333 125.6C60.44 123.507 62.0533 119.92 56.72 121.04C56.52 123.027 56.3333 124.8 55.36 126.587C56.3067 130.813 57.12 135.507 62.3333 136C63.1733 134.84 64.1867 133.907 65.3467 133.227C70.96 141.507 76.76 150.427 82.6933 158.667C84.4667 160.187 85.4267 162.067 86.56 164.067C87.1733 165.52 89.1333 166.507 88.84 168.12C89.7333 176.173 94.7333 179.28 98.8133 185.373C96.12 186.733 92.8267 190.36 92.8533 193.453C95.0133 197.307 97.72 200.093 100.933 203.053C100.733 206.053 102.52 209.12 103.96 211.653C100.333 212.88 97.9067 215.267 95.3067 217.933C94.4533 222.387 94.68 226.32 97.8133 229.867C95.9067 229.787 94.0267 229.813 92.1733 229.933C88.2267 231.453 85.2533 235.547 85.8133 240C85.76 243.667 84.72 246.213 88.7467 248.253L87.8 249.493C86.96 248.933 86.28 248.027 85.76 246.773C80.2 247.373 75.52 253.48 74.6267 258.653C73.1733 262.24 74.1333 265.48 72.5733 269.107C74.6133 275.133 74.9333 282.027 77.7733 287.787C78.1467 290.827 80.6133 292.973 81.3467 295.76C78.8 298.947 74.8 299.773 72.0667 302.747C57.9733 311.987 45.16 322.933 32 333.333C20.7733 342.827 10.8267 350.08 0 359.467V0Z" fill="#96B2E7"/>
<path d="M176.293 0H211.987L212.773 0.8C214.08 2.36 216.333 2.30667 217.573 3.77333C221.2 7.49333 226.133 11.8533 226.573 17.3333C228.44 17.3333 229.627 14.76 230.973 13.64C234.92 7.49333 239.987 4.04 245.853 0H254.96C246.373 3.12 238.2 8.01333 233.027 15.7333C229.653 20.8267 224.067 25.9067 222.627 31.9067C227.173 30.3067 231.293 27.8 236.013 26.56C243.533 24.8 250.92 23.4 258.693 24.04C269.947 25.84 280.52 27.96 288.293 37.0533C291.72 37.3733 295.227 37.1067 298.68 37.1867C309.587 38.2 319.92 41.68 330.64 43.0533L331.667 42.5333C327.387 25.56 314.987 12.1733 299.427 4.6C295.947 3.14667 292.387 1.89333 288.933 0.4L288.013 0H297.467C302.173 2.12 306.587 4.74667 310.853 7.69333C315 10.6667 319.493 13.4267 322.2 17.9467C327.293 24.5467 331.28 32.3067 334.52 40.0133C335.72 42.0133 334.613 44.76 337.453 45.1333C342.053 46.2133 345.733 49.28 348.453 53.0267C350.787 58.3467 349.24 63.9333 347.547 69.16C347.467 71.12 345.013 71.6667 344.267 73.2933C346.2 76.4933 345.173 80.0933 346.987 83.6C350.307 83.2933 353 83.2 355.333 85.9333C358.333 87.2267 360.92 91.4933 361.48 94.64C361.227 96.56 361.76 97.84 362.107 99.5867C361.053 101.467 361.827 103.24 361.213 105.16C360.427 108.067 357.453 110.307 356.8 113.213C363.107 120.8 365.747 132.387 368.627 141.52C368.613 145.853 370.733 150.08 370.84 154.467C372.4 157.147 370.933 159.76 372.307 162.44C373.16 164.187 372.16 166.16 372.933 168.013C374.56 170.827 372.853 173.707 374.173 176.44C375.467 179.053 373.827 181.933 375.213 184.68C376.627 187.96 374.44 192.413 376.613 195.333C377.027 199.4 375.8 202.92 377.733 206.613C378 210.547 376.76 215.227 378.64 218.773C376.52 221.867 378.44 222.28 378.867 225.28C378.827 231.973 378.813 238.667 378.867 245.347C379.173 247.333 378.267 248.547 377.827 250.293C380.733 256.52 379.52 262.533 379.973 269.107C383.6 269.667 386.773 272.413 390.307 273.64C394.893 277.493 399.907 280.4 404 284.84V290.107C400.64 287.133 397.813 283.107 394.093 280.587C391.707 279.347 390.6 277.04 388 276C385.893 273.88 383 273.867 381.187 271.44L379.827 271.48C380.573 280.213 374.293 289.8 370.72 297.4C367.533 302.107 365.493 306.813 361.813 311.16C358.88 314.12 357.16 318.04 354.107 320.773C353.013 323.693 350.64 324.973 348.787 327.293C348.04 329.72 346.12 330.747 344.44 332.48C342.947 336.347 338.107 338.333 336.84 342.227C333.667 345.213 330.653 348.347 327.533 351.387C326.133 354.747 322.347 357.253 320.027 360.027C310.027 369.76 300.533 379.707 290.427 389.333H285.947C294.027 380.36 303.187 372.333 311.293 363.373C317.453 355.453 325.68 349.147 331.813 341.173C345.4 325.92 358.52 311.987 368.52 293.92C371.76 287.453 375.067 281.653 376.747 274.493C377.28 271.413 376.68 268.4 377.493 265.32C378.307 260.92 376.293 257.573 375.747 253.36C375.467 243.693 376.08 233.84 375.467 224.213C374.013 219.653 375.333 215.027 373.84 210.467C373.24 201.093 372.64 191.547 371.133 182.28C369.413 169.507 368.213 156.787 365.053 144.227C363.827 134.747 360.32 125.4 356.52 116.667C356.107 115.627 355.48 114.933 354.627 114.587C352.56 116.253 350.64 118.053 348.467 119.587C353.84 124.2 352.653 134.88 354.44 141.32C354.64 150.213 354.493 159.133 354.52 168.027C353.76 173.773 352.733 179.533 352.28 185.333C349.813 195.573 348.173 206.28 344.04 216C342.307 223.133 339.587 229.867 336.573 236.547C330.56 252.253 322.533 267.28 313.333 281.347C308.76 288.613 304.027 295.693 298.333 302.16C295.493 306.96 290.453 309.44 287.56 314.253C285.787 317.173 283.053 318.44 280.507 320.493C280.627 321.64 280.787 322.787 280.973 323.92C279.773 326.493 276.44 327.133 275.08 329.8C270.813 336.667 266.533 343.56 262.387 350.493C258.52 356.147 256.253 362.72 252.573 368.533C249.72 375.613 245.867 382.12 243.227 389.333H240.24C244.76 377 251.413 365.027 257.227 353.267C262.267 345.387 266.68 336.133 272.987 329.2C273 328.013 272.293 327.107 270.853 326.453L270.533 325.573C271.787 324.053 272.773 323.2 274.587 322.373C277.333 320.507 279.2 316.88 282.347 315.64C285.493 310.107 292.013 306.507 295.32 301C296.067 299.427 297.947 299.013 298.267 297.347C296 299.067 293.08 301.147 292.253 303.987C289.253 306.68 287.253 309.8 283.573 311.547C281.2 314.387 278.627 315.96 275.72 318.067C275.867 319.36 275.653 320.48 275.067 321.44C264.107 326.013 254.56 330.253 242.693 331.987C238.787 334.227 234.893 331.8 230.747 334.067C223.293 333.72 216.2 334.84 209.027 332.387C202.6 331.48 196.453 329.2 190.24 327.12C189.32 328.627 188.48 332.347 186.333 332.187C183.867 330.053 188.707 327.573 187.227 325.267C180.64 323.253 176.093 317.347 171.133 312.92C170.813 311.6 170.187 310.573 169.253 309.84C167.147 310.4 167.493 314.107 166.547 315.907C171.04 317.44 172.627 321.853 176.733 323.413C178.84 325.373 180.453 327.56 183.067 328.947C185.693 333 189.28 336.04 192.453 339.613C200.347 349.013 208.813 359.533 215.8 369.613C220.133 376.12 223.787 381.907 226.587 389.333H222.667C217.787 376.04 207.453 364.16 199 352.933C194.427 347.373 189.92 341.627 184.84 336.52C179.613 330.093 173.6 323.467 166.667 318.867C163.853 319.48 163.747 325.547 162.547 327.867C158.92 333.84 157.12 342.267 156.48 349.16C159.747 362.6 163.853 376.107 167.88 389.333H163.96C163.88 385.133 161.267 381.373 160.747 377.333C158.96 370.947 156.027 364.16 155.813 357.48L154.76 357.453C155.373 359.347 154.987 360.773 153.573 361.72C153.253 364.213 153.693 366.813 153.48 369.333C151.627 371.84 152.8 375.8 152.56 378.787C150.08 381.6 152.653 385.947 150.88 389.333H148.48C148.72 386.2 148 382.693 149.133 379.8C150.133 377.093 148.773 374.16 150.053 371.44C151.147 368.84 149.88 365.507 150.893 362.88C151.933 360.12 151.04 357.427 152.547 354.693C152.053 351.373 153.787 348.72 153.573 345.44C154.76 344.92 155.12 343.987 154.627 342.627L154.4 340.053C151.587 341.16 151.64 346.053 148.213 345.013C152.68 336.413 159.6 328.16 161.893 318.907C164.453 315.52 164.907 311.667 166.587 307.907C168.68 304.96 168.707 301.72 170.627 298.64C170.493 296.053 170.827 294.307 171.693 291.907C171.653 287.08 171.667 282.24 171.68 277.413C171.107 274.093 169.133 271.693 169.667 268.147C173.707 264.827 173.747 260.36 175.747 255.853C175.667 254.36 174.987 250.547 173.48 249.987C170.267 249.373 170.133 252.427 169.28 254.627C167.973 260.773 162.28 266.813 155.907 267.44C152.613 267.08 153.787 264.267 153.347 261.92C154.613 262.747 155.947 263.44 157.307 264C163.147 262.68 166.04 255.64 167.76 250.587C166.653 250.747 165.547 250.907 164.44 251.067C163.133 252.333 161.987 253.733 160.56 254.893C161.893 256.387 162.227 257.64 161.56 258.64C159.907 258.04 158.08 257.733 156.507 256.907C153.707 252.053 148.613 248.587 145.053 244.267C143.4 241.333 140.627 239.84 139.307 236.64C137.24 235.573 136.747 232.733 134.947 232.307C137.787 237.92 141.173 244.493 145.92 248.747C147.04 251.707 149.507 253.093 151.053 255.72C153.067 255.893 154.36 256.44 154.933 257.373L153.4 259.12C149.96 263.413 150.653 268.387 150.16 273.667C149.76 275.6 153.387 282.053 149.52 281.053C148.52 277.987 147.12 275.413 147.52 272.093C146.333 272 145.64 272.427 145.44 273.36C142.867 278.613 139.987 284.747 140.307 290.707C137.653 296.947 140.933 301.853 142.52 307.867C138.8 308.68 138.48 302.44 137.293 300.04C137.64 296.027 136.613 291.547 138.093 287.773C139.173 282.76 139.36 278.44 142.08 274.107C143.733 271.2 144.32 268.52 148.12 267.907C148.907 265.187 148.187 262.76 149.787 260.013C150.907 255.867 147.227 256.96 146.253 253.707C142.773 249.573 139.213 245.507 136.44 240.8C134.613 238.48 134.253 235.653 132.173 233.453C129.787 234.653 128.36 236.92 125.827 237.987C125.56 241.347 129.947 243.213 130.64 246.853C128.88 248.227 127.413 245.547 126.147 244.533C124.44 242.147 123.093 239.747 120.507 238.147C120.28 236.773 119.987 235.427 119.6 234.107C116.2 233.573 113.187 231.213 109.987 229.96C108.44 229.4 107.827 228.173 106.907 226.933L109.227 225.787C114.92 230.613 123.893 233.96 129.707 227.333C131.493 227.04 132.467 228.053 132.627 230.36C133.973 229.093 136.867 228.04 136.867 226.04C134.787 226.333 133.107 226.213 131.027 225.747C131.413 224.08 130.373 222.867 131.28 221.267L132.147 220.333C128.547 215.853 120.893 214.787 116.013 211.827C108.427 212.12 100.893 214.227 96.8533 221.227C96.44 223.56 98.6 224.787 98.92 226.88C98.68 228.52 98.9733 229.773 99.8 230.653C105.4 232 111.133 235.32 115.16 239.48C119.587 242.293 123.28 246.813 125.92 251.307C127.267 254.653 125.707 260.627 122.347 262.347C115.747 263.28 111.08 260.253 105.48 257.52C108.2 261 112.8 262.707 114.307 267.547C110.747 269.253 109.467 272.32 107.027 275.107C99.5067 277.187 90.7867 272.653 84.2267 269.107C83.12 268.533 82.64 267.72 82.7733 266.68C84.5867 265.227 86.2533 267.56 87.8267 268.347C93.3333 270.373 97.8133 273.547 103.973 273.493C106.467 272.213 108.253 269.453 110.24 267.493C110.227 266.587 110.2 265.667 110.187 264.747C107.787 264.013 106.56 262.2 104.72 260.693C99.32 257.547 93.2533 252.587 86.92 251.827C85.3467 247.52 80.1733 251.507 79.4 254.133C75.4667 261.2 73.08 272.6 79.52 278.907C79.2667 279.693 79.0133 280.467 78.7733 281.253C80.4 285.067 81.3733 288.867 83.84 292.307C85.28 294.12 86.04 296.2 87.04 298.253C89.7067 300.893 90.0133 304.653 92.68 307.267C96.5867 313.653 100.333 319.867 105.013 325.773C107.28 329.84 111.547 331.507 113.24 335.933C108.053 337.307 105.507 327.867 101.493 326.653L100.253 328.253C99.56 332.413 96.5467 335.493 95.68 339.667C87.4533 355.72 81.9467 372.613 75.48 389.333H72.6133L72.6667 387.24C74.7467 384.587 74.8933 380.987 76.6 378.04C80.9867 366 87.0533 348.813 93.8 338.04C93.9867 334 97.32 330.533 98.5733 326.707C100.627 322.667 96.9067 318.067 94.0933 315.4C91.2667 310.147 86.9867 305.68 84.36 299.68C83.04 297.427 81.56 299.48 80.2667 300.467C73.1467 305.373 64.2 312.12 57.1733 317.053C54.1333 319.2 51.4133 322.44 48.12 324.213C45.8667 324.973 45.0533 328.307 42.44 328.92C35.7333 334.187 29.2267 339.84 22.4 345.027C19.4 346.413 18.2667 349.773 14.9867 350.867C10.3733 355.333 4.17333 359.453 0 363.76V359.467C10.8267 350.08 20.7733 342.827 32 333.333C45.16 322.933 57.9733 311.987 72.0667 302.747C74.8 299.773 78.8 298.947 81.3467 295.76C80.6133 292.973 78.1467 290.827 77.7733 287.787C74.9333 282.027 74.6133 275.133 72.5733 269.107C74.1333 265.48 73.1733 262.24 74.6267 258.653C75.52 253.48 80.2 247.373 85.76 246.773C86.28 248.027 86.96 248.933 87.8 249.493C89.6267 250.08 91.4933 250.387 93.4 250.64C92.3733 248.773 89.8933 249.08 89.6267 246.68C90.96 243.493 93.1067 247.093 94.4933 248.16C102.4 252.747 109.813 257.493 118.627 260.373C121.893 261 123.44 257.093 124.347 254.653C120.707 246.013 113.52 241.72 106.44 236.227C103.133 234.4 99.6533 232.827 95.9867 231.88C93.96 232.227 92.0667 233.467 90.1867 234.28C88.52 236.867 88.76 239.747 87.72 242.653C89.1867 244.6 89.52 246.467 88.7467 248.253C84.72 246.213 85.76 243.667 85.8133 240C85.2533 235.547 88.2267 231.453 92.1733 229.933C94.0267 229.813 95.9067 229.787 97.8133 229.867C94.68 226.32 94.4533 222.387 95.3067 217.933C97.9067 215.267 100.333 212.88 103.96 211.653C102.52 209.12 100.733 206.053 100.933 203.053C97.72 200.093 95.0133 197.307 92.8533 193.453C92.8267 190.36 96.12 186.733 98.8133 185.373C94.7333 179.28 89.7333 176.173 88.84 168.12C89.1333 166.507 87.1733 165.52 86.56 164.067C85.4267 162.067 84.4667 160.187 82.6933 158.667C76.76 150.427 70.96 141.507 65.3467 133.227C64.1867 133.907 63.1733 134.84 62.3333 136C57.12 135.507 56.3067 130.813 55.36 126.587C56.3333 124.8 56.52 123.027 56.72 121.04C62.0533 119.92 60.44 123.507 64.1333 125.6C65.44 129.32 67.96 132.053 69.84 135.493C72.3067 138.533 73.6 142.173 76.6267 144.6C78.24 147.387 80.0133 150.12 81.8667 152.747C84.52 155.44 86.48 160.32 89.1733 162.613C90.68 161.213 90.9867 159.253 92.6667 158.04C94.48 156.24 98.2933 153.493 98 150.72C94.7067 146.987 92.0933 142.307 89.3467 138.547C86.2667 129.107 84.6 120.013 81.88 110.493C82.0267 108.747 81.6533 107.053 80.7467 105.413C80.6667 102.467 81.52 99.9867 79.8133 97.3467C79.4667 90.8667 80.48 84.52 82.6533 78.4533C82.2667 77.6133 81.8533 76.8 81.4267 75.9867C82.5467 74.3467 82.7467 72.16 83.9733 70.6667C87.2667 68.72 89.48 66.3467 93.36 65.3333C99.1467 63.4533 104.267 60.4533 110.093 58.6C114.28 57.2 119.24 54.0667 123.72 54.44L123.373 56.2133C113.88 58.9333 100.733 65.5333 91.24 68.72C90.24 69.9067 88.2 70.3867 87.9867 71.9733C97.8533 67.48 106.027 66.4933 116 63.4267C119.147 63.5333 122.467 62.4933 125.333 61.28C129.147 62.12 131.04 59.7333 134.72 60.3867C137.76 58.3733 140.973 60.1867 144 58.7733C145.867 57.5867 148.24 58.9867 150.067 58.04C152.707 56.3333 156.6 58.1733 159.387 56.9333C162.2 55.4 165.333 57.16 168.4 55.9467C169.307 57.44 168.987 58.5333 167.44 59.24C161.2 58.8933 155.587 60.4533 149.44 60.4C138.68 62.6133 128.6 63.5333 117.947 66.0267C116.333 67.2667 115.933 68.4267 116.213 70.44C120.627 70.1467 124.747 68.0533 129.333 68.4667C134.187 68.8267 141.453 67.2267 145.24 70.7867C146.16 73.9733 141.387 71.96 140.013 71.6267C131.507 71.3733 123.64 70.9067 115.573 74.1867C111.28 76 105.773 77.6667 102.68 81.3067C103.187 82.2933 103.707 83.2533 104.24 84.2267C103.133 86.3733 101.093 88.04 101.04 90.64C101.973 93.32 101.92 96 102.373 98.7467C105.293 98.04 107.24 94.1467 109.853 92.5333C115.387 89.0667 121.707 85.7867 128.147 84.5067C132.013 84.4267 135.96 84.4267 139.827 84.52C150.413 87.1467 161.04 93.1067 166.96 102.533L168.253 102.693C169.293 100.267 168.68 97.6667 167.013 95.6533C161.027 85.5733 148.48 80.6933 137.333 79.52C128.24 79.6133 119.493 78.7867 110.613 81.2133C108.373 78.7467 112.6 78.5467 114.093 78C122.667 76.3867 131.107 76.24 139.827 76.52C149.013 78.7467 157.4 80.72 164.307 87.7067C169.28 92.0533 170.533 97.9467 172.147 104.027C171.347 104.6 170.533 105.16 169.707 105.72C170.053 106.48 170.373 107.227 170.707 107.973C172.573 110.987 170.227 113.92 173.013 116.613C173.48 120.653 172.333 120.96 169.387 123.147C165.6 123.067 162.48 127.013 158.693 127.187C156.427 127.467 154.333 128.173 152.013 128.013C143.573 127.947 135.147 128.147 126.72 127.933C120.88 126.24 115.613 125.32 110.813 121.187C107.373 118.28 104.853 114.747 102.413 111.013L101.387 110.867C100.787 112.08 100.307 113.307 99.9467 114.573C102.773 123.067 109.44 130.427 117.56 134.187C119.28 135.093 122.787 134.893 121.733 137.773C117.88 137.613 113.88 135.293 110.547 133.413C107.6 132.973 109.213 136.52 110.947 137.067C118.093 141.107 125.96 143.253 134.187 143.253L134.427 145.04C126.32 145.987 118.72 144.307 111.627 140.36C109.587 138.933 108.12 139.88 106.093 140.613C105.48 142.147 104.747 143.613 104.04 145.107C103.973 146.787 101.707 148.413 102.08 149.747C104.813 150.76 105.893 152.987 108.147 154.4C110.56 156.2 114.453 155.027 117.333 155.253C125.547 156.013 130.933 150.787 137.173 146.48C141.52 143.627 146.333 141.187 150.32 137.827C151.587 137.973 152.853 138.067 154.133 138.107C157.387 133.787 162.773 131.28 167.32 128.56C167.4 125.707 170.787 127.28 172.573 127.04C175.253 124.973 179.667 126.48 182.96 125.933C183.427 126.907 183.893 127.88 184.36 128.853C189.573 129.547 194.24 132.133 199.093 134.027C204.333 134.213 209.387 136.747 214.573 135.947C217.707 136.093 220.72 136.413 223.813 135.64C235.187 133.867 245.6 130.48 256.653 127.4C261.413 125.707 266.267 125.067 270.853 122.867C272.427 122.013 274.08 121.813 275.827 121.52L275.653 123.613C270.933 125.747 265.867 126.733 261.187 129.04C254.72 130.253 248.867 133.28 242.413 134.387C236.04 136.107 230.067 138.293 223.347 138.227C215.973 141.533 211.253 137.4 203.96 138.08L201.387 137.413C199.96 137.04 198.56 136.56 197.2 135.973C197.28 138.107 200.387 139.387 201.453 141.267C205.44 149.227 217.6 150.987 224.613 155.227C227.56 155.28 230.667 156.24 233.4 157.32C240.053 157.387 246.707 157.267 253.36 157.373C256.96 155.44 261.467 155.147 264.387 152.36C266.84 151.107 267.8 148.72 270.52 148.387L271.653 150.107L271.467 151.507C272.333 149.36 274.2 149.08 275.867 147.72C278.173 146.467 279.693 144.427 282.133 143.427C284 141.653 285.347 139.667 287.813 138.627C291.813 134.573 295.827 130.573 299.96 126.64C301.6 122.96 305.2 121.253 306.853 117.653C313.693 109.973 319.6 100.573 325.253 91.9333C328.893 88.9733 331.053 84.4133 334.2 80.92C334.733 75.6133 339.733 76.92 341.573 72.1733C342.347 70.04 342.76 69.68 344.787 68.6933C346.587 65.1333 346.347 62.16 347.587 58.5067C347.707 56.3067 346.053 54.2 344.467 52.8533C342.48 51.0133 341.333 48.9333 338.48 48.3467C335.093 47.7067 332.387 46.8267 329.333 45.2267C326.627 45.6933 325.107 44.24 322.667 44.1333C317.48 42.9467 314.693 42.8933 309.36 41.1733C307.213 41.28 305.787 41.2667 303.88 40.16C299.667 40.2667 295.267 39.9067 291.107 40.3467L288.96 42.6933C288.16 41.3733 287.253 40.1733 286.24 39.08C283.44 39.0533 281.24 39.88 278.76 38.0933C272.48 38.16 266.173 38.2533 259.893 38.0533C257.2 40 254.707 38.3733 252.04 40.1867C243.173 40.1067 234.293 40.2133 225.413 40.12C222.4 42.2933 219.253 40.24 216.293 41.6667C214.493 42.84 212.693 41.5467 210.76 42.3867C207.507 44.1867 204.507 42.5867 201.347 44.1333C198.827 44.4667 195.947 43.6667 193.547 44.4133C190.16 46.24 185.453 44.1867 181.947 45.7067C178.533 47.0933 175.333 44.9067 172.133 47.28C167.107 46.3067 163.773 48.9067 158.76 48.12C156.587 49.2933 155.76 49.28 153.307 49.1467C149.293 50.88 145.547 49.96 141.253 50.1067C139.027 51.6 137.6 51.2267 135.12 51.12C132.227 53.2533 128.973 54.1867 125.813 55.76L126 53.8C129.827 50.48 134.933 47.9467 139.373 45.4933C138.933 43.24 138.56 41.1467 139.147 38.88C142.267 31.6 145.987 24.9333 150.507 18.48C153.36 15.5467 156.213 12.6133 159.173 9.8C164.48 6.02667 170.373 2.66667 176.293 0Z" fill="black"/>
<path d="M211.986 0H245.853C239.986 4.04 234.92 7.49333 230.973 13.64C229.626 14.76 228.44 17.3333 226.573 17.3333C226.133 11.8533 221.2 7.49333 217.573 3.77333C216.333 2.30667 214.08 2.36 212.773 0.8L211.986 0Z" fill="#96B2E7"/>
<path d="M254.96 0H288.014L288.934 0.4C292.387 1.89333 295.947 3.14667 299.427 4.6C314.987 12.1733 327.387 25.56 331.667 42.5333L330.64 43.0533C319.92 41.68 309.587 38.2 298.68 37.1867C295.227 37.1067 291.72 37.3733 288.294 37.0533C280.52 27.96 269.947 25.84 258.694 24.04C250.92 23.4 243.534 24.8 236.014 26.56C231.294 27.8 227.174 30.3067 222.627 31.9067C224.067 25.9067 229.654 20.8267 233.027 15.7333C238.2 8.01333 246.374 3.12 254.96 0Z" fill="#4A8101"/>
<path d="M297.467 0H404V284.84C399.907 280.4 394.893 277.493 390.307 273.64C386.773 272.413 383.6 269.667 379.973 269.107C379.52 262.533 380.733 256.52 377.827 250.293C378.267 248.547 379.173 247.333 378.867 245.347C378.813 238.667 378.827 231.973 378.867 225.28C378.44 222.28 376.52 221.867 378.64 218.773C376.76 215.227 378 210.547 377.733 206.613C375.8 202.92 377.027 199.4 376.613 195.333C374.44 192.413 376.627 187.96 375.213 184.68C373.827 181.933 375.467 179.053 374.173 176.44C372.853 173.707 374.56 170.827 372.933 168.013C372.16 166.16 373.16 164.187 372.307 162.44C370.933 159.76 372.4 157.147 370.84 154.467C370.733 150.08 368.613 145.853 368.627 141.52C365.747 132.387 363.107 120.8 356.8 113.213C357.453 110.307 360.427 108.067 361.213 105.16C361.827 103.24 361.053 101.467 362.107 99.5867C361.76 97.84 361.227 96.56 361.48 94.64C360.92 91.4933 358.333 87.2267 355.333 85.9333C353 83.2 350.307 83.2933 346.987 83.6C345.173 80.0933 346.2 76.4933 344.267 73.2933C345.013 71.6667 347.467 71.12 347.547 69.16C349.24 63.9333 350.787 58.3467 348.453 53.0267C345.733 49.28 342.053 46.2133 337.453 45.1333C334.613 44.76 335.72 42.0133 334.52 40.0133C331.28 32.3067 327.293 24.5467 322.2 17.9467C319.493 13.4267 315 10.6667 310.853 7.69333C306.587 4.74667 302.173 2.12 297.467 0Z" fill="#96B2E7"/>
<path d="M188 0.706716C194.614 1.08005 202.294 -0.479951 208.334 2.32005C216.467 4.65338 223.12 12.2667 226.054 20C223 24.6134 220.147 28.5067 219.494 34.2001C215.734 38.8934 210.947 40.0667 205.32 41.12C200.667 38.7467 195.72 38.2934 190.68 37.3334C176.854 36.9334 163.814 36.6134 150.48 41.0401C147.56 41.9734 144.507 43.7601 141.44 43.9467C143.507 32.8934 150.774 21.3734 159.134 13.76C167.574 7.13338 177.24 2.05338 188 0.706716Z" fill="#4A8101"/>
<path d="M278.866 33.0267C280.026 33.7734 282.2 34.3601 282.506 35.8534C280.333 36.1601 278.173 36.3067 275.986 36.0667C268.813 34.3467 261.52 34.8267 254.493 36.9601C247.426 37.7334 240.413 36.4267 233.346 37.9734C230 37.9334 225.746 38.7201 222.653 37.4934C222.066 35.2134 225.48 34.6001 226.92 33.6401C243.013 25.1201 262.68 24.4267 278.866 33.0267Z" fill="#4A8101"/>
<path d="M259.893 38.0532C266.173 38.2532 272.48 38.1599 278.76 38.0932C281.24 39.8799 283.44 39.0532 286.24 39.0799C287.253 40.1732 288.16 41.3732 288.96 42.6932L291.106 40.3466C295.266 39.9066 299.666 40.2666 303.88 40.1599C305.786 41.2666 307.213 41.2799 309.36 41.1732C314.693 42.8932 317.48 42.9466 322.666 44.1332C325.106 44.2399 326.626 45.6932 329.333 45.2266C332.386 46.8266 335.093 47.7066 338.48 48.3466C341.333 48.9332 342.48 51.0132 344.466 52.8532C346.053 54.1999 347.706 56.3066 347.586 58.5066C346.346 62.1599 346.586 65.1332 344.786 68.6932C342.76 69.6799 342.346 70.0399 341.573 72.1732C339.733 76.9199 334.733 75.6132 334.2 80.9199C331.053 84.4132 328.893 88.9732 325.253 91.9332C319.6 100.573 313.693 109.973 306.853 117.653C305.2 121.253 301.6 122.96 299.96 126.64C295.826 130.573 291.813 134.573 287.813 138.627C285.346 139.667 284 141.653 282.133 143.427C279.693 144.427 278.173 146.467 275.866 147.72C274.2 149.08 272.333 149.36 271.466 151.507L271.653 150.107L270.52 148.387L271.733 149.467C274.36 148.053 274.493 145.333 276.773 143.427C283.52 134.56 289.306 124.067 291.786 113.24C292.693 108.8 294.32 105.213 293.84 100.56C294.546 99.5466 294.946 98.4932 295.04 97.3999C294.986 90.6799 294.92 83.9466 295.066 77.2399C293.693 74.8666 293.706 73.2799 293.866 70.5866C292.826 68.9866 292.506 67.3599 292.92 65.7199C290.586 65.2266 289.733 62.8799 287.64 65.1066C286.853 64.6266 286.106 64.0932 285.426 63.5066L284.853 61.6399C280.92 60.8132 277.413 59.0666 273.333 59.2399C270.493 57.3866 267.84 59.2266 265.093 57.6266C262.76 56.5066 260.413 58.4132 258.106 56.5599C255.346 55.7466 252.066 56.9999 249.346 56.0399C245.386 54.0132 239.64 56.8799 236.093 54.2666C225.84 54.4532 215.573 54.2666 205.306 54.3599C203.293 54.6932 202.12 52.5999 200.2 53.4666C196.133 53.3866 192.04 53.2666 187.973 53.4666C183.653 55.5332 178.773 53.1066 174.706 55.2532C172.706 55.5466 170.146 54.8399 168.4 55.9466C165.333 57.1599 162.2 55.3999 159.386 56.9332C156.6 58.1732 152.706 56.3332 150.066 58.0399C148.24 58.9866 145.866 57.5866 144 58.7732C140.973 60.1866 137.76 58.3732 134.72 60.3866C131.04 59.7332 129.146 62.1199 125.333 61.2799C122.466 62.4932 119.146 63.5332 116 63.4266C106.026 66.4932 97.853 67.4799 87.9863 71.9732C88.1997 70.3866 90.2397 69.9066 91.2397 68.7199C100.733 65.5332 113.88 58.9332 123.373 56.2132L123.72 54.4399L126 53.7999L125.813 55.7599C128.973 54.1866 132.226 53.2532 135.12 51.1199C137.6 51.2266 139.026 51.5999 141.253 50.1066C145.546 49.9599 149.293 50.8799 153.306 49.1466C155.76 49.2799 156.586 49.2932 158.76 48.1199C163.773 48.9066 167.106 46.3066 172.133 47.2799C175.333 44.9066 178.533 47.0932 181.946 45.7066C185.453 44.1866 190.16 46.2399 193.546 44.4132C195.946 43.6666 198.826 44.4666 201.346 44.1332C204.506 42.5866 207.506 44.1866 210.76 42.3866C212.693 41.5466 214.493 42.8399 216.293 41.6666C219.253 40.2399 222.4 42.2932 225.413 40.1199C234.293 40.2132 243.173 40.1066 252.04 40.1866C254.706 38.3732 257.2 39.9999 259.893 38.0532Z" fill="#D1D4C8"/>
<path d="M180 40.1466C186.093 40.3066 191.44 39.2133 197.08 42.2266C184.653 41.9466 172.253 44.2666 160.013 46.1999C154.32 46.1333 148.533 48.4399 142.88 47.8133C144.373 45.9333 148.587 45.5866 150.8 44.1599C160.173 41.3866 170.213 39.6933 180 40.1466Z" fill="#4A8101"/>
<path d="M187.973 53.4666C192.04 53.2666 196.133 53.3866 200.2 53.4666C195.107 55.04 189.293 53.16 184.04 54.6533C179.573 55.9466 174.6 54.72 170.107 55.76L169.853 57.84C178.813 59.5333 186.147 56.7866 194.733 57.36C195.667 57.3333 196.44 57.5733 197.067 58.0666C194.747 61.3066 192.16 64.1866 190.507 67.8666C189.32 69.8533 190.413 72.5733 189.187 74.44C187.413 76.64 185.12 78.4 183.333 80.5733C181.387 83.6 179.693 86.76 178.12 89.9866C177.64 92.3066 177.813 94.7733 177.613 97.1333C174.933 98.9066 174.147 101.733 172.147 104.027C170.533 97.9466 169.28 92.0533 164.307 87.7066C157.4 80.72 149.013 78.7466 139.827 76.52C131.107 76.24 122.667 76.3866 114.093 78C112.6 78.5466 108.373 78.7466 110.613 81.2133C119.493 78.7866 128.24 79.6133 137.333 79.52C148.48 80.6933 161.027 85.5733 167.013 95.6533C168.68 97.6666 169.293 100.267 168.253 102.693L166.96 102.533C161.04 93.1066 150.413 87.1466 139.827 84.52C135.96 84.4266 132.013 84.4266 128.147 84.5066C121.707 85.7866 115.387 89.0666 109.853 92.5333C107.24 94.1466 105.293 98.04 102.373 98.7466C101.92 96 101.973 93.32 101.04 90.64C101.093 88.04 103.133 86.3733 104.24 84.2266C103.707 83.2533 103.187 82.2933 102.68 81.3066C105.773 77.6666 111.28 76 115.573 74.1866C123.64 70.9066 131.507 71.3733 140.013 71.6266C141.387 71.96 146.16 73.9733 145.24 70.7866C141.453 67.2266 134.187 68.8266 129.333 68.4666C124.747 68.0533 120.627 70.1466 116.213 70.44C115.933 68.4266 116.333 67.2666 117.947 66.0266C128.6 63.5333 138.68 62.6133 149.44 60.4C155.587 60.4533 161.2 58.8933 167.44 59.24C168.987 58.5333 169.307 57.44 168.4 55.9466C170.147 54.84 172.707 55.5466 174.707 55.2533C178.773 53.1066 183.653 55.5333 187.973 53.4666Z" fill="#4DB100"/>
<path d="M200.2 53.4666C202.12 52.5999 203.294 54.6932 205.307 54.3599C215.574 54.2666 225.84 54.4532 236.094 54.2666C239.64 56.8799 245.387 54.0132 249.347 56.0399C252.067 56.9999 255.347 55.7466 258.107 56.5599C260.414 58.4132 262.76 56.5066 265.094 57.6266C267.84 59.2266 270.494 57.3866 273.334 59.2399C277.414 59.0666 280.92 60.8132 284.854 61.6399L285.427 63.5066C279.147 63.2399 273.054 61.3866 266.774 60.8666C262.92 59.7999 258.88 60.7466 254.974 59.5732C251.68 59.2932 248.547 59.4666 245.36 58.4266C241.24 58.2132 237.347 58.7199 233.36 57.3866C225.414 57.2799 217.454 57.2799 209.52 57.4266C206.587 57.5599 203.16 56.8399 200.36 57.6266C196.947 62.3332 193.32 66.0799 192.054 72.0399C195.347 71.5332 198.027 68.9199 201.334 68.1066C207.52 65.8799 213.654 66.3866 220.094 66.5599C222.734 67.8132 225.56 68.3599 228.094 69.8266C233.24 67.6399 238.454 66.1332 243.974 65.3599C247.44 65.4799 250.08 65.2266 253.334 64.0132C255.88 65.9332 258.294 65.2799 261.24 65.1732C268.16 66.7866 274.64 70.3732 280.84 73.7599C284.654 76.0532 287.88 79.3332 291.84 81.3066C291.854 76.9066 291.854 72.5066 291.854 68.1066C290.76 66.8266 289.014 66.0666 287.64 65.1066C289.734 62.8799 290.587 65.2266 292.92 65.7199C292.507 67.3599 292.827 68.9866 293.867 70.5866C293.707 73.2799 293.694 74.8666 295.067 77.2399C294.92 83.9466 294.987 90.6799 295.04 97.3999C294.947 98.4932 294.547 99.5466 293.84 100.56C294.32 105.213 292.694 108.8 291.787 113.24C289.307 124.067 283.52 134.56 276.774 143.427C274.494 145.333 274.36 148.053 271.734 149.467L270.52 148.387L270.774 146.52C278.427 138.32 283.587 127.413 287.534 117C288.907 112.053 290.747 106.653 290.587 101.493C286.694 103.08 283.68 104.52 281.667 108.413C273.707 111.333 266.267 115.053 258.627 118.68C251.334 121 244.774 124.893 237.32 125.907C233.654 126.227 230.414 127.653 226.774 128.293C223.667 129.333 220.6 128.613 217.454 129.24C212.587 130.493 207.614 130.293 202.787 128.96C198.094 128.16 194.667 125.027 189.827 124.707C189.947 121.787 189.347 118.453 190.32 115.68C192.067 112.027 190.747 109.133 193.907 105.987C195.507 100.987 197.587 96.8666 202.774 94.8932C208.454 94.9466 213.694 91.1599 218.667 94.6532C224.88 94.6932 231.107 94.6932 237.32 94.5999C240.374 94.6132 243.414 94.6399 246.454 94.6666C252.214 95.4399 257.027 93.2666 262.667 93.6399C267.054 93.8932 272 92.9199 276.067 94.5732C280.374 94.6399 283.92 94.4399 287.96 96.2132C285.267 90.6266 279.067 87.8532 274.067 84.6932C267.76 81.8666 260.387 79.3332 253.414 79.5999C250.147 79.2532 247.414 80.4532 244.254 80.7466C237.987 79.7732 231.72 82.8932 225.547 84.3466C221.32 85.5599 217.64 88.8266 213.334 89.3732C213.2 88.0399 213.88 86.9466 215.36 86.0799C225.387 80.8532 235.28 77.9466 246.574 77.0266C249.654 76.2399 252.614 76.4532 255.774 76.2932C263.814 78.3199 271.627 79.1866 278.854 83.9332C283.414 86.7199 290.014 91.3866 290.56 97.1466L291.814 97.3066C291.68 93.5332 292.227 89.4799 291.52 85.7866C287.667 81.7999 282.52 78.7332 277.947 75.5999C272.294 73.0266 265.014 68.1866 258.734 68.7732C256.454 68.7332 254.2 68.3066 251.92 68.3466C247.747 68.7199 243.92 67.9866 239.92 69.1999C234.507 70.1332 229.32 72.8399 223.947 73.8132C224.174 72.8932 224.4 71.9866 224.64 71.0799C219.174 68.6266 213.774 69.5599 207.974 69.4932C205.454 69.3599 203.48 70.7066 201.04 71.5732C192.84 73.5866 186.76 79.5332 182.72 86.7332C180.067 91.6932 178.414 99.3332 180.934 104.493C180.8 106.147 180.867 107.76 181.134 109.333C183.32 108.587 183.934 104.773 185.747 103.133C189.32 97.2266 195.32 94.1332 199.014 88.4532C200.054 86.6266 201.654 86.8799 203.24 85.8666C207.387 81.6399 212.814 78.6399 217.56 75.1199C218.96 74.0799 220.827 72.7866 222.654 73.1332C222.44 75.9599 220.107 76.5999 218.094 77.9866C213.374 80.6666 209.16 84.3466 204.747 87.4799C201.4 90.3466 198.76 94.0666 195.067 96.3332C191.08 98.9732 189.28 102.747 186.387 106.4C183.934 109.667 182.694 113.373 181.36 117.187L180.2 117.373C179.92 114.88 179.374 112.76 178.347 110.467C177.347 106.173 178.014 101.533 177.614 97.1332C177.814 94.7732 177.64 92.3066 178.12 89.9866C179.694 86.7599 181.387 83.5999 183.334 80.5732C185.12 78.3999 187.414 76.6399 189.187 74.4399C190.414 72.5732 189.32 69.8532 190.507 67.8666C192.16 64.1866 194.747 61.3066 197.067 58.0666C196.44 57.5732 195.667 57.3332 194.734 57.3599C186.147 56.7866 178.814 59.5332 169.854 57.8399L170.107 55.7599C174.6 54.7199 179.574 55.9466 184.04 54.6532C189.294 53.1599 195.107 55.0399 200.2 53.4666Z" fill="black"/>
<path d="M200.36 57.6267C203.16 56.84 206.587 57.56 209.52 57.4267C209.454 60.4533 206.76 62.5333 206.707 65.32C210.867 66.9467 216.16 64.64 220.094 66.56C213.654 66.3867 207.52 65.88 201.334 68.1067C198.027 68.92 195.347 71.5333 192.054 72.04C193.32 66.08 196.947 62.3333 200.36 57.6267Z" fill="#4A8101"/>
<path d="M209.52 57.4266C217.454 57.28 225.414 57.28 233.36 57.3866C237.347 58.72 241.24 58.2133 245.36 58.4266C248.547 59.4666 251.68 59.2933 254.974 59.5733C254.44 61.0533 253.894 62.5333 253.334 64.0133C250.08 65.2266 247.44 65.48 243.974 65.36C238.454 66.1333 233.24 67.64 228.094 69.8266C225.56 68.36 222.734 67.8133 220.094 66.56C216.16 64.64 210.867 66.9466 206.707 65.32C206.76 62.5333 209.454 60.4533 209.52 57.4266Z" fill="#4DB100"/>
<path d="M254.973 59.5732C258.88 60.7466 262.92 59.7999 266.773 60.8666C263.026 60.0266 262.92 62.7199 261.24 65.1732C258.293 65.2799 255.88 65.9332 253.333 64.0132C253.893 62.5332 254.44 61.0532 254.973 59.5732Z" fill="#4A8101"/>
<path d="M266.774 60.8668C273.054 61.3868 279.147 63.2401 285.427 63.5068C286.107 64.0934 286.854 64.6268 287.64 65.1068C289.014 66.0668 290.76 66.8268 291.854 68.1068C291.854 72.5068 291.854 76.9068 291.84 81.3068C287.88 79.3334 284.654 76.0534 280.84 73.7601C274.64 70.3734 268.16 66.7868 261.24 65.1734C262.92 62.7201 263.027 60.0268 266.774 60.8668Z" fill="#4DB100"/>
<path d="M114.08 67.2665C114.174 68.5999 114.24 69.9465 114.267 71.2799C108.987 72.6932 105.614 75.7999 101.214 78.5465C99.6536 81.0265 97.987 82.6932 99.547 85.7199C98.6403 88.6399 99.0536 91.4666 99.0136 94.4932C100.574 97.2132 99.907 99.7199 99.9336 102.68C101.027 104.84 102.32 107.373 99.2803 108.56C94.9203 117.307 101.6 124.453 106.92 130.68C105.627 132.907 105.894 134.413 106.2 136.813C103.827 138.627 101.814 142.2 100.894 145.053C99.827 145.387 99.0003 145.08 98.4536 144.147C95.707 138.733 93.0403 134.187 94.0403 127.853C90.827 123.413 90.9603 118.227 88.7203 113.48C88.7603 111.307 89.0003 109.04 88.7603 106.893C87.147 103.373 87.9603 99.7865 87.9603 95.8932C85.9736 93.2399 86.6536 90.8532 87.9336 88.0799C88.0536 83.5732 87.0936 78.5466 88.6803 74.2932C94.8803 71.5066 102.6 69.7465 109.32 68.2665C110.934 67.1465 112.214 67.2132 114.08 67.2665Z" fill="#D1D4C8"/>
<path d="M251.92 68.3467C249.227 70.76 248.093 73.8267 246.573 77.0267C235.28 77.9467 225.387 80.8533 215.36 86.08C213.88 86.9467 213.2 88.04 213.333 89.3733C217.64 88.8267 221.32 85.56 225.547 84.3467C231.72 82.8933 237.987 79.7734 244.253 80.7467C242.107 85.4534 239.373 89.84 237.32 94.6C231.107 94.6933 224.88 94.6933 218.667 94.6533C213.693 91.16 208.453 94.9467 202.773 94.8933C197.587 96.8667 195.507 100.987 193.907 105.987C190.747 109.133 192.067 112.027 190.32 115.68C189.347 118.453 189.947 121.787 189.827 124.707C194.667 125.027 198.093 128.16 202.787 128.96C207.613 130.293 212.587 130.493 217.453 129.24C216.453 131.453 215.44 133.667 214.573 135.947C209.387 136.747 204.333 134.213 199.093 134.027C193.947 127.32 187.08 127.253 180.067 123.907C176.547 123.907 173.36 123.6 170.093 125.253L169.387 123.147C172.333 120.96 173.48 120.653 173.013 116.613C174.96 114.707 176.64 112.573 178.347 110.467C179.373 112.76 179.92 114.88 180.2 117.373L181.36 117.187C182.693 113.373 183.933 109.667 186.387 106.4C189.28 102.747 191.08 98.9733 195.067 96.3333C198.76 94.0667 201.4 90.3467 204.747 87.48C209.16 84.3467 213.373 80.6667 218.093 77.9867C220.107 76.6 222.44 75.96 222.653 73.1333C220.827 72.7867 218.96 74.08 217.56 75.12C212.813 78.64 207.387 81.64 203.24 85.8667C201.653 86.88 200.053 86.6267 199.013 88.4533C195.32 94.1333 189.32 97.2267 185.747 103.133C183.933 104.773 183.32 108.587 181.133 109.333C180.867 107.76 180.8 106.147 180.933 104.493C185.813 98.28 189.36 91.0533 193.813 84.52C196.307 80.08 199.707 76.28 201.04 71.5733C203.48 70.7067 205.453 69.36 207.973 69.4933C213.773 69.56 219.173 68.6267 224.64 71.08C224.4 71.9867 224.173 72.8933 223.947 73.8133C229.32 72.84 234.507 70.1334 239.92 69.2C243.92 67.9867 247.747 68.72 251.92 68.3467Z" fill="#4DB100"/>
<path d="M251.92 68.3466C254.2 68.3066 256.453 68.7333 258.733 68.7733C258.2 71.48 257 73.8533 255.773 76.2933C252.613 76.4533 249.653 76.24 246.573 77.0266C248.093 73.8266 249.227 70.76 251.92 68.3466Z" fill="#4A8101"/>
<path d="M258.733 68.7732C265.013 68.1866 272.293 73.0266 277.947 75.5999C282.52 78.7332 287.667 81.7999 291.52 85.7866C292.227 89.4799 291.68 93.5332 291.813 97.3066L290.56 97.1466C290.013 91.3866 283.413 86.7199 278.853 83.9332C271.627 79.1866 263.813 78.3199 255.773 76.2932C257 73.8532 258.2 71.4799 258.733 68.7732Z" fill="#4DB100"/>
<path d="M201.04 71.5732C199.706 76.2799 196.306 80.0799 193.813 84.5199C189.36 91.0532 185.813 98.2799 180.933 104.493C178.413 99.3332 180.066 91.6932 182.72 86.7332C186.76 79.5332 192.84 73.5866 201.04 71.5732Z" fill="#4A8101"/>
<path d="M84.9336 76.6L85.3736 76.5866L85.9069 76.5466C85.7869 78.7866 86.2536 80.6533 84.9069 82.6266C84.6936 88.44 85.0269 94.2933 84.7336 100.12C86.9069 102.867 84.9736 105.493 86.4003 108.24C88.0003 110.693 85.3469 113.147 86.8269 115.76C87.5469 118.253 89.1336 120.28 88.7736 122.827C90.0136 125.413 91.7069 127.4 90.1336 130.32C87.7736 127.107 87.6936 121.547 86.2269 117.72C85.1336 112.72 84.1336 108.173 83.4936 103.173C82.2536 101.24 82.9603 99.5066 82.8269 97.3333C82.8536 93.3866 82.7736 89.4266 82.8403 85.48C84.5736 82.64 84.1203 79.76 84.9336 76.6Z" fill="#D1D4C8"/>
<path d="M342.213 76.0933C342.8 78.7599 343.466 81.3333 343.373 84.0799C341.76 86.5599 338.333 87.3199 336.56 89.9199C331.866 94.6399 331.28 102.507 326.293 106.653C326.253 110.52 325.346 114 328.04 117.2C330.56 121.453 334.786 123.827 339.6 124.52C340.813 130.053 342.453 135.68 342.48 141.36C344.066 147.12 342.693 152.907 344.186 158.68C344.453 164.04 344.546 169.373 343.453 174.667C343.746 186.333 341.013 198.107 338.946 209.6C336.253 217.08 335.56 224.84 332.08 232.04C324.213 254.853 311.466 276.253 296.226 294.88C293.133 298.28 288.933 301.333 286.546 305.227C285.546 306.88 284.186 308.187 282.613 309.293C279.44 311.453 276.92 314.32 273.84 316.6C271.013 321.547 265.92 321.733 261.066 323.667C252.16 327.187 242.813 328.867 233.333 329.933C226.24 329.893 219.053 330.227 211.986 329.76C202.293 327.88 191.56 325.12 183.413 319.32C178.146 316.387 173.32 311.8 170.24 306.6C171.213 302.56 173.666 297.88 173.613 293.333C173.586 290.973 173.746 288.84 174.413 286.56C176.013 280.627 171.066 273.667 173.813 268.187C175.44 264.347 177.8 260.387 177.826 256C177.733 252.947 178.52 250.453 175.546 248.52C172.626 248.107 169.72 247.507 166.786 247.107C162.506 247.24 160.92 251.467 157.72 252.827C150.32 245.92 143.706 238.507 137.546 230.507C137.773 228.84 139.4 226.68 141.293 226.987C152.866 226.88 164.44 227.04 176 226.933C187.44 224.653 199.346 227.24 210.666 225.133C220.373 225.067 230.626 220.853 239.76 218.387C245.68 217.187 251.413 214.427 256.573 211.32C260.386 210.093 263.306 209.133 266.32 206.347C271.053 202.2 275.973 200.307 282.146 199.333C289.16 196.413 295.68 194.693 301.626 189.613C304.573 186.88 308.92 184.96 311.04 181.587C312.133 178.707 313.026 175.08 313.226 172C313.68 168.693 310.4 167.68 307.84 167.04C301.24 167.2 294.68 168.987 288.133 169.68C284.88 170.36 281.733 172.227 278.613 173.36C272.56 175.533 266.346 175.413 260.32 177.733C252.493 179.96 244.013 179.56 236.2 181.733C226.426 185.147 215.733 188.067 205.32 187.813C200 189.44 194.666 188.093 189.32 189.187C180.546 190.133 172.373 190.507 163.786 192.667C159.2 191.653 155.12 193.16 150.64 192.12C144.426 191.267 138.173 190.64 132.013 189.587C127.533 191.027 123.2 190.24 119.64 187.04C116.053 184.44 113.506 181.867 113.56 177.133C111.306 174.853 108.306 180.16 106.453 177.56C101.666 170.667 98.7729 163.28 100.173 154.733C104.16 156.24 107.533 158.08 111.973 158.347C115.493 158.4 119.026 158.453 122.533 158.307C126.973 156.92 131.226 155.04 134.946 152.213C137.04 150.933 138.773 148.707 141.133 148.067C139.813 153.16 131.613 157.813 132.253 163.747C134.733 164.973 135.613 159.88 137.12 158.547C145.68 148.507 155.813 139.32 167.053 132.373C171.066 129.987 174.986 127.813 179.773 129.56C183.76 131.24 188.453 133.453 190.613 137.4C193.053 141.627 197.24 144.067 199.92 148.04C202.706 152.347 206.866 154.827 211 158.413C220.693 166.013 231.933 168.613 243.893 170.267C244.733 169.867 245.146 169.16 245.133 168.16C235.266 165.907 225.72 164.773 216.986 158.947C213.64 156.693 208.786 154.52 206.88 150.853C217.52 155.24 226.72 160.32 238.666 160.32C246.44 160.04 253.186 161.387 260.466 157.84C263.92 155.893 267.733 155.307 271.36 153.867C276.933 149.853 283.266 146.293 288.186 141.533C304.253 128.387 315.813 112.133 327.013 94.8533C330.693 89.9866 333.813 84.8533 336.933 79.6133C338.506 78.2533 340.293 76.9199 342.213 76.0933Z" fill="#4A8101"/>
<path d="M253.414 79.5999C251.84 84.8932 248.587 89.5599 246.454 94.6666C243.414 94.6399 240.374 94.6132 237.32 94.5999C239.374 89.8399 242.107 85.4532 244.254 80.7466C247.414 80.4532 250.147 79.2532 253.414 79.5999Z" fill="#4A8101"/>
<path d="M253.413 79.5999C260.386 79.3332 267.76 81.8666 274.066 84.6932C279.066 87.8532 285.266 90.6266 287.96 96.2132C283.92 94.4399 280.373 94.6399 276.066 94.5732C272 92.9199 267.053 93.8932 262.666 93.6399C257.026 93.2666 252.213 95.4399 246.453 94.6666C248.586 89.5599 251.84 84.8932 253.413 79.5999Z" fill="#4DB100"/>
<path d="M350.494 86.7334C353.72 87.6134 357.547 91.56 358.494 94.76C358.547 97.8534 358.48 100.96 358.547 104.053C357.72 108.947 353.8 109.987 351.534 114.173C350.04 116.4 347.667 116.827 345.16 116.973L344.867 118.493C351.88 127.933 351.934 138.147 351.4 149.44C352.787 152.227 353.32 155.867 351.4 158.533C351.387 162.6 351.907 167.133 351.214 171.107C349.574 174.213 351.52 177.347 349.68 180.32C349.2 182.413 350.014 184 348.68 185.973C348.694 190.293 346.814 193.96 346.347 198.24C344.72 199.667 346.12 202.107 344.854 203.96C343.387 207.747 342.334 211.76 341.107 215.627L339.987 215.933C341.147 212.653 342.56 209.653 342.4 206.053C344.12 203.573 342.56 201.173 344.134 198.667C344.52 196.12 344.014 194.373 345.534 192.053C345.507 188.92 345.054 186.867 346.56 184C346.427 179.093 346.547 174.187 346.467 169.28C347.734 165.933 348.174 162 346.467 158.72C346.32 154.493 346.854 149.84 346.28 145.733C344.427 143.2 346.427 140.04 345.04 137.627C343.694 135.52 345.027 133.467 343.36 131.333C343.374 129.067 343.414 127.467 342.334 125.36C342.427 122.96 342.374 122.413 340.654 120.76C339.84 118.747 340.494 117.227 337.68 117.68C337.227 118.693 337.427 119.96 338.294 121.48C333.547 119.84 330.6 116.96 329.2 112.093C330.667 109.88 330.2 107.4 331.654 105.053C333.174 99.4667 336.56 95.1734 339.854 90.5067C342.787 88.5334 346.867 86.08 350.494 86.7334Z" fill="#D1D4C8"/>
<path d="M124.173 88.6933C129.52 87.5333 134.613 87.48 140.053 87.7466C144.747 89.48 149.427 90.4933 153.6 93.44C153.12 95.36 152.32 96.2533 150.907 97.5466C148.373 96.2533 145.413 95.52 142.68 94.7066C135.307 94.8933 128.093 93.68 121.347 96.1733C115.04 97.5733 109.653 101 104.12 103.933L104 102.68C108.693 95.64 116.013 90.8 124.173 88.6933Z" fill="#4DB100"/>
<path d="M153.6 93.4399C158.92 96.9733 164.72 102.187 167.56 107.96C162.6 102.987 157.28 100.267 150.906 97.5466C152.32 96.2533 153.12 95.3599 153.6 93.4399Z" fill="#4DB100"/>
<path d="M129.307 97.3067C128.934 99.1067 126.92 100.467 125.654 101.68C123.734 106.12 124.174 109.907 124.134 114.613C125.574 118.64 127.094 121.893 129.467 125.44C125.147 123.427 120.8 124.707 117.04 121.493C115.427 120.173 113.427 120.44 112.16 118.507C110.414 116.08 106.694 114.173 105.894 111.307C104.387 110.213 102.494 107.307 105.28 106.56C108.427 104.293 112.12 103.227 115.294 100.88C118.454 100.92 120.974 98.3601 123.987 98.6667C126.027 99.1201 127.227 97.1067 129.307 97.3067Z" fill="white"/>
<path d="M177.614 97.1333C178.014 101.533 177.347 106.173 178.347 110.467C176.64 112.573 174.96 114.707 173.014 116.613C170.227 113.92 172.574 110.987 170.707 107.973C170.374 107.227 170.054 106.48 169.707 105.72C170.534 105.16 171.347 104.6 172.147 104.027C174.147 101.733 174.934 98.9066 177.614 97.1333Z" fill="#4A8101"/>
<path d="M209.174 97.7733C211.8 97.64 214.387 97.6133 217.014 97.7067C218.56 100.32 220.694 102.107 220.254 105.4C219.24 107.053 218.467 109.2 219.68 110.973C220.974 112.68 219.347 114.587 220.96 116.413C221.774 118.933 222.254 122.28 225.294 123C227.054 122.827 229.24 124.613 226.974 125.76C222.574 125.4 221.427 128.92 217.2 125.827C214.374 128.067 211.507 126.6 208 127C203.827 127.48 198.88 125.4 195.507 122.973C194.04 122.947 192.56 123.013 191.094 123.173C192.187 117.44 193.774 114.12 195.547 108.68C196.974 105.36 199.84 102 201.307 98.7733C204 96.8267 206.094 95.4267 209.174 97.7733Z" fill="white"/>
<path d="M261.56 96.6399C267.266 96.6799 272.986 96.6666 278.693 96.6532C281.533 96.5466 283.946 98.9599 286.84 98.8132L286.973 100.053C284.106 101.133 283.48 103.693 280.506 104.547C278.506 106.88 276.52 108.827 273.253 108.96C271.2 109.853 269.466 111.213 267.293 111.84C267.826 111.107 268.373 110.373 268.906 109.653C268.586 105.453 266.386 103.16 264.44 99.7599C263.106 98.9599 262.146 97.9199 261.56 96.6399Z" fill="white"/>
<path d="M249.96 100.587C251.8 100.627 253.64 100.693 255.493 100.68C255.413 102.867 256.16 105.36 253.347 105.987C251.533 105.533 250.413 104.44 248.307 104.587C248.467 103.187 249.413 101.867 249.96 100.587Z" fill="white"/>
<path d="M151.04 101.413C152.76 102.067 154.374 103.187 155.72 104.44C154.8 106.96 153.64 108.427 151.587 110.16C150.494 109.307 149.48 108.387 148.467 107.453C147.894 104.253 150.64 104.453 151.04 101.413Z" fill="white"/>
<path d="M290.587 101.493C290.747 106.653 288.907 112.053 287.533 117C283.587 127.413 278.427 138.32 270.773 146.52C268.72 147.747 267.013 149.32 264.787 150.293C260.667 153.28 255.307 153.147 250.587 154.36C246.787 154.253 243.44 154.973 239.92 153.493C237.28 153.427 234.613 153.56 231.973 153.44C226.773 151.347 221.44 150.573 216.747 147.28C210.36 145.76 206.067 141.707 201.387 137.413L203.96 138.08C211.253 137.4 215.973 141.533 223.347 138.227C230.067 138.293 236.04 136.107 242.413 134.387C248.867 133.28 254.72 130.253 261.187 129.04C265.867 126.733 270.933 125.747 275.653 123.613L275.827 121.52C274.08 121.813 272.427 122.013 270.853 122.867C266.267 125.067 261.413 125.707 256.653 127.4C245.6 130.48 235.187 133.867 223.813 135.64C224.653 133.12 225.693 130.693 226.773 128.293C230.413 127.653 233.653 126.227 237.32 125.907C244.773 124.893 251.333 121 258.627 118.68C266.267 115.053 273.707 111.333 281.667 108.413C283.68 104.52 286.693 103.08 290.587 101.493Z" fill="#4DB100"/>
<path d="M233.48 104.787C235.853 105.64 237.213 107.68 239.56 108.52C241.133 109.787 240.586 112.787 238.84 113.88C236.933 113.813 235.026 113.827 233.146 113.92C231.693 112.253 229.613 112.04 228.293 110.253C228.293 109.227 228.32 108.2 228.386 107.173C230.133 105.427 230.706 104.427 233.48 104.787Z" fill="white"/>
<path d="M137.787 108.68C138.374 110.667 135.867 112.213 136 114.507C137.187 114.573 138.374 114.64 139.56 114.693L138.974 112.16L140.68 112.613C140.56 113.587 140.28 114.4 139.84 115.04C137.174 114.747 135.867 116.08 133.56 116.88C132.347 115.027 130.547 114 129.894 111.773C131.76 110.84 132.387 109.8 133.4 108.093C134.56 107.613 137 107.427 137.787 108.68Z" fill="white"/>
<path d="M101.386 110.867L102.413 111.013C104.853 114.747 107.373 118.28 110.813 121.187C115.613 125.32 120.88 126.24 126.72 127.933C135.146 128.147 143.573 127.947 152.013 128.013C154.333 128.173 156.426 127.467 158.693 127.187C162.48 127.013 165.6 123.067 169.386 123.147L170.093 125.253C165.826 126.507 163.013 129.88 158.72 131.067C155.92 131.693 154.346 133.987 151.333 134.293C147.92 138.48 142.56 139.213 139.28 143.32C138.08 144.64 136.426 144.653 135.453 146.36C134.346 147.653 132.493 147.213 131.24 148.547C128.706 151 125.653 151 122.786 152.64C118.2 152.933 114.293 151.16 109.866 150.36C108.586 150.267 107.546 149.627 106.746 148.467C105.933 147.253 105.04 146.133 104.04 145.107C104.746 143.613 105.48 142.147 106.093 140.613C108.12 139.88 109.586 138.933 111.626 140.36C118.72 144.307 126.32 145.987 134.426 145.04L134.186 143.253C125.96 143.253 118.093 141.107 110.946 137.067C109.213 136.52 107.6 132.973 110.546 133.413C113.88 135.293 117.88 137.613 121.733 137.773C122.786 134.893 119.28 135.093 117.56 134.187C109.44 130.427 102.773 123.067 99.9463 114.573C100.306 113.307 100.786 112.08 101.386 110.867Z" fill="#4DB100"/>
<path d="M254.573 110.88C255.107 114.093 250.48 114.827 249.467 113.133C249.547 110.24 252.533 110.8 254.573 110.88Z" fill="white"/>
<path d="M164.48 112.187C165.36 112.373 166.226 112.587 167.093 112.813C167.706 114.387 170.173 116.413 169.906 118.04C168.733 119.933 165.733 122.44 163.373 121.907C165.32 118.48 164.68 116.013 164.48 112.187Z" fill="white"/>
<path d="M153.48 116.16C152.6 118.56 153.093 120.907 149.586 119.787C149.28 118.88 148.96 117.973 148.64 117.067C150.92 117.32 151.36 113.533 153.48 116.16Z" fill="white"/>
<path d="M354.627 114.587C355.48 114.933 356.107 115.627 356.52 116.667C360.32 125.4 363.827 134.747 365.053 144.227C368.213 156.787 369.413 169.507 371.133 182.28C372.64 191.547 373.24 201.093 373.84 210.467C375.333 215.027 374.013 219.653 375.467 224.213C376.08 233.84 375.467 243.693 375.747 253.36C376.293 257.573 378.307 260.92 377.493 265.32C376.68 268.4 377.28 271.413 376.747 274.493C375.067 281.653 371.76 287.453 368.52 293.92C358.52 311.987 345.4 325.92 331.813 341.173C325.68 349.147 317.453 355.453 311.293 363.373C303.187 372.333 294.027 380.36 285.947 389.333H243.227C245.867 382.12 249.72 375.613 252.573 368.533C256.253 362.72 258.52 356.147 262.387 350.493C266.533 343.56 270.813 336.667 275.08 329.8C276.44 327.133 279.773 326.493 280.973 323.92C280.787 322.787 280.627 321.64 280.507 320.493C283.053 318.44 285.787 317.173 287.56 314.253C290.453 309.44 295.493 306.96 298.333 302.16C304.027 295.693 308.76 288.613 313.333 281.347C322.533 267.28 330.56 252.253 336.573 236.547C339.587 229.867 342.307 223.133 344.04 216C348.173 206.28 349.813 195.573 352.28 185.333C352.733 179.533 353.76 173.773 354.52 168.027C354.493 159.133 354.64 150.213 354.44 141.32C352.653 134.88 353.84 124.2 348.467 119.587C350.64 118.053 352.56 116.253 354.627 114.587Z" fill="#4A8101"/>
<path d="M58.7734 124.013C60.4401 124.373 60.3201 126.493 61.6401 127.547C63.1734 128.64 62.2534 131.6 62.3868 133.24C60.8134 132.733 59.8001 131.92 58.9068 130.533C58.8668 128.36 58.8668 126.187 58.7734 124.013Z" fill="#D1D4C8"/>
<path d="M170.093 125.253C173.36 123.6 176.546 123.907 180.066 123.907C187.08 127.253 193.946 127.32 199.093 134.027C194.24 132.133 189.573 129.547 184.36 128.853C183.893 127.88 183.426 126.907 182.96 125.933C179.666 126.48 175.253 124.973 172.573 127.04C170.786 127.28 167.4 125.707 167.32 128.56C162.773 131.28 157.386 133.787 154.133 138.107C152.853 138.067 151.586 137.973 150.32 137.827C146.333 141.187 141.52 143.627 137.173 146.48L135.453 146.36C136.426 144.653 138.08 144.64 139.28 143.32C142.56 139.213 147.92 138.48 151.333 134.293C154.346 133.987 155.92 131.693 158.72 131.067C163.013 129.88 165.826 126.507 170.093 125.253Z" fill="white"/>
<path d="M226.773 128.293C225.693 130.693 224.653 133.12 223.813 135.64C220.72 136.413 217.707 136.093 214.573 135.947C215.44 133.667 216.453 131.453 217.453 129.24C220.6 128.613 223.667 129.333 226.773 128.293Z" fill="#4A8101"/>
<path d="M90.8135 132.147H91.8535V133.187H90.8135V132.147Z" fill="#4A8101"/>
<path d="M197.2 135.973C198.56 136.56 199.96 137.04 201.387 137.413C206.067 141.707 210.36 145.76 216.747 147.28C221.44 150.573 226.774 151.347 231.974 153.44C234.614 153.56 237.28 153.427 239.92 153.493C243.44 154.973 246.787 154.253 250.587 154.36C255.307 153.147 260.667 153.28 264.787 150.293C267.014 149.32 268.72 147.747 270.774 146.52L270.52 148.387C267.8 148.72 266.84 151.107 264.387 152.36C261.467 155.147 256.96 155.44 253.36 157.373C246.707 157.267 240.054 157.387 233.4 157.32C230.667 156.24 227.56 155.28 224.614 155.227C217.6 150.987 205.44 149.227 201.454 141.267C200.387 139.387 197.28 138.107 197.2 135.973Z" fill="#D1D4C8"/>
<path d="M104.04 145.107C105.04 146.133 105.933 147.253 106.746 148.467C108.906 151.053 108.96 151.107 108.146 154.4C105.893 152.987 104.813 150.76 102.08 149.747C101.706 148.413 103.973 146.787 104.04 145.107Z" fill="white"/>
<path d="M135.454 146.36L137.174 146.48C130.934 150.787 125.547 156.013 117.334 155.253C114.454 155.027 110.56 156.2 108.147 154.4C108.96 151.107 108.907 151.053 106.747 148.467C107.547 149.627 108.587 150.267 109.867 150.36C114.294 151.16 118.2 152.933 122.787 152.64C125.654 151 128.707 151 131.24 148.547C132.494 147.213 134.347 147.653 135.454 146.36Z" fill="white"/>
<path d="M304.307 147.627C307.147 148.8 312.694 150.373 311.827 154.44C308.214 153.64 306.6 150.573 302.707 150.387C301.387 150.427 300.054 150.467 298.72 150.533C297.68 148.12 302.667 146.347 304.307 147.627Z" fill="black"/>
<path d="M304 156.253C308.8 156.707 313.426 158.44 316.346 162.44C319.64 166.267 319.613 172.613 318.72 177.293C315.466 177.333 316.386 174.16 316.12 172C316.093 166.453 313.293 161.893 307.973 160.067C302.56 157.853 298.68 161.24 293.293 160.067L293.56 158.827C296.773 157.307 300.52 156.88 304 156.253Z" fill="black"/>
<path d="M97.0534 157.413C96.4668 165.6 100.013 172.013 104.12 178.733C104.787 180.173 104.293 181.267 102.653 182.013C98.5334 176.587 94.8134 170.747 90.7734 165.213C91.2268 162.213 95.3868 160.067 97.0534 157.413Z" fill="#963E00"/>
<path d="M307.654 169.653C308.68 170.24 309.48 170.987 310.054 171.907C310.16 175 309.894 177.693 308.494 180.507C306 182.92 302.734 184.467 300.214 186.893C295.44 191.373 288.76 193.12 282.64 195.947C277.36 196.733 272.547 198.48 267.92 201.173C264.2 204.467 261.014 206.627 256.36 208.44C250.587 212.293 244.187 214.213 237.64 216.293C228.8 217.64 221.36 222.027 212.174 222.08C204.254 223.827 196.414 222.44 188.334 223.24C180.494 222.04 174.454 226.92 166.64 224.067C163.654 224.413 161.8 225.147 158.747 224.227C154.174 225.573 149.04 225.04 144.32 224.84C145.254 221.787 148.294 219.373 150.134 216.813C151.814 210.907 149 207.307 147.307 201.973C140.454 200.44 134.027 198.4 126.947 198.4C125.827 196.587 122.547 194.507 122.747 192.32C131.414 193.133 139.614 191.613 148.054 194.533C156.867 194.72 165.427 195.4 173.96 192.76C180.974 192.947 187.494 191.36 194.494 191.587C199.494 189.867 204.067 191.093 209.334 190.547C213.28 189.667 217.347 189.213 221.36 188.707C228.587 188.133 234.027 184.067 241.12 183.32C244.307 182.773 247.48 182.147 250.654 181.6C260.84 180.8 270.987 178.16 280.827 175.467C289.4 170.52 298.12 172.64 307.654 169.653Z" fill="#C8605F"/>
<path d="M301.12 176.08C300.76 177.973 298.867 179.08 297.2 179.707C293.173 181.347 289.813 183.813 286.293 186.24C281.04 188.853 275.28 189.867 270 192.413C264.453 193.32 259.347 194.813 254 196.493C250.253 196.893 246.387 196.72 242.613 196.827C236.453 198.467 230.307 201.093 223.973 200.653C220.987 200.453 218.867 202.48 216.027 202.627C209.347 202.8 202.667 202.6 196 202.533C190.36 203.053 185.32 201.84 179.92 203.747C170.227 203.96 160.48 203.867 150.773 203.787L150.893 201.667C158.813 201.547 166.747 201.747 174.667 201.613C177.827 201.12 180.8 200.547 184.027 200.653C194.72 198.64 206.24 200.387 217.12 199.48C220.4 198.76 223.227 197.48 226.64 197.64C232.053 197.853 237.28 194.493 242.653 194.68C247.973 194.853 253.573 193.107 258.667 191.853C268.093 190.92 277.013 186.507 286.08 183.24C289.267 181.067 292.093 178.6 295.68 177.027C297.56 176.267 299.053 174.947 301.12 176.08Z" fill="black"/>
<path d="M107.92 181.373C107.974 182.56 107.6 183.453 106.8 184.08C103.347 187.307 100.707 191.16 96.5338 193.093C98.1471 196.453 99.2938 195.053 101.227 193.187C104.147 190.973 107.187 189.507 108.494 185.773C110.027 184.52 111.054 183.267 111.774 181.413C112.414 183.467 112.974 185.187 114.6 186.707C118.667 192.6 122.934 197.773 127.32 203.347C129.067 205.2 130.867 206.813 131.934 209.16C134.854 212.2 138.414 215.36 141.147 218.427C138.44 219.427 136.894 220.613 134.894 222.627C134.507 221.507 134.267 220.333 134.2 219.107C129.84 212.733 123.987 213.373 118.054 210.013C115.267 209.4 112.134 209.84 109.347 209.68C106.52 206.893 104.867 203.52 101.947 200.773C100.427 197.2 96.4671 195.867 95.4404 192.32C96.5204 190.347 98.9338 188.867 100.28 186.933C101.467 186.893 102.64 186.787 103.8 186.627C104.32 184.453 106.174 182.627 107.92 181.373Z" fill="#D1D4C8"/>
<path d="M133.213 204C137.36 203.533 141.147 203.48 144.747 205.853C146.107 208.04 148.907 210.747 148.64 213.427C147.733 215.187 147.44 217.267 145.427 218.107C142.853 217.44 140.68 214.867 139.28 212.693C137.52 210 134.533 207.96 132.533 205.4L133.213 204Z" fill="#4383FF"/>
<path d="M116.014 211.827C120.894 214.787 128.547 215.853 132.147 220.333L131.28 221.267C129.72 222.573 129.654 224.613 130.307 226.427L129.707 227.333C123.894 233.96 114.92 230.613 109.227 225.787L106.907 226.933C107.827 228.173 108.44 229.4 109.987 229.96C113.187 231.213 116.2 233.573 119.6 234.107C119.987 235.427 120.28 236.773 120.507 238.147C123.094 239.747 124.44 242.147 126.147 244.533C127.414 245.547 128.88 248.227 130.64 246.853C129.947 243.213 125.56 241.347 125.827 237.987C128.36 236.92 129.787 234.653 132.174 233.453C134.254 235.653 134.614 238.48 136.44 240.8C139.214 245.507 142.774 249.573 146.254 253.707C147.227 256.96 150.907 255.867 149.787 260.013C148.187 262.76 148.907 265.187 148.12 267.907C144.32 268.52 143.734 271.2 142.08 274.107C139.36 278.44 139.174 282.76 138.094 287.773C136.614 291.547 137.64 296.027 137.294 300.04C138.48 302.44 138.8 308.68 142.52 307.867C140.934 301.853 137.654 296.947 140.307 290.707C139.987 284.747 142.867 278.613 145.44 273.36C145.64 272.427 146.334 272 147.52 272.093C147.12 275.413 148.52 277.987 149.52 281.053C153.387 282.053 149.76 275.6 150.16 273.667C150.654 268.387 149.96 263.413 153.4 259.12C153.36 260.053 153.334 260.987 153.347 261.92C153.787 264.267 152.614 267.08 155.907 267.44C162.28 266.813 167.974 260.773 169.28 254.627C170.134 252.427 170.267 249.373 173.48 249.987C174.987 250.547 175.667 254.36 175.747 255.853C173.747 260.36 173.707 264.827 169.667 268.147C169.134 271.693 171.107 274.093 171.68 277.413C171.667 282.24 171.654 287.08 171.694 291.907C170.827 294.307 170.494 296.053 170.627 298.64C168.707 301.72 168.68 304.96 166.587 307.907C164.907 311.667 164.454 315.52 161.894 318.907C159.6 328.16 152.68 336.413 148.214 345.013C151.64 346.053 151.587 341.16 154.4 340.053L154.627 342.627C153.4 343.187 153.054 344.12 153.574 345.44C153.787 348.72 152.054 351.373 152.547 354.693C151.04 357.427 151.934 360.12 150.894 362.88C149.88 365.507 151.147 368.84 150.054 371.44C148.774 374.16 150.134 377.093 149.134 379.8C148 382.693 148.72 386.2 148.48 389.333H75.4805C81.9471 372.613 87.4538 355.72 95.6805 339.667C96.5471 335.493 99.5605 332.413 100.254 328.253L101.494 326.653C105.507 327.867 108.054 337.307 113.24 335.933C111.547 331.507 107.28 329.84 105.014 325.773C100.334 319.867 96.5871 313.653 92.6805 307.267C90.0138 304.653 89.7071 300.893 87.0405 298.253C86.0405 296.2 85.2805 294.12 83.8405 292.307C81.3738 288.867 80.4005 285.067 78.7738 281.253C79.0138 280.467 79.2671 279.693 79.5205 278.907C73.0805 272.6 75.4671 261.2 79.4005 254.133C80.1738 251.507 85.3471 247.52 86.9205 251.827C93.2538 252.587 99.3205 257.547 104.72 260.693C106.56 262.2 107.787 264.013 110.187 264.747C110.2 265.667 110.227 266.587 110.24 267.493C108.254 269.453 106.467 272.213 103.974 273.493C97.8138 273.547 93.3338 270.373 87.8271 268.347C86.2538 267.56 84.5871 265.227 82.7738 266.68C82.6405 267.72 83.1205 268.533 84.2271 269.107C90.7871 272.653 99.5071 277.187 107.027 275.107C109.467 272.32 110.747 269.253 114.307 267.547C112.8 262.707 108.2 261 105.48 257.52C111.08 260.253 115.747 263.28 122.347 262.347C125.707 260.627 127.267 254.653 125.92 251.307C123.28 246.813 119.587 242.293 115.16 239.48C111.134 235.32 105.4 232 99.8005 230.653C98.9738 229.773 98.6805 228.52 98.9205 226.88C98.6005 224.787 96.4405 223.56 96.8538 221.227C100.894 214.227 108.427 212.12 116.014 211.827Z" fill="#4383FF"/>
<path d="M338.747 217.4C340.88 215.933 342.227 219.493 339.907 220.28C338.36 220.013 337.974 219.053 338.747 217.4Z" fill="#4A8101"/>
<path d="M141.44 219.987C142.746 219.627 143.866 219.733 144.813 220.267C145.373 221.28 141.106 223.053 140.453 222.387C140.04 221.56 140.373 220.76 141.44 219.987Z" fill="#4A8101"/>
<path d="M131.28 221.267C130.374 222.867 131.414 224.08 131.027 225.747C133.107 226.213 134.787 226.333 136.867 226.04C136.867 228.04 133.974 229.093 132.627 230.36C132.467 228.053 131.494 227.04 129.707 227.333L130.307 226.427C129.654 224.613 129.72 222.573 131.28 221.267Z" fill="#4A8101"/>
<path d="M337.826 221.52L338.76 220.947L339.826 221.427L339.853 222.56L338.8 223.08L337.84 222.52L337.826 221.52Z" fill="#4A8101"/>
<path d="M337.52 224.493L338.48 224.48L339.013 225.387L338.52 226.4H337.48L336.986 225.4L337.52 224.493Z" fill="#4A8101"/>
<path d="M129.48 230.813H130.52V231.853H129.48V230.813Z" fill="#4A8101"/>
<path d="M95.9864 231.88C99.6531 232.827 103.133 234.4 106.44 236.227C113.52 241.72 120.706 246.013 124.346 254.653C123.44 257.093 121.893 261 118.626 260.373C109.813 257.493 102.4 252.747 94.4931 248.16C93.1064 247.093 90.9597 243.493 89.6264 246.68C89.8931 249.08 92.3731 248.773 93.3997 250.64C91.4931 250.387 89.6264 250.08 87.7997 249.493L88.7464 248.253C89.5197 246.467 89.1864 244.6 87.7197 242.653C88.7597 239.747 88.5197 236.867 90.1864 234.28C92.0664 233.467 93.9597 232.227 95.9864 231.88Z" fill="#4383FF"/>
<path d="M134.946 232.307C136.746 232.733 137.24 235.573 139.306 236.64C140.626 239.84 143.4 241.333 145.053 244.267C148.613 248.587 153.706 252.053 156.506 256.907C158.08 257.733 159.906 258.04 161.56 258.64C162.226 257.64 161.893 256.387 160.56 254.893C161.986 253.733 163.133 252.333 164.44 251.067C165.546 250.907 166.653 250.747 167.76 250.587C166.04 255.64 163.146 262.68 157.306 264C155.946 263.44 154.613 262.747 153.346 261.92C153.333 260.987 153.36 260.053 153.4 259.12L154.933 257.373C154.36 256.44 153.066 255.893 151.053 255.72C149.506 253.093 147.04 251.707 145.92 248.747C141.173 244.493 137.786 237.92 134.946 232.307Z" fill="#D1D4C8"/>
<path d="M123.054 233.853C124.627 232.84 126.08 232.76 127.414 233.627C127.76 235.64 120.654 237.76 123.054 233.853Z" fill="#4A8101"/>
<path d="M94.9863 251.08C95.7063 251.627 95.7063 251.627 94.9863 251.08V251.08Z" fill="#4A8101"/>
<path d="M379.827 271.48L381.187 271.44C383 273.867 385.893 273.88 388 276C390.6 277.04 391.707 279.347 394.093 280.587C397.813 283.107 400.64 287.133 404 290.107V389.333H290.427C300.533 379.707 310.027 369.76 320.027 360.027C322.347 357.253 326.133 354.747 327.533 351.387C330.653 348.347 333.667 345.213 336.84 342.227C338.107 338.333 342.947 336.347 344.44 332.48C346.12 330.747 348.04 329.72 348.787 327.293C350.64 324.973 353.013 323.693 354.107 320.773C357.16 318.04 358.88 314.12 361.813 311.16C365.493 306.813 367.533 302.107 370.72 297.4C374.293 289.8 380.573 280.213 379.827 271.48Z" fill="white"/>
<path d="M109.373 277.347C112.52 277.867 113.826 282.04 117.066 283C119.773 287.413 123.653 290.44 127.226 294.093C130.32 298.987 134.666 301.787 135.933 307.853C133.173 308.787 133.48 306.573 132.226 304.947C129.28 300.293 125.546 296.68 122.346 292.32C117.693 288.307 113.973 282.187 108.386 279.587C107.573 277.947 107.906 277.2 109.373 277.347Z" fill="black"/>
<path d="M298.267 297.347C297.947 299.013 296.067 299.427 295.32 301C292.014 306.507 285.494 310.107 282.347 315.64C279.2 316.88 277.334 320.507 274.587 322.373C272.774 323.2 271.787 324.053 270.534 325.573L270.854 326.453C272.294 327.107 273 328.013 272.987 329.2C266.68 336.133 262.267 345.387 257.227 353.267C251.414 365.027 244.76 377 240.24 389.333H226.587C223.787 381.907 220.134 376.12 215.8 369.613C208.814 359.533 200.347 349.013 192.454 339.613C189.28 336.04 185.694 333 183.067 328.947C180.454 327.56 178.84 325.373 176.734 323.413C172.627 321.853 171.04 317.44 166.547 315.907C167.494 314.107 167.147 310.4 169.254 309.84C170.187 310.573 170.814 311.6 171.134 312.92C176.094 317.347 180.64 323.253 187.227 325.267C188.707 327.573 183.867 330.053 186.334 332.187C188.48 332.347 189.32 328.627 190.24 327.12C196.454 329.2 202.6 331.48 209.027 332.387C216.2 334.84 223.294 333.72 230.747 334.067C234.894 331.8 238.787 334.227 242.694 331.987C254.56 330.253 264.107 326.013 275.067 321.44C275.654 320.48 275.867 319.36 275.72 318.067C278.627 315.96 281.2 314.387 283.574 311.547C287.254 309.8 289.254 306.68 292.254 303.987C293.08 301.147 296 299.067 298.267 297.347Z" fill="#D1D4C8"/>
<path d="M84.36 299.68C86.9867 305.68 91.2667 310.147 94.0933 315.4C96.9067 318.067 100.627 322.667 98.5733 326.707C97.32 330.533 93.9867 334 93.8 338.04C87.0533 348.813 80.9867 366 76.6 378.04C74.8933 380.987 74.7467 384.587 72.6667 387.24L72.6133 389.333H0V363.76C4.17333 359.453 10.3733 355.333 14.9867 350.867C18.2667 349.773 19.4 346.413 22.4 345.027C29.2267 339.84 35.7333 334.187 42.44 328.92C45.0533 328.307 45.8667 324.973 48.12 324.213C51.4133 322.44 54.1333 319.2 57.1733 317.053C64.2 312.12 73.1467 305.373 80.2667 300.467C81.56 299.48 83.04 297.427 84.36 299.68Z" fill="white"/>
<path d="M166.667 318.867C173.6 323.467 179.614 330.093 184.84 336.52C189.92 341.627 194.427 347.373 199 352.933C207.454 364.16 217.787 376.04 222.667 389.333H167.88C163.854 376.107 159.747 362.6 156.48 349.16C157.12 342.267 158.92 333.84 162.547 327.867C163.747 325.547 163.854 319.48 166.667 318.867Z" fill="#4A8101"/>
<path d="M154.627 342.627C155.12 343.987 154.76 344.92 153.573 345.44C153.053 344.12 153.4 343.187 154.627 342.627Z" fill="#4A8101"/>
<path d="M154.76 357.453L155.813 357.48C156.027 364.16 158.96 370.947 160.747 377.333C161.267 381.373 163.88 385.133 163.96 389.333H150.88C152.653 385.947 150.08 381.6 152.56 378.787C152.8 375.8 151.627 371.84 153.48 369.333C153.693 366.813 153.253 364.213 153.573 361.72C154.987 360.773 155.373 359.347 154.76 357.453Z" fill="white"/>
</g>
<defs>
<clipPath id="clip0_20_66">
<rect width="404" height="389.333" rx="194.667" fill="white"/>
</clipPath>
</defs>
</svg>
