<svg width="503" height="551" viewBox="0 0 503 551" fill="none" xmlns="http://www.w3.org/2000/svg">
<path d="M357.689 79.3859C360.804 83.2883 361.78 88.1458 364.116 92.4439C368.318 94.8863 372.668 96.2644 376.326 99.8257C382.283 105.325 385.324 112.966 386.708 121.248C390.514 122.722 394.679 124.045 398.177 126.283L397.571 130.376C385.274 125.287 372.866 121.657 359.617 121.957C353.401 122.312 347.024 125.764 341.055 127.784C344.28 130.39 347.382 133.869 351.078 135.629C354.773 135.302 358.431 133.719 362.052 132.778C373.632 129.653 385.731 128.575 397.163 133.037C394.778 133.815 392.393 134.633 389.909 134.961C377.562 133.105 365.129 133.296 353.92 139.982C359.531 139.559 364.932 138.004 370.456 136.994L373.484 137.622C371.309 138.822 369.146 140.009 366.897 141.033C361.941 142.124 357.084 143.625 352.264 145.276C351.164 141.974 349.817 140.05 347.32 137.854C342.155 133.76 336.371 132.737 330.204 131.877C329.635 130.813 329.054 129.735 328.473 128.671C330.945 128.616 333.405 128.534 335.864 128.452C331.551 126.542 326.582 124.987 322.862 121.93C319.822 119.597 317.363 116.759 313.618 115.858C307.241 114.235 300.333 114.794 294.054 116.732C288.555 118.464 284.217 121.698 279.422 124.959C278 123.936 276.579 122.926 275.121 121.971C270.239 121.262 265.407 120.429 260.562 119.474C254.173 130.745 251.182 144.43 249.056 157.379C248.117 157.42 247.178 157.475 246.226 157.516C246.448 152.535 246.646 147.541 246.745 142.547C241.245 145.863 236.24 149.602 232.78 155.523C225.216 168.172 219.284 184.246 216.726 199.118C214.625 211.071 215.564 223.406 221.508 233.871C226.724 243.245 234.695 249.249 243.692 253.52C246.102 254.53 248.599 255.376 251.058 256.208C248.945 247.311 246.065 238.674 243.853 229.819C241.591 216.27 237.661 203.171 237.674 189.158C237.735 183.768 236.784 178.651 235.696 173.453C234.485 169.059 237.192 164.42 241.011 163.11C244.36 161.827 248.352 163.369 250.07 166.821C251.911 170.437 251.132 174.244 250.712 178.133C248.834 189.417 250.687 200.469 252.788 211.535C255.792 226.803 259.784 241.922 265.184 256.385C266.161 258.35 266.692 261.379 269.065 261.707C273.217 262.689 277.555 262.785 281.757 263.494C294.166 265.814 307.426 264.913 320.094 265.05C330.068 265.268 339.67 263.33 349.409 261.188C359.729 258.814 369.529 254.557 377.797 247.202C379.75 247.23 381.702 247.216 383.643 247.175C379.157 251.077 375.264 255.184 370.036 257.982C367.033 259.96 363.856 260.178 362.522 264.19C360.297 270.562 357.504 276.361 356.095 283.061C364.759 289.528 373.138 297.06 380.85 304.865C380.417 306.325 379.985 307.785 379.552 309.245C373.175 303.159 366.761 297.128 359.976 291.589C359.024 290.784 358.085 289.951 357.146 289.119C360.742 296.064 363.09 303.255 365.76 310.678C368.083 317.432 370.023 323.886 369.072 331.254C364.511 337.558 358.246 341.788 354.39 348.91C361.582 353.849 369.875 359.921 374.275 368.122C376.561 372.188 376.153 376.049 375.412 380.566C378.39 382.544 381.406 384.318 384.78 385.314C383.223 385.573 381.678 385.86 380.121 386.133C379.194 395.902 379.268 405.672 378.922 415.483C380.701 415.551 382.493 415.619 384.285 415.633C381.344 416.602 378.267 417.229 375.251 417.761C374.164 416.683 373.076 415.619 371.976 414.568C371.025 413.654 370.061 412.754 369.084 411.867C370.011 397.895 372.31 384.373 371.581 370.291C367.688 365.625 363.832 361.19 359.123 357.506C356.231 355.282 353.277 353.167 350.571 350.657C349.965 351.352 349.36 352.048 348.754 352.744C349.483 388.248 348.828 423.847 350.052 459.323C350.076 489.792 350.151 520.274 350.311 550.743H349.335C349.52 536.648 349.496 522.512 349.421 508.43C349.496 504.242 347.568 501.322 345.726 497.924C345.603 491.129 345.615 484.348 345.467 477.552C340.165 476.406 336.012 476.488 330.735 477.689C330.55 484.73 330.488 491.743 330.574 498.784C329.264 498.797 327.967 498.893 326.657 498.988C326.718 491.893 326.743 484.811 326.756 477.716C316.906 477.662 307.031 477.211 297.181 477.539C296.983 482.819 297.255 488.182 297.206 493.449C296.637 495.413 295.958 497.337 295.216 499.22L292.238 498.797C293.758 490.815 293.708 484.62 292.2 476.666C281.498 475.642 270.746 475.151 260.08 473.759C256.298 479.449 258.029 488.714 257.843 495.454C256.756 495.686 255.656 495.932 254.568 496.205C253.715 501.908 252.541 507.53 251.219 513.124C252.232 501.949 254.333 491.074 254.148 479.777C255.94 460.019 255.013 439.784 255.112 419.89C255.273 411.608 254.185 403.448 254.247 395.193C254.173 384.277 254 373.361 253.864 362.446C252.331 336.398 250.527 310.541 247.375 284.657C246.374 274.751 243.631 265.514 240.825 256.099C238.18 257.886 236.487 260.383 235.004 263.344C234.374 261.638 233.756 259.946 233.126 258.241C233.954 256.945 234.819 255.689 235.672 254.42C231.136 250.941 226.65 247.844 222.794 243.382C217.047 236.996 213.611 228.1 212.709 219.217C210.423 203.212 214.489 186.115 220.371 171.515C224.005 162.687 228.466 153.559 234.374 146.313C238.279 141.66 243.272 139.354 248.648 137.499C252.171 127.306 256.064 117.564 262.539 109.186C269.374 99.8666 278.346 92.826 289.037 90.1789C296.613 89.4421 304.72 89.1828 312.061 91.6116C314.224 86.7131 316.115 82.0057 319.513 77.9396C329.635 66.6963 348.396 67.0647 357.689 79.3859Z" fill="#060606"/>
<path d="M330.549 75.2922C339.151 71.7992 348.989 74.9374 354.834 82.6467C362.039 91.9388 361.965 106.102 354.34 115.094C346.986 124.4 333.837 125.737 324.877 118.491C315.731 111.505 313.012 97.0419 318.537 86.4945C321.268 81.5005 325.556 77.2843 330.549 75.2922Z" fill="#C4D0CB"/>
<path d="M295.377 93.8762C300.333 93.7398 306.067 93.6988 310.664 95.9502C312.58 99.5797 312.172 104.928 312.568 109.036C304.337 109.308 296.18 108.285 287.961 108.203C282.326 108.34 277.11 106.962 271.809 104.983C278.606 99.9072 286.936 94.0127 295.377 93.8762Z" fill="#618847"/>
<path d="M337.124 94.1216C338.298 94.6264 339.385 95.2677 340.386 96.0455C340.831 97.0688 341.301 98.0649 341.771 99.0746C341.116 100.412 340.473 101.763 339.843 103.127C336.481 101.517 334.269 101.353 334.207 96.5776C335.171 95.759 336.147 94.9403 337.124 94.1216Z" fill="#0E100F"/>
<path d="M364.271 97.8606C369.709 98.7748 372.935 102.65 376.865 106.457C372.403 107.767 367.967 108.244 363.369 108.367C363.579 104.874 363.752 101.299 364.271 97.8606Z" fill="#667F58"/>
<path d="M267.692 109.24C275.664 111.246 283.734 111.465 291.817 112.57C290.148 113.593 288.505 114.603 286.799 115.544C286.873 114.603 286.947 113.675 287.009 112.734C282.325 112.665 277.641 112.433 272.957 112.079C272.179 113.784 271.437 115.49 270.696 117.209C268.125 116.8 265.579 116.199 263.033 115.64C264.578 113.525 265.938 111.137 267.692 109.24Z" fill="#B9AD9A"/>
<path d="M363.608 112.433C368.811 111.969 374.001 111.833 379.143 110.741C380.045 112.883 380.91 115.026 381.763 117.195C373.631 117.741 365.598 118.068 357.453 117.495C359.159 115.762 361.124 112.529 363.608 112.433Z" fill="#EBE2C0"/>
<path d="M272.953 112.079C277.637 112.433 282.321 112.665 287.005 112.734C286.943 113.675 286.869 114.603 286.795 115.544C281.542 118.587 276.352 117.919 270.691 117.209C271.433 115.49 272.174 113.784 272.953 112.079Z" fill="#EADEBB"/>
<path d="M313.615 115.858C317.36 116.759 319.819 119.597 322.86 121.93C326.58 124.986 331.548 126.542 335.861 128.452C333.402 128.534 330.942 128.616 328.471 128.67C320.808 128.78 312.565 129.257 305.187 131.741C299.996 133.514 296.078 136.898 291.456 139.832C287.86 142.111 284.103 143.066 280.135 144.212C280.037 145.413 279.925 146.627 279.827 147.828C277.429 148.715 275.007 149.492 272.819 150.911C272.325 153.599 272.164 156.015 274.203 157.979C277.614 159.112 281.334 159.03 284.758 160.108C287.427 161.186 289.849 163.178 292.296 164.747C290.875 165.361 289.479 166.016 288.095 166.685C287.687 167.708 287.291 168.718 286.908 169.741C292.618 173.125 298.463 176.031 304.841 177.505C314.901 180.166 324.157 178.924 334.341 179.129C327.42 184.409 319.671 187.247 311.737 190.017C311.897 191.423 312.046 192.828 312.219 194.22C321.068 191.286 329.57 187.766 337.579 182.608C338.135 181.053 338.704 179.497 339.26 177.942C345.007 176.291 349.468 174.162 353.621 169.345C361.79 170.955 369.848 172.402 378.177 172.02C385.531 172.197 392.563 170.573 399.78 169.373L401.313 170.273C398.804 173.848 396.654 177.3 392.995 179.593C386.828 183.468 379.08 185.774 371.998 185.705C365.918 185.692 360.727 183.481 355.128 181.203C355.042 182.526 354.955 183.85 354.856 185.173C359.355 187.425 363.817 189.758 368.278 192.118C374.223 189.54 381.032 187.834 387.422 188.503C394.911 193.401 399.397 203.116 400.423 212.545C388.262 218.848 375.57 221.864 362.111 221.591C347.54 221.209 332.932 219.135 318.794 215.26C311.737 213.35 303.975 211.48 298.056 206.65C294.991 204.33 291.963 201.028 288.465 199.596C282.236 198.122 275.241 198.736 272.04 205.722C269.309 213.595 273.684 223.665 279.641 228.372C285.24 232.671 291.852 235.563 298.414 237.501C324.281 244.337 351.235 247.257 377.794 247.202C369.526 254.557 359.726 258.814 349.406 261.188C339.668 263.33 330.065 265.268 320.091 265.049C307.424 264.913 294.163 265.814 281.754 263.494C277.552 262.784 273.215 262.689 269.062 261.706C266.689 261.379 266.158 258.35 265.181 256.385C259.781 241.922 255.789 226.803 252.786 211.535C250.685 200.469 248.831 189.417 250.709 178.133C251.846 169.441 253.416 161.309 256.197 153.054C258.767 142.179 261.511 132.109 267.604 122.899C269.779 121.753 272.733 122.121 275.118 121.971C276.576 122.926 277.997 123.936 279.419 124.959C284.214 121.698 288.552 118.464 294.051 116.731C300.33 114.794 307.238 114.234 313.615 115.858Z" fill="#5A8B40"/>
<path d="M260.557 119.474C265.401 120.429 270.234 121.262 275.115 121.971C272.73 122.121 269.776 121.753 267.601 122.899C261.508 132.109 258.765 142.179 256.194 153.054C253.413 161.309 251.844 169.441 250.707 178.133C251.127 174.244 251.906 170.437 250.064 166.821C248.346 163.369 244.354 161.827 241.005 163.11C237.186 164.42 234.48 169.059 235.691 173.453C236.778 178.651 237.73 183.768 237.668 189.158C237.656 203.171 241.586 216.27 243.848 229.819L244.082 232.452C242.29 230.583 240.523 228.686 238.756 226.803C239.3 236.041 242.513 244.405 243.687 253.52C234.69 249.249 226.718 243.245 221.503 233.871C215.558 223.406 214.619 211.071 216.72 199.118C219.278 184.246 225.211 168.172 232.774 155.523C236.235 149.602 241.24 145.863 246.74 142.547C246.641 147.541 246.443 152.535 246.221 157.516C247.172 157.475 248.111 157.42 249.051 157.379C251.176 144.43 254.167 130.745 260.557 119.474Z" fill="#4A7134"/>
<path d="M95.8404 121.589C98.9795 121.411 102.391 121.139 105.455 122.012C109.077 124.018 112.179 128.507 111.993 133.146C112.327 142.711 111.178 152.33 111.721 161.868C112.067 168.09 114.168 173.63 116.912 178.992C123.19 176.318 128.134 175.349 134.696 177.682C135.66 179.047 136.637 180.411 137.613 181.762C138.058 183.863 138.527 185.951 139.009 188.025C137.872 190.863 137.131 194.111 134.795 196.075C131.99 198.368 127.924 199.296 125.316 201.902C122.498 204.917 121.312 208.71 120.447 212.817C119.792 215.737 119.198 218.657 118.605 221.591C102.069 234.581 80.6021 239.725 60.6427 236.041L60.9764 232.111C62.6695 232.275 64.3627 232.439 66.0682 232.589C65.4132 230.719 64.7458 228.836 64.0537 226.981C63.4852 225.684 62.892 224.402 62.274 223.133C59.0237 218.494 54.5498 215.069 51.4849 210.334C48.2839 205.272 48.7536 199.009 46.1088 193.824C44.1685 190.481 40.0036 188.639 37.0251 186.551C31.0929 182.663 25.0248 176.318 23.2575 168.718C22.9114 164.379 25.9393 159.112 29.4245 157.12C34.4051 155.673 38.4093 157.802 42.7472 160.149C46.3066 162.045 50.249 164.542 54.2038 165.061C55.9464 165.075 56.5643 164.051 56.0452 162.196C54.0308 154.568 46.9368 145.849 47.493 137.253C47.5053 132.395 51.2995 129.762 54.2285 126.869C60.9146 126.487 64.9683 129.271 69.3062 134.483C75.1024 140.732 76.2518 148.974 81.1088 155.823C81.8379 155.933 82.5795 156.042 83.3086 156.137C85.3849 150.925 86.7938 145.658 87.7701 140.064C88.9442 132.887 90.5632 126.446 95.8404 121.589Z" fill="black"/>
<path d="M359.614 121.957C372.862 121.657 385.27 125.286 397.567 130.376C397.431 131.263 397.295 132.15 397.159 133.037C385.728 128.575 373.628 129.653 362.048 132.777C358.427 133.719 354.769 135.302 351.074 135.629C347.378 133.869 344.276 130.389 341.051 127.783C347.02 125.764 353.397 122.312 359.614 121.957Z" fill="#62884B"/>
<path d="M108.103 132.082C108.919 138.154 108.017 144.812 107.621 150.925C107.053 158.307 107.918 165.839 109.796 172.92C110.946 176.891 112.528 180.957 116.05 182.963C120.647 182.84 125.306 180.002 129.855 180.411C135.391 181.517 136.12 191.245 131.14 193.36C126.048 196.389 121.302 197.972 118.929 204.426C116.383 209.229 118.25 217.743 113.504 220.295C100.428 229.437 85.017 233.762 69.5686 233.244C68.6293 229.164 67.9125 225.112 65.8239 221.523C62.9813 216.57 58.2974 213.241 55.3807 208.547C52.4393 203.225 52.0809 196.116 49.189 190.686C47.7183 187.916 44.8387 186.251 42.4164 184.628C37.3493 181.462 32.1834 177.682 28.8218 172.293C27.4005 170.192 27.7589 166.794 27.5488 164.27C28.6364 163.124 29.7116 161.964 30.7745 160.804C38.9189 161.227 44.3567 166.903 51.8708 169.1C55.9369 170.205 60.0152 168.077 60.0276 163.055C59.8175 154.65 51.6607 147.337 51.327 138.645C50.981 134.565 54.3426 130.622 58.112 131.372C61.9803 132.246 65.3666 135.698 67.7395 139.041C71.2988 144.007 72.683 149.724 75.5996 154.95C77.4905 158.58 81.1487 159.903 84.3249 161.814C89.0583 155.906 90.22 148.892 91.4806 141.401C92.3581 136.898 93.0625 130.854 96.1893 127.525C99.8598 123.172 107.559 126.201 108.103 132.082Z" fill="#5A8B40"/>
<path d="M398.174 126.283C402.141 128.944 404.292 132.778 407.591 136.298C410.372 139.273 412.275 143.175 414.673 146.641C415.192 150.352 415.971 154.173 415.934 157.939C413.202 163.874 411.138 170.151 405.182 172.743C404.391 173.808 403.6 174.872 402.821 175.95C402.314 174.053 401.832 172.17 401.313 170.274L399.781 169.373C398.1 168.295 396.419 167.203 394.763 166.098C401.165 164.461 407.184 163.083 412.201 158.021C412.152 156.902 412.09 155.783 412.028 154.664C407.06 150.257 401.276 147.842 395.22 145.863C393.614 145.331 392.007 144.812 390.401 144.308C392.094 148.387 394.108 151.758 393.799 156.438C393.96 160.941 391.513 163.369 389.325 166.726L392.415 166.685C384.369 169.96 376.695 169.086 368.291 168.95C362.371 168.786 356.575 167.695 350.704 166.999C345.958 166.876 342.103 169.741 337.258 171.038C323.082 174.735 308.079 174.19 295.09 166.357C295.028 164.802 294.979 163.247 294.917 161.691C298.501 164.011 302.32 165.648 306.188 167.258C305.212 163.833 303.753 160.149 303.617 156.52C303.704 153.054 305.545 149.438 306.868 146.354C300.367 148.783 294.966 152.931 289.887 157.925C290.801 158.689 291.728 159.453 292.655 160.217C290.851 159.944 289.034 159.713 287.217 159.481C287.514 157.734 287.798 155.988 288.082 154.227C288.799 153.654 289.504 153.068 290.208 152.467C289.615 152.194 289.009 151.908 288.416 151.635C286.278 150.584 284.165 149.479 282.039 148.401C291.246 149.097 296.82 143.462 304.445 139.177C311.601 135.084 319.56 133.938 327.532 134.634C334.279 135.029 340.533 137.758 347.318 137.854C349.814 140.05 351.161 141.974 352.261 145.276C352.768 146.777 353.275 148.292 353.757 149.806C358.997 146.805 364.286 143.967 369.687 141.319C368.76 141.21 367.821 141.115 366.894 141.033C369.143 140.01 371.306 138.822 373.481 137.622L370.453 136.994C376.917 135.698 383.418 135.889 389.906 134.961C392.39 134.634 394.775 133.815 397.161 133.037C397.297 132.15 397.433 131.263 397.569 130.376L398.174 126.283Z" fill="#151615"/>
<path d="M328.471 128.671C329.051 129.735 329.632 130.813 330.201 131.877C321.859 131.523 312.899 132.341 305.026 135.616C300.317 137.608 296.783 140.951 292.272 143.353C288.898 145.14 285.413 146.627 282.039 148.401C284.164 149.479 286.278 150.584 288.416 151.635C284.276 152.085 280.222 153.081 276.243 154.446C280.445 155.483 284.078 156.929 288.082 154.227C287.798 155.988 287.514 157.734 287.217 159.481C289.034 159.713 290.851 159.945 292.655 160.217C293.409 160.709 294.163 161.2 294.917 161.691C294.978 163.247 295.028 164.802 295.09 166.358C294.15 165.825 293.223 165.293 292.297 164.748C289.849 163.178 287.427 161.186 284.758 160.108C281.334 159.03 277.614 159.112 274.203 157.98C272.164 156.015 272.325 153.6 272.819 150.912C275.007 149.493 277.429 148.715 279.827 147.828C279.925 146.627 280.037 145.413 280.136 144.212C284.103 143.066 287.86 142.111 291.456 139.832C296.078 136.899 299.996 133.515 305.187 131.741C312.565 129.258 320.808 128.78 328.471 128.671Z" fill="black"/>
<path d="M330.201 131.877C336.368 132.736 342.152 133.76 347.318 137.853C340.533 137.757 334.279 135.028 327.532 134.633C319.56 133.937 311.601 135.083 304.445 139.176C296.82 143.461 291.246 149.096 282.039 148.4C285.413 146.626 288.898 145.139 292.272 143.352C296.783 140.95 300.318 137.607 305.026 135.615C312.899 132.34 321.859 131.522 330.201 131.877Z" fill="#4B5843"/>
<path d="M389.907 134.96C383.418 135.888 376.918 135.697 370.454 136.993C364.93 138.003 359.529 139.559 353.918 139.982C365.127 133.296 377.56 133.105 389.907 134.96Z" fill="#40463B"/>
<path d="M323.393 137.376C330.968 137.294 337.84 138.822 344.464 142.97C337.135 142.233 330.215 140.432 323.393 137.376Z" fill="#3F493D"/>
<path d="M320.09 142.342C329.544 141.577 339.283 144.743 347.835 148.959C340.717 147.499 332.992 143.679 325.824 144.934C323.933 144.02 322.005 143.201 320.09 142.342Z" fill="#80817F"/>
<path d="M366.896 141.033C367.823 141.115 368.763 141.21 369.69 141.319C364.289 143.966 358.999 146.804 353.759 149.806C353.277 148.292 352.77 146.777 352.264 145.276C357.084 143.625 361.941 142.124 366.896 141.033Z" fill="#6B7D5C"/>
<path d="M325.826 144.935C332.994 143.679 340.719 147.5 347.837 148.96C348.727 149.41 349.604 149.888 350.494 150.365C350.445 153.053 350.408 155.741 350.358 158.443C348.233 160.953 346.478 163.45 343.413 164.638C336.9 167.435 329.954 169.209 322.959 169.536C325.814 167.175 328.656 165.579 330.065 161.718C331.61 156.901 330.98 151.252 328.854 146.722L325.826 144.935Z" fill="#FBFCF9"/>
<path d="M390.401 144.308C392.008 144.812 393.615 145.331 395.221 145.863C401.277 147.842 407.061 150.257 412.029 154.664C412.091 155.783 412.153 156.902 412.202 158.021C407.185 163.083 401.166 164.461 394.764 166.098C393.973 166.303 393.194 166.494 392.416 166.685L389.326 166.726C391.514 163.369 393.961 160.941 393.8 156.438C394.109 151.758 392.095 148.387 390.401 144.308Z" fill="#FAFBF9"/>
<path d="M306.872 146.354C305.549 149.437 303.708 153.053 303.621 156.519C303.757 160.149 305.215 163.833 306.192 167.257C302.324 165.647 298.505 164.01 294.921 161.69C294.167 161.199 293.413 160.708 292.659 160.217C291.732 159.453 290.805 158.689 289.891 157.924C294.97 152.931 300.371 148.783 306.872 146.354Z" fill="#FBFBF9"/>
<path d="M368.007 146.832C366.425 153.231 365.733 158.361 367.81 164.761C368.65 165.443 369.503 166.125 370.343 166.821C363.719 167.176 358.442 166.439 352.213 163.901C353.226 160.995 353.993 157.406 355.822 154.964C357.824 152.658 360.617 151.007 363.126 149.465C364.745 148.564 366.376 147.691 368.007 146.832Z" fill="#FBFAFA"/>
<path d="M383.963 148.756C385.508 149.397 387.053 150.038 388.598 150.666C388.993 152.59 390.674 155.987 389.191 157.584C386.633 161.527 380.144 159.685 379.885 154.814C379.514 151.853 382.344 150.543 383.963 148.756Z" fill="#F7FAFB"/>
<path d="M372.046 148.824C373.826 149.997 375.544 151.28 377.274 152.549C374.58 154.186 373.097 154.746 370.02 154.459C370.675 152.562 371.342 150.693 372.046 148.824Z" fill="#B0B3B0"/>
<path d="M288.416 151.634C289.009 151.907 289.614 152.194 290.208 152.467C289.503 153.067 288.799 153.654 288.082 154.227C284.078 156.928 280.444 155.482 276.242 154.445C280.222 153.081 284.275 152.085 288.416 151.634Z" fill="#64745E"/>
<path d="M308.932 150.393C310.934 150.706 312.615 151.743 314.395 152.753C312.145 155.236 311.33 156.424 307.869 156.178C308.153 154.227 308.413 152.289 308.932 150.393Z" fill="#A1A39E"/>
<path d="M318.039 151.416C320.56 151.321 323.069 151.28 325.59 151.266C326.233 153.613 326.777 156.001 327.333 158.389C324.045 160.054 321.982 160.504 318.348 159.849C318.187 157.038 318.101 154.227 318.039 151.416Z" fill="#FAFCF9"/>
<path d="M311.813 163.206C313.976 161.664 315.682 165.252 312.95 165.853C311.492 165.443 311.109 164.57 311.813 163.206Z" fill="#7D7D7D"/>
<path d="M376.092 163.437L376.969 162.878L377.871 163.423V164.542L376.994 165.115L376.092 164.57V163.437Z" fill="#85867E"/>
<path d="M292.298 164.747C293.225 165.293 294.151 165.825 295.091 166.357C308.08 174.189 323.083 174.735 337.259 171.037C342.103 169.741 345.959 166.876 350.705 166.998C345.725 171.624 340.979 173.848 334.552 174.953C324.443 176.604 313.604 176.509 303.754 173.248C298.292 171.474 293.447 168.84 288.096 166.685C289.48 166.016 290.876 165.361 292.298 164.747Z" fill="#4D5E44"/>
<path d="M243.777 166.262C246.447 168.772 248.857 171.256 247.127 175.445C246.15 178.829 242.776 177.464 240.342 177.86C239.526 174.38 238.982 171.706 240.342 168.254C241.479 167.572 242.616 166.903 243.777 166.262Z" fill="#C7CFCD"/>
<path d="M288.093 166.685C293.444 168.84 298.289 171.474 303.751 173.248C313.601 176.509 324.44 176.604 334.549 174.953C340.976 173.848 345.721 171.624 350.702 166.998C356.572 167.694 362.369 168.786 368.289 168.95C376.693 169.086 384.367 169.959 392.413 166.685C393.191 166.494 393.97 166.303 394.761 166.098C396.417 167.203 398.098 168.295 399.779 169.373C392.561 170.573 385.529 172.197 378.176 172.02C369.846 172.402 361.788 170.955 353.619 169.345C349.466 174.162 345.005 176.291 339.258 177.942C338.702 179.497 338.133 181.053 337.577 182.608C329.569 187.766 321.066 191.286 312.217 194.22C312.044 192.828 311.896 191.423 311.735 190.017C319.669 187.247 327.418 184.409 334.339 179.129C324.156 178.924 314.899 180.166 304.839 177.505C298.462 176.031 292.616 173.125 286.906 169.741C287.289 168.718 287.685 167.708 288.093 166.685Z" fill="#040404"/>
<path d="M401.312 170.273C401.831 172.17 402.313 174.053 402.82 175.95C400.014 180.261 396.64 182.854 392.315 185.078C392.352 185.733 392.389 186.374 392.426 187.029C399.149 193.688 402.523 201.042 404.031 210.826L405.118 212.108C403.549 212.163 401.979 212.299 400.422 212.545C399.396 203.116 394.91 193.401 387.421 188.503C381.031 187.834 374.222 189.54 368.277 192.119C363.816 189.758 359.354 187.425 354.855 185.173C354.954 183.85 355.041 182.526 355.127 181.203C360.726 183.482 365.917 185.692 371.997 185.706C379.079 185.774 386.828 183.468 392.995 179.593C396.653 177.3 398.803 173.848 401.312 170.273Z" fill="black"/>
<path d="M245.272 182.431C246.928 187.657 246.1 193.865 246.841 199.418C249.647 219.722 254.837 239.657 261.795 258.705C268.766 276.593 275.921 294.522 288.614 308.481C293.891 313.788 301.566 319.123 308.993 318.073C316.359 317.118 323.07 313.065 328.434 307.539C339.038 296.732 346.44 282.747 352.632 268.515C353.794 265.595 355.944 264.094 358.293 262.471C356.093 274.082 349.987 284.998 344.018 294.727C336.64 305.82 326.456 317.909 314.221 322.043C305.867 325.496 296.35 320.952 289.491 315.617C279.308 307.266 271.089 295.818 265.738 283.129C258.557 266.482 253.243 248.785 248.522 231.129C245.123 216.856 241.774 201.82 241.886 186.988L241.96 185.883C242.788 184.245 243.888 183.099 245.272 182.431Z" fill="#9A9F9B"/>
<path d="M86.437 194.439C85.646 198.6 84.3854 202.694 83.854 206.896C83.6192 210.526 84.6326 214.237 84.4719 217.867C83.4338 218.412 82.3215 218.795 81.1474 219.027C79.788 211.29 78.9476 204.126 82.408 196.854C82.9642 195.257 85.1888 195.121 86.437 194.439Z" fill="#243A17"/>
<path d="M288.462 199.595C291.959 201.028 294.987 204.33 298.052 206.65C303.972 211.48 311.733 213.349 318.79 215.26C332.928 219.135 347.536 221.209 362.107 221.591C375.566 221.864 388.258 218.848 400.419 212.544C401.977 212.299 403.546 212.162 405.116 212.108C407.921 214.918 409.071 217.702 408.107 221.932C406.488 225.916 402.916 228.672 399.925 231.333C399.826 235.44 400.765 238.96 397.812 242.167C393.882 245.865 388.679 247.079 383.636 247.175C381.696 247.215 379.743 247.229 377.791 247.202C351.232 247.256 324.277 244.336 298.41 237.5C291.848 235.563 285.236 232.67 279.637 228.372C273.681 223.665 269.306 213.595 272.037 205.722C275.238 198.736 282.233 198.122 288.462 199.595Z" fill="black"/>
<path d="M290.331 205.613C294.187 208.847 297.673 212.258 302.258 214.25C313.887 219.585 327.198 222.041 339.606 224.074C349.851 225.848 360.443 225.807 370.799 225.439C380.513 225.029 389.065 221.523 398.199 218.412C401.239 217.266 402.771 217.388 405.824 218.494C403.525 222.178 401.165 225.425 397.445 227.431C384.938 230.31 372.406 231.306 359.639 231.019C340.137 231.633 320.376 228.413 301.912 221.454C295.448 219.149 290.22 214.564 284.152 211.535C283.2 212.313 282.335 213.213 281.446 214.059C293.569 224.579 308.178 229.068 323.082 232.275C333.896 234.199 344.982 235.318 355.932 235.959C369.699 236.546 382.775 233.298 396.456 233.066C396.061 234.976 395.887 237.269 394.924 238.933C392.452 242.154 387.928 242.481 384.381 242.74C373.246 243 362.111 242.959 351.001 241.949C337.74 241.621 324.479 238.811 311.403 236.464C301.368 233.926 289.182 231.374 281.174 223.883C277.553 220.704 275.143 216.133 275.143 210.934C275.254 208.41 275.995 205.449 278.368 204.467C282.039 202.816 287.18 202.543 290.331 205.613Z" fill="#C8605F"/>
<path d="M284.15 211.535C290.218 214.564 295.446 219.149 301.909 221.455C320.373 228.413 340.135 231.634 359.637 231.02C372.404 231.306 384.935 230.31 397.443 227.431C397.096 229.3 396.775 231.183 396.454 233.066C382.773 233.298 369.697 236.546 355.93 235.959C344.98 235.318 333.894 234.199 323.08 232.275C308.175 229.068 293.567 224.579 281.443 214.059C282.333 213.213 283.198 212.313 284.15 211.535Z" fill="#090909"/>
<path d="M120.443 212.818C120.518 213.991 120.592 215.151 120.666 216.324C122.581 217.566 124.46 218.876 126.326 220.199C127.364 224.839 128.291 229.369 130.293 233.626C131.838 236.982 133.964 240.203 134.99 243.75C135.632 246.916 135.336 250.382 135.323 253.615C139.303 259.332 141.663 265.432 143.356 272.363C149.313 275.065 154.319 278.626 158.323 284.289C165.417 283.975 172.103 281.491 179.197 281.273C187.972 280.877 196.746 280.768 205.521 280.987C211.985 274.642 218.794 269.853 227.779 269.88C229.472 265.923 230.992 261.966 233.118 258.241C233.748 259.946 234.366 261.638 234.997 263.344C231.141 271.258 230.238 281.382 228.743 290.142C226.79 303.282 225.072 316.681 225.233 330.026C232.698 335.361 239.681 341.446 245.687 348.705C244.303 355.664 239.384 357.138 235.009 361.409C230.35 365.543 227.322 370.646 223.973 375.995C226.259 395.971 230.102 415.769 232.957 435.663C237.431 461.383 242.325 486.19 242.783 512.538C243.141 525.282 242.82 537.999 242.548 550.743H238.84C239.063 533.127 239.928 515.035 237.827 497.569C236.714 477.539 232.76 458.272 229.46 438.597C226.42 420.081 223.651 401.51 220.735 382.967C220.351 379.338 219.672 375.558 221.563 372.297C225.999 363.851 233.464 356.824 240.533 351.107C240.447 350.329 240.36 349.538 240.274 348.746C234.502 342.975 229.015 337.257 221.872 333.519C221.637 332.332 221.402 331.131 221.179 329.917C218.683 341.651 214.679 354.463 207.474 363.728C202.666 370.018 196.45 374.671 189.455 377.509C189.331 394.688 190.159 412.167 188.837 429.291C188.577 437.205 188.837 445.01 187.663 452.869C185.698 485.657 181.891 518.35 176.886 550.743H173.104C174.797 535.652 177.294 520.629 179.049 505.524C181.78 478.972 184.536 451.941 184.944 425.239C186.303 409.67 186.451 393.788 184.659 378.246C172.857 378.683 161.153 378.601 149.486 376.295C129.379 372.106 108.814 363.237 93.2418 348.228C83.8862 339.645 76.5081 329.112 70.3287 317.609C63.1606 304.155 57.352 289.856 53.3601 274.874C50.1839 262.866 47.2673 250.122 47.4156 237.542C50.1345 235.495 52.8163 233.844 55.8937 232.521C57.5745 228.809 59.28 225.753 62.2708 223.133C62.8887 224.402 63.4819 225.685 64.0504 226.981C62.5798 228.577 61.5045 229.874 60.9731 232.111L60.6394 236.041C60.4417 238.401 60.2316 240.776 60.0339 243.136C75.2969 246.602 91.8329 242.631 106.305 236.982C113.349 234.226 119.294 229.096 121.296 220.841L118.602 221.591C119.195 218.658 119.788 215.738 120.443 212.818Z" fill="black"/>
<path d="M118.607 221.591L121.301 220.841C119.299 229.096 113.355 234.226 106.31 236.982C91.8381 242.631 75.3021 246.602 60.0391 243.136C60.2368 240.776 60.4469 238.401 60.6446 236.041C80.604 239.725 102.071 234.581 118.607 221.591Z" fill="#7DBCA6"/>
<path d="M261.117 222.314C262.279 222.205 263.441 222.15 264.59 222.136C266.926 228.536 268.94 231.961 274.205 235.822C274.032 237.118 273.859 238.428 273.686 239.725C270.992 238.101 267.927 236.6 265.974 233.912C263.54 230.623 262.032 226.407 261.117 222.314Z" fill="#1D3812"/>
<path d="M123.687 227.922C125.195 232.984 127.654 237.392 130.027 241.99C132.425 246.452 131.968 252.333 128.655 256.071C123.972 261.502 117.125 264.927 110.809 267.383C95.8307 272.69 80.0362 275.952 64.2541 274.764C61.8936 274.546 59.6195 274.096 57.5556 272.718C56.1838 270.303 55.6153 267.219 54.9974 264.476C53.6874 257.586 52.2661 250.832 52.0684 243.764C56.8636 246.179 61.3374 248.457 66.7382 248.648C81.408 249.262 96.8194 246.22 110.414 240.039C116.05 237.542 120.153 233.257 123.687 227.922Z" fill="#FDFDFD"/>
<path d="M238.76 226.803C240.527 228.686 242.294 230.583 244.086 232.452L243.852 229.818C246.064 238.674 248.943 247.311 251.057 256.207C248.597 255.375 246.101 254.529 243.691 253.519C242.517 244.405 239.304 236.04 238.76 226.803Z" fill="#547545"/>
<path d="M64.0539 226.981C64.746 228.837 65.4133 230.72 66.0684 232.589C64.3629 232.439 62.6697 232.275 60.9766 232.111C61.508 229.874 62.5832 228.577 64.0539 226.981Z" fill="#627870"/>
<path d="M54.4512 237.378C56.5151 236.054 57.9364 239.043 56.4533 240.707C54.4141 242.031 52.9434 239.029 54.4512 237.378Z" fill="#979996"/>
<path d="M240.822 256.098C243.627 265.513 246.371 274.751 247.372 284.657C250.523 310.541 252.328 336.398 253.86 362.445C253.996 373.361 254.169 384.277 254.243 395.193C254.181 403.448 255.269 411.607 255.108 419.89C255.009 439.784 255.936 460.019 254.144 479.776C254.33 491.074 252.229 501.949 251.215 513.124C249.151 525.691 247.063 538.217 244.789 550.742H242.552C242.824 537.998 243.145 525.281 242.787 512.537C242.329 486.189 237.435 461.383 232.961 435.663C230.107 415.769 226.263 395.97 223.977 375.995C227.326 370.646 230.354 365.543 235.013 361.408C239.388 357.138 244.307 355.664 245.691 348.705C239.685 341.446 232.702 335.361 225.237 330.025C225.076 316.681 226.794 303.282 228.747 290.142C230.242 281.382 231.145 271.258 235.001 263.344C236.484 260.383 238.177 257.886 240.822 256.098Z" fill="#FDFEFD"/>
<path d="M132.853 257.818C138.007 264.79 139.539 272.922 140.59 281.628C141.727 281.641 142.864 281.641 144.013 281.655L144.087 277.739C148.623 280.277 152.738 282.815 155.222 287.932C157.484 291.793 157.645 295.859 157.731 300.307L161.266 300.717C161.291 296.719 161.179 292.734 161.081 288.75C174.712 285.612 188.814 284.452 202.717 285.189C208.612 284.916 212.184 292.516 214.285 297.565C221.787 320.119 216.509 347.682 200.962 364.642C195.858 370.332 188.949 373.852 181.67 374.098C170.856 374.384 160.215 374.616 149.587 371.915C126.328 367.044 104.131 355.841 87.9662 336.302C74.4334 319.942 64.6947 299.611 58.8984 278.476C70.0089 281.041 81.1936 279.226 92.4648 277.234C106.875 273.714 122.324 270.207 132.853 257.818Z" fill="white"/>
<path d="M246.174 260.069C247.57 260.315 248.955 260.588 250.339 260.888C254.701 262.744 254.64 266.687 255.9 271.012C250.512 268.256 248.683 265.937 246.174 260.069Z" fill="#5A6F55"/>
<path d="M269.15 266.25C273.797 266.659 278.395 267.56 283.029 268.037C295.203 269.634 307.833 269.47 320.081 269.183C329.931 269.019 339.496 267.3 349.26 266.181C347.987 268.528 346.924 272.212 344.526 273.413C334.293 279.103 322.614 278.816 311.442 279.717C298.972 279.976 286.391 278.544 274.02 276.838C272.079 273.468 270.287 270.057 269.15 266.25Z" fill="#608948"/>
<path d="M249.266 272.486C252.405 273.441 256.174 274.928 258.337 277.739C260.809 281.6 262.316 286.212 264.516 290.292C268.298 297.933 273.279 304.387 278.173 311.141C271.623 306.502 264.838 301.877 258.967 296.2C256.347 293.499 253.369 290.401 251.923 286.717C250.539 282.146 249.76 277.275 249.266 272.486Z" fill="#75B39B"/>
<path d="M227.287 273.891C224.939 287.372 222.628 300.758 222.418 314.539C222.084 312.738 221.751 310.937 221.417 309.135C219.637 299.639 216.72 290.797 210.788 283.456C210.739 282.883 210.689 282.324 210.652 281.75C215.744 277.521 220.836 274.587 227.287 273.891Z" fill="#F8F8F6"/>
<path d="M342.599 279.717C337.63 289.869 331.142 300.157 322.577 306.952C322.268 298.724 321.119 291.752 318.104 284.206C326.31 282.937 334.466 281.491 342.599 279.717Z" fill="#73C1A5"/>
<path d="M275.65 281.273C280.94 281.805 286.18 282.706 291.395 283.77C289.109 288.109 287.033 292.489 285.092 297.019C282.324 293.308 279.741 289.46 277.628 285.23C276.96 283.92 276.305 282.596 275.65 281.273Z" fill="#7BBEA6"/>
<path d="M302.367 289.337C304.517 297.019 304.431 305.725 304.629 313.693C297.844 311.619 292.875 307.185 288.229 301.522C290.033 296.46 291.813 289.938 295.458 286.103C298.128 284.316 301.502 286.09 302.367 289.337Z" fill="#74C1A5"/>
<path d="M314.131 286.144C317.9 293.867 318.729 301.767 318.63 310.418C315.256 312.11 312.228 312.97 308.557 313.434C308.495 306.98 307.791 300.635 307.334 294.222C307.124 289.91 310.423 286.717 314.131 286.144Z" fill="#7DBAA3"/>
<path d="M352.322 288.723C355.411 293.103 357.166 298.997 359.094 304.087C361.788 312.205 365.533 321.143 365.57 329.848C359.008 335.128 353.965 341.814 348.935 348.759C348.7 332.386 348.713 316.026 348.688 299.652C348.515 295.409 350.183 292.079 352.322 288.723Z" fill="#FBFDFA"/>
<path d="M357.141 289.118C358.08 289.95 359.019 290.783 359.971 291.588C366.756 297.128 373.17 303.159 379.547 309.244C381.871 314.729 381.71 321.497 382.563 327.419C384.095 338.648 383.428 349.81 384.182 361.08C384.886 369.131 384.923 377.249 384.775 385.313C381.401 384.317 378.385 382.544 375.407 380.565C376.149 376.049 376.556 372.187 374.27 368.121C369.87 359.921 361.578 353.849 354.385 348.909C358.241 341.787 364.507 337.557 369.067 331.253C370.019 323.885 368.078 317.431 365.755 310.677C363.085 303.254 360.737 296.063 357.141 289.118Z" fill="#FDFDFC"/>
<path d="M252.859 295.777C258.989 302.135 265.206 307.511 272.151 312.751C277.713 320.91 285.239 324.676 292.617 330.434C291.11 340.572 288.996 349.605 291.431 359.92C294.076 372.692 301.924 381.288 303.604 394.046C304.581 401.359 305.026 409.246 303.53 416.505C302.702 420.721 299.909 422.55 297.017 424.965L296.609 425.292C292.889 425.824 289.565 426.384 286.809 429.44C279.95 435.69 280.988 449.621 288.304 454.874C291.258 456.689 294.941 457.439 298.216 458.19C301.639 458.899 305.236 458.913 308.696 459.077C308.61 463.648 308.498 468.205 308.387 472.776C299.612 472.626 290.788 472.626 282.026 471.93C274.339 471.098 266.689 469.897 258.989 469.256C258.742 443.672 259.224 418.02 258.557 392.436C257.494 381.534 258.05 370.604 257.197 359.688C256.27 350.533 256.74 341.336 255.85 332.167C254.713 320.051 254.095 307.879 252.859 295.777Z" fill="#6EC6A6"/>
<path d="M315.605 297.551C315.63 298.984 315.654 300.417 315.679 301.849C314.023 301.904 312.367 301.945 310.711 301.986C310.909 300.649 311.119 299.325 311.341 298.002C312.75 297.811 314.171 297.688 315.605 297.551Z" fill="#0D402D"/>
<path d="M344.302 301.576C344.314 312.328 345.266 323.039 345.167 333.791C345.327 380.006 345.624 426.234 345.649 472.449C338.209 473.159 330.831 473.595 323.354 473.295C327.939 472.517 332.524 471.862 337.171 471.562C337.554 426.985 336.33 382.448 336.503 337.885C336.268 330.79 337.035 323.353 335.935 316.353C335.366 315.466 334.748 314.593 334.106 313.761C337.69 309.913 340.928 305.642 344.302 301.576Z" fill="#63AC91"/>
<path d="M380.846 304.865C383.256 307.676 385.542 310.636 387.841 313.556C393.291 320.502 395.862 330.571 398.111 339.263C400.41 350.479 403.116 361.995 403.771 373.484C404.043 373.771 404.315 374.057 404.587 374.344C405.378 381.371 406.33 388.329 407.689 395.261C410.729 414.159 415.549 433.398 416.18 452.514C417.23 469.42 422.977 487.172 423.348 504.337C423.434 511.951 423.36 519.824 422.013 527.315C421.407 531.817 415.586 533.891 416.056 538.408C415.821 543.415 418.8 547.14 421.494 550.743H415.969C413.152 546.117 412.509 541.028 411.953 535.611C404.674 537.398 397.456 539.008 389.979 539.213C389.868 543.061 389.757 546.895 389.658 550.743H384.393C386.716 549.965 385.777 546.062 386.086 543.92C386.148 529.102 386.173 514.298 386.271 499.479C384.109 500.339 381.934 501.171 379.734 501.922C379.857 500.598 379.981 499.275 380.104 497.951C387.322 493.175 391.128 485.862 393.279 477.102C394.119 470.17 395.738 463.662 395.985 456.594C396.158 451.122 396.294 445.678 396.9 440.234C397.58 429.823 397.234 419.303 397.209 408.865C392.957 411.375 388.916 414.05 384.282 415.633C382.49 415.619 380.698 415.551 378.918 415.482C379.264 405.672 379.19 395.902 380.117 386.133C381.674 385.86 383.219 385.573 384.776 385.314C384.924 377.25 384.887 369.131 384.183 361.081C383.429 349.81 384.096 338.649 382.564 327.419C381.711 321.498 381.872 314.73 379.548 309.245C379.981 307.785 380.413 306.325 380.846 304.865Z" fill="black"/>
<path d="M272.152 312.751C278.295 316.531 285.216 318.045 291.271 321.92C294.2 323.708 297.228 325.25 300.306 326.696C297.475 339.29 295.177 351.27 298.748 364.124C300.849 371.806 305.101 378.191 307.82 385.491C309.204 391.604 308.178 398.454 308.685 404.758C309.179 410.829 309.451 416.588 308.141 422.578C304.359 423.151 300.689 423.778 297.018 424.965C299.91 422.55 302.703 420.722 303.531 416.506C305.027 409.247 304.582 401.36 303.605 394.046C301.925 381.289 294.077 372.692 291.432 359.921C288.997 349.606 291.111 340.573 292.618 330.435C285.24 324.677 277.714 320.911 272.152 312.751Z" fill="#66AB90"/>
<path d="M334.106 313.761C334.749 314.594 335.367 315.467 335.936 316.354C337.036 323.353 336.269 330.79 336.504 337.885C336.331 382.449 337.555 426.985 337.171 471.562C332.525 471.863 327.939 472.517 323.354 473.295C319.597 473.418 315.828 473.459 312.071 473.486C312.281 468.424 311.885 462.57 313.492 457.768C316.347 453.074 320.314 450.59 320.833 444.382C321.624 437.601 317.83 432.661 320.005 426.562C321.945 420.34 323.12 414.323 326.271 408.674C323.441 401.046 325.591 393.201 322.823 385.601C319.412 376.145 313.986 368.681 312.108 358.338C309.822 347.546 311.601 337.189 314.716 326.874C321.76 323.517 328.421 319.547 334.106 313.761Z" fill="#6FC5A6"/>
<path d="M386.222 317.582C389.719 325.154 392.772 332.891 394.49 341.201C398.976 361.668 400.916 382.79 405.007 403.366C406.737 413.777 409.209 424.12 410.47 434.585C411.31 442.854 412.15 451.095 412.867 459.377C414.103 472.613 418.181 485.575 418.614 498.852C412.212 500.803 405.699 501.922 399.198 503.368C396.109 503.532 393.019 503.586 389.942 503.614C389.015 493.53 394.564 487.608 396.727 478.425C398.111 473.65 398.63 468.751 399.248 463.798C401.275 442.131 401.151 420.449 400.929 398.686C399.656 397.198 398.383 395.698 397.097 394.224C397.196 390.199 397.295 386.174 397.382 382.135C395.985 380.838 394.589 379.556 393.18 378.287C391.721 378.314 390.263 378.328 388.805 378.355C388.731 368.517 388.891 358.734 387.643 348.951C387.26 338.444 385.802 328.129 386.222 317.582Z" fill="#FDFDFC"/>
<path d="M304.928 327.61C306.634 327.488 308.339 327.392 310.045 327.31C308.129 338.226 305.484 347.818 308.104 359.021C310.366 371.123 317.893 380.184 320.401 391.918C322.539 406.491 318.992 420.163 312.949 433.016C311.639 432.784 310.329 432.566 309.031 432.347C310.144 425.429 313.74 420.122 314.321 413.081C314.852 406.641 314.902 400.05 314.148 393.624C312.405 381.289 303.729 371.41 301.715 359.566C299.663 349.101 301.048 337.394 304.928 327.61Z" fill="#E9DEBF"/>
<path d="M221.184 329.917C221.407 331.131 221.642 332.332 221.876 333.519C222.408 335.907 222.692 338.062 224.521 339.686C228.439 343.397 232.431 346.85 235.768 351.257C230.008 358.12 222.754 363.251 217.168 370.237C213.312 375.272 213.93 380.975 214.733 387.033C217.378 404.048 220.566 420.954 223.112 437.983C226.326 457.304 229.7 476.829 231.627 496.368C232.69 514.434 232.925 532.663 232.184 550.743H176.891C181.896 518.35 185.702 485.657 187.667 452.869C188.842 445.01 188.582 437.205 188.842 429.291C190.164 412.167 189.336 394.688 189.459 377.509C196.455 374.671 202.671 370.018 207.479 363.728C214.684 354.463 218.688 341.651 221.184 329.917Z" fill="white"/>
<path d="M221.877 333.519C229.02 337.257 234.508 342.975 240.279 348.746C240.366 349.538 240.452 350.329 240.539 351.107C233.47 356.824 226.005 363.851 221.568 372.297C219.677 375.558 220.357 379.338 220.74 382.967C223.657 401.51 226.425 420.081 229.465 438.597C232.765 458.272 236.72 477.539 237.832 497.569C239.933 515.035 239.068 533.127 238.846 550.743H232.184C232.926 532.663 232.691 514.434 231.628 496.369C229.7 476.829 226.326 457.304 223.113 437.983C220.567 420.954 217.379 404.048 214.734 387.033C213.93 380.975 213.312 375.272 217.168 370.237C222.755 363.251 230.009 358.12 235.768 351.257C232.431 346.85 228.44 343.398 224.522 339.686C222.693 338.062 222.409 335.907 221.877 333.519Z" fill="#E8E8E8"/>
<path d="M322.797 338.049C320.746 338.99 318.682 339.864 316.605 340.751C316.655 338.431 316.729 336.125 316.877 333.805C319.782 334.419 320.857 335.634 322.797 338.049Z" fill="#2D7058"/>
<path d="M350.571 350.656C353.277 353.167 356.231 355.282 359.123 357.506C363.832 361.19 367.688 365.625 371.581 370.291C372.31 384.372 370.011 397.894 369.084 411.866C364.932 458.313 359.024 504.651 352.424 550.742H350.311C350.15 520.274 350.076 489.791 350.052 459.323C348.828 423.847 349.483 388.247 348.754 352.744C349.359 352.048 349.965 351.352 350.571 350.656Z" fill="#FBFDFB"/>
<path d="M321.56 367.303C323.995 368.244 323.13 370.796 323.674 373.088C322.351 372.842 321.029 372.583 319.719 372.297C319.459 371.301 319.224 370.305 319.002 369.295C319.842 368.613 320.695 367.944 321.56 367.303Z" fill="#01452A"/>
<path d="M393.442 383.021C393.653 389.707 394.036 396.53 393.48 403.202C393.43 406.408 390.847 407.541 389.006 409.547C386.645 401.319 387.918 392.941 390.303 384.918C390.625 383.649 392.528 383.594 393.442 383.021Z" fill="#78312D"/>
<path d="M377.215 385.628C378.154 388.303 379.007 390.881 378.735 393.815C378.253 399.764 377.969 405.809 377.165 411.717C376.56 412.877 375.559 413.791 374.187 414.487C372.098 410.994 372.284 407.296 372.679 403.366C373.31 397.813 373.705 392.246 374.15 386.665C375.163 386.283 376.189 385.942 377.215 385.628Z" fill="#294179"/>
<path d="M381.948 389.967C385.791 388.985 384.444 393.897 385.013 396.544C384.815 401.756 385.47 409.206 381.033 412.481C380.279 405.14 380.193 397.144 381.948 389.967Z" fill="#634534"/>
<path d="M395.628 399.641C397.803 397.949 399.15 401.838 396.654 402.438C395.282 402.015 394.936 401.074 395.628 399.641Z" fill="black"/>
<path d="M397.21 408.865C397.234 419.303 397.58 429.823 396.901 440.234C396.295 445.678 396.159 451.122 395.986 456.594C395.739 463.662 394.12 470.17 393.279 477.102C391.129 485.862 387.323 493.175 380.105 497.951C379.981 499.275 379.858 500.598 379.734 501.922C381.934 501.171 384.109 500.339 386.272 499.479C386.173 514.297 386.148 529.102 386.087 543.92C385.778 546.062 386.717 549.965 384.394 550.743H356.314C362.679 506.697 368.302 462.557 372.739 418.239L375.248 417.761C378.264 417.229 381.341 416.601 384.282 415.633C388.917 414.05 392.958 411.375 397.21 408.865Z" fill="#FEFEFE"/>
<path d="M369.083 411.866C370.06 412.753 371.024 413.654 371.975 414.568C373.075 415.619 374.163 416.683 375.25 417.761L372.742 418.239C368.305 462.557 362.682 506.697 356.317 550.742H352.424C359.023 504.651 364.931 458.313 369.083 411.866Z" fill="black"/>
<path d="M296.612 425.293C291.94 429.523 288.27 434.544 288.492 441.585C288.665 449.007 292.509 454.615 298.219 458.19C294.944 457.44 291.261 456.689 288.307 454.875C280.991 449.621 279.952 435.69 286.812 429.441C289.568 426.385 292.892 425.825 296.612 425.293Z" fill="#69A991"/>
<path d="M304.731 426.822C304.707 427.722 304.694 428.609 304.669 429.496C300.937 431.775 297.254 432.934 295.685 437.778C293.51 442.772 296.439 448.544 300.43 451.096C304.917 453.197 311.195 451.723 313.419 446.552C314.421 443.523 314.445 440.03 314.767 436.837C315.533 436.796 316.311 436.741 317.09 436.7C316.979 441.803 317.819 446.17 314.383 450.263C310.787 455.271 305.201 455.748 299.936 454.179C293.893 450.85 290 442.486 293.497 435.431C295.796 430.069 299.998 428.554 304.731 426.822Z" fill="#989796"/>
<path d="M306.264 435.213C308.761 435.09 309.91 437.901 310.738 440.057C311.566 445.351 306.042 450.004 301.766 446.798C298.379 445.269 299.652 440.248 299.652 437.096C301.79 435.814 303.743 434.763 306.264 435.213Z" fill="#E7E9E8"/>
<path d="M320.474 447.029C323.045 448.189 324.713 447.452 324.837 451.027C324.688 453.811 322.192 452.883 320.412 453.674C320.424 451.464 320.449 449.253 320.474 447.029Z" fill="#26654D"/>
<path d="M260.076 473.759C270.741 475.15 281.493 475.642 292.196 476.665C293.704 484.62 293.753 490.814 292.233 498.797C286.709 498.033 281.147 498.496 275.611 497.664C269.728 496.982 263.746 495.454 257.839 495.454C258.024 488.713 256.294 479.448 260.076 473.759Z" fill="#82421F"/>
<path d="M297.18 477.538C307.03 477.211 316.905 477.661 326.755 477.716C326.743 484.811 326.718 491.893 326.656 498.988C316.88 499.534 306.956 499.643 297.218 498.456C297.205 496.791 297.205 495.113 297.205 493.448C297.255 488.181 296.983 482.819 297.18 477.538Z" fill="#979C99"/>
<path d="M345.464 477.553C345.612 484.348 345.6 491.129 345.724 497.924C343.091 498.524 340.483 499.139 337.802 499.466C339.26 492.248 339.285 485.93 338.271 478.644C335.75 478.344 333.241 478.03 330.732 477.689C336.01 476.488 340.162 476.406 345.464 477.553Z" fill="#603116"/>
<path d="M330.734 477.689C333.243 478.03 335.752 478.344 338.273 478.644C339.287 485.93 339.262 492.248 337.803 499.466C335.394 499.289 332.984 498.934 330.574 498.784C330.487 491.743 330.549 484.73 330.734 477.689Z" fill="#7D4423"/>
<path d="M304.285 480.908C310.588 480.267 317.051 480.445 323.305 481.618C324.195 486.735 324.281 490.514 323.255 495.631C317.026 496.682 310.291 497.296 304.062 496.109C299.675 495.126 300.725 490.31 300.602 486.585C300.651 483.733 301.454 481.359 304.285 480.908Z" fill="#392D1C"/>
<path d="M319.68 485.534C319.705 487.676 319.742 489.819 319.792 491.974C314.44 492.643 309.62 492.493 304.318 491.565C304.467 489.737 304.615 487.895 304.813 486.08C309.744 484.879 314.675 484.988 319.68 485.534Z" fill="#6D452B"/>
<path d="M297.202 493.449C297.202 495.113 297.202 496.792 297.215 498.456C306.954 499.643 316.878 499.534 326.653 498.988C327.963 498.893 329.261 498.797 330.571 498.784C332.981 498.934 335.391 499.289 337.801 499.466C340.483 499.139 343.09 498.525 345.723 497.924C347.564 501.322 349.492 504.242 349.418 508.431C349.492 522.512 349.517 536.648 349.332 550.743H345.698C346.526 542.461 346.514 534.478 345.871 526.182C345.315 518.678 346.328 510.928 345.216 503.519C344.067 502.372 342.621 502.495 341.163 502.304C333.339 501.881 325.455 502.632 317.619 502.618C301.862 502.482 286.29 502.441 270.631 500.176C266.17 499.712 261.016 498.497 256.629 499.78C255.776 501.881 256.147 504.474 256.06 506.752C254.602 521.543 250.276 535.652 249.992 550.743H244.789C247.063 538.217 249.152 525.691 251.216 513.124C252.538 507.53 253.712 501.908 254.565 496.205C255.652 495.932 256.752 495.686 257.84 495.455C263.747 495.455 269.729 496.983 275.612 497.665C281.148 498.497 286.71 498.033 292.234 498.797L295.213 499.22C295.954 497.337 296.634 495.414 297.202 493.449Z" fill="#202D5E"/>
<path d="M270.632 500.175C286.291 502.441 301.863 502.481 317.62 502.618C325.456 502.632 333.34 501.881 341.163 502.304C342.622 502.495 344.068 502.372 345.217 503.518C346.329 510.928 345.316 518.678 345.872 526.182C346.515 534.478 346.527 542.46 345.699 550.743H344.093C343.833 535.747 342.758 520.861 343.091 505.824C340.842 505.497 338.581 505.142 336.319 504.965C330.399 505.265 324.838 506.616 318.868 505.838C311.861 504.897 304.878 505.06 297.846 505.21C284.672 505.47 271.72 502.127 258.669 501.99C257.779 503.573 256.902 505.156 256.061 506.752C256.148 504.474 255.777 501.881 256.63 499.78C261.017 498.497 266.171 499.712 270.632 500.175Z" fill="#1B3E9B"/>
<path d="M297.845 505.21C304.877 505.06 311.86 504.896 318.867 505.838C324.837 506.615 330.398 505.265 336.318 504.964C337.64 509.29 338.283 513.397 338.184 517.995C338.073 528.911 338.011 539.827 338.048 550.742H249.992C250.276 535.651 254.602 521.543 256.06 506.752C256.901 505.155 257.778 503.573 258.668 501.99C271.719 502.126 284.671 505.469 297.845 505.21Z" fill="#0440FA"/>
<path d="M343.091 505.824C342.757 520.86 343.832 535.747 344.092 550.742H338.049C338.011 539.827 338.073 528.911 338.185 517.995C338.283 513.397 337.641 509.29 336.318 504.964C338.58 505.142 340.842 505.496 343.091 505.824Z" fill="#0432C5"/>
<path d="M419.468 503.327C419.777 511.459 419.147 519.373 418.232 527.424C410.236 533.073 399.225 534.205 389.968 534.069C389.956 525.363 390.042 516.644 390.079 507.939C396.666 507.898 403.019 507.311 409.458 505.715C412.795 504.896 416.119 504.064 419.468 503.327Z" fill="#FEFEFE"/>
<path d="M411.953 535.61C412.509 541.027 413.152 546.117 415.97 550.742H408.913C407.405 547.986 405.638 548.027 404.118 550.742H389.658C389.757 546.895 389.868 543.06 389.98 539.213C397.457 539.008 404.674 537.398 411.953 535.61Z" fill="#5E8848"/>
<path d="M408.914 550.742H404.119C405.639 548.027 407.407 547.986 408.914 550.742Z" fill="#3A5030"/>
</svg>
