<svg width="448" height="448" viewBox="0 0 448 448" fill="none" xmlns="http://www.w3.org/2000/svg">
<path d="M129.425 67.3475C126.651 70.4956 125.782 74.4142 123.701 77.8815C119.959 79.8519 116.084 80.9636 112.826 83.8365C107.521 88.2725 104.813 94.4366 103.58 101.118C100.19 102.307 96.4801 103.375 93.3651 105.18L93.9044 108.482C104.857 104.376 115.908 101.448 127.708 101.69C133.245 101.977 138.925 104.762 144.241 106.391C141.368 108.493 138.605 111.3 135.314 112.72C132.023 112.456 128.765 111.179 125.54 110.419C115.226 107.899 104.449 107.029 94.2677 110.628C96.3921 111.256 98.5165 111.916 100.729 112.18C111.725 110.683 122.799 110.838 132.782 116.231C127.785 115.89 122.975 114.635 118.055 113.821L115.358 114.327C117.295 115.296 119.221 116.253 121.225 117.079C125.639 117.959 129.965 119.17 134.257 120.502C135.237 117.838 136.437 116.286 138.66 114.514C143.261 111.212 148.413 110.386 153.906 109.693C154.412 108.834 154.929 107.965 155.447 107.106C153.245 107.062 151.055 106.996 148.864 106.93C152.706 105.389 157.131 104.134 160.444 101.668C163.152 99.7862 165.342 97.4967 168.677 96.7702C174.357 95.4603 180.51 95.9116 186.102 97.4746C191 98.8726 194.864 101.481 199.135 104.112C200.401 103.287 201.667 102.472 202.965 101.701C207.313 101.129 211.617 100.458 215.932 99.6871C221.623 108.779 224.287 119.82 226.18 130.266C227.016 130.299 227.853 130.343 228.701 130.376C228.502 126.358 228.326 122.329 228.238 118.301C233.137 120.975 237.595 123.991 240.677 128.769C247.413 138.972 252.697 151.939 254.975 163.937C256.846 173.58 256.01 183.53 250.715 191.973C246.07 199.535 238.97 204.378 230.957 207.823C228.811 208.638 226.587 209.32 224.397 209.992C226.279 202.815 228.844 195.847 230.814 188.704C232.828 177.773 236.329 167.206 236.318 155.902C236.263 151.554 237.11 147.426 238.079 143.232C239.158 139.688 236.747 135.945 233.346 134.889C230.363 133.854 226.807 135.098 225.277 137.883C223.637 140.8 224.331 143.871 224.705 147.008C226.378 156.111 224.727 165.027 222.856 173.954C220.181 186.271 216.626 198.467 211.815 210.135C210.946 211.72 210.472 214.164 208.359 214.428C204.661 215.22 200.797 215.297 197.054 215.87C186.003 217.741 174.192 217.015 162.91 217.125C154.027 217.301 145.474 215.738 136.8 214.01C127.609 212.094 118.88 208.66 111.516 202.727C109.777 202.749 108.038 202.738 106.31 202.705C110.305 205.853 113.773 209.166 118.429 211.423C121.104 213.019 123.933 213.195 125.121 216.431C127.103 221.572 129.59 226.25 130.845 231.654C123.129 236.872 115.666 242.948 108.797 249.244C109.183 250.422 109.568 251.6 109.953 252.778C115.633 247.868 121.346 243.003 127.389 238.534C128.236 237.885 129.073 237.213 129.909 236.542C126.706 242.144 124.615 247.945 122.237 253.933C120.168 259.382 118.44 264.588 119.287 270.532C123.349 275.618 128.93 279.03 132.364 284.776C125.958 288.761 118.572 293.659 114.653 300.274C112.617 303.555 112.98 306.67 113.641 310.313C110.988 311.909 108.302 313.34 105.297 314.144C106.684 314.353 108.06 314.584 109.447 314.804C110.272 322.685 110.206 330.567 110.515 338.481C108.929 338.536 107.333 338.591 105.737 338.602C108.357 339.384 111.098 339.89 113.784 340.319C114.752 339.45 115.721 338.591 116.701 337.743C117.548 337.006 118.407 336.279 119.276 335.564C118.451 324.292 116.403 313.384 117.053 302.025C120.52 298.26 123.955 294.683 128.148 291.711C130.724 289.916 133.355 288.21 135.765 286.185C136.305 286.746 136.844 287.308 137.383 287.869C136.734 316.51 137.317 345.228 136.228 373.848C136.206 398.427 136.14 423.017 135.997 447.597H136.866C136.701 436.226 136.723 424.823 136.789 413.463C136.723 410.084 138.44 407.728 140.08 404.987C140.19 399.506 140.179 394.035 140.311 388.553C145.034 387.629 148.732 387.695 153.432 388.663C153.597 394.343 153.652 400.001 153.575 405.681C154.742 405.692 155.898 405.769 157.065 405.846C157.01 400.122 156.988 394.409 156.977 388.685C165.749 388.641 174.544 388.278 183.317 388.542C183.493 392.802 183.251 397.128 183.295 401.377C183.802 402.962 184.407 404.514 185.067 406.033L187.72 405.692C186.366 399.253 186.41 394.255 187.753 387.838C197.286 387.012 206.862 386.616 216.361 385.493C219.73 390.083 218.189 397.557 218.354 402.995C219.322 403.182 220.302 403.38 221.271 403.6C222.03 408.202 223.076 412.737 224.254 417.25C223.351 408.235 221.48 399.462 221.645 390.348C220.049 374.409 220.874 358.085 220.786 342.036C220.643 335.355 221.612 328.772 221.557 322.113C221.623 313.307 221.777 304.501 221.898 295.695C223.263 274.682 224.87 253.823 227.677 232.942C228.569 224.951 231.012 217.499 233.511 209.904C235.866 211.346 237.374 213.36 238.695 215.749C239.257 214.373 239.807 213.008 240.368 211.632C239.631 210.586 238.86 209.574 238.101 208.55C242.141 205.743 246.136 203.244 249.571 199.645C254.689 194.494 257.749 187.317 258.553 180.151C260.589 167.239 256.968 153.447 251.728 141.669C248.492 134.547 244.518 127.184 239.257 121.339C235.778 117.585 231.331 115.725 226.543 114.228C223.406 106.005 219.939 98.1461 214.171 91.3876C208.084 83.8695 200.092 78.1897 190.571 76.0543C183.824 75.4599 176.603 75.2508 170.064 77.2101C168.138 73.2584 166.454 69.4609 163.427 66.1807C154.412 57.1106 137.703 57.4078 129.425 67.3475Z" fill="#060606"/>
<path d="M153.597 64.0452C145.936 61.2273 137.174 63.759 131.968 69.9781C125.55 77.4742 125.617 88.8998 132.408 96.1537C138.957 103.661 150.669 104.739 158.65 98.8945C166.795 93.2587 169.217 81.5909 164.296 73.0822C161.864 69.0535 158.044 65.6522 153.597 64.0452Z" fill="#C4D0CB"/>
<path d="M184.923 79.0371C180.51 78.9271 175.402 78.894 171.307 80.7102C169.601 83.6382 169.964 87.9531 169.612 91.2663C176.943 91.4865 184.208 90.6609 191.528 90.5949C196.547 90.7049 201.192 89.5932 205.915 87.9971C199.86 83.9024 192.442 79.1472 184.923 79.0371Z" fill="#618847"/>
<path d="M147.742 79.2352C146.696 79.6425 145.727 80.1599 144.836 80.7873C144.439 81.6128 144.021 82.4164 143.603 83.2309C144.186 84.3096 144.759 85.3994 145.32 86.5001C148.314 85.2012 150.284 85.0691 150.339 81.2166C149.481 80.5561 148.611 79.8957 147.742 79.2352Z" fill="#0E100F"/>
<path d="M123.558 82.2513C118.715 82.9888 115.842 86.1149 112.342 89.186C116.315 90.2427 120.267 90.628 124.362 90.727C124.175 87.9091 124.021 85.0252 123.558 82.2513Z" fill="#667F58"/>
<path d="M209.58 91.4315C202.48 93.0496 195.293 93.2257 188.094 94.1173C189.58 94.9429 191.044 95.7574 192.563 96.5169C192.497 95.7574 192.431 95.0089 192.376 94.2494C196.547 94.1944 200.719 94.0072 204.891 93.7211C205.585 95.097 206.245 96.4729 206.905 97.8598C209.195 97.5296 211.462 97.0453 213.73 96.594C212.354 94.8878 211.143 92.9615 209.58 91.4315Z" fill="#B9AD9A"/>
<path d="M124.152 94.0074C119.518 93.6331 114.895 93.523 110.316 92.6425C109.512 94.3706 108.742 96.0988 107.982 97.8489C115.225 98.2892 122.38 98.5534 129.634 98.0911C128.115 96.6932 126.365 94.0844 124.152 94.0074Z" fill="#EBE2C0"/>
<path d="M204.892 93.7212C200.72 94.0074 196.548 94.1945 192.377 94.2495C192.432 95.009 192.498 95.7576 192.564 96.5171C197.242 98.9717 201.865 98.4323 206.906 97.86C206.246 96.473 205.585 95.0971 204.892 93.7212Z" fill="#EADEBB"/>
<path d="M168.677 96.77C165.342 97.4965 163.152 99.786 160.444 101.668C157.131 104.134 152.706 105.389 148.864 106.93C151.055 106.996 153.245 107.062 155.446 107.106C162.271 107.194 169.613 107.579 176.184 109.583C180.807 111.014 184.297 113.743 188.414 116.11C191.617 117.948 194.963 118.719 198.496 119.643C198.584 120.612 198.683 121.592 198.771 122.56C200.907 123.276 203.064 123.903 205.013 125.048C205.453 127.216 205.596 129.165 203.78 130.75C200.742 131.663 197.429 131.597 194.38 132.467C192.002 133.336 189.845 134.944 187.665 136.209C188.931 136.705 190.175 137.233 191.408 137.772C191.771 138.598 192.123 139.413 192.464 140.238C187.379 142.968 182.172 145.312 176.493 146.501C167.533 148.648 159.288 147.646 150.218 147.811C156.382 152.071 163.284 154.361 170.35 156.595C170.207 157.729 170.075 158.863 169.921 159.985C162.04 157.619 154.467 154.779 147.334 150.618C146.839 149.363 146.332 148.108 145.837 146.854C140.719 145.522 136.745 143.804 133.047 139.919C125.771 141.218 118.594 142.385 111.175 142.076C104.625 142.219 98.3623 140.91 91.934 139.941L90.5691 140.667C92.8036 143.551 94.7189 146.336 97.9771 148.185C103.47 151.312 110.371 153.172 116.679 153.117C122.094 153.106 126.717 151.323 131.704 149.484C131.781 150.552 131.858 151.62 131.946 152.687C127.939 154.504 123.965 156.386 119.992 158.29C114.697 156.21 108.632 154.834 102.941 155.373C96.2709 159.325 92.2752 167.162 91.3616 174.768C102.193 179.854 113.497 182.286 125.484 182.066C138.462 181.758 151.473 180.085 164.065 176.959C170.35 175.418 177.263 173.91 182.536 170.013C185.265 168.142 187.962 165.478 191.077 164.322C196.625 163.133 202.855 163.629 205.706 169.265C208.139 175.616 204.242 183.739 198.937 187.537C193.95 191.004 188.061 193.338 182.216 194.901C159.178 200.415 135.171 202.771 111.516 202.727C118.88 208.66 127.609 212.094 136.8 214.009C145.474 215.738 154.027 217.301 162.909 217.125C174.192 217.014 186.003 217.741 197.054 215.87C200.797 215.297 204.66 215.22 208.359 214.428C210.472 214.164 210.946 211.72 211.815 210.135C216.625 198.467 220.181 186.271 222.856 173.954C224.727 165.027 226.378 156.111 224.705 147.008C223.692 139.996 222.294 133.436 219.818 126.776C217.528 118.003 215.084 109.88 209.658 102.45C207.72 101.525 205.09 101.822 202.965 101.701C201.666 102.472 200.401 103.286 199.135 104.112C194.864 101.481 191 98.8724 186.102 97.4745C180.51 95.9114 174.357 95.4601 168.677 96.77Z" fill="#5A8B40"/>
<path d="M215.932 99.687C211.617 100.458 207.313 101.129 202.965 101.701C205.089 101.822 207.72 101.525 209.657 102.45C215.084 109.88 217.528 118.003 219.817 126.776C222.294 133.436 223.692 139.996 224.704 147.008C224.33 143.871 223.637 140.8 225.277 137.883C226.807 135.098 230.362 133.854 233.345 134.889C236.747 135.945 239.157 139.688 238.078 143.232C237.11 147.426 236.262 151.554 236.317 155.902C236.328 167.206 232.828 177.773 230.814 188.704L230.604 190.828C232.2 189.32 233.775 187.79 235.349 186.271C234.864 193.723 232.002 200.47 230.957 207.823C238.97 204.378 246.07 199.535 250.715 191.973C256.009 183.53 256.846 173.579 254.975 163.937C252.696 151.939 247.413 138.972 240.676 128.768C237.594 123.991 233.136 120.975 228.238 118.3C228.326 122.329 228.502 126.358 228.7 130.376C227.853 130.343 227.016 130.298 226.179 130.265C224.286 119.819 221.622 108.779 215.932 99.687Z" fill="#4A7134"/>
<path d="M362.638 101.393C359.842 101.25 356.804 101.03 354.075 101.734C350.849 103.352 348.087 106.974 348.252 110.716C347.954 118.433 348.978 126.193 348.494 133.887C348.186 138.906 346.314 143.375 343.871 147.701C338.279 145.544 333.876 144.762 328.031 146.644C327.173 147.745 326.303 148.846 325.433 149.936C325.037 151.631 324.619 153.315 324.19 154.988C325.202 157.278 325.863 159.897 327.943 161.482C330.442 163.332 334.063 164.08 336.386 166.183C338.895 168.615 339.952 171.675 340.723 174.988C341.306 177.344 341.834 179.7 342.363 182.066C357.091 192.545 376.21 196.695 393.987 193.723L393.69 190.553C392.182 190.685 390.674 190.817 389.155 190.938C389.738 189.43 390.333 187.911 390.949 186.414C391.456 185.368 391.984 184.334 392.534 183.31C395.429 179.567 399.414 176.805 402.144 172.985C404.995 168.901 404.576 163.849 406.932 159.666C408.66 156.969 412.37 155.483 415.022 153.799C420.306 150.662 425.71 145.544 427.285 139.413C427.593 135.912 424.896 131.663 421.792 130.056C417.356 128.89 413.789 130.607 409.926 132.5C406.756 134.03 403.244 136.044 399.722 136.463C398.17 136.474 397.62 135.648 398.082 134.151C399.876 127.998 406.194 120.964 405.699 114.03C405.688 110.111 402.309 107.987 399.7 105.653C393.745 105.345 390.135 107.59 386.271 111.795C381.109 116.836 380.085 123.485 375.759 129.011C375.11 129.099 374.449 129.187 373.8 129.264C371.95 125.059 370.696 120.81 369.826 116.297C368.78 110.507 367.338 105.312 362.638 101.393Z" fill="black"/>
<path d="M127.708 101.69C115.908 101.448 104.857 104.376 93.9045 108.482C94.0256 109.197 94.1467 109.913 94.2678 110.628C104.45 107.029 115.226 107.898 125.54 110.419C128.765 111.179 132.023 112.455 135.314 112.72C138.605 111.3 141.368 108.493 144.241 106.39C138.925 104.761 133.245 101.976 127.708 101.69Z" fill="#62884B"/>
<path d="M351.718 109.858C350.991 114.756 351.795 120.128 352.147 125.059C352.653 131.014 351.883 137.09 350.21 142.803C349.186 146.006 347.777 149.286 344.64 150.904C340.545 150.805 336.396 148.516 332.345 148.846C327.414 149.737 326.764 157.586 331.2 159.292C335.735 161.735 339.962 163.012 342.075 168.219C344.343 172.093 342.681 178.962 346.908 181.02C358.553 188.395 372.28 191.885 386.039 191.466C386.875 188.175 387.514 184.906 389.374 182.011C391.906 178.015 396.078 175.33 398.675 171.543C401.295 167.25 401.614 161.515 404.19 157.134C405.5 154.9 408.065 153.557 410.222 152.247C414.735 149.693 419.336 146.644 422.33 142.296C423.596 140.601 423.277 137.861 423.464 135.824C422.495 134.9 421.538 133.964 420.591 133.028C413.337 133.369 408.494 137.949 401.801 139.721C398.18 140.612 394.548 138.895 394.537 134.844C394.724 128.064 401.989 122.164 402.286 115.152C402.594 111.861 399.6 108.68 396.243 109.285C392.797 109.99 389.781 112.775 387.668 115.472C384.498 119.478 383.265 124.09 380.667 128.306C378.983 131.234 375.725 132.302 372.896 133.843C368.68 129.077 367.646 123.419 366.523 117.376C365.741 113.743 365.114 108.867 362.329 106.181C359.06 102.67 352.202 105.114 351.718 109.858Z" fill="#5A8B40"/>
<path d="M93.3646 105.18C89.8312 107.326 87.916 110.419 84.977 113.259C82.5003 115.659 80.8052 118.807 78.6698 121.603C78.2075 124.597 77.514 127.679 77.547 130.717C79.9797 135.505 81.8179 140.568 87.1234 142.66C87.8279 143.518 88.5324 144.377 89.2258 145.247C89.6771 143.717 90.1064 142.198 90.5687 140.668L91.9336 139.941C93.4306 139.071 94.9276 138.191 96.4026 137.299C90.7008 135.978 85.3402 134.867 80.8712 130.783C80.9153 129.88 80.9703 128.978 81.0253 128.075C85.4503 124.52 90.6017 122.571 95.9953 120.975C97.4263 120.546 98.8572 120.128 100.288 119.721C98.7802 123.012 96.986 125.731 97.2612 129.506C97.1181 133.139 99.2976 135.098 101.246 137.806L98.494 137.773C105.66 140.414 112.495 139.71 119.98 139.6C125.253 139.468 130.415 138.587 135.644 138.026C139.871 137.927 143.305 140.238 147.62 141.284C160.245 144.267 173.608 143.827 185.177 137.508C185.232 136.254 185.276 134.999 185.331 133.744C182.139 135.615 178.738 136.936 175.292 138.235C176.162 135.472 177.461 132.5 177.582 129.572C177.505 126.776 175.865 123.859 174.687 121.372C180.477 123.331 185.287 126.677 189.811 130.706C188.997 131.322 188.171 131.939 187.345 132.555C188.953 132.335 190.571 132.148 192.189 131.961C191.925 130.552 191.671 129.143 191.418 127.723C190.78 127.261 190.152 126.787 189.525 126.303C190.053 126.083 190.593 125.852 191.121 125.631C193.025 124.784 194.908 123.892 196.801 123.023C188.6 123.584 183.636 119.038 176.844 115.582C170.471 112.28 163.382 111.355 156.283 111.916C150.273 112.236 144.703 114.437 138.66 114.514C136.436 116.286 135.237 117.838 134.257 120.502C133.806 121.713 133.354 122.935 132.925 124.157C128.258 121.735 123.547 119.445 118.737 117.31C119.562 117.222 120.399 117.145 121.224 117.079C119.221 116.253 117.295 115.296 115.357 114.327L118.054 113.821C112.297 112.775 106.507 112.929 100.729 112.18C98.516 111.916 96.3916 111.256 94.2672 110.628C94.1461 109.913 94.025 109.197 93.9039 108.482L93.3646 105.18Z" fill="#151615"/>
<path d="M155.446 107.106C154.929 107.964 154.412 108.834 153.905 109.693C161.335 109.406 169.316 110.067 176.327 112.709C180.521 114.316 183.669 117.012 187.687 118.95C190.692 120.392 193.796 121.592 196.801 123.022C194.908 123.892 193.025 124.784 191.121 125.631C194.809 125.994 198.419 126.798 201.963 127.899C198.221 128.735 194.985 129.902 191.418 127.723C191.671 129.143 191.925 130.552 192.189 131.96C190.571 132.148 188.953 132.335 187.346 132.555C186.674 132.951 186.003 133.347 185.331 133.744C185.276 134.999 185.232 136.253 185.177 137.508C186.014 137.079 186.839 136.65 187.665 136.209C189.844 134.943 192.002 133.336 194.379 132.467C197.428 131.597 200.742 131.663 203.78 130.75C205.596 129.165 205.453 127.216 205.012 125.048C203.064 123.903 200.907 123.276 198.771 122.56C198.683 121.592 198.584 120.612 198.496 119.643C194.963 118.719 191.616 117.948 188.413 116.11C184.297 113.743 180.807 111.013 176.184 109.582C169.613 107.579 162.271 107.194 155.446 107.106Z" fill="black"/>
<path d="M153.905 109.693C148.412 110.386 143.261 111.212 138.66 114.514C144.703 114.437 150.273 112.235 156.283 111.916C163.382 111.355 170.471 112.279 176.844 115.582C183.636 119.038 188.6 123.584 196.801 123.023C193.796 121.592 190.692 120.392 187.687 118.95C183.669 117.013 180.521 114.316 176.327 112.709C169.315 110.067 161.335 109.406 153.905 109.693Z" fill="#4B5843"/>
<path d="M100.729 112.18C106.508 112.929 112.298 112.775 118.055 113.82C122.975 114.635 127.785 115.89 132.783 116.231C122.799 110.837 111.726 110.683 100.729 112.18Z" fill="#40463B"/>
<path d="M159.97 114.129C153.222 114.063 147.102 115.295 141.202 118.642C147.73 118.047 153.894 116.594 159.97 114.129Z" fill="#3F493D"/>
<path d="M162.91 118.135C154.489 117.519 145.815 120.072 138.198 123.474C144.538 122.296 151.418 119.214 157.802 120.227C159.486 119.489 161.204 118.829 162.91 118.135Z" fill="#80817F"/>
<path d="M121.224 117.079C120.399 117.145 119.562 117.222 118.736 117.31C123.547 119.445 128.258 121.735 132.925 124.156C133.354 122.935 133.806 121.713 134.257 120.502C129.964 119.17 125.638 117.959 121.224 117.079Z" fill="#6B7D5C"/>
<path d="M157.802 120.227C151.418 119.214 144.538 122.296 138.198 123.474C137.406 123.837 136.624 124.222 135.832 124.608C135.876 126.776 135.909 128.944 135.953 131.124C137.846 133.149 139.409 135.164 142.139 136.121C147.94 138.378 154.126 139.809 160.356 140.073C157.813 138.169 155.282 136.881 154.027 133.766C152.651 129.88 153.212 125.323 155.105 121.669L157.802 120.227Z" fill="#FBFCF9"/>
<path d="M100.288 119.72C98.8575 120.128 97.4265 120.546 95.9956 120.975C90.602 122.571 85.4505 124.52 81.0255 128.075C80.9705 128.978 80.9155 129.88 80.8715 130.783C85.3404 134.867 90.701 135.978 96.4028 137.299C97.1073 137.464 97.8008 137.618 98.4943 137.773L101.246 137.806C99.2978 135.098 97.1183 133.138 97.2614 129.506C96.9862 125.73 98.7804 123.012 100.288 119.72Z" fill="#FAFBF9"/>
<path d="M174.686 121.372C175.864 123.859 177.504 126.776 177.581 129.572C177.46 132.5 176.161 135.472 175.292 138.235C178.737 136.936 182.138 135.615 185.331 133.744C186.002 133.348 186.673 132.951 187.345 132.555C188.17 131.939 188.996 131.322 189.811 130.706C185.287 126.677 180.476 123.331 174.686 121.372Z" fill="#FBFBF9"/>
<path d="M120.234 121.757C121.643 126.919 122.259 131.058 120.41 136.221C119.661 136.771 118.902 137.321 118.153 137.883C124.053 138.169 128.754 137.574 134.301 135.527C133.399 133.182 132.716 130.288 131.087 128.317C129.304 126.457 126.816 125.125 124.582 123.881C123.14 123.155 121.687 122.45 120.234 121.757Z" fill="#FBFAFA"/>
<path d="M106.023 123.309C104.647 123.826 103.271 124.343 101.895 124.85C101.543 126.402 100.046 129.143 101.367 130.43C103.645 133.612 109.424 132.126 109.655 128.196C109.985 125.807 107.465 124.751 106.023 123.309Z" fill="#F7FAFB"/>
<path d="M116.633 123.364C115.048 124.311 113.518 125.345 111.977 126.369C114.377 127.69 115.698 128.141 118.438 127.91C117.855 126.38 117.261 124.872 116.633 123.364Z" fill="#B0B3B0"/>
<path d="M191.122 125.631C190.593 125.852 190.054 126.083 189.526 126.303C190.153 126.787 190.78 127.261 191.419 127.723C194.985 129.902 198.221 128.736 201.964 127.899C198.419 126.798 194.809 125.995 191.122 125.631Z" fill="#64745E"/>
<path d="M172.849 124.63C171.066 124.883 169.569 125.719 167.984 126.534C169.987 128.537 170.714 129.495 173.796 129.297C173.543 127.723 173.312 126.16 172.849 124.63Z" fill="#A1A39E"/>
<path d="M164.736 125.455C162.49 125.378 160.256 125.345 158.01 125.334C157.438 127.227 156.954 129.154 156.458 131.08C159.386 132.423 161.224 132.786 164.461 132.258C164.604 129.99 164.681 127.723 164.736 125.455Z" fill="#FAFCF9"/>
<path d="M170.284 134.966C168.358 133.722 166.839 136.617 169.272 137.101C170.57 136.771 170.912 136.066 170.284 134.966Z" fill="#7D7D7D"/>
<path d="M113.035 135.153L112.253 134.701L111.45 135.142V136.044L112.231 136.507L113.035 136.066V135.153Z" fill="#85867E"/>
<path d="M187.665 136.209C186.84 136.65 186.014 137.079 185.178 137.508C173.609 143.826 160.246 144.267 147.62 141.284C143.306 140.238 139.871 137.927 135.644 138.026C140.08 141.757 144.307 143.551 150.031 144.443C159.035 145.775 168.689 145.698 177.461 143.067C182.327 141.636 186.642 139.512 191.408 137.772C190.175 137.233 188.931 136.705 187.665 136.209Z" fill="#4D5E44"/>
<path d="M230.88 137.431C228.502 139.457 226.356 141.46 227.897 144.839C228.766 147.569 231.771 146.468 233.94 146.788C234.666 143.981 235.151 141.823 233.94 139.038C232.927 138.488 231.914 137.949 230.88 137.431Z" fill="#C7CFCD"/>
<path d="M191.408 137.773C186.641 139.512 182.327 141.636 177.461 143.067C168.688 145.698 159.035 145.775 150.031 144.443C144.307 143.551 140.08 141.757 135.644 138.026C130.416 138.587 125.253 139.468 119.981 139.6C112.496 139.71 105.66 140.414 98.4945 137.773C97.801 137.619 97.1075 137.464 96.403 137.299C94.9281 138.191 93.4311 139.072 91.9341 139.941C98.3624 140.91 104.626 142.22 111.175 142.077C118.594 142.385 125.771 141.218 133.047 139.919C136.745 143.805 140.719 145.522 145.837 146.854C146.332 148.109 146.839 149.363 147.334 150.618C154.467 154.779 162.04 157.619 169.921 159.986C170.075 158.863 170.207 157.729 170.351 156.595C163.284 154.361 156.382 152.071 150.218 147.811C159.288 147.646 167.533 148.648 176.493 146.501C182.172 145.313 187.379 142.968 192.464 140.238C192.123 139.413 191.771 138.598 191.408 137.773Z" fill="#040404"/>
<path d="M90.5691 140.667C90.1068 142.198 89.6775 143.717 89.2262 145.247C91.7249 148.725 94.7299 150.816 98.5825 152.61C98.5495 153.139 98.5164 153.656 98.4834 154.185C92.4954 159.556 89.4904 165.489 88.1475 173.381L87.1789 174.416C88.5768 174.46 89.9747 174.57 91.3617 174.768C92.2753 167.162 96.2709 159.325 102.941 155.373C108.632 154.834 114.697 156.21 119.992 158.29C123.965 156.386 127.939 154.504 131.946 152.688C131.858 151.62 131.781 150.552 131.704 149.484C126.717 151.323 122.094 153.106 116.679 153.117C110.371 153.172 103.47 151.312 97.9771 148.186C94.7189 146.336 92.8036 143.551 90.5691 140.667Z" fill="black"/>
<path d="M229.547 150.475C228.072 154.691 228.81 159.699 228.149 164.179C225.65 180.558 221.027 196.64 214.83 212.006C208.622 226.437 202.249 240.901 190.944 252.161C186.244 256.443 179.408 260.747 172.793 259.899C166.233 259.129 160.256 255.86 155.478 251.402C146.034 242.684 139.441 231.401 133.926 219.921C132.891 217.565 130.976 216.354 128.885 215.044C130.844 224.412 136.282 233.217 141.598 241.066C148.17 250.015 157.24 259.767 168.137 263.102C175.578 265.887 184.054 262.222 190.163 257.918C199.233 251.181 206.553 241.946 211.319 231.709C217.714 218.28 222.447 204.004 226.652 189.76C229.679 178.247 232.662 166.117 232.563 154.152L232.497 153.26C231.759 151.939 230.78 151.014 229.547 150.475Z" fill="#9A9F9B"/>
<path d="M371.014 160.162C371.719 163.519 372.841 166.821 373.315 170.211C373.524 173.139 372.621 176.133 372.764 179.061C373.689 179.502 374.68 179.81 375.725 179.997C376.936 173.756 377.685 167.977 374.603 162.11C374.107 160.822 372.126 160.712 371.014 160.162Z" fill="#243A17"/>
<path d="M191.077 164.322C187.962 165.478 185.265 168.142 182.535 170.013C177.263 173.91 170.35 175.418 164.065 176.959C151.473 180.085 138.462 181.758 125.484 182.066C113.497 182.286 102.193 179.854 91.3615 174.768C89.9746 174.57 88.5766 174.46 87.1787 174.416C84.68 176.684 83.6563 178.929 84.5149 182.342C85.9569 185.556 89.138 187.779 91.8018 189.926C91.8898 193.239 91.0533 196.079 93.684 198.665C97.1844 201.648 101.818 202.628 106.309 202.705C108.038 202.738 109.777 202.749 111.516 202.727C135.171 202.771 159.178 200.416 182.216 194.901C188.061 193.338 193.95 191.004 198.936 187.537C204.242 183.739 208.139 175.616 205.706 169.265C202.855 163.629 196.625 163.134 191.077 164.322Z" fill="black"/>
<path d="M189.415 169.177C185.981 171.785 182.876 174.537 178.793 176.144C168.435 180.448 156.58 182.429 145.528 184.07C136.403 185.5 126.97 185.467 117.746 185.17C109.094 184.84 101.477 182.011 93.3425 179.501C90.6347 178.577 89.2698 178.676 86.551 179.568C88.5984 182.54 90.7008 185.159 94.014 186.777C105.153 189.1 116.315 189.903 127.686 189.672C145.055 190.168 162.656 187.57 179.101 181.956C184.858 180.096 189.514 176.397 194.919 173.954C195.766 174.581 196.537 175.308 197.329 175.99C186.531 184.477 173.52 188.098 160.245 190.685C150.614 192.237 140.74 193.14 130.988 193.657C118.726 194.13 107.08 191.511 94.8946 191.323C95.2468 192.864 95.4009 194.714 96.2595 196.057C98.461 198.654 102.49 198.918 105.649 199.128C115.566 199.337 125.484 199.304 135.38 198.489C147.191 198.225 159.001 195.957 170.647 194.064C179.585 192.017 190.439 189.958 197.571 183.915C200.796 181.351 202.943 177.663 202.943 173.469C202.844 171.433 202.183 169.044 200.07 168.252C196.801 166.92 192.222 166.7 189.415 169.177Z" fill="#C8605F"/>
<path d="M194.918 173.954C189.514 176.397 184.858 180.096 179.101 181.956C162.656 187.57 145.055 190.168 127.686 189.672C116.315 189.903 105.153 189.1 94.014 186.777C94.3222 188.285 94.6084 189.804 94.8945 191.323C107.08 191.51 118.726 194.13 130.988 193.657C140.74 193.14 150.614 192.237 160.245 190.685C173.52 188.098 186.531 184.477 197.329 175.99C196.537 175.308 195.766 174.581 194.918 173.954Z" fill="#090909"/>
<path d="M340.723 174.989C340.657 175.935 340.591 176.871 340.525 177.818C338.819 178.819 337.146 179.876 335.484 180.944C334.559 184.686 333.733 188.341 331.95 191.775C330.574 194.483 328.681 197.08 327.767 199.942C327.195 202.496 327.459 205.292 327.47 207.901C323.926 212.513 321.824 217.433 320.315 223.025C315.01 225.204 310.552 228.077 306.986 232.645C300.667 232.392 294.712 230.389 288.394 230.213C280.579 229.893 272.764 229.805 264.948 229.981C259.192 224.863 253.127 220.999 245.124 221.021C243.616 217.829 242.262 214.637 240.369 211.632C239.808 213.008 239.257 214.373 238.696 215.749C242.13 222.133 242.934 230.301 244.266 237.367C246.005 247.967 247.535 258.777 247.392 269.542C240.743 273.846 234.524 278.755 229.175 284.611C230.407 290.225 234.788 291.414 238.685 294.859C242.835 298.194 245.531 302.311 248.514 306.626C246.478 322.741 243.055 338.712 240.512 354.761C236.527 375.51 232.169 395.521 231.761 416.776C231.442 427.057 231.728 437.316 231.97 447.597H235.273C235.074 433.387 234.304 418.791 236.175 404.701C237.166 388.543 240.688 373 243.627 357.128C246.335 342.191 248.801 327.21 251.398 312.251C251.74 309.323 252.345 306.273 250.661 303.643C246.709 296.829 240.061 291.16 233.765 286.548C233.842 285.921 233.919 285.282 233.996 284.644C239.136 279.988 244.023 275.376 250.386 272.36C250.595 271.402 250.804 270.434 251.002 269.454C253.226 278.92 256.792 289.256 263.209 296.73C267.491 301.805 273.028 305.558 279.258 307.848C279.368 321.706 278.631 335.806 279.808 349.62C280.04 356.005 279.808 362.301 280.854 368.641C282.604 395.092 285.995 421.466 290.453 447.597H293.821C292.313 435.423 290.089 423.304 288.526 411.119C286.094 389.698 283.639 367.893 283.276 346.351C282.065 333.792 281.933 320.979 283.529 308.442C294.041 308.794 304.465 308.728 314.856 306.868C332.765 303.489 351.081 296.334 364.95 284.226C373.283 277.302 379.854 268.804 385.358 259.525C391.742 248.672 396.916 237.136 400.471 225.05C403.3 215.364 405.898 205.083 405.766 194.934C403.344 193.283 400.955 191.951 398.215 190.883C396.718 187.889 395.199 185.424 392.535 183.31C391.984 184.334 391.456 185.369 390.95 186.414C392.26 187.702 393.217 188.748 393.691 190.553L393.988 193.723C394.164 195.627 394.351 197.543 394.527 199.447C380.933 202.243 366.205 199.04 353.316 194.483C347.041 192.259 341.747 188.12 339.964 181.461L342.363 182.066C341.835 179.7 341.307 177.344 340.723 174.989Z" fill="black"/>
<path d="M342.362 182.066L339.963 181.461C341.746 188.12 347.041 192.259 353.315 194.483C366.204 199.04 380.932 202.243 394.526 199.447C394.35 197.543 394.163 195.627 393.987 193.723C376.21 196.695 357.09 192.545 342.362 182.066Z" fill="#7DBCA6"/>
<path d="M215.436 182.649C214.401 182.561 213.367 182.517 212.343 182.506C210.263 187.669 208.468 190.432 203.779 193.547C203.933 194.592 204.087 195.649 204.242 196.695C206.641 195.385 209.371 194.174 211.11 192.006C213.279 189.353 214.621 185.952 215.436 182.649Z" fill="#1D3812"/>
<path d="M337.838 187.173C336.495 191.257 334.305 194.813 332.192 198.522C330.056 202.121 330.463 206.866 333.413 209.882C337.585 214.263 343.683 217.025 349.308 219.007C362.649 223.289 376.716 225.919 390.773 224.962C392.875 224.786 394.9 224.422 396.739 223.311C397.961 221.362 398.467 218.875 399.017 216.662C400.184 211.103 401.45 205.655 401.626 199.953C397.355 201.901 393.37 203.74 388.56 203.894C375.494 204.389 361.768 201.934 349.66 196.948C344.641 194.934 340.986 191.477 337.838 187.173Z" fill="#FDFDFD"/>
<path d="M235.349 186.271C233.775 187.79 232.201 189.32 230.604 190.828L230.814 188.704C228.843 195.847 226.279 202.815 224.396 209.992C226.587 209.32 228.81 208.638 230.957 207.823C232.002 200.47 234.864 193.723 235.349 186.271Z" fill="#547545"/>
<path d="M390.949 186.414C390.332 187.911 389.738 189.43 389.154 190.938C390.673 190.817 392.181 190.685 393.689 190.553C393.216 188.748 392.258 187.702 390.949 186.414Z" fill="#627870"/>
<path d="M399.501 194.802C397.663 193.734 396.397 196.145 397.718 197.488C399.534 198.555 400.844 196.134 399.501 194.802Z" fill="#979996"/>
<path d="M233.51 209.904C231.011 217.499 228.568 224.951 227.676 232.942C224.869 253.823 223.262 274.682 221.897 295.695C221.776 304.501 221.622 313.307 221.556 322.113C221.611 328.772 220.643 335.355 220.786 342.036C220.874 358.085 220.048 374.409 221.644 390.348C221.479 399.462 223.35 408.235 224.253 417.25C226.091 427.387 227.951 437.492 229.977 447.597H231.969C231.727 437.316 231.441 427.057 231.76 416.776C232.167 395.521 236.526 375.51 240.511 354.761C243.054 338.712 246.477 322.74 248.513 306.626C245.53 302.311 242.833 298.194 238.684 294.859C234.787 291.413 230.406 290.225 229.173 284.611C234.523 278.755 240.742 273.846 247.39 269.542C247.534 258.777 246.004 247.967 244.264 237.367C242.932 230.301 242.129 222.133 238.695 215.749C237.374 213.36 235.866 211.346 233.51 209.904Z" fill="#FDFEFD"/>
<path d="M329.671 211.291C325.081 216.915 323.716 223.476 322.781 230.498C321.768 230.509 320.756 230.509 319.732 230.52L319.666 227.361C315.626 229.409 311.961 231.456 309.748 235.584C307.734 238.699 307.591 241.979 307.514 245.567L304.366 245.898C304.344 242.673 304.443 239.458 304.531 236.244C292.39 233.713 279.83 232.777 267.447 233.371C262.196 233.151 259.015 239.282 257.144 243.355C250.462 261.55 255.163 283.785 269.01 297.467C273.556 302.057 279.709 304.897 286.192 305.095C295.824 305.326 305.301 305.514 314.768 303.334C335.483 299.404 355.253 290.367 369.65 274.605C381.703 261.407 390.377 245.006 395.54 227.956C385.644 230.025 375.682 228.561 365.644 226.954C352.809 224.114 339.05 221.285 329.671 211.291Z" fill="white"/>
<path d="M228.744 213.107C227.5 213.305 226.267 213.525 225.034 213.768C221.149 215.265 221.204 218.446 220.081 221.935C224.88 219.711 226.509 217.84 228.744 213.107Z" fill="#5A6F55"/>
<path d="M208.282 218.093C204.143 218.423 200.049 219.15 195.921 219.535C185.079 220.823 173.829 220.691 162.921 220.46C154.148 220.328 145.628 218.941 136.932 218.038C138.066 219.931 139.013 222.903 141.148 223.872C150.262 228.462 160.664 228.231 170.615 228.957C181.721 229.167 192.927 228.011 203.945 226.635C205.673 223.916 207.27 221.164 208.282 218.093Z" fill="#608948"/>
<path d="M225.992 223.124C223.196 223.894 219.839 225.094 217.913 227.361C215.711 230.477 214.368 234.197 212.409 237.488C209.041 243.652 204.605 248.859 200.246 254.308C206.08 250.565 212.123 246.834 217.351 242.254C219.685 240.075 222.338 237.576 223.626 234.604C224.858 230.917 225.552 226.987 225.992 223.124Z" fill="#75B39B"/>
<path d="M245.563 224.257C247.655 235.133 249.713 245.931 249.9 257.048C250.198 255.595 250.495 254.142 250.792 252.689C252.377 245.028 254.975 237.896 260.258 231.974C260.302 231.511 260.346 231.06 260.379 230.598C255.844 227.185 251.309 224.819 245.563 224.257Z" fill="#F8F8F6"/>
<path d="M142.865 228.957C147.29 237.147 153.069 245.446 160.697 250.928C160.972 244.291 161.996 238.666 164.682 232.579C157.373 231.555 150.108 230.388 142.865 228.957Z" fill="#73C1A5"/>
<path d="M202.491 230.212C197.78 230.641 193.113 231.368 188.468 232.227C190.504 235.727 192.353 239.26 194.082 242.915C196.547 239.921 198.848 236.817 200.73 233.404C201.324 232.348 201.908 231.28 202.491 230.212Z" fill="#7BBEA6"/>
<path d="M178.694 236.718C176.779 242.915 176.856 249.938 176.68 256.366C182.723 254.693 187.148 251.116 191.287 246.547C189.68 242.464 188.094 237.202 184.847 234.109C182.47 232.667 179.465 234.098 178.694 236.718Z" fill="#74C1A5"/>
<path d="M168.215 234.142C164.858 240.372 164.12 246.746 164.208 253.724C167.213 255.089 169.91 255.783 173.179 256.157C173.234 250.95 173.862 245.832 174.269 240.659C174.456 237.18 171.517 234.605 168.215 234.142Z" fill="#7DBAA3"/>
<path d="M134.202 236.222C131.45 239.756 129.887 244.511 128.17 248.617C125.77 255.166 122.435 262.376 122.402 269.399C128.247 273.658 132.738 279.052 137.218 284.655C137.427 271.446 137.416 258.248 137.438 245.039C137.592 241.616 136.106 238.93 134.202 236.222Z" fill="#FBFDFA"/>
<path d="M129.91 236.542C129.073 237.213 128.237 237.884 127.389 238.534C121.346 243.003 115.633 247.868 109.953 252.777C107.884 257.202 108.027 262.662 107.267 267.439C105.903 276.498 106.497 285.502 105.826 294.594C105.198 301.089 105.165 307.638 105.297 314.143C108.302 313.34 110.988 311.909 113.641 310.313C112.98 306.669 112.617 303.554 114.653 300.274C118.572 293.659 125.958 288.76 132.364 284.776C128.93 279.03 123.349 275.618 119.288 270.532C118.44 264.588 120.168 259.382 122.237 253.933C124.615 247.945 126.706 242.144 129.91 236.542Z" fill="#FDFDFC"/>
<path d="M222.789 241.913C217.329 247.042 211.793 251.379 205.607 255.606C200.653 262.189 193.95 265.227 187.378 269.872C188.721 278.05 190.604 285.337 188.435 293.659C186.08 303.961 179.09 310.896 177.593 321.188C176.723 327.088 176.327 333.45 177.659 339.306C178.396 342.707 180.884 344.182 183.46 346.131L183.823 346.395C187.136 346.824 190.097 347.275 192.552 349.741C198.661 354.782 197.736 366.021 191.22 370.259C188.589 371.723 185.309 372.328 182.392 372.934C179.343 373.506 176.14 373.517 173.058 373.649C173.135 377.337 173.234 381.013 173.333 384.7C181.148 384.579 189.007 384.579 196.812 384.018C203.658 383.347 210.472 382.378 217.329 381.861C217.55 361.222 217.12 340.528 217.715 319.889C218.661 311.094 218.166 302.277 218.925 293.471C219.751 286.086 219.333 278.667 220.125 271.27C221.138 261.495 221.688 251.676 222.789 241.913Z" fill="#6EC6A6"/>
<path d="M166.905 243.344C166.883 244.5 166.861 245.655 166.839 246.811C168.314 246.855 169.789 246.888 171.264 246.921C171.088 245.843 170.901 244.775 170.703 243.707C169.448 243.553 168.182 243.454 166.905 243.344Z" fill="#0D402D"/>
<path d="M141.345 246.591C141.334 255.265 140.487 263.906 140.575 272.58C140.432 309.862 140.168 347.154 140.146 384.436C146.772 385.009 153.343 385.361 160.003 385.119C155.919 384.491 151.835 383.963 147.697 383.721C147.355 347.76 148.445 311.832 148.291 275.882C148.5 270.158 147.818 264.159 148.797 258.512C149.304 257.797 149.854 257.092 150.427 256.421C147.234 253.317 144.35 249.871 141.345 246.591Z" fill="#63AC91"/>
<path d="M108.797 249.244C106.65 251.512 104.614 253.9 102.566 256.256C97.7121 261.858 95.4226 269.982 93.4192 276.994C91.3719 286.042 88.9613 295.332 88.3779 304.6C88.1357 304.831 87.8935 305.062 87.6514 305.294C86.9469 310.962 86.0993 316.576 84.8885 322.168C82.1807 337.413 77.8878 352.933 77.3265 368.355C76.3908 381.993 71.2724 396.313 70.9422 410.161C70.8652 416.303 70.9312 422.654 72.131 428.697C72.6704 432.329 77.8548 434.003 77.4366 437.646C77.6457 441.686 74.9929 444.691 72.5933 447.597H77.5136C80.0233 443.865 80.5957 439.759 81.091 435.39C87.5743 436.832 94.0026 438.13 100.662 438.296C100.761 441.4 100.86 444.493 100.948 447.597H105.637C103.568 446.969 104.405 443.821 104.129 442.093C104.074 430.139 104.052 418.196 103.964 406.242C105.891 406.936 107.828 407.607 109.787 408.212C109.677 407.145 109.567 406.077 109.457 405.009C103.029 401.157 99.6384 395.257 97.7231 388.19C96.9746 382.598 95.5327 377.348 95.3125 371.646C95.1584 367.232 95.0373 362.84 94.498 358.448C93.8926 350.049 94.2008 341.563 94.2228 333.142C98.0093 335.167 101.609 337.325 105.736 338.602C107.333 338.591 108.929 338.536 110.514 338.481C110.205 330.566 110.272 322.685 109.446 314.804C108.059 314.584 106.683 314.353 105.296 314.143C105.164 307.638 105.197 301.089 105.825 294.594C106.496 285.502 105.902 276.498 107.267 267.439C108.026 262.662 107.883 257.202 109.952 252.777C109.567 251.6 109.182 250.422 108.797 249.244Z" fill="black"/>
<path d="M205.607 255.607C200.136 258.656 193.972 259.877 188.579 263.004C185.97 264.445 183.273 265.689 180.532 266.856C183.053 277.016 185.1 286.68 181.919 297.049C180.048 303.246 176.261 308.398 173.84 314.287C172.607 319.218 173.52 324.744 173.069 329.829C172.629 334.728 172.387 339.373 173.553 344.205C176.922 344.667 180.191 345.174 183.46 346.131C180.884 344.183 178.397 342.708 177.659 339.307C176.327 333.451 176.724 327.088 177.593 321.188C179.09 310.897 186.08 303.962 188.435 293.659C190.604 285.337 188.722 278.051 187.379 269.872C193.95 265.227 200.654 262.189 205.607 255.607Z" fill="#66AB90"/>
<path d="M150.427 256.421C149.855 257.092 149.305 257.797 148.798 258.512C147.819 264.159 148.501 270.158 148.292 275.882C148.446 311.832 147.356 347.76 147.698 383.721C151.836 383.963 155.92 384.492 160.004 385.119C163.35 385.218 166.707 385.251 170.053 385.273C169.866 381.189 170.219 376.467 168.788 372.593C166.245 368.806 162.712 366.803 162.249 361.794C161.545 356.324 164.924 352.339 162.987 347.419C161.259 342.399 160.213 337.545 157.406 332.988C159.927 326.835 158.011 320.506 160.477 314.375C163.515 306.747 168.347 300.726 170.02 292.382C172.057 283.675 170.472 275.321 167.698 266.999C161.424 264.291 155.491 261.088 150.427 256.421Z" fill="#6FC5A6"/>
<path d="M104.009 259.503C100.894 265.612 98.1752 271.853 96.6452 278.557C92.6495 295.068 90.9214 312.107 87.2779 328.706C85.7369 337.105 83.5354 345.448 82.4127 353.891C81.6642 360.562 80.9157 367.21 80.2772 373.891C79.1765 384.569 75.5441 395.026 75.1588 405.736C80.8606 407.31 86.6615 408.212 92.4514 409.379C95.2032 409.511 97.9551 409.555 100.696 409.577C101.521 401.443 96.5791 396.666 94.6529 389.258C93.42 385.405 92.9577 381.454 92.4074 377.458C90.6022 359.978 90.7122 342.487 90.9104 324.931C92.0441 323.731 93.1779 322.52 94.3226 321.331C94.2346 318.084 94.1465 314.837 94.0695 311.579C95.3133 310.533 96.5571 309.498 97.812 308.475C99.1108 308.497 100.41 308.508 101.709 308.53C101.775 300.593 101.632 292.701 102.743 284.809C103.085 276.333 104.383 268.012 104.009 259.503Z" fill="#FDFDFC"/>
<path d="M176.416 267.593C174.897 267.494 173.378 267.417 171.859 267.351C173.565 276.157 175.92 283.895 173.587 292.932C171.572 302.696 164.869 310.005 162.634 319.471C160.73 331.227 163.889 342.256 169.272 352.625C170.439 352.438 171.605 352.262 172.761 352.086C171.771 346.505 168.567 342.223 168.05 336.543C167.577 331.348 167.533 326.031 168.204 320.847C169.756 310.896 177.483 302.927 179.278 293.372C181.105 284.93 179.872 275.486 176.416 267.593Z" fill="#E9DEBF"/>
<path d="M251.001 269.454C250.803 270.433 250.594 271.402 250.385 272.36C249.912 274.286 249.658 276.025 248.029 277.335C244.54 280.329 240.985 283.114 238.013 286.669C243.142 292.206 249.603 296.345 254.579 301.98C258.013 306.042 257.463 310.643 256.747 315.53C254.392 329.257 251.552 342.895 249.284 356.632C246.422 372.218 243.417 387.97 241.7 403.732C240.753 418.306 240.544 433.012 241.205 447.597H290.452C285.994 421.465 282.603 395.092 280.853 368.641C279.808 362.301 280.039 356.005 279.808 349.62C278.63 335.806 279.367 321.706 279.257 307.847C273.027 305.558 267.49 301.804 263.208 296.73C256.791 289.256 253.225 278.92 251.001 269.454Z" fill="white"/>
<path d="M250.384 272.359C244.022 275.375 239.135 279.987 233.994 284.644C233.917 285.282 233.84 285.92 233.763 286.548C240.059 291.16 246.708 296.829 250.659 303.642C252.344 306.273 251.738 309.322 251.397 312.25C248.799 327.209 246.334 342.19 243.626 357.127C240.687 373 237.164 388.542 236.174 404.701C234.303 418.79 235.073 433.386 235.271 447.597H241.204C240.544 433.012 240.753 418.306 241.699 403.732C243.417 387.97 246.422 372.218 249.284 356.632C251.551 342.895 254.391 329.256 256.747 315.53C257.462 310.643 258.012 306.042 254.578 301.98C249.603 296.344 243.141 292.206 238.012 286.669C240.984 283.114 244.539 280.329 248.029 277.335C249.658 276.025 249.911 274.286 250.384 272.359Z" fill="#E8E8E8"/>
<path d="M160.498 276.014C162.326 276.774 164.164 277.478 166.013 278.194C165.969 276.322 165.903 274.462 165.771 272.591C163.184 273.086 162.227 274.066 160.498 276.014Z" fill="#2D7058"/>
<path d="M135.765 286.185C133.355 288.21 130.724 289.916 128.148 291.711C123.954 294.683 120.52 298.26 117.053 302.024C116.403 313.384 118.451 324.292 119.276 335.564C122.975 373.033 128.236 410.414 134.114 447.597H135.996C136.139 423.017 136.206 398.427 136.228 373.847C137.317 345.228 136.734 316.51 137.383 287.869C136.844 287.308 136.305 286.746 135.765 286.185Z" fill="#FBFDFB"/>
<path d="M161.599 299.614C159.431 300.373 160.201 302.432 159.717 304.281C160.895 304.083 162.073 303.874 163.239 303.642C163.471 302.839 163.68 302.035 163.878 301.221C163.129 300.67 162.37 300.131 161.599 299.614Z" fill="#01452A"/>
<path d="M97.5813 312.294C97.3942 317.688 97.053 323.191 97.5483 328.574C97.5923 331.161 99.8929 332.074 101.533 333.693C103.635 327.055 102.502 320.297 100.377 313.824C100.091 312.801 98.3959 312.756 97.5813 312.294Z" fill="#78312D"/>
<path d="M112.033 314.397C111.196 316.554 110.437 318.635 110.679 321.001C111.108 325.8 111.361 330.677 112.077 335.443C112.616 336.379 113.508 337.116 114.73 337.677C116.59 334.86 116.425 331.877 116.073 328.706C115.511 324.226 115.159 319.735 114.763 315.233C113.86 314.925 112.947 314.65 112.033 314.397Z" fill="#294179"/>
<path d="M107.817 317.897C104.394 317.105 105.594 321.067 105.087 323.203C105.264 327.407 104.68 333.417 108.632 336.059C109.303 330.137 109.38 323.687 107.817 317.897Z" fill="#634534"/>
<path d="M95.6323 325.701C93.695 324.336 92.4952 327.473 94.7187 327.958C95.9405 327.616 96.2487 326.857 95.6323 325.701Z" fill="black"/>
<path d="M94.2241 333.142C94.2021 341.563 93.8939 350.05 94.4993 358.448C95.0386 362.84 95.1597 367.232 95.3138 371.646C95.534 377.348 96.9759 382.598 97.7244 388.19C99.6397 395.257 103.03 401.157 109.458 405.009C109.568 406.077 109.678 407.145 109.788 408.212C107.829 407.607 105.892 406.936 103.966 406.242C104.054 418.196 104.076 430.139 104.131 442.093C104.406 443.821 103.569 446.969 105.639 447.597H130.647C124.979 412.065 119.97 376.456 116.019 340.704L113.784 340.319C111.098 339.89 108.358 339.383 105.738 338.602C101.61 337.325 98.0106 335.168 94.2241 333.142Z" fill="#FEFEFE"/>
<path d="M119.277 335.564C118.407 336.279 117.549 337.006 116.701 337.743C115.721 338.591 114.753 339.449 113.784 340.319L116.019 340.704C119.97 376.456 124.979 412.065 130.647 447.597H134.115C128.237 410.414 122.975 373.033 119.277 335.564Z" fill="black"/>
<path d="M183.823 346.395C187.983 349.807 191.253 353.858 191.054 359.538C190.9 365.526 187.477 370.05 182.392 372.934C185.309 372.328 188.589 371.723 191.22 370.259C197.736 366.021 198.661 354.783 192.551 349.741C190.097 347.276 187.136 346.824 183.823 346.395Z" fill="#69A991"/>
<path d="M176.591 347.628C176.613 348.354 176.624 349.07 176.646 349.785C179.97 351.624 183.25 352.559 184.648 356.467C186.586 360.495 183.977 365.152 180.421 367.21C176.426 368.905 170.834 367.716 168.853 363.544C167.961 361.101 167.939 358.283 167.653 355.707C166.97 355.674 166.277 355.63 165.583 355.597C165.683 359.714 164.934 363.236 167.994 366.538C171.197 370.578 176.173 370.963 180.862 369.698C186.244 367.012 189.712 360.264 186.597 354.573C184.549 350.248 180.807 349.026 176.591 347.628Z" fill="#989796"/>
<path d="M175.226 354.398C173.003 354.299 171.979 356.566 171.242 358.305C170.504 362.576 175.425 366.33 179.233 363.743C182.249 362.51 181.115 358.459 181.115 355.917C179.211 354.882 177.472 354.034 175.226 354.398Z" fill="#E7E9E8"/>
<path d="M162.569 363.93C160.279 364.866 158.793 364.271 158.683 367.155C158.815 369.401 161.038 368.652 162.624 369.291C162.613 367.507 162.591 365.724 162.569 363.93Z" fill="#26654D"/>
<path d="M216.361 385.493C206.862 386.616 197.286 387.012 187.753 387.838C186.41 394.255 186.366 399.252 187.72 405.692C192.64 405.075 197.594 405.45 202.525 404.778C207.765 404.228 213.092 402.995 218.354 402.995C218.189 397.557 219.73 390.083 216.361 385.493Z" fill="#82421F"/>
<path d="M183.317 388.542C174.544 388.278 165.75 388.641 156.977 388.685C156.988 394.409 157.01 400.122 157.065 405.846C165.772 406.286 174.61 406.374 183.284 405.417C183.295 404.074 183.295 402.72 183.295 401.377C183.251 397.128 183.493 392.802 183.317 388.542Z" fill="#979C99"/>
<path d="M140.311 388.553C140.179 394.035 140.19 399.506 140.08 404.987C142.424 405.472 144.747 405.967 147.135 406.231C145.837 400.408 145.815 395.312 146.717 389.434C148.963 389.192 151.197 388.939 153.432 388.663C148.731 387.695 145.033 387.629 140.311 388.553Z" fill="#603116"/>
<path d="M153.432 388.664C151.197 388.939 148.963 389.192 146.717 389.434C145.814 395.312 145.836 400.408 147.135 406.231C149.282 406.088 151.428 405.802 153.575 405.681C153.652 400.001 153.597 394.343 153.432 388.664Z" fill="#7D4423"/>
<path d="M176.988 391.261C171.374 390.744 165.617 390.887 160.047 391.833C159.255 395.961 159.178 399.01 160.092 403.138C165.639 403.985 171.638 404.481 177.186 403.523C181.094 402.731 180.158 398.845 180.268 395.84C180.224 393.539 179.509 391.624 176.988 391.261Z" fill="#392D1C"/>
<path d="M163.272 394.993C163.25 396.721 163.217 398.449 163.173 400.188C167.94 400.728 172.232 400.606 176.955 399.858C176.823 398.383 176.69 396.897 176.514 395.433C172.122 394.464 167.73 394.552 163.272 394.993Z" fill="#6D452B"/>
<path d="M183.295 401.377C183.295 402.72 183.295 404.074 183.284 405.417C174.61 406.374 165.771 406.286 157.064 405.846C155.897 405.769 154.742 405.692 153.575 405.681C151.428 405.802 149.282 406.088 147.136 406.231C144.747 405.967 142.424 405.472 140.08 404.987C138.44 407.728 136.723 410.084 136.789 413.463C136.723 424.823 136.701 436.226 136.866 447.597H140.102C139.364 440.915 139.375 434.476 139.948 427.784C140.443 421.73 139.541 415.477 140.531 409.5C141.555 408.576 142.843 408.675 144.142 408.521C151.109 408.179 158.132 408.785 165.111 408.774C179.145 408.664 193.014 408.631 206.961 406.804C210.934 406.429 215.524 405.45 219.432 406.484C220.192 408.179 219.861 410.271 219.938 412.109C221.237 424.041 225.09 435.423 225.343 447.597H229.977C227.952 437.492 226.091 427.387 224.253 417.25C223.075 412.737 222.03 408.202 221.27 403.6C220.302 403.38 219.322 403.182 218.353 402.995C213.092 402.995 207.764 404.228 202.525 404.778C197.593 405.45 192.64 405.075 187.72 405.692L185.067 406.033C184.407 404.514 183.801 402.962 183.295 401.377Z" fill="#202D5E"/>
<path d="M206.961 406.803C193.015 408.631 179.145 408.664 165.111 408.774C158.132 408.785 151.11 408.179 144.142 408.521C142.843 408.675 141.555 408.576 140.532 409.5C139.541 415.477 140.444 421.729 139.948 427.784C139.376 434.476 139.365 440.915 140.102 447.597H141.533C141.764 435.5 142.722 423.491 142.425 411.361C144.428 411.096 146.443 410.81 148.457 410.667C153.729 410.909 158.683 411.999 163.999 411.372C170.24 410.612 176.46 410.744 182.723 410.865C194.457 411.074 205.992 408.378 217.616 408.267C218.409 409.544 219.19 410.821 219.939 412.109C219.862 410.271 220.192 408.179 219.432 406.484C215.525 405.45 210.935 406.429 206.961 406.803Z" fill="#1B3E9B"/>
<path d="M182.722 410.865C176.459 410.744 170.24 410.612 163.999 411.372C158.682 411.999 153.729 410.909 148.456 410.667C147.279 414.156 146.706 417.47 146.794 421.179C146.893 429.985 146.948 438.791 146.915 447.597H225.343C225.09 435.423 221.237 424.041 219.938 412.109C219.19 410.821 218.408 409.544 217.616 408.267C205.992 408.378 194.456 411.074 182.722 410.865Z" fill="#0440FA"/>
<path d="M142.425 411.361C142.722 423.491 141.765 435.5 141.533 447.597H146.916C146.949 438.791 146.894 429.985 146.795 421.179C146.707 417.47 147.279 414.156 148.457 410.667C146.443 410.81 144.428 411.096 142.425 411.361Z" fill="#0432C5"/>
<path d="M74.3987 409.346C74.1235 415.906 74.6849 422.291 75.4994 428.785C82.6212 433.342 92.4287 434.256 100.673 434.146C100.684 427.123 100.607 420.089 100.574 413.067C94.7073 413.034 89.0495 412.56 83.3146 411.272C80.3427 410.612 77.3817 409.94 74.3987 409.346Z" fill="#FEFEFE"/>
<path d="M81.0915 435.39C80.5961 439.76 80.0238 443.865 77.5141 447.597H83.7993C85.1422 445.373 86.7162 445.406 88.0701 447.597H100.949C100.861 444.493 100.762 441.4 100.663 438.296C94.0031 438.13 87.5748 436.832 81.0915 435.39Z" fill="#5E8848"/>
<path d="M83.7994 447.597H88.0703C86.7164 445.406 85.1423 445.373 83.7994 447.597Z" fill="#3A5030"/>
<path d="M117.43 71.9153C117.43 71.9153 182.744 6.9255 227.898 18.4003C248.822 23.7181 256.337 44.3789 290.065 99.9036C297.437 112.039 260.167 93.7296 250.823 86.4203C250.823 86.4203 257.435 113.746 251.777 116.216C241.209 120.828 109.006 82.4183 117.43 71.9153Z" fill="black"/>
<path d="M122.641 71.0589C122.641 71.0589 185.473 10.0857 226.213 20.5751C247.12 25.958 248.859 41.4371 286.828 98.4364C294.748 110.327 255.81 88.1496 246.466 80.8402C246.466 80.8402 253.824 111.496 248.166 113.965C237.598 118.579 114.217 81.5615 122.641 71.0589Z" fill="#FF0000"/>
<path d="M254.049 86.0143C245.682 78.9458 243.282 73.472 235.546 57.5588C235.546 57.5588 246.774 83.5618 248.301 89.6105C249.828 95.6593 247.982 84.0861 249.695 84.4574C251.407 84.8286 254.902 86.7351 254.049 86.0143Z" fill="black"/>
<path d="M235.548 57.5585C235.548 57.5585 265.567 94.0504 279.59 97.2442C279.59 97.2442 278.025 98.3863 277.685 98.8889C277.426 99.2706 258.842 93.6684 248.211 80.8879C243.813 75.6 238.314 63.2517 235.548 57.5585Z" fill="#DA0202"/>
<path d="M228.898 58.3189C228.898 58.3189 237.793 64.9433 246.337 84.057C249.429 90.9742 242.697 66.7403 228.898 58.3189Z" fill="black"/>
<path d="M255.687 122.404C255.994 120.021 256.464 118.302 250.503 111.816C243.846 106.759 238.522 104.314 234.17 102.885C232.76 102.422 241.816 103.451 240.675 102.849C222.289 93.1392 202.948 90.1945 202.948 90.1945L210.711 88.0613C199.764 82.8261 175.25 78.0601 164.139 77.0741L172.67 75.5775C157.212 71.5481 138.121 69.5295 128.02 71.3759C127.009 71.5609 128.922 69.2981 128.922 69.2981L121.809 69.4518C113.831 70.1316 110.021 72.1598 108.262 78.7956L105.845 89.4253C104.91 92.6739 109.192 96.3825 115.915 96.4935C115.915 96.4935 132.062 97.0729 178.497 110.12C222.363 122.445 236.18 135.16 236.18 135.16C242.943 139.56 247.938 137.213 251.872 131.618L255.687 122.404Z" fill="black"/>
<path d="M241.327 135.133C240.226 134.895 239.022 134.365 237.75 133.556C236.722 132.661 233.806 129.603 222.533 124.154C221.739 123.77 225.382 124.375 225.382 124.375C218.591 122.022 204.458 116.12 195.079 112.964C192.843 112.212 201.118 113.216 198.671 112.457C195.841 111.579 182.25 108.938 179.124 108.06C166.605 104.542 146.478 100.998 139.557 95.9012C138.65 95.2335 142.799 98.8392 141.702 98.6014C131.985 96.4952 125.395 95.3121 121.288 94.8794C117.36 94.4658 115.886 92.5994 116.031 92.967C116.671 94.5917 115.983 94.3307 115.862 94.3267L115.807 94.3252C114.849 94.3096 113.925 94.2064 113.062 94.0194C111.053 93.5839 109.394 92.6782 108.624 91.5964C108.246 91.0662 108.125 90.555 108.263 90.0756L108.289 89.9734L110.698 79.3762C112.114 74.0497 116.16 71.4931 125.438 71.229L123.334 73.4514C133.676 72.0238 139.887 69.8588 163.151 74.8896C162.71 75.229 157.031 77.7134 157.031 77.7134C157.031 77.7134 177.286 79.7883 204.7 88.152C204.487 88.4619 199.617 90.2061 199.617 90.2061C199.617 90.2061 210.438 93.0653 211.906 93.3835C219.221 94.9689 227.894 98.501 233.53 101.354C231.108 101.105 229.802 101.903 229.728 102.007C229.728 102.007 232.617 103.206 234.108 103.879C239.345 106.238 255.043 114.365 253.247 121.78L249.609 130.573C245.679 136.054 242.428 135.372 241.339 135.136L241.327 135.133Z" fill="white"/>
<path d="M247.484 133.042C244.537 135.812 242.224 135.328 241.338 135.136L241.323 135.133C240.223 134.894 239.022 134.361 237.748 133.552C236.721 132.66 233.804 129.602 222.532 124.151C221.739 123.768 225.383 124.373 225.383 124.373C218.588 122.02 204.458 116.117 195.076 112.961C192.842 112.208 201.118 113.213 198.67 112.454C195.837 111.576 182.251 108.935 179.126 108.059C166.606 104.539 146.478 100.996 139.556 95.8979C138.65 95.2305 142.797 98.8374 141.701 98.5998C131.983 96.4936 125.396 95.3123 121.288 94.8797C117.357 94.4637 115.887 92.5995 116.028 92.9648C116.669 94.5876 115.983 94.3288 115.861 94.3245L115.804 94.3253C114.845 94.3066 113.925 94.2041 113.064 94.0174C111.053 93.5815 109.395 92.6764 108.625 91.5934C108.243 91.0658 108.124 90.5514 108.263 90.0751L108.29 89.971L110.695 79.3743C111.676 75.6989 113.902 73.3458 118.234 72.1491C116.806 72.8436 113.276 74.3541 112.849 78.2973L111.145 86.8995C111.054 88.2556 111.663 89.2078 112.107 89.6951C113.453 91.1698 115.592 91.3375 117.603 91.7734C118.463 91.96 119.389 92.064 120.343 92.0813L120.4 92.0805C120.521 92.0847 121.208 92.3436 120.571 90.7219C120.425 90.3555 121.901 92.2207 125.827 92.6358C129.934 93.0681 136.522 94.2499 146.239 96.3562C147.34 96.5948 143.189 92.9868 144.095 93.654C151.017 98.752 171.144 102.296 183.665 105.815C186.789 106.69 201.434 110.811 204.267 111.688C206.71 112.447 199.094 112.28 201.329 113.033C210.711 116.189 223.999 120.607 230.789 122.959C230.789 122.959 226.817 122.768 227.609 123.151C238.886 128.603 241.26 130.416 242.291 131.309C243.56 132.117 244.761 132.65 245.867 132.89L245.877 132.892C246.214 132.965 246.767 133.085 247.484 133.042Z" fill="#E6E6E6"/>
<path d="M277.04 118.887C275.153 117.01 263.882 108.412 271.143 97.4295C273.27 94.2124 278.431 90.6845 281.663 89.2878C282.045 89.1224 278.526 93.8507 280.743 92.9409C287.946 89.9857 298.565 88.2933 304.737 91.1954C305.261 91.4415 299.464 92.8304 299.974 93.1192C300.684 93.521 309.967 98.422 312.278 106.482C312.278 106.482 310.326 104.562 308.725 105.941C307.773 106.762 310.564 110.559 306.987 118.077C305.255 121.719 299.725 126.887 295.202 126.542C295.202 126.542 296.25 123.292 295.267 123.425C283.85 124.973 273.873 121.687 273.234 120.301C273.166 120.156 278.086 119.929 277.04 118.887Z" fill="black"/>
<path d="M278.274 120.465C278.74 120.569 279.974 120.273 279.387 119.346C278.646 118.174 265.815 110.089 273.414 98.5548C274.471 96.9495 277.869 93.6719 277.56 94.4059C277.229 95.1977 276.967 97.7415 278.972 96.3383C283.676 93.0448 293.359 90.4408 298.877 91.7712C298.864 91.8949 296.798 92.3752 297.196 93.3436C297.477 94.0288 305.863 96.8202 310.488 104.49C308.767 103.162 307.023 104.137 306.959 104.661C306.609 107.551 308.271 110.665 305.649 116.275C304.252 119.265 300.865 123.207 298.433 123.884C298.14 123.316 299.059 121.495 297.605 119.756C297.309 119.402 297.456 120.423 295.231 121.273C286.998 124.418 278.552 120.786 278.274 120.465Z" fill="white"/>
<path d="M306.782 113.189C306.544 114.199 306.166 115.309 305.58 116.537C304.154 119.512 300.734 123.435 298.297 124.095C298.01 123.524 298.382 121.264 297.867 120.099C297.795 119.937 297.349 120.63 295.114 121.462C286.851 124.555 278.433 120.872 278.157 120.551C278.621 120.654 279.861 120.367 279.28 119.439C278.587 118.323 267.098 110.943 272.423 100.417C270.599 109.185 279.826 115.174 280.443 116.171C281.024 117.099 279.788 117.388 279.32 117.283C279.596 117.605 288.018 121.288 296.281 118.195C298.512 117.362 298.365 116.344 298.667 116.695C299.52 117.688 299.621 120.278 299.46 120.828C301.898 120.168 305.322 116.245 306.744 113.269C306.755 113.241 306.772 113.213 306.782 113.189Z" fill="#E6E6E6"/>
</svg>
