<svg width="467" height="643" viewBox="0 0 467 643" fill="none" xmlns="http://www.w3.org/2000/svg">
<g clip-path="url(#clip0_3_134)">
<path d="M190.667 1.61338C199.933 0.98671 209.067 5.24004 217.627 8.62671C226.387 12 234.24 17 242.733 20.88C249.4 16.3334 256.307 10.72 263.707 7.57338C272.6 4.16004 282.547 2.72004 292 1.85338C301.813 0.98671 311.507 2.28004 321.333 1.76004C332.08 1.08004 341.867 4.86671 352 7.84004C359.28 9.90671 367.427 12.3867 373.373 17.2534C379.64 22.1867 386.573 27.9067 390.88 34.7067C394.453 41.0534 397.8 47.5867 400.44 54.3867C401.547 56.88 402.16 59.3467 404.507 60.9867C411.453 66.2267 418.533 70.4267 423.853 77.5867C427.64 82.96 432.027 88.5467 434.24 94.7734C437.067 102.08 440.707 109.72 442.027 117.52C443.16 129.773 443.72 142.48 441.733 154.68C440.227 163.4 439.973 171.733 435.92 179.827C433.267 186.533 428.347 191 423.013 195.56C426.747 198.773 431.253 201.893 434.08 205.92C436.693 209.533 439.267 213.2 441.8 216.853C444.84 221.187 446.2 226.987 447.96 231.973C449.867 237.213 450.507 242.573 451.547 248.013C455.68 267.267 455.333 288.373 455.493 308C454.667 331.707 451.787 355.173 448.613 378.667C447.72 384.92 450.04 389.973 450.933 395.973C451.027 401.44 449.387 406.307 447.4 411.293C444.827 417.827 445.973 423.933 446.747 430.653C447.533 436.56 447.107 442.387 447.693 448.28C448.067 452.107 448.787 456.267 448.373 460.093C446.96 466.667 442.6 472.467 441.067 478.933C441.347 483.307 442.867 487.6 443.28 491.987C443.973 496.56 442.88 500.853 442.947 505.387C443.707 513.213 449.92 518.293 449.693 526.653C450.573 533.333 446.56 537.867 442.32 542.373C437.013 547.28 431.72 552.187 426.213 556.867C422.56 559.747 421.92 564.56 420.373 568.693C414.32 569.493 409.68 567.013 403.987 565.573C396.187 563.467 388.427 561.147 380.573 559.253C380.32 565.72 380.587 572.213 380.147 578.667C379.12 587.773 379.64 596.867 377.893 605.907C358.067 613.613 338.733 622.587 319.107 630.76C317.12 631.227 312.907 632.32 311.6 630.227C312.387 628.32 313.48 626.507 314.427 624.667C312.573 623.893 311.12 623.507 309.133 624.027C303.427 625.213 297.893 627.027 292.107 627.92C292.84 624.973 295.293 621.413 294.587 618.333C287.987 617.48 281.187 618.32 274.533 617.96C276.493 612.88 283.027 610.067 287.987 609C301.76 605.96 315.547 602.907 329.36 600.04C339.667 598.373 349.76 596.507 359.413 592.36C359.96 581.547 358.52 570.987 358.053 560.253C352.013 560.24 346.027 560.093 340 559.8C331.133 559.453 322.587 560.253 314.187 558.48C301.84 556.68 289.6 554.413 277.307 552.307C265.387 550.267 254.187 546.48 242.333 543.853C240.64 543.32 238.147 543.027 237.16 541.4C235.16 536.947 234.973 531.573 232.587 527.333C230.707 526.64 228.64 526.36 226.68 526.067C205.333 522.8 183.867 519.987 162.387 517.773C158.56 525.253 155.16 533 150.973 540.267C149.36 543 147.133 545.64 143.8 546.107C136.64 546.907 129.467 545.867 122.307 547.04C122.253 565.64 120.68 584.12 120.32 602.693C120.227 605.067 120.08 607.12 117.92 608.533C112.667 612.293 106.84 615.293 101.333 618.68C97.5865 621.027 93.5199 622.627 89.3066 623.96C72.2666 629.507 55.5865 636.093 38.6665 641.96L39.6132 642.667H38.1599C37.6532 641.827 37.1465 640.987 36.6532 640.147C39.1732 637.907 41.5199 635.613 43.0932 632.587C35.9199 632.147 28.8665 632.787 21.6799 632.747C22.1865 630.547 23.9865 627.32 22.8532 625.187C19.4132 624.613 15.8665 624.653 12.3999 624.307C13.6665 621.947 15.2532 620.027 17.1199 618.12C43.8665 610.787 69.9065 601.44 96.1199 592.453C97.8265 591.733 99.3866 591.293 100.253 589.507C102.08 578.093 102.293 566.173 101.867 554.627C100.667 550.907 99.3465 547.267 97.7199 543.693C91.2132 543.507 82.8265 543.8 77.0132 540.48C73.4265 538.707 73.1599 534.24 72.9332 530.733C72.7599 516.867 73.7065 503.133 73.0399 489.28C64.5199 482.8 55.4265 483.107 45.3332 481.213C38.6932 479.867 31.3599 481.133 24.9732 479.053C22.9865 473.427 22.5465 467.187 21.2799 461.36C18.9865 446.653 16.4532 432.107 14.8132 417.333C13.5465 409.4 12.8132 401.347 12.3599 393.333C11.4532 383.6 10.5465 373.88 10.8132 363.987C11.1199 358.6 12.9465 353.333 13.7999 347.987C14.5065 343.187 16.1199 338.72 18.2532 334.387C24.1065 322.2 29.3199 309.72 34.9865 297.453C36.8399 293.373 39.4132 289.587 40.9999 285.413C42.1999 282.12 41.4399 278.2 43.2265 275.293C46.5599 268.76 51.6399 264.56 56.3465 259.147C62.1865 252.44 68.7865 246.773 75.0799 240.48C80.8265 234.64 88.4132 230.6 94.8799 225.533C100.307 221.293 106.6 217.667 111.307 212.64C112.96 210.747 111.36 209.853 110 208.613C103.44 203.36 94.7199 198.347 89.9865 191.32C86.8265 187.053 86.6665 182.293 84.7465 177C81.4399 176.173 77.2265 175.653 74.6265 173.32C72.7465 171.747 71.9465 168.853 70.9199 166.68C65.8532 166.16 61.3599 164.747 58.7999 160.027C57.5199 155.533 57.2265 150.92 60.6799 147.32C63.7599 143.373 67.8532 143.133 72.3732 142.133C72.8665 139.84 73.5599 137.533 73.8132 135.2C70.7199 129.427 65.4665 124.84 62.3065 119.08C60.3999 114.667 61.7999 110.027 59.5599 105.973C57.1865 101.347 55.8132 97.3067 56.1865 92C55.8265 85.16 59.1065 79.7734 63.3999 74.7867C62.9199 71.9867 62.2799 69.2267 62.3065 66.4C62.9332 64.6667 64.8665 63.4 66.1732 62.16C70.3065 58.7334 73.8932 54.8 77.4665 50.8C81.8799 45.7467 87.6132 41.7067 93.9465 39.4267C99.7865 37.5867 106.493 37.84 112.587 37.7734C115.573 30.24 117.973 21.8134 124.627 16.6267C134.827 8.20004 146.013 6.74671 158.347 3.61338C168.373 0.413377 180.16 1.82671 190.667 1.61338Z" fill="#010101"/>
<path d="M197.6 6.44001C212.213 9.94668 226.613 17.76 239.853 24.6933C237 29.48 233.613 33.9067 230.6 38.5867C226.32 45.8267 223.2 53.72 221.533 61.96C211.947 62.92 202.92 59.8933 193.333 60.4133C179.187 59.7333 163.773 58.92 150.387 54.0667C143.2 51.5867 136.88 47.48 129.613 45.16C125.187 43.76 120.787 42.3467 116.56 40.3867C119.533 32.5733 121.547 24.48 128.667 19.3067C139.933 10.7333 151.867 10.3333 165.293 6.58668C175.867 5.33334 187.067 4.54668 197.6 6.44001Z" fill="#00A000"/>
<path d="M324.027 5.5067C333.92 6.80003 344.013 10.1067 353.56 12.9867C359.813 14.9067 365.747 16.92 370.933 21.0667C378.547 27.1867 385.76 33.04 389.827 42.2C394.04 49.4267 396.067 57.64 400.867 64.4667C404.32 69.7467 406.08 75.8934 409.253 81.3867C408.827 76.68 407.093 72.4667 405.587 68.04C411.64 70.92 416.507 75.48 420.587 80.7467C424.693 86.2667 428.507 91.88 430.88 98.4C434.093 106.96 438.053 114.667 438.067 123.987C438.867 140.707 438.107 157.173 433.667 173.373C430.96 181.507 425.573 190.093 417.293 193.4C408.253 197.2 398.667 199.867 389.227 202.467C375.2 205.16 360.84 206.547 346.653 208.147C335.147 209.653 323.773 208.72 312 209.307C294.667 209.72 277.32 209.907 260 210.8C243.133 211.413 226.187 211.147 209.333 212.267C191.227 213.36 172.88 210.627 154.653 209.96C143.12 209.627 131.68 208.4 120.2 207.227C112.853 207.253 107.013 200.187 101.053 196.28C94.5599 191.64 91.4666 185.853 89.6932 178.187C105.04 176.387 120.573 175.64 136.013 175.12C153.16 174.507 168.467 178.44 185.32 179.987C195.187 181.013 204.8 182.8 214.653 183.413C222.253 183.827 229.693 185.16 237.333 185.04C254.667 184.96 272.027 185.2 289.347 184.493C296.653 183.693 304.413 182.32 311.04 179.013C316.093 176.507 318.44 171.813 320.04 166.667C321.453 161.973 318.653 155.987 313.413 155.507C306.44 154.893 299.04 156.24 292.04 156.56C283.533 156.893 275.187 158.24 266.667 158.227C258.667 158.24 250.667 158.027 242.667 157.933C236.987 157.96 231.96 156.827 226.48 158.893L225.56 158.787C221.987 156.267 218.147 156.28 214.027 155.573C200.92 153.413 187.787 151.467 174.693 149.267C147.56 146.507 117.88 150.507 90.6666 150.28C85.5066 150.067 79.0799 149.933 75.7732 145.253C75.0532 142.12 77.3732 138.027 78.2799 134.96C84.7866 138.013 91.5732 141.16 98.5999 142.733C104.813 144.12 110.333 142.56 116.067 145.92C120.4 142.933 127.08 140.773 129.627 136.013C125.933 137.653 122.573 140.4 118.707 141.507C106.227 142.947 93.8799 140.453 82.7199 134.733C76.4266 132.2 73.9466 127.08 69.7999 122.133C67.4532 119.16 65.5332 116.587 65.7732 112.533C72.2266 116.053 77.7466 120.507 84.6399 123.28C101.427 129.787 118.2 131.333 136 132.44C146.04 132.493 156.787 133.2 166.653 131.307C179.613 128.693 192.333 123.627 205.427 121.8C209.6 124.2 212.56 128.373 217.12 130.453C233.733 139.587 251.013 141.547 269.533 143.427C278.667 144.48 288.253 143.587 297.373 142.507C309.76 140.92 320.973 136.933 332.653 132.8C334.6 132.093 336.013 130.773 337.56 129.453C333.027 129.64 328.907 131.08 324.733 132.72C304.733 140.293 282.533 143.173 261.333 139.987C247.227 138.84 233.693 135.213 220.467 130.32C216.693 128.133 212.333 125.907 209.48 122.56L209.76 120.493C215.733 119.173 221.92 124.12 228 124.987C239.947 126.76 251.987 128.173 264 129.493C277.84 130.32 292.547 128.547 305.16 122.48C315.493 117.013 325.493 111.227 334.907 104.28C343.44 97.9867 354.92 93.48 361.04 84.92C365.8 79.8134 371.107 75.5334 378.427 75.2534C378.92 74.7467 379.4 74.24 379.893 73.7334C369.12 73.1334 359.4 70.6267 349.427 66.6534C343.44 64.2934 336.893 61.44 330.467 60.6667C315.653 59.44 301.24 61.3067 286.68 63.8267C271 66.8 257.467 73.0267 242.893 78.9734C237.187 81.36 231.32 81.8267 225.4 83.4134C218.467 85.2134 211.96 88.2667 204.987 89.9867C210.293 80.76 220.387 74.2267 223.373 64.2934C239.2 58.6134 255.587 54.4667 271.36 48.6C278.267 46.08 284.773 46.52 291.987 45.5067C301.733 44.12 311.56 43.4534 321.333 42.1867C326.813 41.4 332 42.4134 337.347 43.5067C344.867 45.0134 352.067 45.84 359.307 48.56C362.32 49.7334 365.013 50.2667 368.24 50.4134C357.427 44.3334 346.493 43.8934 334.707 41.2134C324.6 39.0134 312.933 41.5734 302.68 42.6534C293.667 44.16 284.56 44.2934 275.533 45.3867C258.4 51.1734 241.493 57.3467 223.907 61.84C225.147 54.8 227.907 48.2934 231.2 41.9867C237.587 30.1734 248.627 21.4134 259.947 14.5867C265.973 10.76 273.08 9.16003 280.027 7.9467C294.6 5.60003 309.267 3.85336 324.027 5.5067Z" fill="#00A000"/>
<path d="M110.667 42.24C123.053 42.7067 136.227 50.04 147.36 54.92C160.56 59.6267 175.373 61.3867 189.333 61.72C199.173 61.72 208.787 63.56 218.613 63.9867C221.867 64.2267 219.707 67.84 218.907 69.4667C214.467 76 208.147 81.24 203.787 87.84C202.027 90.68 201.493 94.4133 200.16 97.48C197.64 99.0667 194.893 99.6533 191.973 98.9867C178.16 95.9067 165.907 90.52 152.707 85.92C145.867 83.2667 139.307 79.8667 132.667 76.76C126.32 73.8 121.16 70.28 114.453 68.4667C101.373 64.9333 88.4268 61.5467 74.8401 60.72C79.2401 55.5067 83.4934 50.4 89.2934 46.6667C95.1068 42.5333 103.787 42.5733 110.667 42.24Z" fill="#00A000"/>
<path d="M322.667 62.2133C331.413 62.2666 339.84 64.7333 347.787 68.2533C354.813 71.3466 362.16 72.7199 369.427 75.1999C365.813 78.1199 361.733 80.6133 358.96 84.2133C354.64 90.0133 348.12 93.1466 342.173 97.0799C333.853 102.107 326.213 108.133 317.867 113.12C317.947 106.613 317.84 100.2 316.707 93.7866C314.453 91.7199 312.72 89.5733 309.667 88.6933C303.08 86.7866 296.213 84.8133 289.333 84.5466C278.573 84.4399 267.893 84.8399 257.347 87.2266C249.8 88.7199 239.92 90.0133 234.147 95.6266C228.267 102.267 228.44 114.027 227.4 122.467C221.307 120.48 213.173 118.84 209.173 113.44C205.733 109.613 203.24 105.187 201.08 100.547C202.213 98.1333 203.147 95.7066 203.947 93.1599C213.4 89.2133 223.333 85.7866 233.4 83.8133C244.213 81.3999 254.827 75.9066 265.173 72.1199C273.653 69.1733 282.44 66.2933 291.347 65.0533C301.6 63.9599 312.32 62.0799 322.667 62.2133Z" fill="white"/>
<path d="M74.6266 63.1467C87.8266 63.5334 101.693 67.32 114.4 70.8C121.307 72.7334 126.787 76.7067 133.56 79.6667C141.04 83 148.227 87.0534 155.92 89.4667C162.48 91.5734 168.707 94.4934 175.307 96.4934C179.653 97.8134 183.987 99.1334 188.2 100.827C178.507 102.04 168.293 101.467 158.96 98.48C143.333 94.32 128.973 85.12 113.613 79.7334C108.693 78.24 103.507 77.52 98.4799 76.4667C88.0666 74.5067 78.3199 72.2134 67.6266 73.2C67.4799 71.3067 66.8533 69.1334 67.3333 67.2934C69.1733 64.96 71.3999 62.7867 74.6266 63.1467Z" fill="#01A102"/>
<path d="M69.1333 75.6C75.52 74.08 82.9733 75.88 89.3866 76.9333C99.2666 78.9467 110.333 79.9867 119.413 84.2933C133.4 90.4267 146.467 97.2933 161.347 101.333C173.867 104.48 186.4 103.627 198.8 100.413C201.56 107.413 206.24 112.667 210.493 118.653C195.08 120.947 180.453 126.04 165.307 129.44C156.507 130.653 147.413 130.413 138.547 130.187C138.92 123.573 136.88 117.373 133.467 111.787C128.24 104.293 122.253 97.3733 115.533 91.16C111.947 87.9333 107.213 86.7067 102.64 85.56C97.7333 84.2533 91.8266 84.6533 87.5333 87.5067C79.4666 95.24 79.0133 107.147 78.08 117.56C71.9466 113.653 64.08 109.867 61.9066 102.373C59.84 96.3333 59.44 88.48 62.8533 82.8267C64.4133 79.9333 66.0533 77.0933 69.1333 75.6Z" fill="white"/>
<path d="M292.533 91.2C293.72 94.7867 293.973 97.0266 292.853 100.707C288.813 102.653 283.96 105.84 279.36 105.733C276.173 104 276.2 99.8666 276.707 96.7466C281 92.2266 286.427 90.8 292.533 91.2Z" fill="white"/>
<path d="M110.653 95.24C114.12 94.8667 113.973 99.2134 114.293 101.56C112.253 102.12 110.053 103.16 107.92 103.04C103.947 101.453 107.027 94.7067 110.653 95.24Z" fill="white"/>
<path d="M98.7067 109.32C101.4 111.253 100.707 113.613 100.827 116.507C97.0934 117.347 94.0534 118.427 90.4267 116.44C87.8134 113.88 88.8667 111.08 88.8001 107.787C92.5467 106.787 95.6667 106.533 98.7067 109.32Z" fill="white"/>
<path d="M254.44 112.16C256.787 113.68 254.64 117.133 252.827 118.147C249.867 120.133 247.254 119.067 244.2 118.093C244.254 115.92 244.36 113.76 244.6 111.6C248.094 110.173 251.427 109.067 254.44 112.16Z" fill="white"/>
<path d="M115.067 115.067C117.253 113.52 120.107 116.227 118.013 118.013C116.32 120.293 113.267 117.027 115.067 115.067Z" fill="#7F7C7D"/>
<path d="M289.774 113.787C290.694 114.72 291.574 115.693 292.4 116.693C292.16 118.307 291.56 119.92 291.094 121.48C288.587 122.32 286.094 123.16 283.574 123.933C282.294 121.72 280.707 120.307 281.72 117.547C283.24 114.053 286.6 114.6 289.774 113.787Z" fill="white"/>
<path d="M337.56 129.453C336.013 130.773 334.6 132.093 332.653 132.8C320.973 136.933 309.76 140.92 297.373 142.507C288.253 143.587 278.667 144.48 269.533 143.427C251.013 141.547 233.733 139.587 217.12 130.453L220.467 130.32C233.693 135.213 247.227 138.84 261.333 139.987C282.533 143.173 304.733 140.293 324.733 132.72C328.907 131.08 333.027 129.64 337.56 129.453Z" fill="black"/>
<path d="M209.36 134.867C216.533 136.493 221.96 141.12 229.013 143.093C235.64 144.88 240.44 149.053 247.32 149.747C250.48 150.533 254.48 149.827 256.333 152.92C251.547 152.92 246.547 152.68 241.907 151.36C237.48 149.787 233.56 147.187 228.987 145.907C222.693 144.107 217.267 140.573 211.213 138.04C209.707 137.653 209.093 136.6 209.36 134.867Z" fill="black"/>
<path d="M70.5999 146.413C74.7199 148.387 78.2532 151.6 82.8932 152.333C88.0532 153.08 93.4532 152.853 98.6666 152.8C123.307 152.72 147.147 149.92 171.987 151.56C183.653 153.093 195.213 155.547 206.853 157.307C213.347 158.173 219.28 159.947 225.56 158.787L226.48 158.893C230.453 160.92 234.347 160.373 238.627 160.52C252.813 160.56 265.987 161.573 280.027 160.027C287.027 159.24 294.08 159.333 301.093 158.48C305.133 158.187 309.547 157.6 313.547 158.453C316.933 160.027 317.533 162.733 316.707 166.173C315.28 170.213 313.867 174.48 309.547 176.16C295.013 182.907 278.28 181.48 262.68 181.973C249.827 181.773 236.707 182.76 224 181C206.933 179.653 190.013 177.24 173.053 175.013C144.973 169.8 118.76 173.427 90.6666 174.453C84.4666 174.333 76.3999 173.307 74.8266 166.04C87.4132 165.453 100.067 166.973 112.44 165.96C128.653 164.267 146.387 159.893 162.667 161.533C175.76 162.253 188.76 163.773 201.4 167.44C219.76 171.187 237.213 174.827 256 174.347C261.013 174.107 266.667 174.667 271.267 172.613C263.04 172.107 254.893 173.227 246.667 172.507C232.76 171.267 218.773 168.84 205.093 166.053C181.707 159.573 155.987 156.747 131.987 161.187C123.133 162.573 114.227 163.213 105.333 164.307C98.9999 165.027 93.0932 163.213 86.6666 163.4C80.9599 163.267 74.8532 164.067 69.2532 162.88C65.9732 162.173 64.1999 159.773 61.8132 157.64C62.2132 154.533 61.4666 151.56 63.9332 149.24C65.7599 147.493 67.8666 145.44 70.5999 146.413Z" fill="#C8605F"/>
<path d="M412.293 199.28C409.32 204.4 404.747 207.893 399.24 209.947C390.773 213.04 382.427 216.427 374 219.613C367.84 221.987 361.787 222.04 355.373 223.2C351.6 223.88 347.84 224.573 344 224.813C340.52 225.187 337.4 224.947 334.387 227.053L333.72 226.96C327.827 224.667 320.493 227.8 314.667 229.347C307.067 231.707 299.8 231.253 292 231.84C271.8 233.533 250.88 232.64 230.667 231.52C219.053 231.56 207.587 230.12 196 229.76C183.107 229.013 170.28 226.387 157.333 225.987C143.6 225.467 130.2 219.653 119.747 210.92C127.453 210.96 134.96 212.707 142.667 212.76C163.587 213.333 184.507 216.56 205.333 215.773C220.867 215.32 236.453 215.4 251.96 214.36C264.76 213.84 277.84 214.133 290.667 213.147C306.64 212.427 322.693 213.027 338.68 212.44C354.707 210.827 370.72 209.08 386.64 206.533C395.28 204.933 403.773 201.507 412.293 199.28Z" fill="#00A001"/>
<path d="M421.333 200.4C428.84 203.973 433.733 213.48 438.587 220.053C443.48 230.147 446.32 240.8 447.667 251.933C450.387 262.973 450.213 274.08 450.987 285.333C450.947 296.213 451.773 307.267 450.6 318.08C449.48 338.813 446.32 359.413 444.173 380.04C443.293 386.72 446.76 392.133 446.307 398.667C446.227 404.667 443 408.92 441.88 414.627C440.6 423.893 443.093 432.267 443.147 441.333C443.173 447.173 443.853 452.973 444.093 458.8C442.987 465.227 438.48 470.893 436.96 477.253C436.373 482.04 438.32 487.2 438.947 491.973C439.813 496.173 438.693 499.88 438.253 504.013C438.653 510.787 441.987 515.667 444.493 521.613C445.173 524.907 445.587 529.24 444.48 532.44C438.707 542.253 427.24 548.493 419.973 557.16C418.587 559.387 417.947 562.213 417.187 564.68C406.587 561.707 396.053 558.533 385.387 555.84C382.693 555.187 380.08 555.267 377.333 555.253C358.36 555.547 339.227 555.733 320.267 555.027C300.653 551.413 280.533 549.387 261.36 544.067C254.493 542.493 247.747 540.48 240.88 538.907C239.373 533.467 237.947 528.08 235.56 522.947C230.147 510.88 226.587 498.76 220.773 486.987C218.853 483.053 215.933 479.387 214.573 475.24C213.147 468.707 213.093 461.853 211.693 455.32C211.107 452.32 210.187 449.68 209.933 446.68C208.627 430.267 208.067 413.787 207.187 397.333C206.56 387.107 208.253 377.133 208.627 366.667C208.973 362.333 208.507 358.427 210.48 354.48C213.56 348.24 216.747 342.053 219.68 335.733C222.173 330.36 223.827 324.68 226.173 319.253C235.213 322.893 244.04 327.8 253.333 330.68C259.507 332.653 265.507 332.613 271.88 333.173C281.493 334.267 291.32 333.853 300.987 333.907C300.933 333.053 300.88 332.2 300.84 331.347C287.133 330.96 273.52 331.027 259.88 329.36C248.16 327.48 237.333 320.52 226.107 316.4C226.867 311.04 227.947 305.973 230.16 301.013C237.147 296.92 245.68 293.147 251.453 287.44C257.72 279.72 262.853 271.067 269.067 263.28C272.547 265.853 276.44 268.093 279.56 271.107C282.6 274.373 285.173 278.053 288.173 281.347C290.347 278.933 291.32 276.48 292.24 273.347C295.667 276.2 295.667 280.987 298.693 283.907C300.28 285.547 302.547 284.693 304.627 284.773C304.52 284.093 304.427 283.413 304.333 282.72C301.533 280.293 297.92 276.413 300.573 272.613C305.4 268.307 312.867 266.48 318.68 263.707C325.48 260.507 332.947 258.68 339.213 254.827C343.693 252.093 345.44 246.333 349.333 242.693C354.253 238.307 358.947 234.267 365.787 233.493C365.973 232.333 366.16 231.173 366.347 230C369.347 230.307 370.747 229.267 372.133 232.68C373.227 232.667 374.333 232.653 375.427 232.64C375.28 235.28 375.147 237.933 375.04 240.587C375.907 241 376.787 241.387 377.68 241.76C376.413 241.893 375.147 242.013 373.893 242.12C374.013 239.76 374.213 237.4 374.347 235.04L373.4 235.147C371.88 231.8 367.04 231.347 365.333 234.667C367.173 234.933 369.013 235.187 370.867 235.453C371.213 238.52 371.867 241.293 372.827 244.227C368.227 245.48 363.573 246.453 358.933 247.507C359.573 248.587 360.2 249.667 360.827 250.76C357.947 257.16 354.227 263.253 350.72 269.333C346.733 275.36 343.213 281.293 337.667 286.067C333.613 286.173 329.333 286.413 325.307 285.92C322.627 285.56 320.08 283.533 317.773 282.173C317.067 282.707 316.347 283.24 315.627 283.773C315.587 285.387 315.533 287 315.493 288.613C318.253 289.787 321 291.013 323.667 292.4C312.627 292.933 301.493 292.307 290.44 293.093C287.227 293.8 283.56 296.24 283.693 299.92C283.547 306.187 283.733 312.467 283.707 318.733C284.12 320.267 284.52 321.8 284.92 323.333C294.213 327.56 303.12 325.467 313.333 325.947C318.92 325.693 325.853 326.867 330.933 324.347C332.48 323.48 334 323.187 334.267 321.16C334.773 316.373 334.387 311.48 334.507 306.667C334.32 302.013 335.427 297.947 332.533 293.867C336.453 293.68 339.773 293.787 342.387 290.48C346.507 285.48 351 282.067 353.693 276.387C358.413 267.187 363.427 258.08 367.72 248.667C372.52 247.32 377 246.587 381.373 244.013C388.227 239.92 393.107 233.533 398.2 227.467C402.733 221.973 406.04 215.8 409.733 209.787C413.413 206.56 417.32 203.187 421.333 200.4Z" fill="white"/>
<path d="M405.507 210.84C403.053 218.56 397.4 224.867 392.453 231.107C388.733 235.867 384.187 239.653 378.693 242.2C378.04 240.547 377.373 238.907 376.693 237.267C377.24 235.92 377.813 234.56 378.347 233.2C376.24 231.493 370.867 229.96 370.747 226.933C381.48 219.853 393.227 214.587 405.507 210.84Z" fill="white"/>
<path d="M119.827 216.813C113.027 224.773 104.747 231.307 98.4533 239.8C94.56 245.24 89.3733 250.4 88.6266 257.32C88.0533 266.613 88.64 276 88.4933 285.32C83.9733 289.453 79.52 293.2 81.24 300.067C82.88 306.947 88.4533 308.573 94.88 308.667C100.653 305.667 104.56 300.147 102.173 293.52C100.147 288.32 95.9866 286.92 91.2933 284.907C89.5866 277.827 90.4 269.92 90.3733 262.667C90.32 258.413 91.6933 254.6 93.64 250.893C101.093 237.293 111.627 228.227 122.587 217.747C124.013 218.413 125.44 219.093 126.867 219.773C128.187 223.867 129.933 227.827 131.147 231.96C133.067 243.227 131.08 252.973 136.653 263.467C138.92 263.787 140.893 262.573 142.947 261.773C146.8 260 150.76 258.533 154.907 257.573C151.947 261.893 148.773 265.653 147.147 270.733C145.787 273.987 146.213 277.827 144.853 280.987C140.667 285.64 134.867 287.853 133.12 294.533C132.293 302.333 133.093 310.28 132.387 318.067C130.72 323.813 126.987 328.893 125.213 334.653C122.027 345.2 119.973 356.16 116.453 366.64C112.507 376.347 113.267 388.32 112.413 398.707C111.453 408.533 112.467 418.173 112.787 428C113.04 435 113.627 441.96 115.307 448.773C117.587 458.293 119.467 467.907 122.013 477.36C124.187 484.533 123.44 492.88 123.507 500.36C110.507 497.093 97.5866 493.733 84.6133 490.373C81.24 489.493 78.4133 487.68 75.5866 485.707C65.0533 477.6 48.5733 477.493 35.8933 475.84C33.4 475.707 30.8933 475.6 28.4 475.493C24.48 455.6 21.52 435.453 19.0133 415.333C18.04 408.92 17.12 402.533 16.84 396.04C16.48 385.027 14.0666 371.907 15.6133 360.28C17.5466 351.973 18.4666 343.307 22.3066 335.92C27.92 324.027 33.16 311.973 38.6133 300.013C41.0666 294.387 45.3866 288.707 45.9866 282.627C46.3466 279.24 47.2933 276.227 49.4 273.507C59.16 261.867 69.7466 251.32 80.8933 241C91.9866 232.68 104.133 225.053 114.613 215.827C115.813 214.133 119.507 214.707 119.827 216.813Z" fill="white"/>
<path d="M132.013 221.88C141.227 227.227 150.707 227.16 161.013 228.76C162.493 236.96 163.067 245.027 159.187 252.68C151.827 253.28 145.627 256.467 138.747 258.733C135.56 251.267 136.733 244.24 135.64 236.013C135.853 230.76 133.427 226.707 132.013 221.88Z" fill="white"/>
<path d="M352.56 226.253C357.467 225.133 362.627 224.76 367.653 224.947C363.8 228.893 359.12 231.467 354.787 234.787C348.92 239.147 343.693 244.4 337.653 248.48C331.013 251.96 324.013 255.027 317.067 257.88C313.547 258.733 310.173 259.947 306.747 261.12L308.04 257.64C313.56 253.293 318.867 248.693 324.467 244.44C330.787 239.6 338.72 236.467 345.28 231.92C347.787 230.16 349.973 227.893 352.56 226.253Z" fill="white"/>
<path d="M333.72 226.96L334.386 227.053C337.253 227.507 340.293 227.333 343.2 227.387C336.573 233.333 327.76 236.507 320.733 242.08C316.053 245.853 311.52 249.787 306.813 253.52C299.706 259.013 293.88 266.44 287.84 273.08C283.04 267.413 277.08 263.68 270.933 259.667C273.693 255.907 275.813 251.573 280.613 250.227C288.48 247.947 295.52 244.093 302.4 239.733C305.133 238.187 306.28 235.693 307.84 233.12C311.92 232.507 315.813 231.507 319.733 230.227C324.6 228.653 329.533 228.867 334.493 227.573L333.72 226.96Z" fill="white"/>
<path d="M164.573 229.333C170.84 228.827 177.547 230.64 183.8 231.36C191.387 232.493 199 232.6 206.667 232.813C228.733 234.387 250.92 235.573 273.053 235.6C283.653 235.64 294.187 233.907 304.773 234.24C298.24 242.667 284.133 245.08 275.2 249.827C267.48 260.187 259.573 270.987 252.36 281.693C246.693 290.44 235.307 293.293 227.693 299.707C222.44 304.733 224.107 311.173 222.867 317.613C220.213 320.427 213.96 318.453 210.347 318.613C214.413 319.667 218.44 319.68 222.613 319.48C220.653 331.013 212.76 340.24 207.827 350.467C205.573 356.427 203.92 362.933 203.64 369.32C203.373 385.213 202.467 400.813 204.093 416.693C204.56 427.307 204.813 438.013 204.867 448.64C189.453 448.467 174.067 446.28 158.667 445.413C146.027 444.747 134.893 440.253 122.893 436.867C120.973 436.28 119 435.653 117.187 434.747C116.453 431.267 116.653 427.533 116.573 424C116.253 409.347 116.307 394.587 117.573 379.987C118 373.2 120.733 367.533 122.36 361.027C124.32 353.16 126.68 345.4 128.813 337.573C130.573 331.507 134.2 326.147 135.987 320.147C137.973 311.56 135.84 302.2 137.813 293.72C140.24 289.493 145.147 286.48 148.813 283.347C149.493 279.04 149.533 274.04 151.44 270.08C155.147 262.867 161.92 256.093 164.453 248.373C166.08 242.507 164.56 235.4 164.573 229.333Z" fill="#00A000"/>
<path d="M420.027 240.227C423.333 244.867 425.04 250.787 426.893 256.133C428.627 264.053 425.6 270.653 420.787 276.747C418.853 284.373 420.16 293.653 419.387 301.133C418.067 304.973 415.067 308.653 412.12 311.413C409.44 311.56 406.667 311.027 404 310.733C401.72 316.88 399.64 323.133 397.12 329.2C395.293 333.56 391.387 336.827 388.093 340.107C378.08 349.813 368.213 359.453 356.613 367.267C355.547 373.093 356.04 379.48 355.6 385.36C355.413 388.267 353.453 391.08 350.707 392.147C348.32 390.88 346.147 389.013 344.04 387.307C342.08 388.347 340.107 389.36 338.133 390.36C335.947 386.507 335.96 382.387 335.333 378.053C331.56 377.173 327.827 376.173 324.213 374.773C330.733 368.493 338.773 363.653 345.693 357.787C347.907 355.973 349.107 352.96 350.373 350.44C357.213 335.44 363.493 319.747 367.453 303.72C368.56 300.787 366.547 299.613 365.093 297.387C364.853 291.987 364.773 286.64 363.667 281.32C362.853 275.693 361.213 269.813 361.547 264.12C362.907 264.093 364.28 264.227 365.64 264.507C366.24 275.36 369.347 285.76 369.573 296.68C383.333 300.227 397 304.213 410.8 307.6C412.373 305.04 414.333 302.573 415.533 299.8C416.093 293.227 415.253 286.56 415.947 279.947C415.947 273.587 422.507 270.693 422.88 264.027C424.973 256.227 419.4 251.213 418.053 243.733C417.6 242.267 419.253 241.267 420.027 240.227Z" fill="#010201"/>
<path d="M366.627 249.573C361.16 259.507 356.36 270.04 350.693 279.76C346.867 284.067 343.2 288.947 338.667 292.507C334.04 293.173 326.267 292.187 321.92 290.28C319.8 289.333 317.96 287.067 321.093 285.947C326.667 287.067 331.827 288.053 337.56 286.867C339.507 285.88 341.2 284.253 342.627 282.627C349.907 273.12 355.907 262.827 361.293 252.133C362.52 249.4 364.04 249.853 366.627 249.573Z" fill="#EAEAEA"/>
<path d="M337.294 249.973C338.854 250.2 340.36 250.867 341.814 252C334.48 257.88 325.467 259.573 316.76 263.693C311.36 266.347 304.587 268.053 300.054 272.027C296.84 275.28 303.174 281.2 298.107 282.88C296.107 278.453 294.774 274.547 295.334 269.6C297.16 266.68 299.72 266.213 302.814 265.52C308.334 263.24 313.854 261.373 318.987 258.24C325.027 255.453 330.987 252.107 337.294 249.973Z" fill="#F0F0F0"/>
<path d="M308.04 257.64L306.747 261.12C310.173 259.947 313.547 258.733 317.067 257.88L318.987 258.24C313.853 261.373 308.333 263.24 302.813 265.52C302.467 264.587 302.133 263.667 301.787 262.747C303.827 260.973 305.907 259.28 308.04 257.64Z" fill="#A3A3A4"/>
<path d="M266.84 279.333C268.667 278.267 269.813 280.693 268.533 281.987C266.68 283.173 265.547 280.64 266.84 279.333Z" fill="#ACACAC"/>
<path d="M88.5866 288.72C96.0799 286.147 103.333 294.933 99.0265 301.613C96.9465 306.813 88.9866 308.04 85.5466 303.747C81.3866 298.933 82.7599 291.493 88.5866 288.72Z" fill="#FEFEFE"/>
<path d="M94.6266 292.907C93.0933 294.947 92.24 296.293 89.6133 296.973C89.7733 297.693 89.9333 298.427 90.08 299.147C90.7733 299.227 91.4666 299.307 92.16 299.387C93.08 297.187 94.5733 296 96.4 294.587C96.2933 298.427 97.4933 301.2 93.2266 302.613C88.5466 304.013 85.6 299.32 87.3466 295.267C89.1866 292.24 91.4266 293.227 94.6266 292.907Z" fill="#454545"/>
<path d="M290.6 296.84C294.32 296.4 298.24 296.907 301.973 297.067C297.733 299.813 292.813 299.213 288.467 301.64L288.093 301.787C288.493 299.493 288.173 297.96 290.6 296.84Z" fill="#089BBA"/>
<path d="M301.973 297.067C310.373 296.627 318.747 297.04 327.147 296.72C328.147 298 329.147 299.28 330.147 300.56C326.787 301.467 323.493 302.027 320 301.907C309.453 301.653 299 302.373 288.467 301.64C292.813 299.213 297.733 299.813 301.973 297.067Z" fill="#03C1EE"/>
<path d="M327.147 296.72C328.413 297.373 329.693 298.053 330.96 298.747C331.667 305.867 331.28 313.133 331.253 320.28C329.053 321.333 326.587 323.147 324.08 323.187C317.4 323.4 310.693 323.147 304 323.227C298.693 323.173 293.68 323.8 288.547 322.013C287.653 318.24 288 315.187 288.867 311.44L290.453 314.947L291.493 315.733L289.787 315.493L290.227 318.64C293.44 318.84 296.627 318.693 299.827 318.587L299.787 316.16C299.76 311.587 299.933 307.293 297.853 303.067C294.653 303.547 291.48 304.12 288.307 304.8C288.213 303.8 288.147 302.8 288.093 301.787L288.467 301.64C299 302.373 309.453 301.653 320 301.907C323.493 302.027 326.787 301.467 330.147 300.56C329.147 299.28 328.147 298 327.147 296.72Z" fill="white"/>
<path d="M50.5867 298.467C57.4667 302.12 63.9867 306.387 69.9467 311.44C75.68 316.453 83.3733 317.133 90.6533 317.6C99.88 318.48 109.16 318.32 118.387 319.24C118.36 320.093 118.347 320.947 118.333 321.787C113.653 321.72 108.987 321.653 104.32 321.187C94.7733 320.28 85.9333 320.96 76.6133 318.027C71.2667 316.653 67.88 312.933 63.56 309.733C60.2667 307.08 56.5467 305.2 53.0267 302.907C51 301.707 50.8533 300.733 50.5867 298.467Z" fill="#2B2B2B"/>
<path d="M304.386 303.16C305.906 301.653 309.013 303.16 307.826 305.307C306.266 306.827 303.08 305.387 304.386 303.16Z" fill="#AFBCB9"/>
<path d="M312.48 302.96C314.053 301.347 317.08 302.88 315.826 305.107C314.253 306.667 311.253 305.147 312.48 302.96Z" fill="#C6D1C6"/>
<path d="M320.213 302.907C321.4 302.467 322.667 302.267 324.027 302.333C325.8 304.187 325.093 305.987 324.467 308.16C323.133 309.253 320.76 308.84 319.16 308.693C317.667 306.84 317.187 303.493 320.213 302.907Z" fill="#F8D608"/>
<path d="M371.587 301.6C381.413 304.44 391.6 306.387 401.147 310.067C398.587 315.88 396.533 321.88 394.173 327.76C392.693 331.507 389.293 334.333 386.48 337.133C375.72 347.267 365.72 358.507 352.773 365.987C352.693 371.093 352.827 376.227 352.667 381.347C352.44 383.733 352.707 386.373 350.627 388.013C348.72 387.053 346.973 385.88 345.187 384.733C343.227 385.267 341.28 385.813 339.333 386.36C338.773 383.093 338.4 379.747 337.587 376.533C335.467 374.88 332.227 374.4 329.733 373.467C335.867 368.187 342.773 363.48 348.387 357.707C351.747 354.32 353.347 350.293 355.253 346.027C361.36 332.973 365.053 318.627 370.053 305.107C370.56 303.933 371.067 302.773 371.587 301.6Z" fill="#00A001"/>
<path d="M297.853 303.067C299.933 307.293 299.76 311.587 299.787 316.16C297 316.253 294.253 316.227 291.493 315.733L290.453 314.947L288.867 311.44C288.68 309.227 288.56 307.013 288.307 304.8C291.48 304.12 294.653 303.547 297.853 303.067Z" fill="#048902"/>
<path d="M293.747 306.907L294.707 306.373L295.667 306.933V308.027L294.707 308.56L293.747 308V306.907Z" fill="#2EB10B"/>
<path d="M292.347 309.48C294.267 308.107 295.707 311.44 293.373 311.88C292.093 311.48 291.747 310.68 292.347 309.48Z" fill="#254D04"/>
<path d="M289.787 315.493L291.493 315.733C294.253 316.227 297 316.253 299.787 316.16L299.827 318.587C296.627 318.693 293.44 318.84 290.227 318.64L289.787 315.493Z" fill="#1E4DB9"/>
<path d="M223.36 351.347C224.493 349.68 227.307 350.867 226.627 353.213C227.24 356.2 220.613 354.2 223.36 351.347Z" fill="black"/>
<path d="M137.587 380.24C140.4 379.373 141.373 381.347 143.453 382.733C141.28 384.173 140.653 386.667 137.76 384.893C137.44 383.413 137.373 381.853 137.587 380.24Z" fill="black"/>
<path d="M217.693 388.213C220.027 386.507 221.44 390.453 218.773 390.973C217.293 390.547 216.947 389.627 217.693 388.213Z" fill="black"/>
<path d="M306.093 392.4C311.493 394.92 311.933 400.067 313.893 405.053C314.893 408.253 317.106 410.293 319.306 412.68C326.32 420.027 332.64 427.853 339.32 435.48C351.88 435.293 363.293 437.573 375.786 434.613C378.506 433.867 381.347 432.813 384.133 432.547C387.267 434 391.027 437.72 390.013 441.493C387.693 439.613 385.506 437.587 383.373 435.507C378.28 437.333 373.52 439.12 368.04 439.307C354.306 439.827 340.373 438.973 326.653 438.84C320.32 438.773 314.267 440.947 307.987 440.8C304.693 440.707 301.813 439.573 298.6 439.053C296.106 439.427 293.746 441.293 291.373 442.187C292.32 440.373 293.307 438.693 294.44 437C295.147 435.867 295.893 434.747 296.653 433.653C299.267 434.773 301.053 436.773 303.947 437.413C309.787 438.667 316.613 436.72 322.52 435.867C319.32 431.187 315.573 427.147 311.933 422.72C308.226 418.52 305.706 414.147 300.68 411.307C294.493 407.867 290.24 401.76 289.653 394.653C289.307 392.133 292.76 390.52 294.547 389.373C298.173 387.227 302.853 390.813 306.093 392.4Z" fill="#010102"/>
<path d="M33.8132 396.627C37.8266 396.8 41.5599 397.293 45.3866 398.533C52.3999 400.813 58.8132 399.133 65.8932 399.96C70.3199 400.787 74.6266 402.453 78.9466 403.68C83.1732 405.053 87.2932 405.72 90.7866 408.533C84.3999 408.653 77.8799 405.387 71.6799 403.853C71.4799 410.173 71.6532 416.147 70.3732 422.44C70.0266 424.213 69.2132 425.653 68.0399 427.013C63.9999 427.347 60.1199 426 56.0399 426.84C52.4399 427.333 49.6132 428.16 46.8532 425.107C44.7466 422.413 42.2532 416.653 41.8666 413.293C42.7066 409.347 46.7866 406.293 48.1599 402.467C44.4399 399.52 38.0532 399.347 33.4666 398.187L33.8132 396.627Z" fill="#1D061E"/>
<path d="M297.56 397.56C299.387 396.147 303.107 396.627 302.053 399.507C301.08 402.587 296.52 400.427 297.56 397.56Z" fill="#4A600E"/>
<path d="M51.6666 401.973C57.5066 401.693 63.3066 401.68 69.0533 402.96C68.6 410.16 70.5733 419.547 66.5866 425.813C64.72 422.627 65.1333 419.44 64.6 415.84C62.7066 418.693 62.1733 421.32 61.8133 424.707C60.4933 424.72 59.1733 424.667 57.8533 424.587C55.9066 422.013 57.04 417.56 56.5466 414.453C53.3733 417.6 54.6666 421.147 53.3333 425.147C52.08 425.227 50.8266 425.213 49.5866 425.093C47.0266 421.88 44.7466 417.587 44.3066 413.467C46.0933 409.373 49.2266 405.733 51.6666 401.973Z" fill="#DE01EC"/>
<path d="M302.987 402.973C305.52 400.413 309.573 404.907 306.253 406.147C304.227 407.333 301.947 405.24 302.987 402.973Z" fill="#4F670F"/>
<path d="M313.853 410.053C321.693 418.013 328.88 426.72 336.053 435.293C332.52 435.347 328.987 435.333 325.453 435.24C319.04 426.933 311.493 419.44 305.48 410.853C308.173 409.893 311.493 406.96 313.853 410.053Z" fill="white"/>
<path d="M225.747 413.64C228.093 412.027 229.587 415.853 226.84 416.373C225.36 415.933 224.987 415.027 225.747 413.64Z" fill="black"/>
<path d="M117.72 439.04C129.333 440.027 140.333 445.907 152 447.147C167.507 448.68 183.093 449.893 198.667 450.027C201.227 450.267 204.893 449.973 206.88 451.8C209.747 459.64 208.987 468.747 211.587 476.667C214.213 482.72 217.84 488.293 220.347 494.44C223.747 502.973 227.947 511.187 230.853 519.893C223.187 519.68 215.613 518.667 208 517.84C192.987 516.093 177.853 514.813 162.907 512.613C151.267 509.88 139.933 505.88 128.293 503.107C126.96 495.627 128.067 488.12 127.12 480.653C125.56 473.253 123.227 466.027 121.627 458.627C120.293 452.253 117.64 445.52 117.72 439.04Z" fill="#9D2E00"/>
<path d="M229 456.08C230.254 457.013 230.654 458.133 230.2 459.467C228.88 459.84 227.547 460.147 226.2 460.427C226.827 458.267 226.6 456.827 229 456.08Z" fill="black"/>
<path d="M77.4667 493.493C82.4134 493.84 87.5201 495.747 92.2801 497.173C107.533 501.76 122.893 506.013 138.013 510.987C144.427 513.04 150.76 515.293 157.28 517.027C154.96 523.36 151.64 529.187 148.64 535.293C146.84 538.373 145.547 541.747 141.387 541.827C125.893 542.773 110.16 540.52 94.6801 539.587C89.8534 538.893 82.4134 539.467 78.6267 536.027C76.4001 532.493 77.2267 526.733 77.0267 522.667C77.4134 512.973 76.3734 503.12 77.4667 493.493Z" fill="#9D2E00"/>
<path d="M233.76 494.88C234.92 495.187 235.987 495.653 236.933 496.28C237.2 499.267 235.093 498.253 233.013 499.12C233.227 497.693 233.467 496.28 233.76 494.88Z" fill="black"/>
<path d="M101.64 544.52C107.76 544.387 113.573 545.253 119.613 546.053C119.267 561.827 117.96 577.56 117.813 593.347C117.8 597.587 117.32 601.773 116.747 605.973C107.6 611.4 98.2135 618.333 88.0135 621.347C74.1068 625.827 60.5068 631.08 46.7334 635.933L47.1468 633.68C49.1734 632.08 51.2934 630.587 53.3601 629.013C48.2534 627.2 43.7468 628.507 38.6134 629.227C36.4134 629.547 34.2134 629.907 32.0001 630.107C29.6668 630.04 27.8801 631.053 26.6534 628.507C31.6668 626.573 36.4268 625.747 39.6401 620.987C34.7068 620.48 30.1601 621.267 25.4134 622.467C22.5601 622.973 19.7868 622.613 16.9468 622.173C20.5068 620.187 24.2934 618.84 28.2268 617.827C51.2268 611.587 73.1201 603.187 95.7735 595.68C98.7868 594.36 103.373 593.44 103.373 589.347C104.667 579.653 105 569.773 104.987 560C105.107 554.427 103.027 549.747 101.64 544.52Z" fill="#01A001"/>
<path d="M361.28 560.32C366.613 559.333 372.04 559.707 377.413 559.973C378.16 569.427 376.733 578.587 376.453 588.013C376.12 593.04 376.186 598.28 375.133 603.213C372.773 605.36 368.92 606.12 366.013 607.453C349.666 614.293 333.52 621.653 317.08 628.293C316.813 626.027 317.413 622.88 316.12 620.907C310.226 619.387 303.413 623.64 297.346 624.2C297.84 623.32 298.333 622.44 298.826 621.56C301.266 620.387 306.853 618.827 305.066 615.133C297.4 614.293 290.453 616.267 282.933 613.667C293.453 610.307 304.546 608.653 315.28 606.04C330.093 602.373 343.733 601.573 357.573 596.333C359.72 595.347 362.16 594.667 362.306 591.893C363.266 581.387 361.013 570.733 361.28 560.32Z" fill="#01A001"/>
<path d="M282.933 613.667C290.453 616.267 297.4 614.293 305.067 615.133C306.853 618.827 301.267 620.387 298.827 621.56C298.253 619.747 297.747 617.92 297 616.2C291.853 614.8 286 615.853 280.693 615.507C281.4 614.84 282.147 614.227 282.933 613.667Z" fill="black"/>
<path d="M39.64 620.987C36.4267 625.747 31.6667 626.573 26.6533 628.507C26.2267 626.493 25.8267 624.48 25.4133 622.467C30.16 621.267 34.7067 620.48 39.64 620.987Z" fill="black"/>
<path d="M53.36 629.013C51.2933 630.587 49.1733 632.08 47.1466 633.68C44.48 629.653 43.3866 629.453 38.6133 629.227C43.7466 628.507 48.2533 627.2 53.36 629.013Z" fill="black"/>
</g>
<defs>
<clipPath id="clip0_3_134">
<rect width="466.667" height="642.667" fill="white"/>
</clipPath>
</defs>
</svg>
