<svg width="534" height="534" viewBox="0 0 534 534" fill="none" xmlns="http://www.w3.org/2000/svg">
<g clip-path="url(#clip0_2_47)">
<path d="M124 44.4933C130.413 44.68 137.4 43.6266 143.44 45.92C146.6 47.1066 150.347 47.72 153.027 49.8133C159.053 50.6533 164.653 55.3066 169.88 58.24C172.173 59.9333 175.813 63.1333 178.747 61.8666C184.133 58.6133 190.2 55.28 196.36 53.7866C201.253 50.28 206.867 50.8933 211.987 48.7866C219.52 48.36 227.16 48.4666 234.707 48.7466C237.773 50.92 243.947 49.7066 245.387 53.68C248.067 53.8666 248.96 55.8533 251.133 56.9733C257.667 62.4 262.04 69.4533 265.267 77.1466C266.653 79.0533 266.52 82.5466 268.533 83.9066C268.307 85.4266 267.707 89.4933 269.987 89.7866C275.587 92.3333 282.747 92.6266 287.44 96.5466C289.707 98.3333 292.413 98.2666 292.853 101.573C296.093 104.08 299.4 105.64 299.253 110.32C304.68 111.933 311.507 116.24 309.893 122.92C312.6 124.76 314.693 126.56 316.733 129.12C316.893 130.507 316.387 131.827 315.213 133.093C315.32 134.373 315.427 135.653 315.52 136.933L315.427 138.48C314.507 137.4 313.88 136.187 313.533 134.84C309.28 129.827 300.56 125.8 294.573 124.307C293.12 122.707 290.707 124.187 289.68 122.267C287.013 121.92 284.147 122.027 281.653 120.987C274.667 120.387 267.773 120.96 260.773 120.88C258.787 122.867 256.787 121.413 254.627 122.573C248.507 124.507 241.907 124.987 236.32 128.467C232.96 129.413 227.28 131.853 224.293 133.667C220.92 134.16 219.6 137.093 216.693 138.493C216.6 143.32 214.853 147.64 212.827 151.947C213.72 153.173 214.533 154.44 215.52 155.587L216.253 156.573C213.493 161.027 210.6 164.64 206.04 167.373C204.253 169.053 202.253 168.613 199.987 168.84C195.08 168.867 190.493 172.693 185.373 172.6C176.04 172.96 166.68 172.413 157.333 172.627C146.413 173.253 134.893 169.387 124.613 165.947C119.72 163.867 114.747 161.813 110.147 159.133L109.493 157.68C111.147 157.827 112.347 158.173 113.8 158.987C129.24 167.253 146.52 171.493 164 171.08C170.227 171.013 176.453 171.213 182.68 171.173C189.933 171.12 195.347 166.267 202.733 167.187C206.547 165.187 209.893 162.56 212.613 159.213C213.453 157.267 212.987 155.28 212.027 153.48C209.08 153.467 207.347 155.347 204.653 156.36C195.373 159.64 185.92 163 175.987 163.427C165.187 165.413 155.227 164.107 144.613 163.28C130.04 159.64 117.413 152.453 105.413 143.627C100.747 143.227 96.04 143.32 91.3867 143C88.8667 141.493 87.72 140.187 86.3734 137.6C82.9734 137.373 79.4267 138.347 76.0534 138.747C66.2534 139.96 56.16 139.147 46.3867 139.8L44.72 140.933L42.9734 140.733C44.0934 133 45.8667 125.24 46.4267 117.467C39.1734 118.613 33.36 123.173 28.6534 128.613L26.04 129.147C28.3467 125.933 31.2134 123.44 34.0267 120.72C37.9734 119.04 40.9467 116.853 45.2 116.173C46.7867 115.36 47.6267 114.253 48.56 112.787C49 107.747 52.1867 102.787 54.2534 98.2133C59.1467 87.84 65.4134 77.68 73.2267 69.2266C77.96 64.84 82.4 59.3466 87.7867 55.8266C94.9734 51.32 101.093 47.64 109.467 45.7466C113.693 43.72 119.413 44.5866 124 44.4933Z" fill="#020203"/>
<path d="M151.92 50.16C156.827 53.12 162.267 54.9733 167.013 58.16C172.933 60.9733 178.867 67.1067 180.627 73.4C173.573 74.5333 166.413 76.24 159.853 79.1467C155.96 77.8667 152.187 76.6533 148.04 76.6133C142.373 76.6533 137.787 74.48 132 76.1733C117.56 76.6133 104.307 83.5733 92.6001 91.5333C92.8401 92.0533 93.1334 92.56 93.4801 93.04C105.173 84.8933 117.627 78.76 132 77.48C137.773 76.0267 142.36 78.0267 148.027 78.0533C151.04 78.1467 153.813 79.5333 156.84 79.8133L156.76 82.8933L155.28 83.6667L153.573 83.3333C151.453 86.28 151.64 90.6533 149.613 93.16C139.6 92.68 130.72 90.8133 120.68 91.8533C114.84 92.8133 109.44 97.0667 103.72 98.4933C95.3201 101.413 86.6267 102.48 78.0134 104.4C74.5734 104.747 71.3467 104.507 68.0401 105.773C62.9867 106.027 57.7467 106.36 52.7334 105.693C55.9467 97.2133 60.5467 89.1467 65.3601 81.48C71.1334 74.1467 75.3467 67.1067 82.9467 61.48C88.5734 57.8 92.7334 53.3333 99.2667 51.0667C115.093 42.88 135.547 44.24 151.92 50.16Z" fill="#5B8D40"/>
<path d="M236.373 50.8534C240.28 52.12 244.347 53.7867 247.907 55.84C252.227 59.2 255.973 63.28 259.253 67.6534C262.64 72.1867 264.013 77.96 266.04 83.2534C261.533 84.1467 256.64 83.24 252.027 83.7067C245.84 84.8667 239.56 84.1334 233.333 85.24C227.613 85.3067 221.2 86.7734 215.64 86.16C214.84 83.2534 214.6 80.4134 212.64 77.9734C211.24 76.12 210.253 72.5467 207.32 74.2134C206.693 73.9467 206.08 73.6667 205.467 73.3734C204.773 72.76 204.08 72.1867 203.36 71.6134C199.867 71.7334 196.24 71.4 192.787 71.8267C189.493 73.1734 185.973 73.1467 182.52 72.4134C181.027 70 179.747 67.5334 177.96 65.2934L178.493 64.1067C187.413 58.32 197.813 54.4 207.947 51.4134C217.48 49.6534 226.8 48.8667 236.373 50.8534Z" fill="#5B8C41"/>
<path d="M205.467 73.3733C206.08 73.6666 206.693 73.9466 207.32 74.2133C212.773 75.96 212.68 81.6933 212.627 86.48C214.187 91.5866 215.893 96.8133 218.56 101.48C220.827 106.347 223.44 111.387 220.64 116.627C214.48 121.267 206.133 124.493 198.413 124.68C200.627 125.653 203.293 125.507 205.653 126.107C200.027 126.827 194.48 126.573 188.92 127.853C188.227 127.293 187.56 126.693 186.92 126.053C180.453 125.36 172.707 125.733 166.76 122.547C164.547 120.453 162.013 119.4 159.453 117.867C154.693 112.173 150.76 104.987 151.573 97.3333C151.4 92.08 151.12 87.52 155.28 83.6666L156.76 82.8933C159.053 81.0666 161.08 79.2 163.947 78.3066C171.72 76.0666 179.96 73.8666 188.067 73.52C193.507 72.4933 200.107 71.8266 205.467 73.3733Z" fill="#B8B8B8"/>
<path d="M188.587 96.9333C191.547 98.2133 190.533 104.173 186.88 103.2C184.027 102.493 184.147 100.533 184.693 98.0667C186.053 97.4267 186.973 96.5467 188.587 96.9333Z" fill="#030303"/>
<path d="M289.307 101.293C291.88 102.373 297.147 105.96 297.093 108.893C293.667 109.4 290.187 107.48 286.693 106.96C282.92 105.72 278.587 106.08 274.64 105.693C265.72 103.907 255.64 104.813 246.587 104.84C243.987 106.773 240.307 105.907 237.12 106.293C239.64 104.253 242.333 105.173 245.133 104.173C247.373 103.2 249.573 103.453 252 103.36C259.56 103.427 267.147 103.453 274.693 103.173C279.36 102 284.533 101.68 289.307 101.293Z" fill="#688856"/>
<path d="M268 106.547C278.427 107.64 289.52 108.92 299.76 111.987C304.213 113.653 308.827 116.707 308.64 122.013C304.08 119.72 299.493 117.52 294.653 115.88C290.64 115.027 286.653 114.093 282.64 113.187C278.413 112.293 273.587 112.627 269.307 112.307C260.227 110.013 253.28 112.96 244.013 112.907C236.64 114.84 228.6 115.4 221.653 118.6C220.613 114.387 224.107 112.507 227.333 111.213C240.253 107.733 254.653 105.28 268 106.547Z" fill="#678C57"/>
<path d="M247.96 114.32C257.333 113.213 266.627 113.667 276 114.12C280.547 114 285.107 115.707 289.587 116.6C297.52 118.12 304.547 121.627 311.2 126.093C312.867 127.573 316.08 129.307 315.08 131.973L312.573 131.533C301.947 122.733 288.307 118.973 274.667 119.107C271.4 119.053 268.427 119.733 265.4 118.12C257.32 118.907 248.92 121.76 240.973 123.653C235.213 125.813 230.2 129.32 224.227 131C221.48 131.48 219.64 134.893 216.933 134.267C216.013 131.587 215.04 127.827 211.733 127.36C210.027 126.88 207.013 126.16 207.027 123.987C210.547 123.133 214 122.747 217.373 121.253C227.453 118.307 237.587 115.987 247.96 114.32Z" fill="#618B4D"/>
<path d="M46.4267 117.467C45.8667 125.24 44.0933 133 42.9733 140.733L44.72 140.933C51.64 143.293 58.2267 141.907 65.3067 142.253C71.4667 142.027 77.56 140.92 83.6933 140.467C85.5067 141.68 86.7467 143.827 88.6933 144.773C94.2133 146.68 100.72 146.28 106.133 147.36C108.24 148.48 108.56 150.387 109.653 152.333C112.293 150.893 113.627 152.96 115.613 154.493C114.787 155.987 113.907 157.213 113.8 158.987C112.347 158.173 111.147 157.827 109.493 157.68L110.147 159.133C114.747 161.813 119.72 163.867 124.613 165.947C134.893 169.387 146.413 173.253 157.333 172.627C166.68 172.413 176.04 172.96 185.373 172.6C190.493 172.693 195.08 168.867 199.987 168.84C202.253 168.613 204.253 169.053 206.04 167.373C210.6 164.64 213.493 161.027 216.253 156.573C222.853 159.773 229.52 158.827 236.253 160.48C242.867 160.533 249.427 161.68 256.013 161.547C263.133 160.613 270.28 160.96 277.32 159.427C283.72 159.2 289.653 156.747 296.013 156.44C299.72 156.32 304.933 152.867 308.893 153.733L309.413 155.893C307.12 159.013 302.227 160.027 298.867 161.747C296.64 162.307 296.64 165.6 295.28 167.267C290.72 174 282.773 177.453 276.053 181.72C271.373 183.307 266.973 184.747 262 184.987C256.933 186.747 251.973 185.653 246.653 186.747C237.427 188.213 230.053 184.693 221.947 180.973C221 180.76 220.04 180.627 219.067 180.587C219.533 182.053 220.76 182.36 221.947 183.16C226.493 184.907 231.067 186.6 235.587 188.427C239.213 189.867 241.253 192.787 245.133 193.387C243.853 191.587 242.053 190.693 241 188.64C251.547 188.733 261.96 187.733 272.053 184.52C281.667 192.667 290.253 200.84 294.093 213.213C294.893 218.267 298.04 221.413 296.333 226.813C279.867 233.4 263.093 238.547 245.333 239.96C233.827 240.12 222.387 240.347 210.92 239.12C199.707 237.587 188.467 236.587 177.347 234.333C166.267 232.027 155.733 230.867 145.027 227.04C133.293 224.28 122.267 218.773 110.68 215.973C99.5733 213.733 88.1467 219.4 82.1067 228.733C80.9067 230.467 81.2933 231.853 82.5333 233.413C85.4133 236.4 88.5333 239.067 92.2133 241.027C99.4933 244.467 106.373 248.467 113.933 251.427C125.293 255.827 136.853 259.56 148.347 263.6C155.36 265.667 161.96 268.36 169.293 269.067C183.48 271.52 197.667 272.267 211.973 273.373C228.387 274.347 244.76 275.093 261.213 274.853C259.973 276.507 258.52 277.92 257.053 279.36C251.387 284.147 244.933 287.44 238.467 291.04C237.547 288.267 237.36 285.533 234.587 283.947C228.4 282.2 221.16 286.373 215.107 284.693C210.867 291.693 199.507 293.88 192.28 296.307C185.627 299.28 178.16 300.68 170.907 300.893C163.667 302.293 155.133 308.147 147.693 305.16C120.28 304.72 92.4 300.827 65.36 296.627C56.3067 295.12 47.5467 291.627 38.6267 289.72C37.1333 285.133 34.4533 280.973 31.9333 276.893C31.8667 275.413 31.7867 273.947 31.7067 272.467C28.1067 273.56 25 272.093 21.3333 272.453C16.1333 272.12 10.9733 272.173 5.78667 272C5.94667 273.32 6.12 274.653 6.29333 275.96L5.97333 273.667C3.97333 273.627 3.98667 274.027 2 274V271.5C3.73333 271.647 3.45333 271.68 5.17333 271.907L5 269.8C5.92 270.013 6.82667 270.2 7.73333 270.387C6.24 267.747 4.09333 265.907 4.14667 262.707C3.93333 236.48 4.30667 210.213 4.12 183.973C3.90667 179.813 6.24 175.613 7.58667 171.667C13.2 157.987 19.1467 144.573 26.8933 131.933L25.52 129.853L26.04 129.147L28.6533 128.613C33.36 123.173 39.1733 118.613 46.4267 117.467Z" fill="#5A8D3E"/>
<path d="M260.773 120.88C267.773 120.96 274.667 120.387 281.653 120.987C284.147 122.027 287.013 121.92 289.68 122.267C290.707 124.187 293.12 122.707 294.573 124.307C300.56 125.8 309.28 129.827 313.533 134.84C313.88 136.187 314.507 137.4 315.427 138.48C315.627 141.08 316 143.133 315.147 145.707C312.12 148.373 309.413 150.987 305.56 152.4C301.12 152.307 299.24 154.893 294.853 153.867C294.707 150.88 295.893 148.373 294.213 145.68C294.84 140.187 292.32 135.773 290.573 130.8C288.08 126.88 286.28 123.973 281.507 122.827L280.507 122.053C273.547 121.933 266.933 120.987 259.973 121.973C258.747 123.947 257.08 122.8 255.44 123.813C251.96 126 249.067 128.6 247.173 132.307C244.16 136.867 244.667 141.453 243.587 146.88L244.413 147.853C244.2 152.04 243.76 155.8 246.493 159.32C236.813 159.453 224.88 156.907 215.52 155.587C214.533 154.44 213.72 153.173 212.827 151.947C214.853 147.64 216.6 143.32 216.693 138.493C219.6 137.093 220.92 134.16 224.293 133.667C227.28 131.853 232.96 129.413 236.32 128.467C241.907 124.987 248.507 124.507 254.627 122.573C256.787 121.413 258.787 122.867 260.773 120.88Z" fill="#FCFDFC"/>
<path d="M259.973 121.973C266.933 120.987 273.547 121.933 280.507 122.053L281.507 122.827C286.28 123.973 288.08 126.88 290.573 130.8C292.32 135.773 294.84 140.187 294.213 145.68C295.893 148.373 294.707 150.88 294.853 153.867C299.24 154.893 301.12 152.307 305.56 152.4C309.413 150.987 312.12 148.373 315.147 145.707C316 143.133 315.627 141.08 315.427 138.48L315.52 136.933L316.627 137.92C316.52 140.373 316.067 142.707 316.667 145.147C315.84 147.84 312.333 150.4 310.027 151.92C310 153.773 310.733 156.213 309.987 157.933C306.507 160.76 302.053 161.507 298.467 163.827C297.933 166.187 296.533 167.947 295.307 170.053C289.88 176.107 281.827 180.24 274.707 183.947C276.533 186.48 279.2 188.387 281.347 190.653C291.547 200.053 297.12 212.467 298.12 226.187L296.333 226.813C298.04 221.413 294.893 218.267 294.093 213.213C290.253 200.84 281.667 192.667 272.053 184.52C261.96 187.733 251.547 188.733 241 188.64C242.053 190.693 243.853 191.587 245.133 193.387C241.253 192.787 239.213 189.867 235.587 188.427C231.067 186.6 226.493 184.907 221.947 183.16C220.76 182.36 219.533 182.053 219.067 180.587C220.04 180.627 221 180.76 221.947 180.973C230.053 184.693 237.427 188.213 246.653 186.747C251.973 185.653 256.933 186.747 262 184.987C266.973 184.747 271.373 183.307 276.053 181.72C282.773 177.453 290.72 174 295.28 167.267C296.64 165.6 296.64 162.307 298.867 161.747C302.227 160.027 307.12 159.013 309.413 155.893L308.893 153.733C304.933 152.867 299.72 156.32 296.013 156.44C289.653 156.747 283.72 159.2 277.32 159.427C270.28 160.96 263.133 160.613 256.013 161.547C249.427 161.68 242.867 160.533 236.253 160.48C229.52 158.827 222.853 159.773 216.253 156.573L215.52 155.587C224.88 156.907 236.813 159.453 246.493 159.32C243.76 155.8 244.2 152.04 244.413 147.853L243.587 146.88C244.667 141.453 244.16 136.867 247.173 132.307C249.067 128.6 251.96 126 255.44 123.813C257.08 122.8 258.747 123.947 259.973 121.973Z" fill="#030303"/>
<path d="M148.133 124.587L146.813 126.413C140.92 129.093 134.653 131.04 129.307 134.667C124.6 137.547 119.36 138.707 114.413 141.16C110.427 143.053 106.853 142 102.68 141.92C98.3068 141.653 94.4534 142.12 90.3468 140.347C89.6001 139.36 88.9068 138.347 88.2534 137.32C95.1734 135.507 102.707 134.707 109.613 132.44C116.04 130.067 122.853 130.16 129.333 127.88C135.613 127.067 141.813 124.347 148.133 124.587Z" fill="#628A4B"/>
<path d="M157.4 126C156.253 127.387 154.827 127.107 153.213 127.493C151.92 130.173 147.907 131.96 147.093 135.293C144.4 141.68 145.013 146.813 144.853 153.533C145.733 155.467 146.76 157.36 147.507 159.347C148.667 160.213 149.213 161.227 149.147 162.387C145.8 162.227 142.427 160.76 139.32 159.573C128.013 156.653 120.133 150.84 110.267 145.267C116.147 143.933 125.16 139.787 130.64 137.253C136.227 133.547 142.92 130.147 149.147 128.133C152.053 126.373 153.96 125.667 157.4 126Z" fill="#FCFCFA"/>
<path d="M205.653 126.107L206.293 127.24C208.867 127.08 209.227 128.827 212.053 128.933C213.44 131.147 216.133 133.093 215.467 136C215.48 141.013 213.093 146.693 211.12 151.213C207.227 153 203.213 155.707 198.893 155.88C198.88 154.133 198.853 152.4 198.8 150.653C197.4 148.253 199.133 143.96 197.173 141.413C195.533 136.773 193.253 130.787 188.92 127.853C194.48 126.573 200.027 126.827 205.653 126.107Z" fill="#FCFCFA"/>
<path d="M265.16 128.2C267.133 129.08 265.747 132.12 265.707 133.787C263.107 134.24 260.573 134.32 259.227 131.653C257.56 128.84 263.493 126.053 265.16 128.2Z" fill="#FCFCFC"/>
<path d="M166.347 131.987C166.307 135.413 162.64 136.92 160.56 134.08C158.72 132.467 158.72 131.44 160.413 129.693C162.213 127.187 166.853 128.52 166.347 131.987Z" fill="#F8F8FA"/>
<path d="M25.5199 129.853L26.8932 131.933C19.1466 144.573 13.1999 157.987 7.58657 171.667C6.2399 175.613 3.90657 179.813 4.1199 183.973C4.30657 210.213 3.93323 236.48 4.14657 262.707C4.09323 265.907 6.2399 267.747 7.73323 270.387C6.82657 270.2 5.9199 270.013 4.9999 269.8C1.30657 266.84 1.94657 262.907 1.85323 258.667C1.94657 232.427 1.82657 206.173 1.81323 179.933C4.46657 172.387 7.41323 164.747 11.0132 157.587C14.3732 147.72 19.9466 138.613 25.5199 129.853Z" fill="black"/>
<path d="M178.667 135.413C180.667 136.413 184.32 137.013 183.8 139.987C183.547 143.32 180.653 145 177.547 144.933C174.627 143.387 172.467 140.413 174.387 137.133C175.853 136.693 177.28 136.12 178.667 135.413Z" fill="#FBFBFB"/>
<path d="M275.747 135.347C277.347 135.4 278.867 136.093 280.293 137.387C281.213 140.627 279.28 143.933 275.987 144.667C273.667 143.36 272.64 142.427 271.413 140.053C271.293 137.533 273.88 136.387 275.747 135.347Z" fill="#FBFBFB"/>
<path d="M86.3733 137.6C87.72 140.187 88.8666 141.493 91.3866 143C96.04 143.32 100.747 143.227 105.413 143.627C117.413 152.453 130.04 159.64 144.613 163.28C155.227 164.107 165.187 165.413 175.987 163.427C185.92 163 195.373 159.64 204.653 156.36C207.347 155.347 209.08 153.467 212.027 153.48C212.987 155.28 213.453 157.267 212.613 159.213C209.893 162.56 206.547 165.187 202.733 167.187C195.347 166.267 189.933 171.12 182.68 171.173C176.453 171.213 170.227 171.013 164 171.08C146.52 171.493 129.24 167.253 113.8 158.987C113.907 157.213 114.787 155.987 115.613 154.493C113.627 152.96 112.293 150.893 109.653 152.333C108.56 150.387 108.24 148.48 106.133 147.36C100.72 146.28 94.2133 146.68 88.6933 144.773C86.7466 143.827 85.5066 141.68 83.6933 140.467C77.56 140.92 71.4666 142.027 65.3066 142.253C58.2266 141.907 51.64 143.293 44.72 140.933L46.3866 139.8C56.16 139.147 66.2533 139.96 76.0533 138.747C79.4266 138.347 82.9733 137.373 86.3733 137.6Z" fill="#638B4E"/>
<path d="M263.293 143.973C262.08 146.707 261.027 147.013 258.213 146.027C258.053 144.76 258.093 143.533 258.333 142.333C260.973 141.693 261.733 141.653 263.293 143.973Z" fill="#F6F6F6"/>
<path d="M166.96 146.627C164.813 149.907 161.253 149.947 160.387 145.813C162.413 142.587 166.333 142.493 166.96 146.627Z" fill="#979797"/>
<path d="M260.747 151.4C262.013 150.88 263.293 150.907 264.587 151.493C265.107 152.573 265.093 153.813 264.547 155.227C263.267 155.573 262.027 155.613 260.84 155.32C260.44 153.933 260.413 152.627 260.747 151.4Z" fill="#FCF8FB"/>
<path d="M168.72 156.533C169.387 158.64 167.493 160.04 165.693 160.307C164.64 159.68 163.053 158.627 163.013 157.267C164.467 155.453 166.96 154.547 168.72 156.533Z" fill="#E6E5E3"/>
<path d="M193.173 174.787C192.867 176.173 192.2 177.16 191.173 177.733C182.733 182.667 173.867 186.8 164.653 190.093C159.373 192.027 153.987 194.813 148.4 195.613L148.693 193.84C153.347 191.173 158.92 189.92 163.88 187.84C171 184.787 178.2 182.173 184.907 178.24C187.547 177.067 190.24 174.653 193.173 174.787Z" fill="black"/>
<path d="M94.4667 196.213L94.3467 198.267C89.8267 198.947 85.8534 198.32 81.6667 200.333C76.7467 202.56 73.6401 207.867 70.6134 211.867L69.2534 212.027L69.0801 210.613C73.5201 200.827 83.3201 193.8 94.4667 196.213Z" fill="black"/>
<path d="M110.68 215.973C122.267 218.773 133.293 224.28 145.027 227.04C155.733 230.867 166.267 232.027 177.347 234.333C188.467 236.587 199.707 237.587 210.92 239.12C222.387 240.347 233.827 240.12 245.333 239.96C263.093 238.547 279.867 233.4 296.333 226.813L298.12 226.187C304.707 226.147 307.173 237.333 302.6 241.293C299.307 245.947 293.96 247.413 290.12 250.92L288.707 249.08C292.853 245.72 297.373 243.8 301.053 239.667C303.467 236.853 302.827 232.613 301.013 229.653C298.053 227.853 296.04 229.64 293.24 230.667C280.467 236.413 267.08 239.707 253.32 242.04C224.56 245.293 194.973 240.427 166.68 235.28C155.8 233.467 145.013 229.627 134.387 226.92C125.547 223.72 116.053 219.467 106.68 218.387C98.4799 218.053 90.9199 222.253 85.9066 228.547C84.2532 231.12 83.6932 232.92 86.3066 235.08C98.3999 244.307 111.467 248.133 125.52 253.067C132.72 255.707 140.053 258.067 147.307 260.547C153.88 262.653 160.693 263.827 167.28 265.907C184.56 269.267 202.733 269.84 220.28 270.987C234.4 272.187 248.52 271.533 262.667 272.267C269.947 271.96 279.507 271.707 285.2 266.453C287.36 264.667 289.8 261.773 290.04 258.893C289.453 256.653 288.48 254.507 287.707 252.32L289.773 252.053C290.68 254.28 291.64 256.48 292.587 258.68C291.12 263.427 289 267.36 284.52 269.853C278.493 273.44 272.187 273.84 265.413 274.467C263.467 276.707 261.307 278.427 258.827 280.053L257.053 279.36C258.52 277.92 259.973 276.507 261.213 274.853C244.76 275.093 228.387 274.347 211.973 273.373C197.667 272.267 183.48 271.52 169.293 269.067C161.96 268.36 155.36 265.667 148.347 263.6C136.853 259.56 125.293 255.827 113.933 251.427C106.373 248.467 99.4932 244.467 92.2132 241.027C88.5332 239.067 85.4132 236.4 82.5332 233.413C81.2932 231.853 80.9066 230.467 82.1066 228.733C88.1466 219.4 99.5732 213.733 110.68 215.973Z" fill="black"/>
<path d="M417.387 217.04C420.427 217.627 423.413 218.253 426.507 218.547C428.84 220.293 429.32 220.893 428.973 223.907C429.013 226.36 430.253 228.773 430.8 231.16L429.707 233.187C427.733 229.067 429.587 224.573 426.333 220.493C420.333 218.8 414.973 218.347 408.733 218.653C407.8 225.04 409.4 232.387 410.093 238.84C410.24 241.8 411.68 244.053 412.787 246.8C413.373 244.453 413.36 242.36 415.2 240.573C416.72 239.773 418.28 239.027 419.907 238.48C425.04 241.173 425.453 245.813 425.88 251.04C427.547 248.04 428.613 244.667 429.72 241.427C430.84 239.627 429.053 233.773 431.907 234.6C431.973 236.48 432.013 238.373 432.013 240.267C432.84 240.587 433.68 240.88 434.52 241.147L432.547 241.093C432.787 245.427 432.56 249.747 432.627 254.093C430.067 260.32 427.293 266.253 426.307 273.04C425.64 278.693 424.92 285.027 422.027 290.013C420.68 291.973 418.093 293.093 417.453 295.36C416.133 295.52 414.813 295.68 413.507 295.813L415.467 295.347L415.4 291.307C413.227 291.12 411.24 290.467 409.147 289.987C395.547 290.133 381.84 289.64 368.28 290.307C366.827 292.2 365.733 294.307 364.333 296.227C362.12 298.2 359.08 300.4 357.867 303.173C356.907 305.733 354.533 306.507 355.053 309.573C349.827 316.893 346.053 325.72 344.613 334.68C343.92 343.013 341.16 350.973 340.213 359.307C337.96 370.72 338.08 381.893 338.147 393.48C338.787 396.533 341.973 399.067 343.707 401.56C348.307 408.587 353.093 415.067 358.653 421.347L356.293 421.667C350.84 415.787 346.693 409.707 342.227 403.133C340.16 401.24 339.32 397.72 336.24 397.973C335.907 396.933 335.653 395.88 335.44 394.8C335.533 393.933 335.613 393.053 335.693 392.187C336.173 382.067 336 371.28 337.907 361.347C338.8 352.187 341.587 343.533 342.587 334.44C343.84 327.493 345.733 320.84 349.44 314.8C350.613 311.707 353.227 310.12 352.973 306.813C355.573 304.093 356.307 300.093 359.32 297.933C363.04 294.947 365.613 291.067 367.787 286.867C364.747 281.613 363.187 274.787 359.48 269.907C356.2 268.147 353.347 265.933 349.653 265.013C344.6 263.707 340.053 260.893 336.947 256.667C335.573 252.76 332.653 250.8 332.427 246.667C332.573 242.56 332.04 238.12 332.813 234.107C334.68 232.373 337.8 231.333 340.147 232.667C341.733 234.613 342.88 236.4 343.48 238.893C343.627 241.227 344.28 242.307 345.453 242.12C345.44 238.32 345.68 234.547 345.68 230.76L346.627 230.84C349.307 230.747 352.427 231.667 354.947 230.893C354.933 229.253 355.013 227.627 355.173 226.027C356.373 225.56 357.573 225.093 358.787 224.627C359.453 221.707 361 221.307 363.493 220.173C363.333 222.427 361.613 222.84 360.2 224.32C361.067 224.947 361.933 225.587 362.813 226.227C358.147 226.893 361.04 230.267 361.2 233.307C360.333 237.787 361.173 242.2 359.693 246.613C360.467 248.067 360.373 251.093 362.387 251.187C362.587 248.6 362.667 246.467 363.973 244.16C366.387 243.573 368.8 243.187 371.28 243.4C373.68 247.067 374.733 250.227 375.013 254.613C376.853 254.027 376.613 250.88 376.693 249.347C376.133 240.493 375.453 231.573 375.707 222.707L375.747 221.173C372.347 219.4 367.96 223.227 364.453 219.96C382.04 217.627 399.64 216.533 417.387 217.04Z" fill="black"/>
<path d="M106.68 218.387C116.053 219.467 125.547 223.72 134.387 226.92C145.013 229.627 155.8 233.467 166.68 235.28C194.973 240.427 224.56 245.293 253.32 242.04C267.08 239.707 280.467 236.413 293.24 230.667C296.04 229.64 298.053 227.853 301.013 229.653C302.827 232.613 303.467 236.853 301.053 239.667C297.373 243.8 292.853 245.72 288.707 249.08C260.08 254.667 230.413 254.373 201.333 253.213C186.867 252.573 172.467 249.707 158.227 247.187C147.96 244.413 137.347 242.04 127.547 237.84C123.76 236.387 119.8 235.96 115.947 234.76C112.493 233.84 109.333 232.187 105.8 232.427L105.827 234.28C113.147 237.893 121.507 238.253 129.093 241.613C139.2 245.133 149.56 248.027 159.973 250.493C181.84 254.547 204.413 256.987 226.667 256.68C247.173 256.92 267.453 255.533 287.707 252.32C288.48 254.507 289.453 256.653 290.04 258.893C289.8 261.773 287.36 264.667 285.2 266.453C279.507 271.707 269.947 271.96 262.667 272.267C248.52 271.533 234.4 272.187 220.28 270.987C202.733 269.84 184.56 269.267 167.28 265.907C160.693 263.827 153.88 262.653 147.307 260.547C140.053 258.067 132.72 255.707 125.52 253.067C111.467 248.133 98.4 244.307 86.3067 235.08C83.6933 232.92 84.2533 231.12 85.9067 228.547C90.92 222.253 98.48 218.053 106.68 218.387Z" fill="#C8605F"/>
<path d="M391.32 218.987L392.707 218.933L393.72 221.16C398.467 221.293 402.373 219.547 407.04 221.24C406.893 230.173 408.36 239.32 409.8 248.093L408.44 247.667C407.267 244.68 406.587 241.827 404.827 239.12C402.613 239.413 399.587 240.027 398.213 241.933C397.88 244.08 397.893 246.253 397.653 248.413C393.787 248.88 394.653 242.147 393.747 239.68C391.507 232.84 393.64 225.64 391.32 218.987Z" fill="#5C8C41"/>
<path d="M392.707 218.933C397.56 218.853 402.307 218.307 407.173 218.613L407.04 221.24C402.373 219.547 398.467 221.293 393.72 221.16L392.707 218.933Z" fill="#75906D"/>
<path d="M408.733 218.653C414.973 218.347 420.333 218.8 426.333 220.493C429.587 224.573 427.733 229.067 429.707 233.187L428.973 234.64C429.08 236.92 429.573 239.147 429.72 241.427C428.613 244.667 427.547 248.04 425.88 251.04C425.453 245.813 425.04 241.173 419.907 238.48C418.28 239.027 416.72 239.773 415.2 240.573C413.36 242.36 413.373 244.453 412.787 246.8C411.68 244.053 410.24 241.8 410.093 238.84C409.4 232.387 407.8 225.04 408.733 218.653Z" fill="#5B8C42"/>
<path d="M363.493 220.173L363.867 220.053L364.453 219.96C367.96 223.227 372.347 219.4 375.747 221.173L375.707 222.707C372.093 223.107 367.867 223.067 364.547 224.6C362.88 231.173 361.667 237.547 363.973 244.16C362.667 246.467 362.587 248.6 362.387 251.187C360.373 251.093 360.467 248.067 359.693 246.613C361.173 242.2 360.333 237.787 361.2 233.307C361.04 230.267 358.147 226.893 362.813 226.227C361.933 225.587 361.067 224.947 360.2 224.32C361.613 222.84 363.333 222.427 363.493 220.173Z" fill="#66825A"/>
<path d="M377.467 220.107C381.653 219.893 385.8 219.653 389.947 218.947L390.6 220.707C386.213 221.36 381.893 221.573 377.467 221.48V220.107Z" fill="#819A7B"/>
<path d="M345.413 221.227C345.92 224.427 345.92 227.667 346.627 230.84L345.68 230.76L343.973 229.333C343.533 232.507 343.44 235.693 343.48 238.893C342.88 236.4 341.733 234.613 340.147 232.667L341.427 232.053C342.187 228.787 340.64 225.56 342.427 222.533C342.653 221.333 343.653 220.907 345.413 221.227Z" fill="black"/>
<path d="M377.467 221.48C381.893 221.573 386.213 221.36 390.6 220.707C391.24 226.36 390.533 231.973 391.613 237.627C392.28 242.507 393.8 247.693 393.467 252.547C392.213 251.28 391.373 249.707 390.213 248.373C387.947 247.293 384.373 247.24 383.227 249.907C381.813 251.707 383.76 256.547 381.733 257.36C381.133 252.6 378.68 248.48 378.147 243.747C377.32 236.227 377.507 229.027 377.467 221.48Z" fill="#5D8C41"/>
<path d="M375.707 222.707C375.453 231.573 376.133 240.493 376.693 249.347C376.613 250.88 376.853 254.027 375.013 254.613C374.733 250.227 373.68 247.067 371.28 243.4C368.8 243.187 366.387 243.573 363.973 244.16C361.667 237.547 362.88 231.173 364.547 224.6C367.867 223.067 372.093 223.107 375.707 222.707Z" fill="#5C8C40"/>
<path d="M441.147 222.587C441.2 224.107 441.64 225.227 442.467 225.973C445.333 226.013 448.467 225.493 451.267 226.013C451.92 227.013 452.387 228.173 452.667 229.467C452.44 230.707 452.2 231.947 451.947 233.173L453.227 233.627C453.067 234.72 452.867 235.827 452.653 236.92C449.573 237.787 446.653 235.693 443.627 236C443.707 237.667 443.547 239.213 443.12 240.627C440.253 240.893 437.387 240.827 434.52 241.147C433.68 240.88 432.84 240.587 432.013 240.267C432.013 238.373 431.973 236.48 431.907 234.6C429.053 233.773 430.84 239.627 429.72 241.427C429.573 239.147 429.08 236.92 428.973 234.64L429.707 233.187L430.8 231.16C430.253 228.773 429.013 226.36 428.973 223.907C433.267 223.893 437.173 224.667 441.147 222.587Z" fill="black"/>
<path d="M431.88 225.613C435.8 225.813 438.84 224.32 441.373 228.133C441.587 228.853 441.8 229.573 442 230.307C441.32 232.707 440.973 235.16 440.4 237.587C438.92 240.28 434.507 239.987 433.333 237.08C431.96 233.96 430.453 228.787 431.88 225.613Z" fill="#657DEF"/>
<path d="M356.067 226.613C358.067 225.96 358.893 226.44 358.533 228.053C358.72 232.773 357.427 236.947 357.347 241.587C354.893 242.107 353.64 241.68 353.573 240.293C354.467 238.773 354.693 237.453 354.267 236.347C351.573 234.933 348.827 236.493 346.173 235.293L346.507 231.8C349.28 231.013 352.827 232.52 355.76 232.747C355.973 230.707 355.707 228.653 356.067 226.613Z" fill="#9FA5A9"/>
<path d="M441.373 228.133C444.413 227.973 447.48 227.92 450.52 228.04C450.667 230.373 450.733 232.707 450.853 235.04C449.027 235.067 447.2 234.92 445.36 234.6C442.973 234.72 442.853 231.893 442 230.307C441.8 229.573 441.587 228.853 441.373 228.133Z" fill="#A5A8B0"/>
<path d="M343.973 229.333L345.68 230.76C345.68 234.547 345.44 238.32 345.453 242.12C344.28 242.307 343.627 241.227 343.48 238.893C343.44 235.693 343.533 232.507 343.973 229.333Z" fill="#B2B3BB"/>
<path d="M452.667 229.467C464.44 228.587 475.893 230.68 487.653 229.907C487.707 230.787 487.72 231.68 487.707 232.56C484.84 232.453 481.987 232.427 479.12 232.693C470.587 233.44 461.667 232.2 453.227 233.627L451.947 233.173C452.2 231.947 452.44 230.707 452.667 229.467Z" fill="black"/>
<path d="M105.8 232.427C109.333 232.187 112.493 233.84 115.947 234.76C119.8 235.96 123.76 236.387 127.547 237.84C137.347 242.04 147.96 244.413 158.227 247.187C172.467 249.707 186.867 252.573 201.333 253.213C230.413 254.373 260.08 254.667 288.707 249.08L290.12 250.92L289.773 252.053L287.707 252.32C267.453 255.533 247.173 256.92 226.667 256.68C204.413 256.987 181.84 254.547 159.973 250.493C149.56 248.027 139.2 245.133 129.093 241.613C121.507 238.253 113.147 237.893 105.827 234.28L105.8 232.427Z" fill="black"/>
<path d="M337.4 233.227C341.667 233.747 341.027 241 343.24 244.067C338.8 243.72 340.307 235.6 336.44 236.4C334.853 243.653 336.533 251.48 341.987 256.693C343.267 258.173 344.8 258.613 344.293 260.853C341.64 259.507 339.453 257.84 338.2 255.067C336.733 251.933 333.6 248.88 333.76 245.373C334.173 240.68 331.813 235.373 337.4 233.227Z" fill="#738C6F"/>
<path d="M336.44 236.4C340.307 235.6 338.8 243.72 343.24 244.067C344.2 244.853 345.24 245.467 346.36 245.88C345.987 250.76 350.293 251.493 353.947 253.013C354.96 253.773 356.44 254.587 356.933 255.8C355.533 257.813 355.2 261.04 357.12 262.84L357.507 263.373L354.4 264.533C350.747 264.093 347.4 262.773 344.293 260.853C344.8 258.613 343.267 258.173 341.987 256.693C336.533 251.48 334.853 243.653 336.44 236.4Z" fill="#5F8A42"/>
<path d="M346.453 237.12C348.547 236.947 350.6 236.987 352.627 237.253C352.787 238.733 352.693 240.32 352.373 242C353.88 242.293 355.427 242.453 356.987 242.48C357.373 245.893 356.947 249.36 357.187 252.8L356.107 252.653C354.387 249.92 351.467 249.413 349.253 247.187C348.547 247.88 347.84 248.56 347.133 249.24C349.507 250.253 351.76 251.64 353.947 253.013C350.293 251.493 345.987 250.76 346.36 245.88C346.28 242.973 346.32 240.04 346.453 237.12Z" fill="#0075FF"/>
<path d="M419.68 240.533C424.28 243.573 424.28 247.747 423.973 252.773C420.987 252.507 417.92 252.307 415.013 251.56C413.013 248.96 414.627 244.133 416.293 241.64C417.4 241.2 418.533 240.827 419.68 240.533Z" fill="#5F8843"/>
<path d="M403.88 241.213C405.573 244.427 408.52 249.667 408.133 253.32C405.907 253.053 402.467 253.987 400.627 252.72C398.813 250.253 399.813 245.76 400.027 242.853C401.107 241.64 402.4 241.093 403.88 241.213Z" fill="#5F8A42"/>
<path d="M370.387 245.48C373.04 249.133 373.6 253.32 373.493 257.733C370.547 258.693 362.547 258.32 364 253.387C364.253 251.373 363.28 247.787 365.067 246.413C366.173 244.84 368.733 245.293 370.387 245.48Z" fill="#5F8846"/>
<path d="M429.507 245.213L430.653 244.88C430.747 248.08 430.733 251.293 430.627 254.493C427.293 261.827 424.96 269.307 424.173 277.36C423.813 282.133 422.187 288.04 418.587 291.36C415.747 289.28 412.533 289.293 409.307 288.173C396.453 287.6 382.507 288.453 369.747 287.76C367.08 281.88 364.053 275.627 362.387 269.44C360.453 267.24 359.693 265.627 359.213 262.693L361 261.587C362.2 264.387 364.04 266.773 365.4 269.467C367.187 274.84 368.28 280.773 371.467 285.867C380.933 286.44 390.507 286.013 400 286.133C405.6 285.947 411.253 286.573 416.813 286.093C418.507 284.067 419.067 281.013 420.067 278.587C422.333 272.973 421.68 267.227 424.547 261.867C425.013 260.387 426.573 258.973 425.347 257.493C424.16 256.307 422.827 255.24 421.533 254.187C423.173 254.52 424.813 254.693 426.44 254.693C427.493 252.893 428.4 251.04 428.933 249.013C429.173 247.76 429.36 246.493 429.507 245.213Z" fill="#5D814F"/>
<path d="M385.64 249.533C387.813 249.107 389.04 249.08 390.107 251.24C391.693 253.947 392.16 256.773 392.747 259.8C390.573 263.187 386.027 263.88 384.013 259.933C384.293 256.053 382.987 252.587 385.64 249.533Z" fill="#5F8846"/>
<path d="M395.667 250.387C397.48 252 398.893 253.773 400.907 255.173C405.267 255.867 408.613 254.867 412.093 252.213C415.267 253.253 418.227 253.813 421.533 254.187C422.827 255.24 424.16 256.307 425.347 257.493C426.573 258.973 425.013 260.387 424.547 261.867C421.68 267.227 422.333 272.973 420.067 278.587C419.067 281.013 418.507 284.067 416.813 286.093C411.253 286.573 405.6 285.947 400 286.133C390.507 286.013 380.933 286.44 371.467 285.867C368.28 280.773 367.187 274.84 365.4 269.467C364.04 266.773 362.2 264.387 361 261.587L359.213 262.693C358.867 260.84 358.947 259.013 359.56 257.227C359.773 258.573 360.347 259.427 361.267 259.813C362.693 259.92 361.587 256.48 361.707 255.72C364.16 260.173 370.747 260.6 375.053 259.187C376.373 257.333 377.267 255.24 378.627 253.427C380.627 257.44 381.467 261.293 385.493 263.88C389.4 264.627 392.8 263.6 395.04 260.28C395.76 257.08 395.067 253.64 395.667 250.387Z" fill="#5B8D3F"/>
<path d="M360.2 254.787L361.707 255.72C361.587 256.48 362.693 259.92 361.267 259.813C360.347 259.427 359.773 258.573 359.56 257.227L360.2 254.787Z" fill="#79916C"/>
<path d="M356.933 255.8C357.733 257.6 357.867 260.987 357.12 262.84C355.2 261.04 355.533 257.813 356.933 255.8Z" fill="#81A174"/>
<path d="M354.4 264.533L357.507 263.373C358.547 264.4 358.92 265.493 358.64 266.653C357.347 267.413 355.4 265.333 354.4 264.533Z" fill="#829386"/>
<path d="M8.41333 271C13.6 271.173 18.76 271.12 23.96 271.453C27.6267 271.093 30.7333 272.56 34.3333 271.467C34.4133 272.947 34.4933 274.413 34.56 275.893L34.3333 277.88C33.4 275.053 32.8133 273.04 29.3467 273.08C25.68 271.827 22.44 273.173 18.84 272.627C18.92 274.133 18.9067 275.64 18.8267 277.133C19.8533 276.933 20.8933 276.773 21.92 276.627C21.4 283.133 21.84 289.787 21.6933 296.333C21.8 300.613 21.2667 305.84 22.9067 309.853C22.8133 312.253 23.04 314.027 23.7733 316.32C23.8533 319.547 23.2267 323.387 24.64 326.347C27.9733 334.133 28.9867 341.787 30.8 349.893C31.6133 348.853 32.4267 347.8 33.2267 346.733C35.92 346.467 38.7333 346.68 41.44 346.667C45.9867 349.333 48.08 355.333 48.8267 360.267C50.1067 362.68 49.44 365.787 49.6 368.493C46.9733 370.92 43.4667 370.16 40.6933 373.053C38.5333 373.64 36.5067 374.907 34.4 375.387C27.6267 375.32 20.8 375.627 14.04 375.253C10.9867 373.427 9.62667 370.173 6.45333 368.587C2.68 365.2 4.90667 359 4 354.2C6.28 357.293 2.76 365.16 7.05333 367.92C10.0133 369.973 11.2533 372.84 14.4133 374.627C21.16 374.973 28.0133 374.707 34.7733 374.707C39.52 372.987 43.8533 369.987 48.7467 368.747C49.4 362.2 47.64 356.227 44.7867 350.4C43.72 349.387 42.6133 348.427 41.4533 347.533C39.0133 347.427 36.5733 347.427 34.1333 347.387C32.12 348.867 31.2933 350.213 30.4933 352.493L29.7867 349.187C25.4667 348.56 20.8533 348.893 16.48 348.92C16.4267 350.507 16.3733 352.093 16.32 353.667C15.4933 352.96 15.2 351.72 15.44 349.933C11.1867 349.813 8.21333 351.667 4.65333 353.44C7.69333 350.053 11.3333 349.893 15.5467 349.147C13.4267 343.96 14.3733 338.013 11.1867 333.52C11.5467 325.613 10.4133 318.827 9.13333 311.093C9 299.08 9.28 286.947 8.92 274.96C8.74667 273.653 8.57333 272.32 8.41333 271Z" fill="black"/>
<path d="M18.2133 273.1C21.8133 273.647 25.0533 272.3 28.72 273.553C32.1867 273.513 32.7733 275.527 33.7067 278.353C36.5867 282.18 37.7333 286.74 40 290.9L40.24 293.26C41.3067 294.007 41.8533 293.793 43 293.38L42.4133 291.073L43.7467 292.007C43.4 294.42 44.7333 296.033 45.6267 298.1C44.4133 297.207 43.5867 295.9 43.1333 294.18C42.5067 294.94 41.56 295.647 41.1733 296.553C43.9867 302.673 47.28 308.033 48.5467 314.793C49.8 317.287 49.8667 321.06 52.4533 322.327C54.3867 327.1 55.72 332.633 57.4933 337.447C60.2133 340.807 62.44 344.273 63.48 348.567C67.16 355.487 67.76 366.02 73.48 371.447C73.3867 377.74 77.3067 384.233 79.5733 389.913C80.7867 392.927 82.8933 395.5 84.2533 398.407C84.8 403.58 87.24 407.593 86.8667 412.807C87.0667 416.873 86.9867 420.873 87.9067 424.807C88.0933 432.22 87.96 439.7 88 447.127C89.28 447.167 89.8267 447.247 90.5467 446.007C90.1467 442.873 90.3467 439.673 90.5333 436.54C90.5733 440.193 90.9333 443.86 90.68 447.5C92.4 449.393 91.92 452.847 92.2667 455.26C91.8133 454.127 92.0133 450.353 90.2133 450.66C89.6533 451.207 89.28 451.913 89.0933 452.793C90.3333 457.02 92.0533 461.473 92.12 465.913C92.4267 471.247 95.9067 475.153 95.1333 480.82C95.7467 485.687 95.7867 490.567 96.36 495.46C99.56 504.847 100.667 514.927 101.933 524.78C102.667 527.46 103.36 529.98 103.093 532.807H2V273.033C3.98667 273.06 5.97333 273.1 7.97333 273.14L8.29333 275.433C8.65333 287.42 8.37333 299.553 8.50667 311.567C9.78667 319.3 10.92 326.087 10.56 333.993C13.7467 338.487 12.8 344.433 14.92 349.62C10.7067 350.367 7.06667 350.527 4.02667 353.913L3.37333 354.673C4.28 359.473 2.05333 365.673 5.82667 369.06C9 370.647 10.36 373.9 13.4133 375.727C20.1733 376.1 27 375.793 33.7733 375.86C35.88 375.38 37.9067 374.113 40.0667 373.527C42.84 370.633 46.3467 371.393 48.9733 368.967C48.8133 366.26 49.48 363.153 48.2 360.74C47.4533 355.807 45.36 349.807 40.8133 347.14C38.1067 347.153 35.2933 346.94 32.6 347.207C31.8 348.273 30.9867 349.327 30.1733 350.367C28.36 342.26 27.3467 334.607 24.0133 326.82C22.6 323.86 23.2267 320.02 23.1467 316.793C22.4133 314.5 22.1867 312.727 22.28 310.327C20.64 306.313 21.1733 301.087 21.0667 296.807C21.2133 290.26 20.7733 283.607 21.2933 277.1C20.2667 277.247 19.2267 277.407 18.2 277.607C18.28 276.113 18.2933 274.607 18.2133 273.1Z" fill="white"/>
<path d="M31.9332 276.893C34.4532 280.973 37.1332 285.133 38.6265 289.72C47.5465 291.627 56.3065 295.12 65.3599 296.627C92.3999 300.827 120.28 304.72 147.693 305.16C155.133 308.147 163.667 302.293 170.907 300.893C178.16 300.68 185.627 299.28 192.28 296.307C199.507 293.88 210.867 291.693 215.107 284.693C221.16 286.373 228.4 282.2 234.587 283.947C237.36 285.533 237.547 288.267 238.467 291.04C244.933 287.44 251.387 284.147 257.053 279.36L258.827 280.053C254.16 284.067 248.893 287.173 243.587 290.213C242.12 291.067 240.613 291.493 239.067 291.453C239.467 294.667 241.907 296.893 242.24 300.08C244.347 305.467 243.987 310.4 246.293 315.787C245.24 318.187 244.533 318.613 244.84 321.653C247.427 325.253 244.8 330.267 245.613 334.68C245.547 337.307 248.427 342 243.453 341.147C243.347 339.107 243.84 336.84 243.227 334.893C243.427 321.707 244.52 309.227 239.24 296.68C236.88 293.053 237.667 288.867 234.187 285.907C228.24 285.067 223.467 286.24 217.867 287.68C216.987 290.573 217.667 291.627 218.96 294.147C221.907 294.027 221.827 299.307 219.227 299.547C218.88 304.067 219.787 308.907 218.48 313.253C219.093 318.427 216.72 322.987 213.76 327.08C212.373 328.067 211.36 329.307 210.707 330.827C211.933 332.467 214.053 333.053 214.347 335.027C213.347 334.64 212.413 334.16 211.52 333.587C210.88 333.8 210.253 334.013 209.627 334.24C209.333 333.293 208.973 332.387 208.547 331.507C205.813 329.707 202.733 328.347 200.133 326.373C198.213 325.427 196.413 325.213 195.2 323.24C193.8 322.8 192.4 322.76 190.947 322.76C188.773 322.773 186.613 322.867 184.427 322.813C183.16 328.813 182.707 334.387 183.08 340.52C183.56 340.827 184.04 341.12 184.52 341.427C180.347 342.32 177.36 347.28 174.133 349.907C171.067 351.867 170.307 356.253 168.4 359.347L167.6 359.227C169.467 356.12 169.973 352.747 172.8 350.173C176.16 347.413 178.693 343.92 182.267 341.36C182.707 335.027 182.6 328.72 183.667 322.36C187.173 321.72 191.053 322.733 194.373 321.493C198.187 323.8 200.013 319.707 200.8 316.627C202.507 313.747 204.453 311.427 205.427 308.133C208.507 303.64 211.48 296.013 212.853 290.893C208.76 292.093 205.053 295.053 200.56 295.813C194.76 297.213 189.547 300.16 183.68 301.013C177.44 302.533 170.307 302.667 164.24 305.253C157.613 307.76 151.773 308.92 144.653 308.653C144.507 311.413 144.32 314.16 144.253 316.933C142.747 317.547 142.347 315.76 141.92 314.693C142.427 312.36 142.6 310.053 142.427 307.76L142.347 307.053C121.747 305.68 101.84 304.08 81.3465 300.827C67.7599 299.467 54.8265 296.133 41.7465 292.533L40.4132 291.6L40.9999 293.907C39.8532 294.32 39.3065 294.533 38.2399 293.787L37.9999 291.427C35.7332 287.267 34.5865 282.707 31.7065 278.88L31.9332 276.893Z" fill="#060606"/>
<path d="M234.187 285.907C237.667 288.867 236.88 293.053 239.24 296.68C244.52 309.227 243.427 321.707 243.227 334.893C242.92 338.827 242.44 342.373 244.28 346.04C245.48 346.227 246.693 346.4 247.907 346.547C250.2 353.827 255.133 359.48 257.107 366.88C259.307 372.747 262.173 377.507 262.387 384.04C263.533 391.893 262.093 399.2 264.627 406.947C265.493 415.627 264.093 424.28 267.027 433.12C265.72 434.533 264.413 435.947 263.04 437.293C263.133 435.907 263.24 434.507 263.333 433.12C261.653 434.533 260.147 436.453 258.173 437.44C258.08 436.613 257.973 435.773 257.867 434.947C254.773 434.36 252.28 435.48 250.267 432.44C252.413 432.44 254.107 431.333 256.333 431.373C260.4 425.733 259.48 419.08 257.68 413.053C254.893 408.32 252.293 402.867 251.973 397.32C250.64 392.147 251.533 387.48 248.693 382.72C248.56 376.653 246.867 371.24 244.827 365.6C242.213 360.96 239.053 355.947 236.613 351.213C233.867 348.76 231.853 344.973 229.973 341.8C229.493 341.08 228.947 340.413 228.347 339.8C227.307 338.333 226.413 337.267 224.747 336.52C221.773 334.813 217.307 336.627 214.347 335.027C214.053 333.053 211.933 332.467 210.707 330.827C211.36 329.307 212.373 328.067 213.76 327.08C216.72 322.987 219.093 318.427 218.48 313.253C219.787 308.907 218.88 304.067 219.227 299.547C221.827 299.307 221.907 294.027 218.96 294.147C217.667 291.627 216.987 290.573 217.867 287.68C223.467 286.24 228.24 285.067 234.187 285.907Z" fill="#FDFDFD"/>
<path d="M409.147 289.987C411.24 290.467 413.227 291.12 415.4 291.307L415.467 295.347L413.507 295.813C413.067 301.253 413.4 306.56 413.373 312C413.493 318.48 412.84 324.387 413.933 330.853C415.413 338.16 415.64 344.68 414.24 352.027C413.907 359.587 413.307 367.053 412.453 374.573C410.4 384.507 410.147 395.293 406.04 404.693C404.84 407.773 403.053 410.56 401.787 413.627C397.147 421.24 394.027 429.187 388.133 436.08C385.08 441.48 379.48 445.4 375.32 450C370.48 452.773 367.387 456.613 361.427 457.48C356.68 455.64 351.693 454.147 346.653 453.347C340.773 452.4 335.28 450.293 329.293 449.827C319.813 447.28 310.533 443.64 301.52 439.773C297.107 438.387 293.293 435.227 288.667 434.12C282.293 432 276.747 428.733 269.88 428.413C269.853 424.867 268.293 422.173 269.32 418.64C268.4 411.907 266.827 405.48 267.467 398.6C266.907 394.693 266.387 390.867 266.067 386.907C263.973 380.467 263.107 374.013 259.72 368.027C257.56 360 252.96 353.68 249.48 345.907C252.267 345.013 254.453 346.227 257.053 347.013C264.307 350.28 271.28 354.053 278.427 357.547C289.587 363.413 299.96 370.72 310.707 377.28C313.987 380.027 317.507 382.093 321.267 384.093C325.8 387.92 331.507 390.387 335.44 394.8C335.653 395.88 335.907 396.933 336.24 397.973C339.32 397.72 340.16 401.24 342.227 403.133C346.693 409.707 350.84 415.787 356.293 421.667L358.653 421.347C353.093 415.067 348.307 408.587 343.707 401.56C341.973 399.067 338.787 396.533 338.147 393.48C338.08 381.893 337.96 370.72 340.213 359.307C341.16 350.973 343.92 343.013 344.613 334.68C346.053 325.72 349.827 316.893 355.053 309.573C354.533 306.507 356.907 305.733 357.867 303.173C359.08 300.4 362.12 298.2 364.333 296.227C365.733 294.307 366.827 292.2 368.28 290.307C381.84 289.64 395.547 290.133 409.147 289.987Z" fill="white"/>
<path d="M212.853 290.893C211.48 296.013 208.507 303.64 205.427 308.133C204.453 311.427 202.507 313.747 200.8 316.627C200.013 319.707 198.187 323.8 194.373 321.493C191.053 322.733 187.173 321.72 183.667 322.36C182.6 328.72 182.707 335.027 182.267 341.36C178.693 343.92 176.16 347.413 172.8 350.173C169.973 352.747 169.467 356.12 167.6 359.227C167.333 359.6 167.08 359.973 166.84 360.36C166.067 364.6 164.453 368.493 163.2 372.573C161.413 379.2 161.373 386.68 160.013 393.347C159.813 399.573 160 405.827 159.933 412.053C160.427 415.547 162.467 419.12 162.587 422.72C162.613 425.627 164.307 428.48 165.347 431.187C164.947 431.813 164.573 432.44 164.213 433.08L166.48 433.28C165.8 436.613 166.72 437.68 167.427 440.68C168.853 442.413 168.427 444.333 170.84 444.907C178.507 445 186.32 445.467 193.933 444.52C195.787 442.973 198.307 442.507 200.427 441.347C200.453 439.933 200.48 438.507 200.493 437.08C197.893 434.053 195.107 431.52 193.773 427.667C191.32 427.147 189.827 428.84 187.787 429.84C185.64 430.4 183.667 430.4 181.493 430.147C180.8 429.093 180.12 428.027 179.4 426.987C178 423.92 177.307 421.12 177.28 417.747L176.773 417.2C176.04 412.747 173.947 408.44 174.187 404C174.2 394.187 174.227 384.36 174.253 374.533C177.16 369.44 180.613 365.28 184.893 361.293C186.507 361.187 187.987 361.013 189.493 360.36C195.427 360.013 201.013 359.427 206.587 356.987C209.76 356.387 213.027 356.56 216.16 357.387C217.84 364.16 221.773 370.293 223.04 377.147C224.093 380.253 225.16 383.36 226.147 386.493C226.707 393.56 232.16 401.04 231.52 408.347C232.147 410.053 233.493 414.667 231.347 415.6C231.76 417.827 231.6 420.147 231.64 422.413C228.387 422.56 225.147 422.347 221.893 422.387C222.253 426.013 221.28 430.08 222.533 433.52L223.853 434.147C230.133 434.293 236.613 434.6 242.867 433.84L243.96 432.96C246.04 432.68 248.16 432.453 250.267 432.44C252.28 435.48 254.773 434.36 257.867 434.947C257.973 435.773 258.08 436.613 258.173 437.44C260.147 436.453 261.653 434.533 263.333 433.12C263.24 434.507 263.133 435.907 263.04 437.293C264.413 435.947 265.72 434.533 267.027 433.12C268.84 439.973 269.027 447.133 271.093 453.973C272.627 463.12 272.667 471.92 272.493 481.187C272.88 482.04 273.347 482.853 273.907 483.64C273.6 500.36 273.907 516.813 276.627 533.333H160.28C158.027 530.907 158.8 527.013 156.72 525.187C156.48 520.093 155.36 515.787 155.72 510.64C154.853 507.533 156.093 502.987 152.773 501.547C151.547 491.587 149.293 482.107 149.707 471.8L148.933 470.72C148.52 461.653 149.613 452.347 148.64 443.28C146.867 441.373 147.64 439.32 147.013 437.013C146.48 435.373 145.987 433.733 145.787 432C145.76 421.76 145.573 411.52 145.573 401.28C144.72 399.267 145.053 396.853 144.987 394.667C144.773 371.04 144.293 347.427 144.387 323.8C142 321.853 145.787 321.387 142.053 319.787C141.493 318.867 140.907 317.947 140.267 317.067C137.227 316.813 134.187 316.787 131.133 316.707L130.227 316.653C134.347 316.213 138.307 316.907 142.413 316.92L141.56 314.973C141.36 312.453 141.907 310.187 142.427 307.76C142.6 310.053 142.427 312.36 141.92 314.693C142.347 315.76 142.747 317.547 144.253 316.933C144.32 314.16 144.507 311.413 144.653 308.653C151.773 308.92 157.613 307.76 164.24 305.253C170.307 302.667 177.44 302.533 183.68 301.013C189.547 300.16 194.76 297.213 200.56 295.813C205.053 295.053 208.76 292.093 212.853 290.893Z" fill="white"/>
<path d="M41.7467 292.533C54.8267 296.133 67.76 299.467 81.3467 300.827C101.84 304.08 121.747 305.68 142.347 307.053L142.427 307.76C141.907 310.187 141.36 312.453 141.56 314.973C131.04 312.173 122.653 313.573 112 313.133C108.2 312.853 104.4 312.773 100.587 312.733C91.08 311.027 81.7333 310.96 72.5467 307.467C63.2 304.68 52.4933 303.013 43.6267 298.627C42.7333 296.56 41.4 294.947 41.7467 292.533Z" fill="#5F8C4C"/>
<path d="M41.1333 294.707C41.5867 296.427 42.4133 297.733 43.6267 298.627C52.4933 303.013 63.2 304.68 72.5467 307.467C81.7333 310.96 91.08 311.027 100.587 312.733C103.24 316.973 108.533 315.293 112.613 315.72C118.587 317.507 124.12 316.6 130.227 316.653L131.133 316.707L128.16 317.933C122.32 318.093 116.427 318.213 110.613 317.667C107.493 316.8 104.52 316.613 101.32 316.56C95.4533 315.693 89.92 313.853 83.9333 313.88C78.0533 312.467 72.32 310.173 66.4133 308.853C60.6133 308.013 55.0933 305.48 49.3467 304.547C47.8267 304.227 46.7867 304.467 46.2267 305.24C48.3333 311.147 50.5333 317.173 53.6267 322.653C55.3733 328.387 56.0133 334.027 59.68 338.973C63.52 343.84 63.9333 349.573 66.6133 354.96C67.3333 356.32 67.44 358 67.72 359.507C68.0533 361.933 69.2533 369.853 72.9467 368.973C76.5733 372.08 74.56 375.307 75.5733 379.347C78.28 385.653 80.9733 392.107 84.56 397.973C86.1467 401.253 85.4933 404.733 87.2 407.96C87.4667 412.64 86.4133 416.827 88.5067 421.293C88.6 426.547 88.5333 431.813 88.5333 437.067C88.3467 440.2 88.1467 443.4 88.5467 446.533C87.8267 447.773 87.28 447.693 86 447.653C85.96 440.227 86.0933 432.747 85.9067 425.333C84.9867 421.4 85.0667 417.4 84.8667 413.333C85.24 408.12 82.8 404.107 82.2533 398.933C80.8933 396.027 78.7867 393.453 77.5733 390.44C75.3067 384.76 71.3867 378.267 71.48 371.973C65.76 366.547 65.16 356.013 61.48 349.093C60.44 344.8 58.2133 341.333 55.4933 337.973C53.72 333.16 52.3867 327.627 50.4533 322.853C47.8667 321.587 47.8 317.813 46.5467 315.32C45.28 308.56 41.9867 303.2 39.1733 297.08C39.56 296.173 40.5067 295.467 41.1333 294.707Z" fill="black"/>
<path d="M413.507 295.813C414.813 295.68 416.133 295.52 417.453 295.36C417.92 299.373 416.827 302.813 415.747 306.587C415.68 313.64 415.587 320.733 415.813 327.773C415.2 328.8 414.573 329.827 413.933 330.853C412.84 324.387 413.493 318.48 413.373 312C413.4 306.56 413.067 301.253 413.507 295.813Z" fill="black"/>
<path d="M49.3466 304.547C55.0932 305.48 60.6132 308.013 66.4132 308.853C72.3199 310.173 78.0532 312.467 83.9332 313.88C89.9199 313.853 95.4532 315.693 101.32 316.56C104.52 316.613 107.493 316.8 110.613 317.667C116.427 318.213 122.32 318.093 128.16 317.933L131.133 316.707C134.187 316.787 137.227 316.813 140.267 317.067C140.907 317.947 141.493 318.867 142.053 319.787C142.04 330.973 142.307 342.147 142.28 353.333C142.227 354.667 142.533 355.96 143.173 357.24C143.2 370.6 143.4 383.987 143.613 397.347C142.947 407.08 143.573 416.907 143.387 426.667C143.133 430.907 144.013 434.547 142.187 438.533C142.427 441.893 141.72 444.88 143.093 447.933C143.733 457.373 143.213 466.707 143.427 476.16C143.347 478.64 143.107 480.373 144.52 482.56C144.227 487.413 145.56 491.413 147.067 495.893C147.667 499.853 151.2 503.253 152.32 506.933C152.653 515.733 152.28 524.533 152.853 533.333H103.24C103.32 529.293 103.493 525.347 103.08 521.32C101.013 516.6 103.053 511.587 100.853 507.067C99.1999 503.48 99.3599 499.813 98.9599 495.973C97.3732 492.267 98.5732 488.4 96.9332 484.68C96.5999 476.987 92.4266 470.293 92.4399 462.653C91.3466 460.467 90.8932 458.133 90.2666 455.787C89.9199 453.373 90.3999 449.92 88.6799 448.027C88.9332 444.387 88.5732 440.72 88.5332 437.067C88.5332 431.813 88.5999 426.547 88.5066 421.293C86.4132 416.827 87.4666 412.64 87.1999 407.96C85.4932 404.733 86.1466 401.253 84.5599 397.973C80.9732 392.107 78.2799 385.653 75.5732 379.347C74.5599 375.307 76.5732 372.08 72.9466 368.973C71.5066 365.507 70.5866 362.147 67.7199 359.507C67.4399 358 67.3332 356.32 66.6132 354.96C63.9332 349.573 63.5199 343.84 59.6799 338.973C56.0132 334.027 55.3732 328.387 53.6266 322.653C50.5332 317.173 48.3332 311.147 46.2266 305.24C46.7866 304.467 47.8266 304.227 49.3466 304.547Z" fill="#0348FD"/>
<path d="M100.587 312.733C104.4 312.773 108.2 312.853 112 313.133C122.653 313.573 131.04 312.173 141.56 314.973L142.413 316.92C138.307 316.907 134.347 316.213 130.227 316.653C124.12 316.6 118.587 317.507 112.613 315.72C108.533 315.293 103.24 316.973 100.587 312.733Z" fill="#09212A"/>
<path d="M142.053 319.787C145.787 321.387 142 321.853 144.387 323.8C144.293 347.427 144.773 371.04 144.987 394.667C145.053 396.853 144.72 399.267 145.573 401.28C145.573 411.52 145.76 421.76 145.787 432C145.987 433.733 146.48 435.373 147.013 437.013C147.64 439.32 146.867 441.373 148.64 443.28C149.613 452.347 148.52 461.653 148.933 470.72C148.413 470.947 147.88 471.16 147.36 471.373C147.307 469.173 147.467 467 147.16 464.8L145.04 464.747C144.507 468.373 144.68 472.12 144.68 475.813L143.427 476.16C143.213 466.707 143.733 457.373 143.093 447.933C141.72 444.88 142.427 441.893 142.187 438.533C144.013 434.547 143.133 430.907 143.387 426.667C143.573 416.907 142.947 407.08 143.613 397.347C143.4 383.987 143.2 370.6 143.173 357.24C142.533 355.96 142.227 354.667 142.28 353.333C142.307 342.147 142.04 330.973 142.053 319.787Z" fill="#030514"/>
<path d="M190.947 322.76C192.4 322.76 193.8 322.8 195.2 323.24C196.413 325.213 198.213 325.427 200.133 326.373C202.733 328.347 205.813 329.707 208.547 331.507C208.973 332.387 209.333 333.293 209.627 334.24C210.253 334.013 210.88 333.8 211.52 333.587C212.413 334.16 213.347 334.64 214.347 335.027C217.307 336.627 221.773 334.813 224.747 336.52C226.413 337.267 227.307 338.333 228.347 339.8L226.987 340.053L226.853 341.213L228.027 341.067L228.347 339.8C228.947 340.413 229.493 341.08 229.973 341.8L229.907 343.253C232.027 346.587 234.307 349.787 236.827 352.84C240.187 359.56 244.76 365.133 246.467 372.613C248.4 376.4 247.107 380.12 248.493 383.947C250.48 389.867 250.387 396.747 252.267 402.733C253.187 404.653 253.8 406.64 254.4 408.667C255.12 411 257.333 412.92 257.507 415.36C249.227 415.347 240.947 415.24 232.68 415.427C233.133 406.787 231.293 398.413 227.44 390.653C226.84 384.333 223.827 378.88 222.893 372.653C220.76 368.16 217.973 362.693 217.653 357.747L216.16 357.387C213.027 356.56 209.76 356.387 206.587 356.987C209.64 356.213 213.013 356.307 216.16 356.107L216.227 354.667C213.48 354.68 210.72 354.64 207.973 354.693C205.347 355.48 202.747 357.107 200.04 357.4C194.973 358.333 189.947 357.44 184.947 358.707C184.533 360.68 186.04 361.24 189.493 360.36C187.987 361.013 186.507 361.187 184.893 361.293L182.947 359.84C179.107 364.12 175.173 368.627 172.253 373.587C171.453 383.147 172.133 393.04 171.933 402.667C171.587 407.707 173.08 412.347 175.053 416.907L176.773 417.2L177.28 417.747C174.2 419.293 177.147 425.213 177.533 427.813L179.4 426.987C180.12 428.027 180.8 429.093 181.493 430.147C177.787 430.04 174.067 430.4 170.347 430.24C169.133 431.2 167.013 431.76 166.48 433.28L164.213 433.08C164.573 432.44 164.947 431.813 165.347 431.187C167.04 429.4 165.507 427.48 165.36 425.307C164.72 420.227 162.453 415.613 161.347 410.693C161.333 405.773 161.307 400.867 161.36 395.96C163.64 385.613 164.213 373.84 167.96 363.84C168.28 362.707 167.907 361.547 166.84 360.36C167.08 359.973 167.333 359.6 167.6 359.227L168.4 359.347C170.307 356.253 171.067 351.867 174.133 349.907C177.36 347.28 180.347 342.32 184.52 341.427C184.04 341.12 183.56 340.827 183.08 340.52C182.707 334.387 183.16 328.813 184.427 322.813C186.613 322.867 188.773 322.773 190.947 322.76Z" fill="#B8B8B8"/>
<path d="M202.973 326.4L204.84 326.56L205.053 327.973L203.227 327.933L202.973 326.4Z" fill="#989898"/>
<path d="M205.84 327.693L207.587 328.013L207.747 329.52L206.067 329.28L205.84 327.693Z" fill="#9F9F9F"/>
<path d="M415.813 327.773C416.253 331.427 416.547 335.093 417.013 338.733C418.72 344.547 417.473 349.447 417.5 355.5C417 356 417.78 353.867 417.5 358C414.193 357.213 418.5 356.5 416.5 357.5C415.567 358.073 415.507 360.107 415.707 361.2C415.48 368.12 414.187 374.693 413.347 381.533C411.867 390.84 410.867 399.56 406.747 408.187C400.467 419.84 395.36 431.133 386.747 441.373C380.093 448.573 373.44 454.96 364.36 459.027C359.987 460.453 357.373 458.32 353.547 456.68C343.733 455.307 334.507 452.267 324.693 450.84C313.173 446.693 301.84 442.773 291 436.973C283.987 434.733 277.453 431.547 270.187 430.04C268.96 435.493 271.52 442.333 273.373 447.507C274.027 456.173 274.08 464.747 275.467 473.347C275.947 484.867 275.667 496.52 275.667 508.067C276.653 511.56 276.293 515.107 276.84 518.68C277.253 523.573 278.173 528.427 278.547 533.333H276.627C273.907 516.813 273.6 500.36 273.907 483.64C273.347 482.853 272.88 482.04 272.493 481.187C272.667 471.92 272.627 463.12 271.093 453.973C269.027 447.133 268.84 439.973 267.027 433.12C264.093 424.28 265.493 415.627 264.627 406.947C262.093 399.2 263.533 391.893 262.387 384.04C262.173 377.507 259.307 372.747 257.107 366.88C255.133 359.48 250.2 353.827 247.907 346.547C247.667 345.627 246.347 345.187 243.96 345.24C245.8 344.093 246.76 342.12 246.84 339.333C247.333 340.827 247.973 342.213 248.773 343.493C252.84 343.52 256.787 344.347 260.4 346.267C269.813 351.013 279.413 355.48 288.48 360.867C295.2 365.24 302.133 369.413 308.88 373.787C313.56 376.733 317.747 380.147 322.707 382.64C326.773 386.28 331.907 388.347 335.693 392.187C335.613 393.053 335.533 393.933 335.44 394.8C331.507 390.387 325.8 387.92 321.267 384.093C317.507 382.093 313.987 380.027 310.707 377.28C299.96 370.72 289.587 363.413 278.427 357.547C271.28 354.053 264.307 350.28 257.053 347.013C254.453 346.227 252.267 345.013 249.48 345.907C252.96 353.68 257.56 360 259.72 368.027C263.107 374.013 263.973 380.467 266.067 386.907C266.387 390.867 266.907 394.693 267.467 398.6C266.827 405.48 268.4 411.907 269.32 418.64C268.293 422.173 269.853 424.867 269.88 428.413C276.747 428.733 282.293 432 288.667 434.12C293.293 435.227 297.107 438.387 301.52 439.773C310.533 443.64 319.813 447.28 329.293 449.827C335.28 450.293 340.773 452.4 346.653 453.347C351.693 454.147 356.68 455.64 361.427 457.48C367.387 456.613 370.48 452.773 375.32 450C379.48 445.4 385.08 441.48 388.133 436.08C394.027 429.187 397.147 421.24 401.787 413.627C403.053 410.56 404.84 407.773 406.04 404.693C410.147 395.293 410.4 384.507 412.453 374.573C413.307 367.053 413.907 359.587 414.24 352.027C415.64 344.68 415.413 338.16 413.933 330.853C414.573 329.827 415.2 328.8 415.813 327.773Z" fill="black"/>
<path d="M226.987 340.053L228.347 339.8L228.027 341.067L226.853 341.213L226.987 340.053Z" fill="#565656"/>
<path d="M229.907 343.253L229.973 341.8C231.853 344.973 233.867 348.76 236.613 351.213C239.053 355.947 242.213 360.96 244.827 365.6C246.867 371.24 248.56 376.653 248.693 382.72C251.533 387.48 250.64 392.147 251.973 397.32C252.293 402.867 254.893 408.32 257.68 413.053C259.48 419.08 260.4 425.733 256.333 431.373C254.107 431.333 252.413 432.44 250.267 432.44C248.16 432.453 246.04 432.68 243.96 432.96L242.867 433.84C236.613 434.6 230.133 434.293 223.853 434.147L222.533 433.52C221.28 430.08 222.253 426.013 221.893 422.387C225.147 422.347 228.387 422.56 231.64 422.413C231.6 420.147 231.76 417.827 231.347 415.6C233.493 414.667 232.147 410.053 231.52 408.347C232.16 401.04 226.707 393.56 226.147 386.493C225.16 383.36 224.093 380.253 223.04 377.147C221.773 370.293 217.84 364.16 216.16 357.387L217.653 357.747C217.973 362.693 220.76 368.16 222.893 372.653C223.827 378.88 226.84 384.333 227.44 390.653C231.293 398.413 233.133 406.787 232.68 415.427C240.947 415.24 249.227 415.347 257.507 415.36C257.333 412.92 255.12 411 254.4 408.667C253.8 406.64 253.187 404.653 252.267 402.733C250.387 396.747 250.48 389.867 248.493 383.947C247.107 380.12 248.4 376.4 246.467 372.613C244.76 365.133 240.187 359.56 236.827 352.84C234.307 349.787 232.027 346.587 229.907 343.253Z" fill="#030303"/>
<path d="M34.1333 347.387C36.5733 347.427 39.0133 347.427 41.4533 347.533C42.6133 348.427 43.72 349.387 44.7867 350.4C47.64 356.227 49.4 362.2 48.7467 368.747C43.8533 369.987 39.52 372.987 34.7733 374.707C28.0133 374.707 21.16 374.973 14.4133 374.627C11.2533 372.84 10.0133 369.973 7.05333 367.92C2.76 365.16 6.28 357.293 4 354.2L4.65333 353.44C8.21333 351.667 11.1867 349.813 15.44 349.933C15.2 351.72 15.4933 352.96 16.32 353.667C16.3733 352.093 16.4267 350.507 16.48 348.92C20.8533 348.893 25.4667 348.56 29.7867 349.187L30.4933 352.493C31.2933 350.213 32.12 348.867 34.1333 347.387Z" fill="#B8B8B8"/>
<path d="M207.973 354.693C210.72 354.64 213.48 354.68 216.227 354.667L216.16 356.107C213.013 356.307 209.64 356.213 206.587 356.987C201.013 359.427 195.427 360.013 189.493 360.36C186.04 361.24 184.533 360.68 184.947 358.707C189.947 357.44 194.973 358.333 200.04 357.4C202.747 357.107 205.347 355.48 207.973 354.693Z" fill="#141414"/>
<path d="M67.72 359.507C70.5866 362.147 71.5066 365.507 72.9466 368.973C69.2533 369.853 68.0533 361.933 67.72 359.507Z" fill="#567BD3"/>
<path d="M182.947 359.84L184.893 361.293C180.613 365.28 177.16 369.44 174.253 374.533C174.227 384.36 174.2 394.187 174.187 404C173.947 408.44 176.04 412.747 176.773 417.2L175.053 416.907C173.08 412.347 171.587 407.707 171.933 402.667C172.133 393.04 171.453 383.147 172.253 373.587C175.173 368.627 179.107 364.12 182.947 359.84Z" fill="#3E3D3D"/>
<path d="M166.84 360.36C167.907 361.547 168.28 362.707 167.96 363.84C164.213 373.84 163.64 385.613 161.36 395.96C161.307 400.867 161.333 405.773 161.347 410.693C162.453 415.613 164.72 420.227 165.36 425.307C165.507 427.48 167.04 429.4 165.347 431.187C164.307 428.48 162.613 425.627 162.587 422.72C162.467 419.12 160.427 415.547 159.933 412.053C160 405.827 159.813 399.573 160.013 393.347C161.373 386.68 161.413 379.2 163.2 372.573C164.453 368.493 166.067 364.6 166.84 360.36Z" fill="#4B4949"/>
<path d="M177.28 417.747C177.307 421.12 178 423.92 179.4 426.987L177.533 427.813C177.147 425.213 174.2 419.293 177.28 417.747Z" fill="#767676"/>
<path d="M193.773 427.667C195.107 431.52 197.893 434.053 200.493 437.08C200.48 438.507 200.453 439.933 200.427 441.347C198.307 442.507 195.787 442.973 193.933 444.52C186.32 445.467 178.507 445 170.84 444.907C168.427 444.333 168.853 442.413 167.427 440.68C166.72 437.68 165.8 436.613 166.48 433.28C167.013 431.76 169.133 431.2 170.347 430.24C174.067 430.4 177.787 430.04 181.493 430.147C183.667 430.4 185.64 430.4 187.787 429.84C189.827 428.84 191.32 427.147 193.773 427.667Z" fill="#030303"/>
<path d="M88.2133 451.187C90.0133 450.88 89.8133 454.653 90.2666 455.787C90.8933 458.133 91.3466 460.467 92.4399 462.653C92.4266 470.293 96.5999 476.987 96.9333 484.68C98.5733 488.4 97.3733 492.267 98.9599 495.973C99.3599 499.813 99.1999 503.48 100.853 507.067C103.053 511.587 101.013 516.6 103.08 521.32C103.493 525.347 103.32 529.293 103.24 533.333H101.093C101.36 530.507 100.667 527.987 99.9333 525.307C98.6666 515.453 97.5599 505.373 94.3599 495.987C93.7866 491.093 93.7466 486.213 93.1333 481.347C93.9066 475.68 90.4266 471.773 90.1199 466.44C90.0533 462 88.3333 457.547 87.0933 453.32C87.2799 452.44 87.6533 451.733 88.2133 451.187Z" fill="#141C4C"/>
<path d="M145.04 464.747L147.16 464.8C147.467 467 147.307 469.173 147.36 471.373C147.88 471.16 148.413 470.947 148.933 470.72L149.707 471.8C149.293 482.107 151.547 491.587 152.773 501.547C150.787 499.267 148.333 496.44 147.72 493.413C147.173 487.36 144.453 482.053 144.68 475.813C144.68 472.12 144.507 468.373 145.04 464.747Z" fill="#2E325C"/>
<path d="M143.427 476.16L144.68 475.813C144.453 482.053 147.173 487.36 147.72 493.413C148.333 496.44 150.787 499.267 152.773 501.547C156.093 502.987 154.853 507.533 155.72 510.64C155.36 515.787 156.48 520.093 156.72 525.187C158.8 527.013 158.027 530.907 160.28 533.333H152.853C152.28 524.533 152.653 515.733 152.32 506.933C151.2 503.253 147.667 499.853 147.067 495.893C145.56 491.413 144.227 487.413 144.52 482.56C143.107 480.373 143.347 478.64 143.427 476.16Z" fill="#0A0F2C"/>
</g>
<defs>
<clipPath id="clip0_2_47">
<rect width="533.333" height="533.333" fill="white"/>
</clipPath>
</defs>
</svg>
