<svg width="65" height="65" viewBox="0 0 65 65" fill="none" xmlns="http://www.w3.org/2000/svg">
<circle cx="32.5" cy="32.5" r="32.5" fill="white"/>
<path d="M50.4993 42.2504L44.277 48.9306C44.1417 49.0768 43.9781 49.1938 43.7962 49.2745C43.6143 49.3552 43.4178 49.3979 43.2189 49.4H13.7226C13.5821 49.3992 13.4448 49.3573 13.3275 49.2796C13.2101 49.2019 13.1179 49.0917 13.0618 48.9624C13.0058 48.8331 12.9884 48.6903 13.0118 48.5513C13.0352 48.4123 13.0983 48.2832 13.1936 48.1795L19.4159 41.4899C19.5512 41.3438 19.7149 41.2267 19.8968 41.146C20.0787 41.0653 20.2751 41.0227 20.474 41.0204H49.9703C50.1127 41.0197 50.2522 41.061 50.3715 41.139C50.4906 41.2172 50.5843 41.3288 50.6407 41.46C50.697 41.5911 50.7138 41.7358 50.6886 41.8765C50.6635 42.0171 50.5976 42.1471 50.4993 42.2504ZM44.277 28.7773C44.1423 28.6306 43.9786 28.5131 43.7966 28.4323C43.6146 28.3515 43.4179 28.3092 43.2189 28.3079H13.7226C13.5821 28.3076 13.4444 28.3485 13.3267 28.4255C13.209 28.5026 13.1164 28.6126 13.0602 28.7417C13.0039 28.871 12.9866 29.0138 13.0103 29.1528C13.034 29.2917 13.0977 29.4207 13.1936 29.5237L19.4159 36.2228C19.5507 36.3695 19.7142 36.487 19.8963 36.5677C20.0783 36.6485 20.275 36.6909 20.474 36.6922H49.9703C50.1109 36.6925 50.2484 36.6516 50.3661 36.5746C50.4838 36.4974 50.5765 36.3875 50.6327 36.2583C50.689 36.1291 50.7063 35.9863 50.6826 35.8473C50.6588 35.7085 50.5952 35.5794 50.4993 35.4764L44.277 28.7773ZM13.7226 23.9702H43.2189C43.4178 23.9681 43.6143 23.9253 43.7962 23.8446C43.9781 23.7639 44.1417 23.6469 44.277 23.5008L50.4993 16.8206C50.5946 16.7169 50.6577 16.5877 50.6812 16.4487C50.7045 16.3097 50.6871 16.1669 50.631 16.0376C50.5751 15.9083 50.4828 15.7981 50.3654 15.7205C50.2481 15.6428 50.1109 15.6009 49.9703 15.6H20.474C20.2751 15.6021 20.0787 15.6449 19.8968 15.7256C19.7149 15.8063 19.5512 15.9233 19.4159 16.0695L13.1936 22.7497C13.0983 22.8533 13.0352 22.9825 13.0118 23.1215C12.9884 23.2605 13.0058 23.4033 13.0618 23.5326C13.1179 23.6619 13.2101 23.7721 13.3275 23.8498C13.4448 23.9274 13.5821 23.9693 13.7226 23.9702Z" fill="url(#paint0_linear_212_634)"/>
<defs>
<linearGradient id="paint0_linear_212_634" x1="16.1807" y1="50.2075" x2="47.2066" y2="15.3254" gradientUnits="userSpaceOnUse">
<stop offset="0.08" stop-color="#9945FF"/>
<stop offset="0.3" stop-color="#8752F3"/>
<stop offset="0.5" stop-color="#5497D5"/>
<stop offset="0.6" stop-color="#43B4CA"/>
<stop offset="0.72" stop-color="#28E0B9"/>
<stop offset="0.97" stop-color="#19FB9B"/>
</linearGradient>
</defs>
</svg>
